<svg width="31" height="31" viewBox="0 0 31 31" fill="none" xmlns="http://www.w3.org/2000/svg">
  <path fill-rule="evenodd" clip-rule="evenodd"
    d="M15.5 0.556641C7.25 0.556641 0.5 7.30664 0.5 15.5566C0.5 23.8066 7.25 30.5566 15.5 30.5566C23.75 30.5566 30.5 23.8066 30.5 15.5566C30.5 7.30664 23.75 0.556641 15.5 0.556641ZM19.475 9.70664C18.95 9.70664 18.5 9.70664 17.975 9.70664C17.3 9.70664 16.925 10.0816 16.85 10.6816C16.85 11.2066 16.85 11.7316 16.85 12.2566C16.85 12.4816 16.925 12.4066 17.075 12.4066C17.825 12.4066 18.575 12.4066 19.325 12.4066C19.55 12.4066 19.625 12.4816 19.625 12.7066C19.55 13.6066 19.475 14.4316 19.4 15.3316C19.4 15.5566 19.325 15.5566 19.1 15.5566C18.5 15.5566 17.9 15.5566 17.3 15.5566C16.85 15.5566 16.925 15.4816 16.925 15.9316C16.925 18.7066 16.925 21.4066 16.925 24.1816C16.925 24.4816 16.85 24.5566 16.55 24.5566C15.5 24.5566 14.525 24.5566 13.475 24.5566C13.175 24.5566 13.175 24.4816 13.175 24.1816C13.175 22.8316 13.175 21.4066 13.175 20.0566C13.175 18.6316 13.175 17.2816 13.175 15.8566C13.175 15.6316 13.1 15.5566 12.875 15.5566C12.425 15.5566 11.975 15.5566 11.525 15.5566C11.375 15.5566 11.3 15.4816 11.3 15.3316C11.3 14.4316 11.3 13.6066 11.3 12.7066C11.3 12.5566 11.375 12.4816 11.525 12.4816C11.975 12.4816 12.425 12.4816 12.875 12.4816C13.1 12.4816 13.175 12.4066 13.175 12.1816C13.175 11.5066 13.175 10.8316 13.175 10.1566C13.175 9.33164 13.4 8.58164 13.925 7.90664C14.525 7.08164 15.425 6.70664 16.4 6.63164C17.45 6.55664 18.5 6.63164 19.475 6.63164C19.625 6.63164 19.625 6.70664 19.625 6.85664C19.625 7.75664 19.625 8.65664 19.625 9.48164C19.7 9.63164 19.625 9.70664 19.475 9.70664Z"
    fill="black" />
</svg>
  