<svg width="31" height="31" viewBox="0 0 31 31" fill="none" xmlns="http://www.w3.org/2000/svg">
  <path
    d="M15.5 0.556641C7.25 0.556641 0.5 7.30664 0.5 15.5566C0.5 23.8066 7.25 30.5566 15.5 30.5566C23.75 30.5566 30.5 23.8066 30.5 15.5566C30.5 7.30664 23.75 0.556641 15.5 0.556641ZM23.225 18.7816C22.025 20.2816 16.775 23.8066 15.575 24.5566C15.05 24.8566 14.45 24.4816 14.45 23.8816V22.0816C11.525 21.9316 6.275 19.3816 6.275 14.2816C6.275 9.03164 11.525 6.48164 15.575 6.48164C19.925 6.48164 24.875 9.33164 24.875 14.2816C24.8 15.6316 24.425 17.2816 23.225 18.7816Z"
    fill="black" />
</svg>
  