<svg width="31" height="31" viewBox="0 0 31 31" fill="none" xmlns="http://www.w3.org/2000/svg">
  <path
    d="M15.5 0.556641C7.25 0.556641 0.5 7.30664 0.5 15.5566C0.5 23.8066 7.25 30.5566 15.5 30.5566C23.75 30.5566 30.5 23.8066 30.5 15.5566C30.5 7.30664 23.75 0.556641 15.5 0.556641ZM22.7 11.8816C22.7 12.0316 22.7 12.1816 22.7 12.3316C22.7 17.2066 18.95 22.9066 12.125 22.9066C10.025 22.9066 8.075 22.3066 6.425 21.2566C6.725 21.2566 7.025 21.3316 7.325 21.3316C9.05 21.3316 10.625 20.7316 11.9 19.7566C10.25 19.7566 8.9 18.6316 8.45 17.2066C8.675 17.2816 8.9 17.2816 9.125 17.2816C9.5 17.2816 9.8 17.2066 10.1 17.1316C8.375 16.7566 7.1 15.2566 7.1 13.5316C7.1 13.5316 7.1 13.5316 7.1 13.4566C7.625 13.7566 8.15 13.9066 8.75 13.9066C7.85 13.1566 7.25 12.0316 7.25 10.7566C7.25 10.0816 7.4 9.40664 7.775 8.88164C9.575 11.1316 12.35 12.6316 15.425 12.7816C15.35 12.4816 15.35 12.2566 15.35 11.9566C15.35 9.93164 17 8.28164 19.025 8.28164C20.075 8.28164 21.05 8.73164 21.725 9.48164C22.55 9.33164 23.375 9.03164 24.05 8.58164C23.75 9.48164 23.15 10.1566 22.4 10.6066C23.15 10.5316 23.9 10.3066 24.5 10.0066C24.05 10.6816 23.375 11.3566 22.7 11.8816Z"
    fill="black" />
</svg>
  