<svg width="410" height="135" viewBox="0 0 410 135" fill="none" xmlns="http://www.w3.org/2000/svg">
<path d="M294.232 131.352V115.731L299.348 114.569C300.51 114.444 300.761 114.051 300.761 112.781V62.8073C300.761 61.7885 300.51 61.3953 299.348 61.02L294.232 59.7509V44.2189H333.207V59.8582L328.074 61.1451C326.929 61.5204 326.66 61.9136 326.66 62.9324V112.853C326.66 113.997 326.929 114.265 327.948 114.64L333.207 116.052V131.423L294.232 131.352Z" fill="black"/>
<path d="M223.277 131.352L201.545 62.6107C201.469 62.3134 201.306 62.0455 201.076 61.8417C200.847 61.6378 200.561 61.5072 200.257 61.4668L193.478 60.3229V44.4692H237.335V60.3229L232.22 61.86C231.725 61.9251 231.271 62.1676 230.942 62.5425C230.613 62.9173 230.431 63.3989 230.431 63.8976C230.519 65.3292 230.777 66.7453 231.2 68.1157L240.537 104.917H241.163L250.464 68.1693C250.874 66.7955 251.132 65.3811 251.233 63.9512C251.203 63.4414 250.996 62.9582 250.646 62.5858C250.296 62.2134 249.827 61.9756 249.319 61.9136L244.329 60.3765V44.5228H287.042V60.2514L280.013 61.6455C279.695 61.7095 279.403 61.8658 279.174 62.0947C278.945 62.3236 278.789 62.6151 278.725 62.9324L257.637 131.406L223.277 131.352Z" fill="black"/>
<path d="M341.918 125.078C342.002 117.152 342.564 109.238 343.599 101.378H364.58L366.637 111.369C369.324 112.272 372.137 112.748 374.972 112.782C379.837 112.782 383.039 110.601 383.039 107.133C383.039 102.79 377.53 101.128 370.983 99.1977C357.908 95.2298 342.275 90.1001 342.275 69.8495C342.275 49.5989 355.601 42.9499 375.741 42.9499C388.566 42.9499 396.901 46.2744 405.862 50.5104C405.99 58.0066 405.524 65.5012 404.467 72.9237H383.468L382.448 64.0942C380.416 63.2397 378.232 62.802 376.027 62.8073C371.287 62.8073 368.211 63.9512 368.211 67.6689C368.211 72.03 374.113 74.6038 380.517 76.7665C393.037 80.8595 408.992 86.5075 408.992 105.096C408.992 123.684 397.187 132.764 374.882 132.764C363.458 132.693 352.194 130.067 341.918 125.078Z" fill="black"/>
<path d="M51.2805 44.4692V60.2872L57.5586 62.0745C60.1701 62.7716 60.1343 64.1121 58.7749 68.1694L46.6121 105.007H45.7357L36.3453 68.1694C35.29 64.2372 35.3079 62.5928 37.5616 62.0745L44.2332 60.2872V44.4692H0V60.2872L7.15458 61.6813C7.85216 61.86 8.01314 62.1996 8.192 62.8967L29.6558 131.352H60.5099L71.2418 94.9796L81.9737 131.298H112.917L134.381 62.8431C134.463 62.5439 134.622 62.2712 134.841 62.0518C135.061 61.8325 135.334 61.674 135.633 61.592L142.555 60.2336V44.4156H98.3577V60.2336L105.029 62.0209C107.301 62.5392 107.301 64.1836 106.246 68.1158L96.8552 104.953H95.9966L83.7623 68.1694C82.4208 64.1121 82.3672 62.8073 84.9786 62.0745L91.2567 60.2872V44.4692H51.2805Z" fill="black"/>
<path d="M162.785 92.1019H174.357V88.8132C174.357 85.2385 172.318 83.3439 168.634 83.3439C164.949 83.3439 162.785 85.2564 162.785 88.8132V92.1019ZM138.119 107.098V90.3324C138.119 74.9613 150.067 64.7913 168.133 64.7913C186.198 64.7913 198.128 74.9613 198.128 90.3324V104.631H162.785V108.063C162.785 111.745 167.113 114.158 171.728 114.158C176.343 114.158 180.886 112.12 181.637 108.957H198.039V121.468C191.439 129.225 181.387 132.657 170.959 132.657C151.355 132.639 138.119 122.469 138.119 107.098Z" fill="black"/>
<path d="M314.283 36.4619C321.889 36.4619 328.056 30.3002 328.056 22.6993C328.056 15.0985 321.889 8.93674 314.283 8.93674C306.677 8.93674 300.51 15.0985 300.51 22.6993C300.51 30.3002 306.677 36.4619 314.283 36.4619Z" fill="black"/>
</svg>
