<svg width="80" height="125" viewBox="0 0 80 125" fill="none" xmlns="http://www.w3.org/2000/svg">
<rect y="7.5" width="80" height="110" rx="3" fill="#FF9FDF"/>
<rect y="22.5" width="80" height="80" rx="40" fill="#FF9FDF"/>
<path fill-rule="evenodd" clip-rule="evenodd" d="M53.8431 43.9289L60.2071 50.2929C60.5976 50.6834 60.5976 51.3166 60.2071 51.7071L53.8431 58.0711C53.4526 58.4616 52.8195 58.4616 52.4289 58.0711C52.0384 57.6806 52.0384 57.0474 52.4289 56.6569L57.0858 52H20.5V50H57.0858L52.4289 45.3432C52.0384 44.9526 52.0384 44.3195 52.4289 43.9289C52.8195 43.5384 53.4526 43.5384 53.8431 43.9289Z" fill="white"/>
<path fill-rule="evenodd" clip-rule="evenodd" d="M19.7929 74.7071C19.4024 74.3166 19.4024 73.6834 19.7929 73.2929L26.1569 66.9289C26.5474 66.5384 27.1805 66.5384 27.5711 66.9289C27.9616 67.3195 27.9616 67.9526 27.5711 68.3432L22.9142 73H59.5V75H22.9142L27.5711 79.6569C27.9616 80.0474 27.9616 80.6806 27.5711 81.0711C27.1805 81.4616 26.5474 81.4616 26.1569 81.0711L19.7929 74.7071Z" fill="white"/>
</svg>
