<svg width="80" height="125" viewBox="0 0 80 125" fill="none" xmlns="http://www.w3.org/2000/svg">
<rect y="7.5" width="80" height="110" rx="3" fill="#BACB37"/>
<rect y="22.5" width="80" height="80" rx="40" fill="#BACB37"/>
<path fill-rule="evenodd" clip-rule="evenodd" d="M39.4779 81.2772L39.4788 81.2635L39.4796 81.251C39.4823 81.2114 39.4864 81.1525 39.4908 81.0785C39.5008 80.9133 39.5128 80.6733 39.5193 80.3696C39.5323 79.763 39.5236 78.9027 39.4336 77.8751C39.2542 75.8259 38.7488 73.0792 37.4222 70.3456C36.0904 67.6013 33.9314 64.8733 30.4685 62.8977C27.0106 60.9249 22.3225 59.7421 15.9933 59.9661L16.0287 60.9655C15.0314 60.8923 15.0313 60.8929 15.0313 60.8936L15.0311 60.8954L15.0308 60.9006L15.0296 60.9176L15.026 60.9773C15.0231 61.0283 15.0193 61.1015 15.0156 61.1953C15.008 61.3827 15.0006 61.6527 15 61.9923C14.9989 62.6711 15.0255 63.631 15.1355 64.7688C15.3547 67.0365 15.9088 70.0519 17.2655 72.9644C18.6264 75.8859 20.8088 78.7302 24.2841 80.5788C27.7593 82.4273 32.4201 83.2231 38.6337 82.2437C39.1163 82.1677 39.4681 81.7562 39.4779 81.2772ZM17.0002 61.9422C17.0001 61.9597 17.0001 61.9775 17 61.9955C16.999 62.6202 17.0235 63.5139 17.1262 64.5765C17.3324 66.7097 17.8499 69.4826 19.0784 72.1199C20.3027 74.7481 22.2191 77.215 25.2233 78.813C28.0893 80.3375 32.043 81.1231 37.5184 80.3857C37.5189 80.3663 37.5193 80.3466 37.5197 80.3266C37.5315 79.7792 37.5238 78.9926 37.4413 78.0496C37.2756 76.1574 36.8111 73.6672 35.6228 71.2188C34.4398 68.781 32.5392 66.3816 29.4775 64.6349C26.5715 62.977 22.5568 61.8714 17.0002 61.9422Z" fill="white"/>
<path fill-rule="evenodd" clip-rule="evenodd" d="M23.2729 68.9341C23.6066 68.494 24.2339 68.4078 24.674 68.7415L24.0698 69.5383C24.674 68.7415 24.6739 68.7414 24.674 68.7415L24.6925 68.7555L24.7435 68.7946C24.7882 68.8288 24.8541 68.8794 24.94 68.946C25.1119 69.079 25.3641 69.2757 25.6876 69.5319C26.3348 70.0443 27.2678 70.7952 28.4159 71.7524C30.7116 73.6665 33.8701 76.4081 37.3242 79.7205C37.7228 80.1028 37.736 80.7358 37.3538 81.1344C36.9715 81.5331 36.3385 81.5463 35.9399 81.164C32.5262 77.8903 29.4036 75.1799 27.1351 73.2885C26.0011 72.3431 25.0813 71.6029 24.4461 71.0999C24.1285 70.8484 23.8821 70.6562 23.7157 70.5275C23.6325 70.4631 23.5694 70.4145 23.5273 70.3823L23.4802 70.3463L23.4662 70.3356" fill="white"/>
<path fill-rule="evenodd" clip-rule="evenodd" d="M64.0284 54.6487C64.0291 54.6488 64.0296 54.6488 63.9623 55.6465L64.0296 54.6488C64.5384 54.6831 64.9398 55.0948 64.9614 55.6042C65.2295 61.9332 64.0803 66.6302 62.1332 70.1016C60.1832 73.578 57.4721 75.755 54.7386 77.1036C52.0158 78.447 49.2741 78.968 47.2266 79.1567C46.1999 79.2513 45.3394 79.2631 44.7314 79.251C44.4271 79.2449 44.1854 79.2327 44.0169 79.2219C43.9327 79.2164 43.8667 79.2113 43.8203 79.2073C43.797 79.2054 43.7787 79.2037 43.7655 79.2025L43.7494 79.2009L43.7424 79.2002C43.7417 79.2001 43.741 79.2001 43.844 78.2054L43.741 79.2001C43.2926 79.1537 42.9307 78.8129 42.8573 78.3681C41.8337 72.1627 42.5956 67.4988 44.4184 64.0137C46.2413 60.5284 49.0688 58.3299 51.9794 56.9524C54.8808 55.5792 57.8909 55.0077 60.1558 54.7754C61.2923 54.6589 62.2515 54.6267 62.93 54.6239C63.2695 54.6224 63.5393 54.6283 63.7268 54.6348C63.8205 54.638 63.8936 54.6413 63.9446 54.6439L64.0043 54.6472L64.0214 54.6483L64.0266 54.6486L64.0284 54.6487ZM44.7088 77.25C44.7293 77.2505 44.7502 77.2509 44.7714 77.2514C45.3168 77.2623 46.1018 77.2519 47.0431 77.1651C48.9316 76.9911 51.4159 76.5128 53.8537 75.31C56.2808 74.1126 58.6649 72.1967 60.3888 69.1231C62.0253 66.2056 63.102 62.1821 62.9923 56.6237C62.9746 56.6237 62.9566 56.6238 62.9384 56.6239C62.3141 56.6265 61.4211 56.6562 60.3598 56.765C58.2292 56.9835 55.4617 57.5169 52.835 58.7601C50.2173 59.9991 47.7659 61.9287 46.1906 64.9406C44.6868 67.8158 43.9299 71.7755 44.7088 77.25Z" fill="white"/>
<path fill-rule="evenodd" clip-rule="evenodd" d="M57.0182 63.4937C57.2979 63.9699 57.1387 64.5827 56.6626 64.8625C53.3094 66.8328 50.3591 70.1571 48.2216 73.0554C47.1604 74.4943 46.3148 75.807 45.7353 76.7588C45.4458 77.2343 45.2232 77.6188 45.0739 77.8829C44.9992 78.0149 44.9429 78.1167 44.9058 78.1846C44.8872 78.2186 44.8734 78.244 44.8645 78.2606L44.8548 78.2786L44.8527 78.2825C44.8527 78.2826 44.8528 78.2824 44.8527 78.2825M44.8527 78.2825C44.5937 78.7702 43.9881 78.9563 43.5004 78.6974C43.0126 78.4385 42.827 77.8331 43.0859 77.3453L43.9692 77.8141C43.0859 77.3453 43.0858 77.3456 43.0859 77.3453L43.0876 77.3422L43.0911 77.3356L43.1038 77.3119C43.1147 77.2916 43.1306 77.2623 43.1513 77.2245C43.1927 77.1487 43.2536 77.0388 43.333 76.8983C43.4919 76.6174 43.7253 76.2143 44.0271 75.7187C44.6301 74.7281 45.5084 73.3646 46.612 71.8683C48.804 68.8962 51.9471 65.3136 55.6494 63.1382C56.1255 62.8584 56.7384 63.0176 57.0182 63.4937" fill="white"/>
<path fill-rule="evenodd" clip-rule="evenodd" d="M27.6942 43.0034C27.8631 42.522 28.3673 42.2449 28.8642 42.3604C33.649 43.472 36.9407 45.3117 39.1538 47.5121C41.3708 49.7165 42.448 52.2261 42.8943 54.5759C43.3385 56.9139 43.1586 59.0907 42.8746 60.671C42.7321 61.464 42.5619 62.115 42.4259 62.5718C42.3578 62.8004 42.2981 62.9809 42.2544 63.107C42.2325 63.17 42.2146 63.2195 42.2017 63.2546L42.186 63.2964L42.1812 63.309L42.1796 63.3132L42.179 63.3148C42.1787 63.3154 42.1785 63.316 41.247 62.9522L42.1785 63.316C42.0141 63.737 41.5878 63.9953 41.1385 63.9463C36.2848 63.4164 32.9291 61.8691 30.6727 59.7515C28.4162 57.6339 27.3477 55.029 26.9173 52.5456C26.4885 50.072 26.6863 47.6901 26.9821 45.9444C27.1307 45.0676 27.3058 44.3411 27.4448 43.8306C27.5143 43.5752 27.575 43.3731 27.6191 43.2327C27.6412 43.1624 27.6591 43.1075 27.672 43.069L27.6873 43.0235L27.6919 43.0103L27.6933 43.006L27.6939 43.0045C27.6941 43.0039 27.6942 43.0034 28.6379 43.3344L27.6942 43.0034ZM29.3267 44.5355C29.2106 44.9804 29.0731 45.5757 28.954 46.2786C28.6808 47.8911 28.511 50.0294 28.8879 52.204C29.2631 54.3688 30.1736 56.5403 32.0413 58.2932C33.7961 59.94 36.4741 61.2906 40.5507 61.8583C40.6615 61.4707 40.7933 60.9453 40.9062 60.3172C41.1619 58.8938 41.3145 56.9757 40.9295 54.9491C40.5467 52.9341 39.6331 50.8091 37.7436 48.9304C35.9814 47.1782 33.3208 45.5913 29.3267 44.5355ZM40.315 62.5898C40.3149 62.59 40.3149 62.59 40.315 62.5898L40.315 62.5898Z" fill="white"/>
<path fill-rule="evenodd" clip-rule="evenodd" d="M32.5146 50.8924C32.937 50.5366 33.5679 50.5906 33.9237 51.013L33.1589 51.6572C33.9237 51.013 33.9236 51.0129 33.9237 51.013L33.9284 51.0185L33.9403 51.0328L33.9855 51.0869C34.0247 51.1341 34.082 51.2032 34.1553 51.2926C34.3019 51.4713 34.5128 51.7308 34.7723 52.0572C35.2909 52.7096 36.0048 53.6304 36.7874 54.7062C38.3421 56.8434 40.2084 59.647 41.3323 62.188C41.5557 62.6931 41.3274 63.2836 40.8223 63.507C40.3172 63.7304 39.7267 63.5021 39.5033 62.997C38.4683 60.657 36.7051 57.993 35.1701 55.8828C34.4078 54.8349 33.7118 53.9371 33.2067 53.3018C32.9543 52.9843 32.7499 52.7328 32.6092 52.5613C32.5389 52.4756 32.4845 52.4099 32.4479 52.366L32.4069 52.3167L32.3968 52.3048L32.3945 52.302C32.3945 52.302 32.3946 52.3021 32.3945 52.302C32.0388 51.8797 32.0923 51.2482 32.5146 50.8924Z" fill="white"/>
</svg>
