<svg width="80" height="125" viewBox="0 0 80 125" fill="none" xmlns="http://www.w3.org/2000/svg">
<rect y="7.5" width="80" height="110" rx="3" fill="#C462F2"/>
<rect y="22.5" width="80" height="80" rx="40" fill="#C462F2"/>
<path fill-rule="evenodd" clip-rule="evenodd" d="M18.5 63.9557V82.4042C18.5 82.9564 18.0523 83.4042 17.5 83.4042C16.9477 83.4042 16.5 82.9564 16.5 82.4042V63.8834C16.5 62.8103 17.3546 61.9557 18.4277 61.9557H26.679C27.7521 61.9557 28.6067 62.8103 28.6067 63.8834V82.4042C28.6067 82.9564 28.159 83.4042 27.6067 83.4042C27.0544 83.4042 26.6067 82.9564 26.6067 82.4042V63.9557H18.5Z" fill="white"/>
<path fill-rule="evenodd" clip-rule="evenodd" d="M25.1726 43.4331V62.9232C25.1726 63.4755 24.7249 63.9232 24.1726 63.9232C23.6203 63.9232 23.1726 63.4755 23.1726 62.9232V43.3608C23.1726 42.2877 24.0271 41.4331 25.1002 41.4331H36.8182C37.8912 41.4331 38.7458 42.2877 38.7458 43.3608V63.3951C38.7458 63.9474 38.2981 64.3951 37.7458 64.3951C37.1936 64.3951 36.7458 63.9474 36.7458 63.3951V43.4331H25.1726Z" fill="white"/>
<path fill-rule="evenodd" clip-rule="evenodd" d="M33.7983 64.3948V82.4039C33.7983 82.9562 33.3506 83.4039 32.7983 83.4039C32.2461 83.4039 31.7983 82.9562 31.7983 82.4039V64.3225C31.7983 63.2494 32.653 62.3948 33.726 62.3948H54.9484C56.0215 62.3948 56.8761 63.2494 56.8761 64.3225V82.4039C56.8761 82.9562 56.4284 83.4039 55.8761 83.4039C55.3238 83.4039 54.8761 82.9562 54.8761 82.4039V64.3948H33.7983Z" fill="white"/>
<path fill-rule="evenodd" clip-rule="evenodd" d="M45.9529 52.7259L43.5708 63.1459C43.4477 63.6843 42.9115 64.0209 42.3731 63.8979C41.8347 63.7748 41.498 63.2385 41.6211 62.7001L44.0135 52.2354C44.0156 52.226 44.0179 52.2166 44.0203 52.2073C44.2424 51.3509 44.9803 50.7259 45.916 50.7259H50.1475C51.2205 50.7259 52.0752 51.5805 52.0752 52.6536V53.1671H61.5724C62.6455 53.1671 63.5001 54.0217 63.5001 55.0948V82.3226C63.5001 82.8749 63.0524 83.3226 62.5001 83.3226C61.9478 83.3226 61.5001 82.8749 61.5001 82.3226V55.1671H52.0028C50.9297 55.1671 50.0752 54.3125 50.0752 53.2395V52.7259H45.9529Z" fill="white"/>
<path d="M40.0082 71.1417H37.0625C37.0625 71.1417 36.916 71.0766 36.916 70.9952V68.0332C36.916 68.0332 36.9811 67.8867 37.0625 67.8867H40.0082C40.0082 67.8867 40.1547 67.9518 40.1547 68.0332V70.9952C40.1547 70.9952 40.1547 71.1417 40.0082 71.1417Z" fill="white"/>
<path d="M45.509 71.1417H42.5632C42.5632 71.1417 42.4167 71.0766 42.4167 70.9952V68.0332C42.4167 68.0332 42.4818 67.8867 42.5632 67.8867H45.509C45.509 67.8867 45.6554 67.9518 45.6554 68.0332V70.9952C45.6554 70.9952 45.6554 71.1417 45.509 71.1417Z" fill="white"/>
<path d="M50.9936 71.1417H48.0478C48.0478 71.1417 47.9014 71.0766 47.9014 70.9952V68.0332C47.9014 68.0332 47.9665 67.8867 48.0478 67.8867H50.9936C50.9936 67.8867 51.14 67.9518 51.14 68.0332V70.9952C51.14 70.9952 51.1401 71.1417 50.9936 71.1417Z" fill="white"/>
<path d="M40.0082 76.8543H37.0625C37.0625 76.8543 36.916 76.7892 36.916 76.7079V73.7458C36.916 73.7458 36.9811 73.5994 37.0625 73.5994H40.0082C40.0082 73.5994 40.1547 73.6645 40.1547 73.7458V76.7079C40.1547 76.7079 40.1547 76.8543 40.0082 76.8543Z" fill="white"/>
<path d="M45.509 76.8543H42.5632C42.5632 76.8543 42.4167 76.7892 42.4167 76.7079V73.7458C42.4167 73.7458 42.4818 73.5994 42.5632 73.5994H45.509C45.509 73.5994 45.6554 73.6645 45.6554 73.7458V76.7079C45.6554 76.7079 45.6554 76.8543 45.509 76.8543Z" fill="white"/>
<path d="M50.9936 76.8543H48.0478C48.0478 76.8543 47.9014 76.7892 47.9014 76.7079V73.7458C47.9014 73.7458 47.9665 73.5994 48.0478 73.5994H50.9936C50.9936 73.5994 51.14 73.6645 51.14 73.7458V76.7079C51.14 76.7079 51.1401 76.8543 50.9936 76.8543Z" fill="white"/>
<path d="M40.0082 82.567H37.0625C37.0625 82.567 36.916 82.5019 36.916 82.4205V79.4585C36.916 79.4585 36.9811 79.312 37.0625 79.312H40.0082C40.0082 79.312 40.1547 79.3771 40.1547 79.4585V82.4205C40.1547 82.4205 40.1547 82.567 40.0082 82.567Z" fill="white"/>
<path d="M23.8471 82.567H20.9014C20.9014 82.567 20.7549 82.5019 20.7549 82.4205V79.4585C20.7549 79.4585 20.82 79.312 20.9014 79.312H23.8471C23.8471 79.312 23.9936 79.3771 23.9936 79.4585V82.4205C23.9936 82.4205 23.9936 82.567 23.8471 82.567Z" fill="white"/>
<path d="M23.8471 76.8543H20.9014C20.9014 76.8543 20.7549 76.7892 20.7549 76.7079V73.7458C20.7549 73.7458 20.82 73.5994 20.9014 73.5994H23.8471C23.8471 73.5994 23.9936 73.6645 23.9936 73.7458V76.7079C23.9936 76.7079 23.9936 76.8543 23.8471 76.8543Z" fill="white"/>
<path d="M23.8471 71.1417H20.9014C20.9014 71.1417 20.7549 71.0766 20.7549 70.9952V68.0332C20.7549 68.0332 20.82 67.8867 20.9014 67.8867H23.8471C23.8471 67.8867 23.9936 67.9518 23.9936 68.0332V70.9952C23.9936 70.9952 23.9936 71.1417 23.8471 71.1417Z" fill="white"/>
<path d="M32.2775 62.7115H29.3154C29.3154 62.7115 29.1689 62.6464 29.1689 62.565V59.603C29.1689 59.603 29.234 59.4565 29.3154 59.4565H32.2775C32.2775 59.4565 32.4239 59.5216 32.4239 59.603V62.565C32.4239 62.565 32.3588 62.7115 32.2775 62.7115Z" fill="white"/>
<path d="M32.2775 56.2667H29.3154C29.3154 56.2667 29.1689 56.2016 29.1689 56.1202V53.1582C29.1689 53.1582 29.234 53.0117 29.3154 53.0117H32.2775C32.2775 53.0117 32.4239 53.0768 32.4239 53.1582V56.1202C32.4239 56.1202 32.3588 56.2667 32.2775 56.2667Z" fill="white"/>
<path d="M32.2775 49.7732H29.3154C29.3154 49.7732 29.1689 49.7081 29.1689 49.6267V46.6647C29.1689 46.6647 29.234 46.5182 29.3154 46.5182H32.2775C32.2775 46.5182 32.4239 46.5833 32.4239 46.6647V49.6267C32.4239 49.6267 32.3588 49.7732 32.2775 49.7732Z" fill="white"/>
<path d="M45.509 82.567H42.5632C42.5632 82.567 42.4167 82.5019 42.4167 82.4205V79.4585C42.4167 79.4585 42.4818 79.312 42.5632 79.312H45.509C45.509 79.312 45.6554 79.3771 45.6554 79.4585V82.4205C45.6554 82.4205 45.6554 82.567 45.509 82.567Z" fill="white"/>
<path d="M50.9936 82.567H48.0478C48.0478 82.567 47.9014 82.5019 47.9014 82.4205V79.4585C47.9014 79.4585 47.9665 79.312 48.0478 79.312H50.9936C50.9936 79.312 51.14 79.3771 51.14 79.4585V82.4205C51.14 82.4205 51.1401 82.567 50.9936 82.567Z" fill="white"/>
</svg>
