<svg width="80" height="125" viewBox="0 0 80 125" fill="none" xmlns="http://www.w3.org/2000/svg">
<rect y="7.5" width="80" height="110" rx="3" fill="#FF2828"/>
<rect y="22.5" width="80" height="80" rx="40" fill="#FF2828"/>
<path fill-rule="evenodd" clip-rule="evenodd" d="M35.8785 51.8079C34.8809 46.3577 29.6375 42.6982 24.1304 43.6857L24.129 43.6859C18.6697 44.6751 15.0013 49.9225 15.9883 55.4348C16.0406 55.7376 16.1003 56.0673 16.175 56.4098C14.8484 56.9748 14.0384 58.3762 14.2981 59.8541L14.298 59.8541L14.2995 59.8619C14.6199 61.5786 16.2327 62.7187 17.9484 62.4173C17.9723 62.4131 17.996 62.4078 18.0194 62.4013C18.1439 62.3667 18.2754 62.3277 18.4102 62.282C19.3265 63.8375 20.5207 65.2531 22.0367 66.229C23.7638 67.3409 25.8713 67.8563 28.3582 67.3993C30.8951 66.943 32.7044 65.7128 33.9341 64.0611C35.0057 62.6216 35.615 60.8934 35.9206 59.1417C36.0702 59.1297 36.2192 59.104 36.3655 59.0655C38.0298 58.7532 39.1682 57.2705 39.0005 55.6715C39.0142 55.587 39.0135 55.4999 38.9974 55.4138C38.7208 53.9316 37.4807 52.8792 36.0427 52.8134C36.0005 52.4815 35.9514 52.1261 35.8785 51.8079ZM37.4768 55.4996C37.2306 54.6862 36.4357 54.1904 35.6081 54.3358C35.5652 54.3433 35.5218 54.3471 35.4783 54.3471H35.3903C35.0208 54.3471 34.7063 54.078 34.6493 53.7129C34.6089 53.4548 34.582 53.2337 34.5572 53.0302C34.5184 52.7115 34.4848 52.4361 34.4134 52.1301C34.4106 52.1179 34.408 52.1057 34.4058 52.0934C33.564 47.4474 29.0943 44.3199 24.3958 45.162C19.75 46.0042 16.6228 50.4741 17.4652 55.1726L17.4661 55.1775L17.4661 55.1775C17.5532 55.6827 17.6536 56.2148 17.8011 56.7393C17.8647 56.9654 17.8188 57.2081 17.677 57.3953C17.5352 57.5824 17.3139 57.6924 17.0791 57.6924H17.0666C16.1796 57.8905 15.6243 58.722 15.7748 59.5906C15.9468 60.5011 16.7788 61.0814 17.6554 60.9455C17.9376 60.8656 18.1729 60.7817 18.3665 60.6728C18.5424 60.5739 18.7508 60.55 18.9445 60.6066C19.1382 60.6632 19.301 60.7955 19.396 60.9736C20.2729 62.6178 21.4198 64.048 22.8486 64.9677C24.2595 65.876 25.9809 66.3114 28.0886 65.9238L28.0916 65.9232C30.2551 65.5343 31.7291 64.5109 32.7309 63.1653C33.7458 61.8021 34.3047 60.0673 34.5408 58.2374C34.5692 58.0175 34.6934 57.8214 34.88 57.7018C35.0667 57.5822 35.2967 57.5514 35.5083 57.6175C35.6367 57.6576 35.8052 57.6647 35.9995 57.6107C36.0225 57.6043 36.0458 57.599 36.0693 57.5948C37.0768 57.4163 37.6497 56.5223 37.4888 55.6946C37.4762 55.6297 37.4723 55.5642 37.4768 55.4996Z" fill="white"/>
<path d="M33.8232 54.0373L35.3726 53.7556C35.2846 53.0865 35.2142 52.4351 35.1261 51.8364C34.8797 50.5159 34.3691 49.3186 33.7 48.2975V48.2622C32.3795 46.3431 30.3547 44.9874 28.0834 44.4768C28.4355 43.6845 28.5588 42.7689 28.4003 41.8533C27.9602 39.4236 25.6185 37.7862 23.1887 38.2263C20.759 38.6665 19.1215 41.0082 19.5617 43.438C19.7201 44.3535 20.1603 45.1458 20.759 45.7973C18.8046 47.065 17.3784 49.0722 16.815 51.2906L16.8502 51.3258C16.5685 52.5231 16.4981 53.8436 16.727 55.1465C16.8502 55.7451 16.9735 56.379 17.1672 57.0128L18.7166 56.7311L19.6321 52.8224C21.428 52.3822 24.5796 51.273 25.055 48.5616C26.446 50.9561 29.7913 50.8681 31.6224 50.6744L33.8056 54.0197L33.8232 54.0373Z" fill="white"/>
<path fill-rule="evenodd" clip-rule="evenodd" d="M44.4581 49.5974C45.3911 44.0976 50.6056 40.4287 56.1168 41.3784C61.6169 42.3115 65.2859 47.5266 64.3356 53.0381L64.3319 53.0577C64.3094 53.1702 64.287 53.2882 64.2637 53.4105C64.2232 53.623 64.1803 53.8483 64.1305 54.0801C65.2625 54.7056 65.9191 56.0082 65.7119 57.4212L65.7088 57.4405C65.4105 59.1617 63.7932 60.3284 62.0519 60.0043C62.016 59.9977 61.9801 59.9904 61.9441 59.9823C61.0494 61.5295 59.8745 62.9419 58.3598 63.9181C56.6467 65.0222 54.5419 65.5393 52.0265 65.1121L52.0232 65.1116C47.2837 64.2849 45.1577 60.6584 44.4513 56.9155C44.4333 56.9127 44.4152 56.9096 44.3971 56.9064C42.68 56.6071 41.5157 54.9948 41.835 53.2573C42.0535 51.9306 43.0834 50.9598 44.3063 50.7091C44.3457 50.3181 44.398 49.9459 44.4581 49.5974ZM63.1943 55.2964C63.081 55.2889 62.9684 55.2556 62.8654 55.1953C62.571 55.0229 62.43 54.6735 62.5224 54.345C62.6336 53.9496 62.7053 53.5736 62.7818 53.1724C62.8065 53.0427 62.8318 52.9102 62.859 52.7737C63.6635 48.0771 60.5379 43.6494 55.865 42.8571L55.8629 42.8567C51.1628 42.0464 46.7296 45.1731 45.9368 49.8492L45.9364 49.8512C45.8527 50.3371 45.7858 50.8726 45.7524 51.4405C45.7285 51.8457 45.3867 52.1584 44.981 52.1461C44.1781 52.1218 43.4451 52.6971 43.3143 53.5058L43.3112 53.5237C43.1433 54.4228 43.7371 55.2696 44.6564 55.4289L44.6624 55.43L44.6624 55.43C44.7787 55.4512 44.9225 55.4531 45.0917 55.4531C45.4633 55.4531 45.7788 55.7252 45.8335 56.0927C46.3726 59.7147 48.1885 62.9192 52.279 63.6335C54.4288 63.9983 56.153 63.5558 57.5472 62.6573C58.959 61.7474 60.0749 60.341 60.9256 58.7239C61.1106 58.3721 61.5379 58.2258 61.8997 58.3903C62.0486 58.458 62.2005 58.5067 62.3221 58.5288L62.3256 58.5295C63.2216 58.6967 64.0657 58.1076 64.2292 57.1937C64.358 56.2868 63.8805 55.5545 63.1943 55.2964Z" fill="white"/>
<path d="M55.9903 42.1172C52.6098 41.5186 49.3349 42.8391 47.2573 45.2688L63.1211 48.0155C62.0119 45.0223 59.3708 42.6806 55.9903 42.1172Z" fill="white"/>
<path fill-rule="evenodd" clip-rule="evenodd" d="M31.4803 72.1597C32.302 66.6138 37.4168 62.8309 42.93 63.6482C48.479 64.4656 52.2655 69.58 51.4509 75.0941C51.4074 75.4188 51.3455 75.7483 51.2779 76.0743C52.6024 76.5999 53.4427 77.9797 53.2293 79.5122L53.2284 79.5191L53.2283 79.5191C52.9739 81.2303 51.3652 82.423 49.6436 82.1775C49.4876 82.1592 49.3405 82.1266 49.2019 82.0845C48.3459 83.6488 47.215 85.0935 45.7379 86.1135C44.0441 87.2831 41.9374 87.8637 39.3829 87.4752C36.8608 87.1127 35.0265 85.9483 33.7489 84.341C32.6299 82.9332 31.9599 81.215 31.5919 79.4595C31.4436 79.4572 31.3007 79.4469 31.1698 79.4323C31.1606 79.4313 31.1515 79.4301 31.1423 79.4288C29.4269 79.1738 28.2326 77.5578 28.4858 75.8314L28.486 75.83C28.705 74.3564 29.9283 73.2674 31.3631 73.15C31.39 72.8169 31.4254 72.4806 31.4803 72.1597ZM50.4012 77.3769H50.3913C50.1642 77.3769 49.9494 77.274 49.807 77.0972C49.6646 76.9203 49.6101 76.6884 49.6586 76.4666C49.6671 76.4277 49.6755 76.3891 49.6839 76.3508C49.7997 75.8226 49.9038 75.3475 49.9648 74.8903L49.9662 74.8795L49.9663 74.8795C50.6625 70.1838 47.4425 65.8289 42.7111 65.1321L42.7103 65.132C38.0146 64.4358 33.6597 67.6559 32.963 72.3873L32.9601 72.4054C32.8803 72.8685 32.8469 73.3894 32.8111 73.9622C32.7864 74.3575 32.4586 74.6655 32.0625 74.6655H31.9745C31.9381 74.6655 31.9017 74.6628 31.8657 74.6575C30.9513 74.5234 30.1025 75.1598 29.9698 76.0498C29.8367 76.9597 30.4665 77.8044 31.3498 77.9431C31.6176 77.9716 31.8642 77.9634 32.0215 77.9241C32.2246 77.8733 32.4398 77.9098 32.6148 78.0246C32.7899 78.1395 32.909 78.3224 32.9433 78.529C33.2471 80.3605 33.8677 82.0799 34.9231 83.4076C35.9647 84.718 37.4571 85.6837 39.5991 85.9908L39.6056 85.9918L39.6056 85.9918C41.7859 86.3241 43.5076 85.8307 44.8855 84.8792C46.2822 83.9147 47.3674 82.4491 48.1866 80.7853C48.2776 80.6005 48.4407 80.4612 48.6375 80.4002C48.8343 80.3393 49.0476 80.362 49.2272 80.463C49.4716 80.6005 49.6508 80.6691 49.8226 80.6882C49.8313 80.6891 49.84 80.6902 49.8486 80.6915C50.7621 80.8255 51.6102 80.1905 51.7441 79.3018C51.8777 78.3302 51.2617 77.5311 50.4012 77.3769Z" fill="white"/>
<path d="M50.1625 70.0945C50.1625 70.0945 50.1625 70.0593 50.1273 70.0593C50.1273 70.0241 50.0921 69.9712 50.0393 69.936C49.9512 69.7776 49.8808 69.6191 49.8456 69.4606C49.8456 69.4606 49.8339 69.4313 49.8104 69.3726C48.4899 66.7844 45.9897 64.83 42.8733 64.3547C39.7569 63.8793 36.7813 65.0237 34.7917 67.1013L34.7565 67.1365C34.6333 67.2598 34.51 67.383 34.4044 67.5415C34.3692 67.5767 34.3164 67.6295 34.3164 67.6647L34.2811 67.7C33.2423 68.9677 32.5733 70.4818 32.2916 72.2073C32.2035 72.8059 32.1331 73.4398 32.0979 74.1265L33.6473 74.373L35.5665 71.2565C37.3271 71.4502 42.257 71.7319 45.6024 69.5839C45.6024 69.5839 45.7256 71.8904 47.8384 72.9644L48.7892 76.6266L50.3386 76.8731C50.4971 76.2393 50.6203 75.6054 50.6907 74.954C51.0077 73.2813 50.7788 71.6087 50.1801 70.0945H50.1625Z" fill="white"/>
</svg>
