<svg width="80" height="125" viewBox="0 0 80 125" fill="none" xmlns="http://www.w3.org/2000/svg">
<rect y="7.5" width="80" height="110" rx="3" fill="#3277FF"/>
<rect y="22.5" width="80" height="80" rx="40" fill="#3277FF"/>
<path fill-rule="evenodd" clip-rule="evenodd" d="M37.6375 40.2209C38.9681 39.0234 41.1292 39.0234 42.4598 40.2209L42.4637 40.2244L42.4637 40.2244C47.8899 45.1602 54.2248 47.086 57.207 47.7317L56.9954 48.7089L57.2277 47.7364C58.6314 48.0716 59.8031 49.2223 59.8629 50.7289C60.7395 62.6562 57.288 70.8397 53.0108 76.2888C48.7524 81.714 43.7244 84.369 41.5031 85.3522C40.5416 85.7877 39.4689 85.7832 38.5022 85.3535C36.2827 84.3715 31.2481 81.7167 26.9857 76.289C22.7046 70.8376 19.252 62.6496 20.1404 50.7145C20.2379 49.223 21.3828 48.034 22.8644 47.7304C25.8485 47.0836 32.1803 45.1569 37.6356 40.2226L37.6375 40.2209ZM56.7723 49.6839C53.6049 48.9967 46.8998 46.9621 41.1202 41.706C40.5503 41.1948 39.5459 41.195 38.9763 41.7067C33.1587 46.9682 26.4451 49.0015 23.2818 49.6864L23.2691 49.6891L23.2691 49.689C22.5704 49.8308 22.1676 50.3482 22.136 50.8472L22.1353 50.8581L22.1352 50.8581C21.2827 62.2973 24.5847 69.9934 28.5586 75.0537C32.5508 80.1373 37.2711 82.622 39.3129 83.5252L39.3144 83.5259C39.7715 83.7291 40.2491 83.7253 40.6801 83.5294L40.6894 83.5252L40.6894 83.5252C42.7308 82.6221 47.4472 80.1376 51.4375 75.0539C55.4097 69.9934 58.7118 62.297 57.867 50.8575C57.866 50.8437 57.8652 50.8299 57.8648 50.816C57.8505 50.3718 57.4779 49.8561 56.7723 49.6839Z" fill="white"/>
<path fill-rule="evenodd" clip-rule="evenodd" d="M38.7658 50.4985C39.1361 50.1824 39.6803 50.1789 40.0546 50.4903L48.718 57.6966C48.9464 57.8866 49.0785 58.1683 49.0785 58.4654V71.2151C49.0785 71.7674 48.6308 72.2151 48.0785 72.2151H30.9734C30.4211 72.2151 29.9734 71.7674 29.9734 71.2151V58.4654H30.9734L30.3241 57.7049L38.7658 50.4985ZM31.9734 58.9266V70.2151H47.0785V58.9343L39.4234 52.5668L31.9734 58.9266Z" fill="white"/>
<path fill-rule="evenodd" clip-rule="evenodd" d="M38.8136 50.4851C39.1778 50.1872 39.7004 50.1834 40.0689 50.4761L51.5515 59.5989C51.9839 59.9424 52.0559 60.5715 51.7124 61.0039C51.3688 61.4363 50.7398 61.5084 50.3074 61.1648L39.456 52.5436L28.7558 61.2983C28.3284 61.6481 27.6984 61.5851 27.3486 61.1576C26.9989 60.7302 27.0619 60.1001 27.4894 59.7504L38.8136 50.4851Z" fill="white"/>
</svg>
