<svg width="80" height="125" viewBox="0 0 80 125" fill="none" xmlns="http://www.w3.org/2000/svg">
<rect x="1" y="15" width="78" height="108" rx="2" fill="white"/>
<rect x="1" y="15" width="78" height="108" rx="2" stroke="#FFB800" stroke-width="2"/>
<rect width="70" height="110" rx="3" transform="matrix(0.983255 -0.182236 0 1 0 13.7565)" fill="#FFB800"/>
<rect width="70" height="80" rx="35" transform="matrix(0.983255 -0.182236 0 1 0 28.7565)" fill="#FFB800"/>
<path fill-rule="evenodd" clip-rule="evenodd" d="M42.1572 39.9431L26.6709 42.8134V40.8134L42.1572 37.9431V39.9431Z" fill="white"/>
<path fill-rule="evenodd" clip-rule="evenodd" d="M33.5537 49.5377L33.5537 31.5377L35.2744 31.2188L35.2744 49.2188L33.5537 49.5377Z" fill="white"/>
<path fill-rule="evenodd" clip-rule="evenodd" d="M30.1123 40.1755C32.0129 39.8233 33.5537 37.7469 33.5537 35.5377L35.2744 35.2188C35.2744 38.5325 32.9632 41.6471 30.1123 42.1755V40.1755Z" fill="white"/>
<path fill-rule="evenodd" clip-rule="evenodd" d="M30.1123 42.1755C32.0129 41.8233 33.5537 43.3286 33.5537 45.5377L35.2744 45.2188C35.2744 41.9051 32.9632 39.6471 30.1123 40.1755V42.1755Z" fill="white"/>
<path fill-rule="evenodd" clip-rule="evenodd" d="M38.7158 38.581C36.8152 38.9333 35.2744 37.428 35.2744 35.2188L33.5537 35.5377C33.5537 38.8514 35.8649 41.1094 38.7158 40.581V38.581Z" fill="white"/>
<path fill-rule="evenodd" clip-rule="evenodd" d="M38.7158 40.581C36.8152 40.9333 35.2744 43.0097 35.2744 45.2188L33.5537 45.5377C33.5537 42.224 35.8649 39.1094 38.7158 38.581V40.581Z" fill="white"/>
<path d="M33.0202 80.3141L34.8553 79.974V77.112L36.1794 76.8666C38.5255 76.4317 40.3142 73.8862 40.3142 70.9972C40.3142 68.0542 38.5952 67.4548 36.9227 67.5218V67.3598C38.572 66.7571 39.7335 65.4618 39.7335 63.0588C39.7335 60.3048 38.1306 58.7929 35.529 59.2751L34.8553 59.4V56.619L33.0202 56.9591V59.7401L28.5137 60.5753V78.2873L33.0202 77.4521V80.3141ZM30.9063 67.6649V62.5349L33.1131 62.1259V67.2559L30.9063 67.6649ZM34.7856 66.9459V61.8159L35.2734 61.7255C36.5975 61.4801 37.2247 62.0928 37.2247 63.5238V64.3338C37.2247 65.7648 36.5975 66.6101 35.2734 66.8555L34.7856 66.9459ZM30.9063 75.4409V69.9599L33.1131 69.5509V75.0319L30.9063 75.4409ZM34.7856 74.7219V69.2409L35.529 69.1031C36.9227 68.8448 37.8054 69.4372 37.8054 70.9492V71.8672C37.8054 73.3792 36.9227 74.3258 35.529 74.5841L34.7856 74.7219Z" fill="white"/>
<rect x="0.983255" y="0.817764" width="31.25" height="36" rx="15.625" transform="matrix(0.983255 -0.182236 0 1 18.0838 52.5871)" stroke="white" stroke-width="2"/>
</svg>
