<svg width="80" height="125" viewBox="0 0 80 125" fill="none" xmlns="http://www.w3.org/2000/svg">
<rect y="7.5" width="80" height="110" rx="3" fill="#FFB800"/>
<rect y="22.5" width="80" height="80" rx="40" fill="#FFB800"/>
<path fill-rule="evenodd" clip-rule="evenodd" d="M49 41.5H31V39.5H49V41.5Z" fill="white"/>
<path fill-rule="evenodd" clip-rule="evenodd" d="M39 49.5L39 31.5L41 31.5L41 49.5L39 49.5Z" fill="white"/>
<path fill-rule="evenodd" clip-rule="evenodd" d="M35 39.5C37.2091 39.5 39 37.7091 39 35.5H41C41 38.8137 38.3137 41.5 35 41.5V39.5Z" fill="white"/>
<path fill-rule="evenodd" clip-rule="evenodd" d="M35 41.5C37.2091 41.5 39 43.2909 39 45.5H41C41 42.1863 38.3137 39.5 35 39.5V41.5Z" fill="white"/>
<path fill-rule="evenodd" clip-rule="evenodd" d="M45 39.5C42.7909 39.5 41 37.7091 41 35.5H39C39 38.8137 41.6863 41.5 45 41.5V39.5Z" fill="white"/>
<path fill-rule="evenodd" clip-rule="evenodd" d="M45 41.5C42.7909 41.5 41 43.2909 41 45.5H39C39 42.1863 41.6863 39.5 45 39.5V41.5Z" fill="white"/>
<path d="M38.3801 80.1775H40.5131V77.3155H42.0521C44.7791 77.3155 46.8581 75.1015 46.8581 72.2125C46.8581 69.2695 44.8601 68.3515 42.9161 68.1085V67.9465C44.8331 67.6495 46.1831 66.5695 46.1831 64.1665C46.1831 61.4125 44.3201 59.6035 41.2961 59.6035H40.5131V56.8225H38.3801V59.6035H33.1421V77.3155H38.3801V80.1775ZM35.9231 67.1365V62.0065H38.4881V67.1365H35.9231ZM40.4321 67.1365V62.0065H40.9991C42.5381 62.0065 43.2671 62.7355 43.2671 64.1665V64.9765C43.2671 66.4075 42.5381 67.1365 40.9991 67.1365H40.4321ZM35.9231 74.9125V69.4315H38.4881V74.9125H35.9231ZM40.4321 74.9125V69.4315H41.2961C42.9161 69.4315 43.9421 70.1875 43.9421 71.6995V72.6175C43.9421 74.1295 42.9161 74.9125 41.2961 74.9125H40.4321Z" fill="white"/>
<rect x="22" y="50.5" width="36" height="36" rx="18" stroke="white" stroke-width="2"/>
</svg>
