<svg width="80" height="125" viewBox="0 0 80 125" fill="none" xmlns="http://www.w3.org/2000/svg">
<rect y="7.5" width="80" height="110" rx="3" fill="#FF7A00"/>
<rect y="22.5" width="80" height="80" rx="40" fill="#FF7A00"/>
<path fill-rule="evenodd" clip-rule="evenodd" d="M23.3902 42.387C23.6703 42.1081 24.0287 42 24.353 42H55.647C55.9713 42 56.3298 42.1081 56.6098 42.3871C56.8903 42.6665 57 43.0254 57 43.3516V49.0541C57 49.3803 56.8903 49.7393 56.6098 50.0186C56.3298 50.2976 55.9713 50.4057 55.647 50.4057H50.4519C50.2998 50.604 50.1056 50.93 50.0109 51.3871C50.0303 51.4797 50.0366 51.5754 50.0289 51.6715C49.9641 52.484 49.6665 53.6469 48.9617 54.6702C48.3331 55.5828 47.3724 56.3893 46.0026 56.6998C46.0189 56.8149 46.0303 56.9353 46.0337 57.0584C46.0425 57.3779 45.9991 57.774 45.8047 58.1555C46.0687 58.463 46.3272 58.8692 46.4981 59.4191C47.2534 59.4949 48.5323 59.637 49.8886 59.8733C51.556 60.1637 53.5351 60.6261 54.7493 61.3842L54.7534 61.3868C55.4115 61.8021 55.8686 62.3464 56.028 63.019C56.1833 63.6743 56.013 64.2736 55.7889 64.7255C55.4396 65.4295 54.8484 65.9986 54.492 66.3037C54.3933 67.0578 54.0967 68.713 53.1717 70.32C52.2001 72.0077 50.5286 73.6417 47.7598 74.1197C47.8528 74.3611 47.9216 74.627 47.9391 74.907C47.9634 75.297 47.8884 75.7288 47.6309 76.1321C47.5177 76.3094 47.3793 76.4656 47.2203 76.6024C47.6821 77.2558 48.2398 78.1664 48.5615 79.0635L48.5665 79.078C48.7881 79.7271 49.0597 80.1447 49.2546 80.3866C49.3526 80.5084 49.4329 80.5877 49.4801 80.6306C49.5037 80.6521 49.5191 80.6645 49.5244 80.6687C49.785 80.8564 49.94 81.1582 49.94 81.4802V82C49.94 82.5523 49.4923 83 48.94 83H31.152C30.5998 83 30.152 82.5523 30.152 82V81.4802C30.152 81.1699 30.296 80.8776 30.5413 80.6884C30.5419 80.6879 30.5428 80.6871 30.5439 80.6862C30.5515 80.6798 30.5692 80.6646 30.595 80.6399C30.6467 80.5907 30.7309 80.5041 30.8323 80.376C31.0342 80.121 31.3075 79.6976 31.5286 79.0691L31.5306 79.0635C31.8528 78.1648 32.4297 77.2521 32.8772 76.6131C32.7139 76.4771 32.571 76.3218 32.4536 76.1448C32.1874 75.7437 32.1048 75.3102 32.1301 74.9119C32.148 74.6287 32.2203 74.3605 32.3179 74.1172C29.5576 73.636 27.8902 72.0048 26.9204 70.32C25.9955 68.7133 25.6989 67.0584 25.6002 66.3041C25.2448 66.001 24.6532 65.4346 24.3037 64.7322C24.0789 64.2803 23.909 63.6815 24.064 63.0259C24.2228 62.3544 24.6779 61.8088 25.3341 61.3897C25.9562 60.9924 26.7616 60.6902 27.5779 60.4538C28.4079 60.2134 29.3137 60.0231 30.1749 59.8732C31.5468 59.6346 32.8454 59.492 33.6094 59.4167C33.7788 58.9028 34.0158 58.4821 34.2891 58.1543C34.0945 57.7696 34.0494 57.3716 34.0584 57.0469C34.0617 56.9279 34.0724 56.8117 34.0879 56.7006C32.7075 56.3911 31.7451 55.585 31.1151 54.6702C30.4095 53.6459 30.1159 52.4875 30.0345 51.6941L30.0336 51.6852L30.0336 51.6852C29.9759 51.0692 29.7314 50.6447 29.5481 50.4057H24.353C24.0287 50.4057 23.6703 50.2976 23.3902 50.0187C23.1098 49.7393 23 49.3803 23 49.0541V43.3516C23 43.0254 23.1098 42.6664 23.3902 42.387ZM30.5487 80.6827L30.5509 80.681L30.5522 80.6801M47.2547 81C47.0509 80.6558 46.8492 80.2364 46.6765 79.732C46.3465 78.8163 45.63 77.775 45.2157 77.2627C44.6168 76.526 44.9847 75.568 45.6856 75.2189C45.6971 75.2132 45.7088 75.2077 45.7206 75.2024C45.8161 75.1593 45.8734 75.1209 45.9056 75.095C45.9215 75.0821 45.9314 75.0722 45.937 75.066C45.9397 75.0631 45.9416 75.0607 45.9429 75.0591C45.9433 75.0544 45.9438 75.0456 45.943 75.0317C45.9396 74.9787 45.9188 74.8864 45.8586 74.7565C45.8017 74.6336 45.7237 74.5075 45.6393 74.3917C44.9646 73.51 45.5927 72.3546 46.5739 72.246C46.5893 72.2443 46.6046 72.2429 46.62 72.2419C49.2081 72.0763 50.6199 70.7441 51.4384 69.3222C52.2626 67.8904 52.4746 66.3696 52.5306 65.8638C52.5374 65.7168 52.5693 65.5198 52.6824 65.3151C52.7973 65.1069 52.9515 64.9727 53.0618 64.8913C53.3144 64.6895 53.7835 64.2676 53.9972 63.8367C54.0973 63.6349 54.093 63.5272 54.0819 63.4802C54.0748 63.4505 54.0333 63.2978 53.6879 63.0794C52.845 62.554 51.2339 62.1377 49.5454 61.8436C47.9505 61.5658 46.4594 61.4236 45.8663 61.3671L45.8542 61.3659C45.1766 61.3352 44.7682 60.8062 44.6643 60.3404C44.6608 60.325 44.6578 60.3095 44.6551 60.2939C44.562 59.7581 44.3438 59.499 44.1549 59.3202C44.1487 59.3143 44.1425 59.3084 44.1365 59.3024C43.5508 58.719 43.5384 57.8424 44.0234 57.2438C44.0279 57.2302 44.0366 57.1921 44.0344 57.1138C44.0305 56.9707 43.9921 56.7935 43.9318 56.5925C43.794 56.1447 43.8971 55.6973 44.1557 55.3661C44.3959 55.0585 44.7348 54.8887 45.0576 54.8284C45.0858 54.8232 45.1142 54.8191 45.1427 54.8163C46.1921 54.7124 46.8659 54.1872 47.3146 53.5358C47.701 52.9748 47.9108 52.327 47.9967 51.8182C47.9726 51.7146 47.965 51.6068 47.9751 51.4986C48.1118 50.0397 48.8574 49.1467 49.2012 48.8043C49.2837 48.7221 49.4171 48.6041 49.6092 48.518C49.8095 48.4283 49.9995 48.4057 50.1525 48.4057H55V44H25V48.4057H29.8475C30.0005 48.4057 30.1905 48.4283 30.3908 48.518C30.5829 48.6041 30.7163 48.7221 30.7988 48.8043C31.1422 49.1463 31.8865 50.0377 32.0244 51.4937C32.0817 52.0456 32.2947 52.8571 32.7622 53.5358C33.2095 54.1852 33.8822 54.7118 34.9484 54.8162C34.9571 54.8171 34.9657 54.818 34.9744 54.8191C35.7391 54.9143 36.3996 55.6444 36.1738 56.5441C36.1692 56.5622 36.1641 56.5803 36.1586 56.5981C36.0999 56.7865 36.0616 56.96 36.0577 57.1023C36.0549 57.2027 36.07 57.2429 36.0744 57.2519C36.0845 57.265 36.0942 57.2784 36.1036 57.292C36.4695 57.8222 36.5949 58.7156 35.9267 59.33L35.9175 59.3385L35.9174 59.3385C35.7882 59.4543 35.5588 59.7474 35.4283 60.3384L35.4278 60.3404C35.3238 60.8066 34.9148 61.336 34.2363 61.366C33.6395 61.4215 32.1265 61.5637 30.5177 61.8436C29.6983 61.9862 28.8698 62.1618 28.1343 62.3748C27.3852 62.5918 26.794 62.8304 26.4107 63.0752C26.0616 63.2982 26.0179 63.454 26.0103 63.4862C25.9989 63.5344 25.995 63.6417 26.0944 63.8414C26.3117 64.2782 26.7936 64.7042 27.0453 64.9033C27.0752 64.9269 27.1037 64.9522 27.1307 64.9791C27.3546 65.2022 27.4582 65.4262 27.5243 65.6565C27.5402 65.712 27.5513 65.7688 27.5574 65.8263C27.6068 66.2903 27.808 67.8531 28.6537 69.3222C29.47 70.7402 30.8763 72.0689 33.4507 72.2406C34.0418 72.2586 34.4487 72.6511 34.618 73.0491C34.7813 73.433 34.7891 73.9704 34.4431 74.4046C34.3498 74.531 34.2683 74.6595 34.2098 74.7809C34.1471 74.9111 34.1287 74.9962 34.1261 75.0383C34.1259 75.0414 34.1258 75.044 34.1257 75.0462C34.1322 75.0537 34.145 75.067 34.1676 75.0848C34.205 75.1143 34.269 75.156 34.3723 75.2027C34.3838 75.2079 34.3952 75.2133 34.4065 75.2189C35.1026 75.5657 35.4703 76.5131 34.8885 77.2476C34.4688 77.8058 33.7387 78.8328 33.4142 79.7358C33.2377 80.2368 33.0317 80.6558 32.8254 81H47.2547ZM36.0756 57.254C36.0756 57.254 36.0752 57.2535 36.0746 57.2522C36.0753 57.2534 36.0756 57.254 36.0756 57.254ZM44.021 57.2499C44.021 57.2498 44.0213 57.249 44.0221 57.2475C44.0214 57.2492 44.021 57.25 44.021 57.2499ZM30.5529 80.6796C30.5528 80.6796 30.5527 80.6797 30.5526 80.6798L30.5529 80.6796Z" fill="white"/>
</svg>
