<svg width="80" height="125" viewBox="0 0 80 125" fill="none" xmlns="http://www.w3.org/2000/svg">
<rect x="1" y="15" width="78" height="108" rx="2" fill="white"/>
<rect x="1" y="15" width="78" height="108" rx="2" stroke="#BACB37" stroke-width="2"/>
<rect width="70" height="110" rx="3" transform="matrix(0.983255 -0.182236 0 1 0 13.7565)" fill="#BACB37"/>
<rect width="70" height="80" rx="35" transform="matrix(0.983255 -0.182236 0 1 0 28.7565)" fill="#BACB37"/>
<path fill-rule="evenodd" clip-rule="evenodd" d="M33.9647 81.2387L33.9655 81.2248L33.9663 81.2122C33.9686 81.1722 33.9721 81.1126 33.9759 81.0379C33.9845 80.8711 33.9948 80.6292 34.0004 80.3245C34.0116 79.7158 34.0041 78.8569 33.9267 77.8436C33.7723 75.8231 33.3375 73.157 32.1961 70.6349C31.0504 68.1029 29.1929 65.7192 26.2136 64.2958C23.2386 62.8744 19.2052 62.4391 13.7599 63.6723L13.7903 64.6661C12.9323 64.752 12.9322 64.7525 12.9322 64.7532L12.9321 64.755L12.9318 64.7603L12.9308 64.7775L12.9276 64.8378C12.9251 64.8893 12.9219 64.9631 12.9187 65.0574C12.9122 65.2461 12.9058 65.5172 12.9053 65.8569C12.9044 66.5359 12.9272 67.4915 13.0219 68.6119C13.2104 70.8445 13.6871 73.7716 14.8544 76.4678C16.0252 79.1723 17.9028 81.6686 20.8928 82.963C23.8827 84.2574 27.8926 84.31 33.2385 82.3398C33.6537 82.1868 33.9564 81.7193 33.9647 81.2387ZM14.6261 65.4879C14.6261 65.5054 14.626 65.5232 14.626 65.5412C14.6251 66.166 14.6462 67.0558 14.7346 68.102C14.9119 70.2024 15.3572 72.8928 16.4141 75.3342C17.4674 77.7672 19.1162 79.9285 21.7009 81.0475C24.1666 82.1149 27.5682 82.2701 32.2789 80.6596C32.2793 80.6402 32.2797 80.6204 32.2801 80.6004C32.2902 80.051 32.2836 79.2657 32.2126 78.3358C32.07 76.4701 31.6704 74.054 30.6481 71.7949C29.6303 69.5458 27.9951 67.4495 25.3609 66.191C22.8608 64.9965 19.4068 64.5311 14.6261 65.4879Z" fill="white"/>
<path fill-rule="evenodd" clip-rule="evenodd" d="M20.0229 71.4796C20.31 70.9863 20.8497 70.8 21.2283 71.0636L20.7085 71.9567C21.2283 71.0636 21.2282 71.0635 21.2283 71.0636L21.2442 71.0747L21.2881 71.1055C21.3266 71.1327 21.3833 71.1728 21.4572 71.2256C21.6051 71.3313 21.822 71.4877 22.1004 71.6923C22.6572 72.1016 23.4599 72.7036 24.4476 73.4778C26.4228 75.0258 29.1402 77.2638 32.1119 80.0255C32.4548 80.3442 32.4662 80.9751 32.1374 81.4346C31.8085 81.8942 31.2639 82.0084 30.9209 81.6897C27.984 78.9603 25.2974 76.7478 23.3458 75.2182C22.3701 74.4535 21.5787 73.86 21.0322 73.4583C20.759 73.2574 20.547 73.1046 20.4039 73.0023C20.3323 72.9512 20.278 72.9127 20.2418 72.8872L20.2013 72.8587L20.1892 72.8503" fill="white"/>
<path fill-rule="evenodd" clip-rule="evenodd" d="M55.0868 50.6955C55.0874 50.6954 55.0879 50.6954 55.03 51.7038L55.0879 50.6954C55.5256 50.6486 55.871 50.9962 55.8895 51.5022C56.1202 57.7884 55.1315 62.6687 53.4563 66.4505C51.7786 70.2379 49.4462 72.8472 47.0944 74.6317C44.7518 76.4092 42.393 77.3674 40.6315 77.8826C39.7481 78.1409 39.0078 78.29 38.4847 78.3747C38.2229 78.4172 38.015 78.4436 37.87 78.4596C37.7975 78.4676 37.7407 78.4729 37.7008 78.4764C37.6808 78.4782 37.6651 78.4794 37.6537 78.4803L37.6398 78.4813L37.6338 78.4817C37.6332 78.4817 37.6326 78.4818 37.7212 77.4707L37.6326 78.4818C37.2468 78.5069 36.9354 78.2239 36.8723 77.7908C35.9917 71.7485 36.6471 66.9632 38.2154 63.1874C39.7837 59.4114 42.2164 56.7621 44.7205 54.9205C47.2167 53.0846 49.8065 52.0331 51.7551 51.4397C52.7329 51.1419 53.5581 50.9568 54.1418 50.8458C54.4339 50.7902 54.6661 50.7531 54.8273 50.7296C54.908 50.7179 54.9709 50.7096 55.0148 50.704L55.0661 50.6978L55.0808 50.6961L55.0853 50.6957L55.0868 50.6955ZM38.4652 76.3774C38.4829 76.3746 38.5009 76.3717 38.5191 76.3688C38.9884 76.2927 39.6637 76.1571 40.4735 75.9203C42.0983 75.4451 44.2357 74.5707 46.3331 72.9792C48.4212 71.3948 50.4723 69.0987 51.9555 65.7503C53.3635 62.5718 54.2898 58.3766 54.1955 52.8357C54.1802 52.8385 54.1647 52.8414 54.1491 52.8444C53.6119 52.9466 52.8436 53.1187 51.9306 53.3967C50.0975 53.955 47.7165 54.9297 45.4566 56.5918C43.2045 58.2481 41.0954 60.5687 39.7401 63.8317C38.4464 66.9467 37.7952 71.0271 38.4652 76.3774Z" fill="white"/>
<path fill-rule="evenodd" clip-rule="evenodd" d="M49.0554 60.6583C49.2961 61.0899 49.1592 61.7281 48.7495 62.0838C45.8646 64.5888 43.3263 68.3835 41.4873 71.6226C40.5743 73.2308 39.8469 74.6782 39.3483 75.7224C39.0992 76.2441 38.9077 76.6642 38.7792 76.952C38.715 77.0959 38.6665 77.2067 38.6346 77.2805C38.6186 77.3175 38.6067 77.3452 38.599 77.3631L38.5907 77.3827L38.5889 77.3869C38.5889 77.387 38.5889 77.3869 38.5889 77.3869M38.5889 77.3869C38.3661 77.9159 37.8451 78.1986 37.4254 78.0175C37.0057 77.8363 36.8461 77.2606 37.0688 76.7315L37.8288 77.0594C37.0688 76.7315 37.0687 76.7317 37.0688 76.7315L37.0703 76.7281L37.0733 76.7209L37.0842 76.6952C37.0936 76.6732 37.1073 76.6413 37.1251 76.6002C37.1608 76.5178 37.2131 76.3982 37.2814 76.2451C37.4181 75.9388 37.619 75.4985 37.8786 74.9547C38.3974 73.868 39.1531 72.3645 40.1025 70.6922C41.9884 67.3705 44.6925 63.2867 47.8778 60.521C48.2875 60.1653 48.8147 60.2267 49.0554 60.6583" fill="white"/>
<path fill-rule="evenodd" clip-rule="evenodd" d="M23.8268 44.8438C23.9721 44.3355 24.4058 43.9781 24.8333 44.0143C28.9499 44.3629 31.7819 45.6778 33.6859 47.5253C35.5934 49.3761 36.5201 51.714 36.9041 53.9925C37.2863 56.2598 37.1315 58.4653 36.8872 60.0908C36.7646 60.9065 36.6182 61.5847 36.5011 62.0631C36.4426 62.3026 36.3912 62.4927 36.3536 62.6257C36.3347 62.6923 36.3194 62.7446 36.3082 62.7817L36.2948 62.826L36.2906 62.8394L36.2892 62.8439L36.2887 62.8455C36.2885 62.8462 36.2883 62.8468 35.4869 62.6315L36.2883 62.8468C36.1468 63.294 35.78 63.6204 35.3935 63.6429C31.2177 63.887 28.3305 62.8748 26.3893 61.117C24.4479 59.3592 23.5286 56.9247 23.1583 54.5099C22.7894 52.1047 22.9596 49.6912 23.2141 47.8984C23.3419 46.9979 23.4926 46.2435 23.6121 45.7109C23.672 45.4443 23.7242 45.2326 23.7622 45.0851C23.7811 45.0113 23.7966 44.9535 23.8076 44.913L23.8208 44.8651L23.8247 44.8511L23.826 44.8466L23.8264 44.845C23.8266 44.8444 23.8268 44.8438 24.6386 45.0244L23.8268 44.8438ZM25.2312 46.1156C25.1313 46.579 25.0131 47.1962 24.9106 47.9181C24.6755 49.5742 24.5294 51.7396 24.8537 53.8541C25.1765 55.9591 25.9599 57.9854 27.5668 59.4404C29.0765 60.8075 31.3805 61.731 34.8878 61.6487C34.9831 61.2434 35.0965 60.697 35.1936 60.051C35.4137 58.5867 35.5449 56.6443 35.2137 54.6791C34.8843 52.7251 34.0984 50.7459 32.4727 49.1684C30.9566 47.6972 28.6675 46.5346 25.2312 46.1156ZM34.685 62.4178C34.6849 62.418 34.6849 62.418 34.685 62.4177L34.685 62.4178Z" fill="white"/>
<path fill-rule="evenodd" clip-rule="evenodd" d="M27.974 51.9642C28.3374 51.5411 28.8802 51.4944 29.1863 51.8601L28.5283 52.6263C29.1863 51.8601 29.1862 51.86 29.1863 51.8601L29.1903 51.8649L29.2006 51.8773L29.2395 51.9242C29.2732 51.9651 29.3225 52.0251 29.3856 52.1028C29.5117 52.2581 29.6932 52.484 29.9164 52.769C30.3626 53.3387 30.9768 54.1457 31.6501 55.0967C32.9877 56.986 34.5934 59.492 35.5603 61.8538C35.7525 62.3232 35.5561 62.9502 35.1215 63.2541C34.687 63.5581 34.1789 63.4239 33.9867 62.9544C33.0962 60.7795 31.5793 58.3966 30.2586 56.5311C29.6028 55.6048 29.004 54.818 28.5695 54.2632C28.3523 53.986 28.1765 53.767 28.0554 53.618C27.9949 53.5435 27.9481 53.4865 27.9167 53.4484L27.8813 53.4057L27.8727 53.3954L27.8707 53.393C27.8707 53.393 27.8707 53.393 27.8707 53.393C27.5646 53.0273 27.6107 52.3874 27.974 51.9642Z" fill="white"/>
</svg>
