<svg width="80" height="125" viewBox="0 0 80 125" fill="none" xmlns="http://www.w3.org/2000/svg">
<rect x="1" y="14" width="78" height="108" rx="2" fill="white"/>
<rect x="1" y="14" width="78" height="108" rx="2" stroke="#3277FF" stroke-width="2"/>
<rect width="70" height="110" rx="3" transform="matrix(0.983255 -0.182236 0 1 0 13)" fill="#3277FF"/>
<rect width="70" height="80" rx="35" transform="matrix(0.983255 -0.182236 0 1 0 28)" fill="#3277FF"/>
<path fill-rule="evenodd" clip-rule="evenodd" d="M32.3814 39.7194C33.5262 38.3096 35.3855 37.965 36.5303 38.9504L36.5336 38.9533L36.5336 38.9533C41.2021 43.0238 46.6523 43.9395 49.218 44.1096L49.036 45.1206L49.2358 44.111C50.4434 44.2224 51.4515 45.1863 51.503 46.6834C52.2572 58.4709 49.2877 67.2047 45.6078 73.3359C41.9441 79.4401 37.6183 82.8968 35.7071 84.2343C34.8799 84.8231 33.9571 84.9896 33.1253 84.7141C31.2158 84.086 26.8843 82.234 23.2171 77.4859C19.5339 72.7172 16.5635 65.0797 17.3278 53.0029C17.4117 51.4959 18.3967 50.1244 19.6714 49.5845C22.2388 48.4619 27.6863 45.5255 32.3798 39.7213L32.3814 39.7194ZM48.844 46.1312C46.1189 45.9491 40.3502 44.9836 35.3778 40.6491C34.8874 40.2288 34.0233 40.3891 33.5333 40.9916C28.5281 47.1808 22.7521 50.2847 20.0305 51.4739L20.0196 51.4787L20.0196 51.4786C19.4185 51.7318 19.072 52.3134 19.0447 52.8174L19.0441 52.8285L19.044 52.8285C18.3106 64.4036 21.1514 71.5732 24.5704 75.9999C28.0051 80.4469 32.0662 82.1789 33.8228 82.7565L33.8242 82.757C34.2174 82.8872 34.6283 82.8073 34.9992 82.5426L35.0071 82.537L35.0071 82.537C36.7634 81.3084 40.8212 78.0718 44.2543 72.3519C47.6717 66.658 50.5126 58.435 49.7858 47.1302C49.7849 47.1166 49.7843 47.1029 49.7839 47.0891C49.7716 46.6472 49.4511 46.1908 48.844 46.1312Z" fill="white"/>
<path fill-rule="evenodd" clip-rule="evenodd" d="M33.3522 49.817C33.6707 49.4419 34.1389 49.3516 34.4609 49.6033L41.9145 55.4282C42.111 55.5818 42.2247 55.8424 42.2247 56.1395V68.8892C42.2247 69.4415 41.8395 69.9606 41.3643 70.0486L26.6479 72.7761C26.1728 72.8642 25.7876 72.4879 25.7876 71.9356V59.1859L26.6479 59.0265L26.0894 58.3694L33.3522 49.817ZM27.5083 59.3282V70.6167L40.504 68.2081V56.9273L33.9179 51.7804L27.5083 59.3282Z" fill="white"/>
<path fill-rule="evenodd" clip-rule="evenodd" d="M33.3933 49.796C33.7066 49.44 34.1563 49.3529 34.4733 49.5869L44.3523 56.8786C44.7244 57.1532 44.7864 57.7708 44.4908 58.258C44.1952 58.7452 43.654 58.9176 43.282 58.643L33.946 51.7521L24.7401 62.213C24.3724 62.6309 23.8303 62.6683 23.5295 62.2967C23.2286 61.925 23.2828 61.2849 23.6505 60.867L33.3933 49.796Z" fill="white"/>
</svg>
