<svg width="80" height="125" viewBox="0 0 80 125" fill="none" xmlns="http://www.w3.org/2000/svg">
<rect x="1" y="15" width="78" height="108" rx="2" fill="white"/>
<rect x="1" y="15" width="78" height="108" rx="2" stroke="#C462F2" stroke-width="2"/>
<rect width="70" height="110" rx="3" transform="matrix(0.983255 -0.182236 0 1 0 13.7565)" fill="#C462F2"/>
<rect width="70" height="80" rx="35" transform="matrix(0.983255 -0.182236 0 1 0 28.7565)" fill="#C462F2"/>
<path fill-rule="evenodd" clip-rule="evenodd" d="M15.9165 67.2622V85.7107C15.9165 86.263 15.5313 86.7821 15.0561 86.8701C14.581 86.9582 14.1958 86.5819 14.1958 86.0296V67.5088C14.1958 66.4357 14.9311 65.4448 15.8543 65.2737L22.9533 63.958C23.8765 63.7869 24.6118 64.5052 24.6118 65.5783V84.0991C24.6118 84.6514 24.2266 85.1705 23.7514 85.2586C23.2763 85.3466 22.8911 84.9703 22.8911 84.418V65.9695L15.9165 67.2622Z" fill="white"/>
<path fill-rule="evenodd" clip-rule="evenodd" d="M21.6575 45.6756V65.1657C21.6575 65.7179 21.2723 66.237 20.7971 66.3251C20.322 66.4132 19.9368 66.0369 19.9368 65.4846V45.9222C19.9368 44.8491 20.6719 43.8583 21.5952 43.6871L31.6767 41.8186C32.5999 41.6475 33.3352 42.3658 33.3352 43.4389V63.4733C33.3352 64.0256 32.95 64.5447 32.4748 64.6327C31.9997 64.7208 31.6145 64.3445 31.6145 63.7922V43.8302L21.6575 45.6756Z" fill="white"/>
<path fill-rule="evenodd" clip-rule="evenodd" d="M29.0784 65.262V83.271C29.0784 83.8233 28.6932 84.3424 28.218 84.4305C27.7429 84.5185 27.3577 84.1422 27.3577 83.5899V65.5085C27.3577 64.4354 28.0929 63.4446 29.0161 63.2735L47.2748 59.8895C48.198 59.7183 48.9333 60.4366 48.9333 61.5097V79.5911C48.9333 80.1434 48.5481 80.6625 48.0729 80.7506C47.5978 80.8386 47.2126 80.4623 47.2126 79.91V61.901L29.0784 65.262Z" fill="white"/>
<path fill-rule="evenodd" clip-rule="evenodd" d="M39.5356 51.6549L37.4861 62.4547C37.3802 63.0127 36.9189 63.4349 36.4557 63.3977C35.9925 63.3604 35.7028 62.8779 35.8087 62.3199L37.867 51.4736C37.8688 51.4639 37.8708 51.4542 37.8729 51.4445C38.0639 50.5527 38.6988 49.81 39.5038 49.6608L43.1444 48.986C44.0676 48.8149 44.8028 49.5332 44.8028 50.6063V51.1199L52.9738 49.6055C53.897 49.4344 54.6323 50.1527 54.6323 51.2258V78.4536C54.6323 79.0059 54.2471 79.525 53.7719 79.6131C53.2968 79.7012 52.9116 79.3248 52.9116 78.7725V51.617L44.7406 53.1314C43.8173 53.3025 43.0822 52.5842 43.0822 51.5111V50.9976L39.5356 51.6549Z" fill="white"/>
<path d="M34.4209 71.0186L31.8865 71.4883C31.8865 71.4883 31.7605 71.4466 31.7605 71.3652V68.4032C31.7605 68.4032 31.8165 68.2463 31.8865 68.2334L34.4209 67.7636C34.4209 67.7636 34.5469 67.8054 34.5469 67.8868V70.8488C34.5469 70.8488 34.5469 70.9953 34.4209 71.0186Z" fill="white"/>
<path d="M39.1538 70.1415L36.6194 70.6112C36.6194 70.6112 36.4934 70.5695 36.4934 70.4881V67.5261C36.4934 67.5261 36.5494 67.3692 36.6194 67.3562L39.1538 66.8865C39.1538 66.8865 39.2798 66.9282 39.2798 67.0096V69.9717C39.2798 69.9717 39.2798 70.1181 39.1538 70.1415Z" fill="white"/>
<path d="M43.8723 69.2669L41.3379 69.7366C41.3379 69.7366 41.2119 69.6949 41.2119 69.6135V66.6515C41.2119 66.6515 41.2679 66.4946 41.3379 66.4816L43.8723 66.0119C43.8723 66.0119 43.9983 66.0537 43.9983 66.1351V69.0971C43.9983 69.0971 43.9983 69.2435 43.8723 69.2669Z" fill="white"/>
<path d="M34.4209 76.7313L31.8865 77.201C31.8865 77.201 31.7605 77.1592 31.7605 77.0779V74.1158C31.7605 74.1158 31.8165 73.959 31.8865 73.946L34.4209 73.4763C34.4209 73.4763 34.5469 73.518 34.5469 73.5994V76.5614C34.5469 76.5614 34.5469 76.7079 34.4209 76.7313Z" fill="white"/>
<path d="M39.1538 75.8541L36.6194 76.3238C36.6194 76.3238 36.4934 76.2821 36.4934 76.2007V73.2387C36.4934 73.2387 36.5494 73.0818 36.6194 73.0689L39.1538 72.5992C39.1538 72.5992 39.2798 72.6409 39.2798 72.7223V75.6843C39.2798 75.6843 39.2798 75.8308 39.1538 75.8541Z" fill="white"/>
<path d="M43.8723 74.9795L41.3379 75.4493C41.3379 75.4493 41.2119 75.4075 41.2119 75.3261V72.3641C41.2119 72.3641 41.2679 72.2073 41.3379 72.1943L43.8723 71.7246C43.8723 71.7246 43.9983 71.7663 43.9983 71.8477V74.8097C43.9983 74.8097 43.9983 74.9562 43.8723 74.9795Z" fill="white"/>
<path d="M34.4209 82.4439L31.8865 82.9136C31.8865 82.9136 31.7605 82.8719 31.7605 82.7905V79.8285C31.7605 79.8285 31.8165 79.6716 31.8865 79.6587L34.4209 79.1889C34.4209 79.1889 34.5469 79.2307 34.5469 79.3121V82.2741C34.5469 82.2741 34.5469 82.4205 34.4209 82.4439Z" fill="white"/>
<path d="M20.5171 85.0209L17.9827 85.4906C17.9827 85.4906 17.8567 85.4488 17.8567 85.3675V82.4054C17.8567 82.4054 17.9127 82.2486 17.9827 82.2356L20.5171 81.7659C20.5171 81.7659 20.6431 81.8076 20.6431 81.889V84.851C20.6431 84.851 20.6431 84.9975 20.5171 85.0209Z" fill="white"/>
<path d="M20.5171 79.3082L17.9827 79.7779C17.9827 79.7779 17.8567 79.7362 17.8567 79.6548V76.6928C17.8567 76.6928 17.9127 76.5359 17.9827 76.523L20.5171 76.0533C20.5171 76.0533 20.6431 76.095 20.6431 76.1764V79.1384C20.6431 79.1384 20.6431 79.2849 20.5171 79.3082Z" fill="white"/>
<path d="M20.5171 73.5956L17.9827 74.0653C17.9827 74.0653 17.8567 74.0236 17.8567 73.9422V70.9802C17.8567 70.9802 17.9127 70.8233 17.9827 70.8103L20.5171 70.3406C20.5171 70.3406 20.6431 70.3824 20.6431 70.4637V73.4258C20.6431 73.4258 20.6431 73.5722 20.5171 73.5956Z" fill="white"/>
<path d="M27.7701 63.821L25.2217 64.2933C25.2217 64.2933 25.0957 64.2516 25.0957 64.1702V61.2082C25.0957 61.2082 25.1517 61.0513 25.2217 61.0384L27.7701 60.566C27.7701 60.566 27.8961 60.6078 27.8961 60.6892V63.6512C27.8961 63.6512 27.8401 63.808 27.7701 63.821Z" fill="white"/>
<path d="M27.7701 57.3763L25.2217 57.8486C25.2217 57.8486 25.0957 57.8069 25.0957 57.7255V54.7635C25.0957 54.7635 25.1517 54.6066 25.2217 54.5936L27.7701 54.1213C27.7701 54.1213 27.8961 54.1631 27.8961 54.2445V57.2065C27.8961 57.2065 27.8401 57.3633 27.7701 57.3763Z" fill="white"/>
<path d="M27.7701 50.8828L25.2217 51.3551C25.2217 51.3551 25.0957 51.3133 25.0957 51.232V48.2699C25.0957 48.2699 25.1517 48.1131 25.2217 48.1001L27.7701 47.6278C27.7701 47.6278 27.8961 47.6695 27.8961 47.7509V50.7129C27.8961 50.7129 27.8401 50.8698 27.7701 50.8828Z" fill="white"/>
<path d="M39.1538 81.5667L36.6194 82.0364C36.6194 82.0364 36.4934 81.9947 36.4934 81.9133V78.9513C36.4934 78.9513 36.5494 78.7944 36.6194 78.7815L39.1538 78.3117C39.1538 78.3117 39.2798 78.3535 39.2798 78.4349V81.3969C39.2798 81.3969 39.2798 81.5434 39.1538 81.5667Z" fill="white"/>
<path d="M43.8723 80.6922L41.3379 81.1619C41.3379 81.1619 41.2119 81.1202 41.2119 81.0388V78.0768C41.2119 78.0768 41.2679 77.9199 41.3379 77.9069L43.8723 77.4372C43.8723 77.4372 43.9983 77.479 43.9983 77.5603V80.5224C43.9983 80.5224 43.9983 80.6688 43.8723 80.6922Z" fill="white"/>
</svg>
