<svg width="80" height="125" viewBox="0 0 80 125" fill="none" xmlns="http://www.w3.org/2000/svg">
<rect x="1" y="15" width="78" height="108" rx="2" fill="white"/>
<rect x="1" y="15" width="78" height="108" rx="2" stroke="#FF2828" stroke-width="2"/>
<rect width="70" height="110" rx="3" transform="matrix(0.983255 -0.182236 0 1 0 13.7565)" fill="#FF2828"/>
<rect width="70" height="80" rx="35" transform="matrix(0.983255 -0.182236 0 1 0 28.7565)" fill="#FF2828"/>
<path fill-rule="evenodd" clip-rule="evenodd" d="M30.868 52.3433C30.0097 47.0522 25.4986 44.2288 20.7605 46.0944L20.7594 46.0949C16.0625 47.9546 12.9064 53.7869 13.7556 59.1418C13.8005 59.4363 13.8519 59.7565 13.9162 60.087C12.7748 60.8636 12.078 62.3942 12.3013 63.8306L12.3013 63.8306L12.3025 63.8382C12.5782 65.5038 13.9658 66.3868 15.4419 65.8118C15.4625 65.8038 15.4828 65.7947 15.5029 65.7844C15.6101 65.73 15.7233 65.6701 15.8392 65.6028C16.6276 67.0122 17.655 68.2374 18.9592 68.9716C20.4452 69.808 22.2584 69.9874 24.3979 69.1339C26.5806 68.273 28.1372 66.7543 29.1951 64.9065C30.1171 63.2962 30.6413 61.4709 30.9042 59.6704C31.033 59.6346 31.1612 59.5851 31.287 59.5233C32.7189 58.9455 33.6983 57.2814 33.554 55.709C33.5658 55.6224 33.5652 55.5354 33.5514 55.4519C33.3134 54.0138 32.2464 53.1591 31.0093 53.3226C30.973 52.9974 30.9308 52.6499 30.868 52.3433ZM32.2431 55.7802C32.0313 55.0061 31.3474 54.637 30.6353 54.9143C30.5985 54.9287 30.5611 54.9394 30.5237 54.9463L30.448 54.9604C30.1301 55.0193 29.8595 54.8003 29.8104 54.4443C29.7758 54.1927 29.7526 53.9759 29.7312 53.7763C29.6978 53.4638 29.6689 53.1938 29.6075 52.8991C29.6051 52.8874 29.6029 52.8756 29.601 52.8636C28.8768 48.3519 25.0312 45.9371 20.9889 47.5284C16.9919 49.1114 14.3014 54.08 15.0262 58.6441L15.027 58.6489L15.027 58.6489C15.1019 59.1402 15.1883 59.6563 15.3152 60.1573C15.3699 60.3732 15.3303 60.6233 15.2084 60.833C15.0864 61.0428 14.896 61.1881 14.694 61.2255L14.6832 61.2275C13.9201 61.567 13.4423 62.4871 13.5718 63.3317C13.7198 64.2147 14.4356 64.6624 15.1898 64.3867C15.4326 64.2619 15.6351 64.1404 15.8016 64.0006C15.9529 63.8736 16.1322 63.8165 16.2989 63.8422C16.4656 63.8679 16.6056 63.9743 16.6873 64.1372C17.4418 65.6416 18.4285 66.8889 19.6578 67.5809C20.8716 68.2641 22.3526 68.425 24.166 67.7013L24.1686 67.7003C26.0299 66.9664 27.2981 65.708 28.16 64.2026C29.0331 62.6776 29.514 60.8537 29.7171 58.9861C29.7415 58.7617 29.8484 58.5458 30.009 58.3965C30.1696 58.2471 30.3675 58.1795 30.5495 58.2119C30.66 58.2316 30.805 58.2118 30.9721 58.1268C30.9919 58.1168 31.0119 58.1078 31.0322 58.0998C31.899 57.7606 32.3919 56.7753 32.2534 55.9733C32.2425 55.9104 32.2392 55.8455 32.2431 55.7802Z" fill="white"/>
<path d="M29.0997 54.9004L30.4328 54.3716C30.357 53.7166 30.2964 53.0764 30.2207 52.4918C30.0086 51.2106 29.5693 50.0947 28.9937 49.1802V49.145C27.8576 47.4364 26.1156 46.4036 24.1615 46.2551C24.4644 45.4067 24.5705 44.4715 24.4341 43.5812C24.0554 41.2216 22.0408 39.9576 19.9503 40.7852C17.8599 41.6128 16.4511 44.2156 16.8298 46.5752C16.9662 47.4655 17.3449 48.1876 17.8599 48.7436C16.1785 50.3229 14.9515 52.5575 14.4667 54.8658L14.4971 54.8954C14.2547 56.1376 14.1941 57.4693 14.391 58.7357C14.4971 59.3147 14.6031 59.9289 14.7697 60.5319L16.1027 60.0031L16.8904 55.9484C18.4355 55.2219 21.147 53.6101 21.556 50.8228C22.7527 52.9956 25.6308 52.3741 27.2062 51.8884L29.0846 54.8856L29.0997 54.9004Z" fill="white"/>
<path fill-rule="evenodd" clip-rule="evenodd" d="M38.2494 48.7648C39.0522 43.1162 43.5385 38.6159 48.28 38.6867C53.012 38.7428 56.1686 43.3728 55.351 49.0359L55.3479 49.0561C55.3285 49.1722 55.3092 49.2937 55.2892 49.4197C55.2544 49.6387 55.2174 49.8709 55.1746 50.1105C56.1485 50.5556 56.7134 51.7534 56.5351 53.1995L56.5325 53.2193C56.2758 54.9881 54.8844 56.4127 53.3862 56.3662C53.3554 56.3654 53.3245 56.3638 53.2935 56.3614C52.5238 58.0513 51.5129 59.651 50.2097 60.8688C48.7359 62.246 46.925 63.0987 44.7609 63.0727L44.758 63.0726C40.6805 63.0017 38.8514 59.7142 38.2436 56.0839C38.2281 56.084 38.2125 56.0838 38.197 56.0835C36.7196 56.058 35.7179 54.6314 35.9927 52.8429C36.1807 51.4814 37.0668 50.3464 38.1189 49.9007C38.1528 49.5034 38.1978 49.1228 38.2494 48.7648ZM54.3691 51.4762C54.2716 51.4867 54.1747 51.4714 54.0862 51.4275C53.8328 51.3021 53.7115 50.9751 53.791 50.6319C53.8867 50.2188 53.9484 49.8314 54.0142 49.418C54.0355 49.2843 54.0572 49.1478 54.0807 49.0069C54.7728 44.182 52.0836 40.2527 48.0633 40.2056L48.0616 40.2056C44.0178 40.1447 40.2037 43.9783 39.5216 48.7808L39.5213 48.7829C39.4493 49.2821 39.3917 49.8282 39.363 50.4015C39.3425 50.8105 39.0483 51.1777 38.6993 51.2301C38.0085 51.3338 37.3779 52.026 37.2654 52.8556L37.2627 52.8739C37.1183 53.7998 37.6292 54.5519 38.42 54.5647L38.4253 54.5648L38.4253 54.5648C38.5253 54.5674 38.649 54.5464 38.7946 54.5195C39.1142 54.4602 39.3857 54.682 39.4328 55.0408C39.8966 58.5768 41.4589 61.4917 44.9782 61.5538C46.8277 61.5757 48.3112 60.8583 49.5106 59.7375C50.7253 58.6025 51.6853 57.0181 52.4172 55.2654C52.5764 54.8842 52.944 54.6697 53.2553 54.7765C53.3834 54.8204 53.5141 54.8449 53.6187 54.8477L53.6217 54.8478C54.3926 54.8721 55.1188 54.1484 55.2595 53.2084C55.3703 52.281 54.9595 51.6248 54.3691 51.4762Z" fill="white"/>
<path d="M48.1711 39.4457C45.2627 39.3861 42.4452 41.2288 40.6577 43.9899L54.3061 44.2069C53.3517 41.3907 51.0795 39.4701 48.1711 39.4457Z" fill="white"/>
<path fill-rule="evenodd" clip-rule="evenodd" d="M27.084 73.3964C27.7909 67.7195 32.1914 63.121 36.9347 63.0592C41.7087 62.9917 44.9665 67.5024 44.2656 73.1464C44.2282 73.478 44.175 73.8173 44.1168 74.1542C45.2564 74.4685 45.9793 75.7143 45.7957 77.2809L45.7949 77.2879L45.7949 77.2879C45.576 79.0397 44.192 80.489 42.7107 80.5179C42.5765 80.5246 42.45 80.5154 42.3307 80.4954C41.5943 82.1962 40.6213 83.8212 39.3504 85.0768C37.8932 86.5164 36.0807 87.433 33.883 87.4518C31.7131 87.4915 30.1349 86.6195 29.0358 85.216C28.073 83.9866 27.4966 82.3752 27.18 80.6784C27.0524 80.6997 26.9295 80.7122 26.8168 80.7185C26.809 80.719 26.8011 80.7193 26.7932 80.7194C25.3174 80.7379 24.2898 79.3124 24.5077 77.5456L24.5078 77.5441C24.6963 76.0357 25.7487 74.7515 26.9832 74.4054C27.0063 74.0681 27.0368 73.726 27.084 73.3964ZM43.3625 75.5966L43.354 75.5982C43.1586 75.6344 42.9738 75.5658 42.8513 75.4116C42.7288 75.2574 42.6819 75.0343 42.7236 74.8047C42.731 74.7645 42.7382 74.7245 42.7455 74.6849C42.845 74.1382 42.9346 73.6465 42.9871 73.1796L42.9883 73.1685L42.9884 73.1685C43.5874 68.3618 40.817 64.5203 36.7463 64.578L36.7457 64.5781C32.7058 64.6305 28.9591 68.5451 28.3596 73.3876L28.3571 73.4062C28.2884 73.882 28.2597 74.4082 28.2289 74.9867C28.2077 75.386 27.9257 75.7462 27.5849 75.8093L27.5092 75.8234C27.4778 75.8292 27.4465 75.8323 27.4155 75.8328C26.6288 75.8445 25.8986 76.6162 25.7844 77.5274C25.67 78.4584 26.2118 79.2028 26.9717 79.2006C27.2021 79.1864 27.4143 79.1389 27.5496 79.0745C27.7244 78.9913 27.9095 78.9935 28.0601 79.0804C28.2107 79.1674 28.3132 79.3313 28.3427 79.5324C28.6041 81.3155 29.138 82.9359 30.046 84.0954C30.9421 85.2396 32.2261 85.9674 34.069 85.933L34.0746 85.9328L34.0746 85.9329C35.9504 85.9175 37.4316 85.1496 38.6171 83.9784C39.8188 82.7912 40.7524 81.1525 41.4572 79.3581C41.5355 79.1588 41.6758 78.9935 41.8452 78.9011C42.0145 78.8088 42.198 78.7975 42.3525 78.8698C42.5628 78.9683 42.7169 79.0084 42.8648 79.0001C42.8723 78.9997 42.8797 78.9994 42.8872 78.9993C43.6731 78.9876 44.4027 78.2174 44.5179 77.3073C44.6328 76.3145 44.1029 75.6135 43.3625 75.5966Z" fill="white"/>
<path d="M43.1571 68.3522C43.1571 68.3522 43.1571 68.317 43.1268 68.3226C43.1268 68.2874 43.0965 68.2402 43.0511 68.2134C42.9753 68.069 42.9147 67.9218 42.8844 67.7689C42.8844 67.7689 42.8743 67.7414 42.8541 67.6865C41.718 65.3088 39.567 63.7532 36.8858 63.7747C34.2046 63.7962 31.6446 65.4152 29.9329 67.81L29.9026 67.8508C29.7966 67.9937 29.6905 68.1367 29.5996 68.312C29.5693 68.3528 29.5239 68.414 29.5239 68.4492L29.4936 68.4901C28.5999 69.9234 28.0242 71.5443 27.7819 73.3147C27.7061 73.9273 27.6455 74.5724 27.6152 75.2647L28.9483 75.2641L30.5994 71.8417C32.1142 71.7546 36.3556 71.2502 39.2338 68.5688C39.2338 68.5688 39.3398 70.8556 41.1576 71.5927L41.9756 75.1033L43.3086 75.1028C43.4449 74.4437 43.5509 73.7902 43.6115 73.1275C43.8842 71.4043 43.6873 69.7681 43.1723 68.3494L43.1571 68.3522Z" fill="white"/>
</svg>
