<svg width="80" height="125" viewBox="0 0 80 125" fill="none" xmlns="http://www.w3.org/2000/svg">
<rect x="1" y="15" width="78" height="108" rx="2" fill="white"/>
<rect x="1" y="15" width="78" height="108" rx="2" stroke="#FF7A00" stroke-width="2"/>
<rect width="70" height="110" rx="3" transform="matrix(0.983255 -0.182236 0 1 0 13.7565)" fill="#FF7A00"/>
<rect width="70" height="80" rx="35" transform="matrix(0.983255 -0.182236 0 1 0 28.7565)" fill="#FF7A00"/>
<path fill-rule="evenodd" clip-rule="evenodd" d="M20.1238 44.9138C20.3648 44.5902 20.6731 44.425 20.9521 44.3732L47.8759 39.3832C48.1549 39.3315 48.4633 39.3825 48.7042 39.6168C48.9455 39.8514 49.0399 40.1929 49.0399 40.5191V46.2216C49.0399 46.5478 48.9455 46.9242 48.7042 47.2483C48.4633 47.572 48.1549 47.7372 47.8759 47.7889L43.4063 48.6173C43.2755 48.8399 43.1084 49.1968 43.0269 49.669C43.0435 49.7585 43.049 49.8532 43.0424 49.9506C42.9866 50.7734 42.7306 51.9837 42.1242 53.1195C41.5834 54.1323 40.7568 55.0919 39.5783 55.6208C39.5924 55.7334 39.6021 55.8519 39.6051 55.9745C39.6127 56.2927 39.5753 56.6956 39.408 57.1081C39.6352 57.3735 39.8576 57.7385 40.0046 58.2612C40.6544 58.2165 41.7547 58.1547 42.9217 58.1747C44.3562 58.1993 46.0589 58.346 47.1035 58.9106L47.107 58.9125C47.6732 59.2229 48.0665 59.6943 48.2036 60.3415C48.3372 60.972 48.1908 61.5985 47.9979 62.0861C47.6975 62.8458 47.1888 63.5092 46.8821 63.8711C46.7973 64.6409 46.5421 66.3435 45.7462 68.0979C44.9104 69.9406 43.4723 71.8411 41.0901 72.7606C41.1701 72.9872 41.2293 73.2421 41.2444 73.5193C41.2653 73.9054 41.2007 74.3491 40.9793 74.7935C40.8819 74.9889 40.7628 75.1672 40.626 75.3293C41.0233 75.9091 41.5031 76.7307 41.7798 77.5766L41.7842 77.5902C41.9748 78.204 42.2085 78.5783 42.3761 78.7892C42.4605 78.8953 42.5296 78.9618 42.5702 78.9972C42.5905 79.0149 42.6037 79.0249 42.6083 79.0282C42.8325 79.1743 42.9659 79.4514 42.9659 79.7734V80.2932C42.9659 80.8455 42.5807 81.3646 42.1055 81.4527L26.8017 84.2891C26.3265 84.3772 25.9413 84.0008 25.9413 83.4486V82.9288C25.9413 82.6185 26.0652 82.3031 26.2762 82.0749C26.2768 82.0742 26.2775 82.0734 26.2785 82.0723C26.285 82.0647 26.3002 82.0466 26.3225 82.0178C26.3669 81.9603 26.4393 81.8603 26.5266 81.7161C26.7003 81.4289 26.9354 80.9619 27.1257 80.2981L27.1274 80.2922C27.4046 79.3422 27.9009 78.3375 28.2859 77.6271C28.1455 77.5171 28.0225 77.3846 27.9214 77.2263C27.6925 76.8677 27.6214 76.4474 27.6431 76.0451C27.6585 75.759 27.7208 75.4792 27.8047 75.2204C25.4299 75.1794 23.9954 73.814 23.161 72.2839C22.3653 70.8247 22.11 69.2171 22.0251 68.4785C21.7194 68.232 21.2104 67.76 20.9098 67.1133C20.7163 66.6972 20.5701 66.1255 20.7035 65.4452C20.8401 64.7484 21.2317 64.1303 21.7962 63.6065C22.3314 63.11 23.0243 62.6794 23.7267 62.3128C24.4408 61.9401 25.22 61.6053 25.961 61.3181C27.1413 60.8607 28.2586 60.5111 28.9158 60.3139C29.0616 59.773 29.2655 59.3146 29.5007 58.9431C29.3332 58.5895 29.2944 58.1986 29.3022 57.8726C29.305 57.753 29.3142 57.6352 29.3275 57.5216C28.14 57.4321 27.3119 56.7795 26.7699 55.9652C26.1629 55.0534 25.9103 53.9418 25.8402 53.1614L25.8394 53.1527L25.8394 53.1526C25.7898 52.5458 25.5794 52.1604 25.4217 51.9506L20.9521 52.779C20.6731 52.8307 20.3648 52.7797 20.1238 52.5454C19.8825 52.3108 19.7881 51.9693 19.7881 51.6431V45.9406C19.7881 45.6144 19.8825 45.2379 20.1238 44.9138ZM26.2826 82.068L26.2845 82.066L26.2856 82.0648M40.6556 79.7214C40.4803 79.4098 40.3067 79.0225 40.1581 78.5456C39.8742 77.6826 39.2578 76.7555 38.9013 76.3092C38.3861 75.6681 38.7026 74.6514 39.3056 74.1906C39.3155 74.183 39.3256 74.1756 39.3357 74.1684C39.4179 74.1101 39.4672 74.0626 39.4948 74.0315C39.5085 74.0161 39.5171 74.0047 39.5219 73.9975C39.5242 73.9942 39.5258 73.9916 39.5269 73.9897C39.5273 73.985 39.5278 73.9761 39.527 73.9623C39.5242 73.9098 39.5062 73.8208 39.4544 73.7006C39.4054 73.5867 39.3383 73.4731 39.2658 73.3707C38.6853 72.5966 39.2257 71.341 40.0699 71.076C40.0831 71.0718 40.0963 71.068 40.1095 71.0646C42.3361 70.4862 43.5508 68.9289 44.255 67.3765C44.9641 65.8133 45.1465 64.2587 45.1947 63.7439C45.2005 63.5959 45.228 63.3938 45.3252 63.171C45.4241 62.9445 45.5568 62.7858 45.6517 62.6868C45.8691 62.4447 46.2726 61.9479 46.4565 61.483C46.5426 61.2653 46.5389 61.1582 46.5293 61.113C46.5233 61.0844 46.4875 60.9384 46.1904 60.775C45.4651 60.384 44.0791 60.2246 42.6264 60.1998C41.2542 60.1763 39.9713 60.2719 39.4611 60.3099L39.4507 60.3106C38.8677 60.388 38.5163 59.9241 38.4269 59.4749C38.4239 59.46 38.4213 59.445 38.419 59.4298C38.3389 58.9089 38.1512 58.6846 37.9886 58.5359C37.9833 58.5311 37.978 58.5261 37.9728 58.521C37.4689 58.031 37.4582 57.1564 37.8755 56.4805C37.8794 56.4661 37.8869 56.4266 37.885 56.3487C37.8816 56.2063 37.8486 56.0351 37.7967 55.8438C37.6781 55.418 37.7669 54.9541 37.9893 54.5817C38.196 54.2358 38.4876 54.012 38.7653 53.9002C38.7896 53.8905 38.814 53.8819 38.8385 53.8745C39.7414 53.6032 40.3211 52.9706 40.7071 52.2476C41.0395 51.625 41.2201 50.9438 41.2939 50.4213C41.2732 50.3215 41.2667 50.2149 41.2754 50.1052C41.393 48.6245 42.0345 47.6126 42.3303 47.2153C42.4012 47.12 42.516 46.9808 42.6813 46.864C42.8536 46.7423 43.0171 46.6895 43.1487 46.6651L47.3192 45.8921V41.4864L21.5088 46.2701V50.6758L25.6793 49.9028C25.8109 49.8784 25.9744 49.8707 26.1467 49.9285C26.312 49.984 26.4268 50.0807 26.4977 50.1497C26.7932 50.437 27.4336 51.2097 27.5522 52.6437C27.6015 53.1865 27.7848 53.9639 28.1869 54.5681C28.5718 55.1462 29.1506 55.5655 30.0678 55.5C30.0753 55.4994 30.0828 55.499 30.0902 55.4987C30.7482 55.472 31.3164 56.0967 31.1221 57.0324C31.1182 57.0513 31.1138 57.0701 31.109 57.0889C31.0585 57.2866 31.0256 57.4663 31.0222 57.6092C31.0198 57.71 31.0328 57.7478 31.0366 57.7561C31.0453 57.7676 31.0537 57.7795 31.0617 57.7916C31.3765 58.2634 31.4844 59.1368 30.9096 59.8577L30.9016 59.8678L30.9016 59.8677C30.7904 60.0041 30.593 60.3338 30.4807 60.9456L30.4803 60.9477C30.3909 61.4304 30.039 62.0251 29.4552 62.1633C28.9418 62.3139 27.6401 62.6975 26.2559 63.2339C25.551 63.5071 24.8381 63.8148 24.2054 64.1451C23.5609 64.4815 23.0522 64.8144 22.7225 65.1203C22.4222 65.399 22.3846 65.5617 22.378 65.5952C22.3682 65.6451 22.3648 65.7531 22.4503 65.9369C22.6373 66.3391 23.0519 66.6883 23.2685 66.8472C23.2942 66.8661 23.3187 66.8868 23.3419 66.9094C23.5346 67.0968 23.6237 67.3043 23.6806 67.524C23.6943 67.577 23.7038 67.6321 23.7091 67.6886C23.7516 68.1447 23.9246 69.6754 24.6522 71.0097C25.3545 72.2975 26.5644 73.402 28.7793 73.1631C29.2878 73.0869 29.638 73.4145 29.7837 73.7855C29.9241 74.1433 29.9308 74.6795 29.6331 75.1689C29.5528 75.3102 29.4827 75.4517 29.4324 75.5824C29.3784 75.7226 29.3627 75.8107 29.3604 75.8532C29.3602 75.8563 29.3601 75.8589 29.3601 75.8611C29.3657 75.8676 29.3767 75.8788 29.3961 75.893C29.4283 75.9166 29.4833 75.9481 29.5723 75.9783C29.5821 75.9817 29.5919 75.9853 29.6016 75.9891C30.2006 76.2248 30.5168 77.1136 30.0163 77.9409C29.6553 78.566 29.0271 79.7094 28.7479 80.6642C28.5961 81.1933 28.4188 81.6451 28.2414 82.0223L40.6556 79.7214ZM31.0376 57.758C31.0376 57.758 31.0373 57.7575 31.0368 57.7564C31.0374 57.7574 31.0377 57.758 31.0376 57.758ZM37.8735 56.487C37.8734 56.4869 37.8737 56.486 37.8744 56.4844C37.8738 56.4862 37.8735 56.487 37.8735 56.487ZM26.2862 82.0642C26.2861 82.0643 26.286 82.0644 26.286 82.0644Z" fill="white"/>
</svg>
