<svg width="80" height="125" viewBox="0 0 80 125" fill="none" xmlns="http://www.w3.org/2000/svg">
<rect x="1" y="15" width="78" height="108" rx="2" fill="white"/>
<rect x="1" y="15" width="78" height="108" rx="2" stroke="#FF9FDF" stroke-width="2"/>
<rect width="70" height="110" rx="3" transform="matrix(0.983255 -0.182236 0 1 0 13.7565)" fill="#FF9FDF"/>
<rect width="70" height="80" rx="35" transform="matrix(0.983255 -0.182236 0 1 0 28.7565)" fill="#FF9FDF"/>
<path fill-rule="evenodd" clip-rule="evenodd" d="M46.3239 41.5998L51.7991 46.949C52.1351 47.2772 52.1351 47.9104 51.7991 48.3632L46.3239 55.7419C45.9879 56.1947 45.4432 56.2957 45.1072 55.9674C44.7712 55.6392 44.7712 55.006 45.1072 54.5532L49.1137 49.1538L17.6372 54.9876V52.9876L49.1137 47.1538L45.1072 43.2395C44.7712 42.9112 44.7712 42.2781 45.1072 41.8253C45.4432 41.3725 45.9879 41.2715 46.3239 41.5998Z" fill="white"/>
<path fill-rule="evenodd" clip-rule="evenodd" d="M17.0288 77.8075C16.6929 77.4793 16.6929 76.8461 17.0288 76.3933L22.5041 69.0146C22.8401 68.5618 23.3848 68.4608 23.7208 68.7891C24.0568 69.1173 24.0568 69.7505 23.7208 70.2033L19.7143 75.6027L51.1908 69.7689V71.7689L19.7143 77.6027L23.7208 81.517C24.0568 81.8452 24.0568 82.4784 23.7208 82.9312C23.3848 83.384 22.8401 83.4849 22.5041 83.1567L17.0288 77.8075Z" fill="white"/>
</svg>
