<svg width="100%" height="auto" viewBox="0 0 134 112" fill="none" xmlns="http://www.w3.org/2000/svg">
    <path d="M1.75 18.75H130.25V61.25H1.75V18.75Z" fill="#B2B2B2" stroke="#B2B2B2"
        stroke-width="1.5" />
    <path
        d="M3.50555 17.9367V57.9552C3.50555 58.6456 4.06519 59.2052 4.75555 59.2052H113.89C114.58 59.2052 115.14 58.6456 115.14 57.9552V13C115.14 12.3096 114.58 11.75 113.89 11.75H90.6572C90.0698 11.75 89.5617 12.1589 89.4361 12.7326L89.0437 14.5248C88.7673 15.7871 87.6495 16.6867 86.3573 16.6867H4.75555C4.0652 16.6867 3.50555 17.2463 3.50555 17.9367Z"
        fill="white" stroke="#B2B2B2" stroke-width="1.5" />
    <path
        d="M3.50555 19.9367V59.9552C3.50555 60.6456 4.06519 61.2052 4.75555 61.2052H113.89C114.58 61.2052 115.14 60.6456 115.14 59.9552V15C115.14 14.3096 114.58 13.75 113.89 13.75H90.6572C90.0698 13.75 89.5617 14.1589 89.4361 14.7326L89.0437 16.5248C88.7673 17.7871 87.6495 18.6867 86.3573 18.6867H4.75555C4.0652 18.6867 3.50555 19.2463 3.50555 19.9367Z"
        fill="white" stroke="#B2B2B2" stroke-width="1.5" />
    <path
        d="M3.50555 21.9367V61.9552C3.50555 62.6456 4.06519 63.2052 4.75555 63.2052H113.89C114.58 63.2052 115.14 62.6456 115.14 61.9552V17C115.14 16.3096 114.58 15.75 113.89 15.75H90.6572C90.0698 15.75 89.5617 16.1589 89.4361 16.7326L89.0437 18.5248C88.7673 19.7871 87.6495 20.6867 86.3573 20.6867H4.75555C4.0652 20.6867 3.50555 21.2463 3.50555 21.9367Z"
        fill="white" stroke="#B2B2B2" stroke-width="1.5" />
    <path
        d="M3.50555 23.9367V63.9552C3.50555 64.6456 4.06519 65.2052 4.75555 65.2052H113.89C114.58 65.2052 115.14 64.6456 115.14 63.9552V19C115.14 18.3096 114.58 17.75 113.89 17.75H90.6572C90.0698 17.75 89.5617 18.1589 89.4361 18.7326L89.0437 20.5248C88.7673 21.7871 87.6495 22.6867 86.3573 22.6867H4.75555C4.0652 22.6867 3.50555 23.2463 3.50555 23.9367Z"
        fill="white" stroke="#B2B2B2" stroke-width="1.5" />
    <path
        d="M3.50555 25.9367V65.9552C3.50555 66.6456 4.06519 67.2052 4.75555 67.2052H113.89C114.58 67.2052 115.14 66.6456 115.14 65.9552V21C115.14 20.3096 114.58 19.75 113.89 19.75H90.6572C90.0698 19.75 89.5617 20.1589 89.4361 20.7326L89.0437 22.5248C88.7673 23.7871 87.6495 24.6867 86.3573 24.6867H4.75555C4.0652 24.6867 3.50555 25.2463 3.50555 25.9367Z"
        fill="white" stroke="#B2B2B2" stroke-width="1.5" />
    <path
        d="M3.50555 27.9367V67.9552C3.50555 68.6456 4.06519 69.2052 4.75555 69.2052H113.89C114.58 69.2052 115.14 68.6456 115.14 67.9552V23C115.14 22.3096 114.58 21.75 113.89 21.75H90.6572C90.0698 21.75 89.5617 22.1589 89.4361 22.7326L89.0437 24.5248C88.7673 25.7871 87.6495 26.6867 86.3573 26.6867H4.75555C4.0652 26.6867 3.50555 27.2463 3.50555 27.9367Z"
        fill="white" stroke="#B2B2B2" stroke-width="1.5" />
    <path
        d="M3.50555 29.9367V69.9552C3.50555 70.6456 4.06519 71.2052 4.75555 71.2052H113.89C114.58 71.2052 115.14 70.6456 115.14 69.9552V25C115.14 24.3096 114.58 23.75 113.89 23.75H90.6572C90.0698 23.75 89.5617 24.1589 89.4361 24.7326L89.0437 26.5248C88.7673 27.7871 87.6495 28.6867 86.3573 28.6867H4.75555C4.0652 28.6867 3.50555 29.2463 3.50555 29.9367Z"
        fill="white" stroke="#B2B2B2" stroke-width="1.5" />
    <path
        d="M3.50555 32.4557V72.4743C3.50555 73.1646 4.06519 73.7242 4.75555 73.7242H113.89C114.58 73.7242 115.14 73.1646 115.14 72.4742V27.519C115.14 26.8287 114.58 26.269 113.89 26.269H90.6572C90.0698 26.269 89.5617 26.6779 89.4361 27.2517L89.0437 29.0439C88.7673 30.3061 87.6495 31.2057 86.3573 31.2057H4.75555C4.0652 31.2057 3.50555 31.7653 3.50555 32.4557Z"
        fill="white" stroke="#B2B2B2" stroke-width="1.5" />
    <path
        d="M3.5057 35.0069V75.7653C3.5057 76.4556 4.06535 77.0153 4.7557 77.0153H116.332C117.022 77.0153 117.582 76.4556 117.582 75.7653V29.9873C117.582 29.2969 117.022 28.7373 116.332 28.7373H92.5181C91.9312 28.7373 91.4234 29.1456 91.2973 29.7187L90.884 31.5978C90.6066 32.8587 89.4893 33.7569 88.1982 33.7569H4.7557C4.06535 33.7569 3.5057 34.3166 3.5057 35.0069Z"
        fill="white" stroke="#B2B2B2" stroke-width="1.5" />
    <path
        d="M3.50553 38.3809V79.8791C3.50553 80.5694 4.06518 81.1291 4.75553 81.1291H117.553C118.243 81.1291 118.803 80.5694 118.803 79.8791V33.2783C118.803 32.588 118.243 32.0283 117.553 32.0283H93.4512C92.8637 32.0283 92.3555 32.4374 92.23 33.0113L91.802 34.9684C91.5259 36.231 90.4079 37.1309 89.1155 37.1309H4.75553C4.06518 37.1309 3.50553 37.6906 3.50553 38.3809Z"
        fill="white" stroke="#B2B2B2" stroke-width="1.5" />
    <path
        d="M3.50561 42.1665V84.4045C3.50561 85.0949 4.06525 85.6545 4.75561 85.6545H119.181C119.871 85.6545 120.431 85.0949 120.431 84.4045V36.981C120.431 36.2906 119.871 35.731 119.181 35.731H94.6937C94.106 35.731 93.5977 36.1403 93.4724 36.7145L93.0277 38.7528C92.7521 40.0159 91.6338 40.9165 90.3409 40.9165H4.75561C4.06525 40.9165 3.50561 41.4762 3.50561 42.1665Z"
        fill="white" stroke="#B2B2B2" stroke-width="1.5" />
    <path
        d="M3.50547 46.7332V89.341C3.50547 90.0314 4.06512 90.591 4.75547 90.591H121.215C121.906 90.591 122.465 90.0314 122.465 89.341V41.5061C122.465 40.8157 121.906 40.2561 121.215 40.2561H96.2424C95.6556 40.2561 95.1479 40.6643 95.0217 41.2373L94.5621 43.3245C94.2845 44.5852 93.1674 45.4832 91.8765 45.4832H4.75547C4.06512 45.4832 3.50547 46.0428 3.50547 46.7332Z"
        fill="white" stroke="#B2B2B2" stroke-width="1.5" />
    <path
        d="M25.2383 6.79152L20.6719 44.8676C20.5897 45.5531 21.0786 46.1759 21.764 46.2588L126.467 58.9189C127.152 59.0018 127.774 58.5133 127.857 57.8279L132.988 15.0361C133.071 14.3507 132.582 13.7278 131.896 13.645L109.694 10.9603C109.111 10.8899 108.558 11.2342 108.365 11.788L107.821 13.3436C107.396 14.562 106.18 15.3194 104.898 15.1645L26.6281 5.70046C25.9427 5.61759 25.3205 6.10607 25.2383 6.79152Z"
        fill="#C462F2" stroke="black" stroke-width="1.5" />
    <path
        d="M25.2383 9.53273L20.6719 47.6088C20.5897 48.2943 21.0786 48.9171 21.764 49L126.467 61.6601C127.152 61.743 127.774 61.2545 127.857 60.5691L132.988 17.7773C133.071 17.0919 132.582 16.469 131.896 16.3862L109.694 13.7015C109.111 13.6311 108.558 13.9754 108.365 14.5292L107.821 16.0848C107.396 17.3032 106.18 18.0607 104.898 17.9057L26.6281 8.44167C25.9427 8.3588 25.3205 8.84728 25.2383 9.53273Z"
        fill="#FFB800" stroke="black" stroke-width="1.5" />
    <path
        d="M25.123 12.8932L20.6719 50.0075C20.5897 50.6929 21.0786 51.3158 21.764 51.3986L123.981 63.7582C124.666 63.8411 125.289 63.3526 125.371 62.6671L130.374 20.9451C130.457 20.2596 129.968 19.6368 129.282 19.5539L107.669 16.9406C107.087 16.8701 106.534 17.2144 106.341 17.7682L105.834 19.2189C105.408 20.4373 104.192 21.1947 102.911 21.0397L26.5128 11.8021C25.8274 11.7192 25.2052 12.2077 25.123 12.8932Z"
        fill="#FF7A00" stroke="black" stroke-width="1.5" />
    <path
        d="M23.1907 15.0154L18.6243 53.0915C18.5421 53.777 19.031 54.3998 19.7164 54.4827L124.419 67.1428C125.104 67.2257 125.727 66.7372 125.809 66.0517L130.941 23.26C131.023 22.5746 130.534 21.9517 129.849 21.8688L107.646 19.1842C107.064 19.1138 106.511 19.4581 106.317 20.0119L105.774 21.5675C105.348 22.7859 104.132 23.5433 102.851 23.3884L24.5805 13.9243C23.8951 13.8415 23.2729 14.3299 23.1907 15.0154Z"
        fill="#FF9FDF" stroke="black" stroke-width="1.5" />
    <path
        d="M25.2383 18.4422L20.6719 56.5183C20.5897 57.2037 21.0786 57.8266 21.764 57.9094L126.467 70.5696C127.152 70.6524 127.774 70.1639 127.857 69.4785L132.988 26.6868C133.071 26.0013 132.582 25.3785 131.896 25.2956L109.694 22.611C109.111 22.5405 108.558 22.8848 108.365 23.4386L107.821 24.9943C107.396 26.2127 106.18 26.9701 104.898 26.8151L26.6281 17.3511C25.9427 17.2682 25.3205 17.7567 25.2383 18.4422Z"
        fill="#FF2828" stroke="black" stroke-width="1.5" />
    <path
        d="M20.1497 21.6345L15.5833 59.7106C15.501 60.3961 15.99 61.0189 16.6754 61.1018L121.378 73.7619C122.063 73.8448 122.686 73.3563 122.768 72.6709L127.9 29.8791C127.982 29.1937 127.493 28.5709 126.808 28.488L104.605 25.8033C104.023 25.7329 103.47 26.0772 103.276 26.631L102.733 28.1866C102.307 29.405 101.091 30.1625 99.8095 30.0075L21.5395 20.5435C20.8541 20.4606 20.2319 20.9491 20.1497 21.6345Z"
        fill="#BACB37" stroke="black" stroke-width="1.5" />
    <path
        d="M26.188 22.6909L18.4389 60.244C18.2994 60.9202 18.7342 61.5822 19.4101 61.7229L122.676 83.2072C123.352 83.3478 124.013 82.9137 124.153 82.2375L132.862 40.0335C133.001 39.3574 132.566 38.6953 131.89 38.5547L109.992 33.9988C109.417 33.8793 108.838 34.1755 108.599 34.711L107.926 36.2149C107.4 37.393 106.125 38.0447 104.861 37.7818L27.6644 21.7213C26.9885 21.5807 26.3275 22.0148 26.188 22.6909Z"
        fill="#3277FF" stroke="black" stroke-width="1.5" />
    <path
        d="M3.53991 51.2759V94.6027C3.53991 95.2931 4.09956 95.8527 4.78991 95.8527H125.578C126.268 95.8527 126.828 95.2931 126.828 94.6027V45.9683C126.828 45.2779 126.268 44.7183 125.578 44.7183H99.5709C98.9861 44.7183 98.4795 45.1237 98.3513 45.6943L97.8607 47.8786C97.5787 49.1339 96.4641 50.0259 95.1775 50.0259H4.78992C4.09956 50.0259 3.53991 50.5856 3.53991 51.2759Z"
        fill="white" stroke="#B2B2B2" stroke-width="1.5" />
    <path
        d="M3.50552 57.2255V101.683C3.50552 102.373 4.06516 102.933 4.75552 102.933H125.692C126.382 102.933 126.942 102.373 126.942 101.683V51.791C126.942 51.1007 126.382 50.541 125.692 50.541H99.6577C99.0707 50.541 98.5628 50.9495 98.4368 51.5229L97.9333 53.8155C97.6562 55.0768 96.5388 55.9755 95.2473 55.9755H4.75552C4.06516 55.9755 3.50552 56.5351 3.50552 57.2255Z"
        fill="white" stroke="#B2B2B2" stroke-width="1.5" />
    <rect x="1.26733" y="62.8826" width="129.541" height="47.8666" fill="#F3F3F3" stroke="#B2B2B2"
        stroke-width="1.5" />
    <rect x="24.3425" y="72.6699" width="83.6629" height="28.5" fill="white" />
    <path
        d="M36.763 85.8759H38.779L40.459 89.7819H40.529C40.8556 89.7819 41.1123 89.6419 41.299 89.3619C41.4856 89.0819 41.579 88.6899 41.579 88.1859V86.8979C41.579 86.3939 41.481 86.0019 41.285 85.7219C41.089 85.4419 40.8183 85.3019 40.473 85.3019H39.955V83.6639H40.515C41.019 83.6639 41.467 83.7526 41.859 83.9299C42.2603 84.1073 42.5963 84.3639 42.867 84.6999C43.147 85.0266 43.3616 85.4326 43.511 85.9179C43.6603 86.3939 43.735 86.9353 43.735 87.5419C43.735 88.1486 43.6603 88.6946 43.511 89.1799C43.371 89.6559 43.161 90.0619 42.881 90.3979C42.6103 90.7246 42.2743 90.9766 41.873 91.1539C41.481 91.3313 41.0376 91.4199 40.543 91.4199H39.185L36.763 85.8759ZM48.6462 91.5879C48.1049 91.5879 47.6196 91.5133 47.1902 91.3639C46.7609 91.2146 46.3969 91.0046 46.0982 90.7339C45.7996 90.4633 45.5709 90.1319 45.4122 89.7399C45.2536 89.3479 45.1742 88.9139 45.1742 88.4379V83.6639H47.2462V88.3399C47.2462 88.8533 47.3676 89.2499 47.6102 89.5299C47.8622 89.8099 48.2076 89.9499 48.6462 89.9499C49.0849 89.9499 49.4256 89.8099 49.6682 89.5299C49.9109 89.2499 50.0322 88.8533 50.0322 88.3399V83.6639H52.1042V88.4379C52.1042 88.9139 52.0249 89.3479 51.8662 89.7399C51.7076 90.1319 51.4789 90.4633 51.1802 90.7339C50.8816 91.0046 50.5176 91.2146 50.0882 91.3639C49.6589 91.5133 49.1782 91.5879 48.6462 91.5879ZM53.9535 83.6639H56.0255V84.9659H56.0955C56.1609 84.7699 56.2542 84.5833 56.3755 84.4059C56.4969 84.2286 56.6462 84.0746 56.8235 83.9439C57.0102 83.8039 57.2295 83.6966 57.4815 83.6219C57.7335 83.5379 58.0275 83.4959 58.3635 83.4959C59.1942 83.4959 59.8195 83.7619 60.2395 84.2939C60.6689 84.8166 60.8835 85.5679 60.8835 86.5479V91.4199H58.8115V86.7299C58.8115 86.2259 58.7089 85.8433 58.5035 85.5819C58.3075 85.3113 57.9715 85.1759 57.4955 85.1759C57.3089 85.1759 57.1269 85.2039 56.9495 85.2599C56.7815 85.3066 56.6275 85.3813 56.4875 85.4839C56.3475 85.5866 56.2355 85.7126 56.1515 85.8619C56.0675 86.0113 56.0255 86.1839 56.0255 86.3799V91.4199H53.9535V83.6639ZM58.9579 82.4739C58.3792 82.4739 57.9406 82.3386 57.6419 82.0679C57.3339 81.7973 57.1799 81.4006 57.1799 80.8779V79.7299H58.8179V80.9619H62.5699V82.4739H58.9579ZM58.0059 77.9379H58.8179V77.4619C58.8179 77.3313 58.7899 77.2379 58.7339 77.1819C58.6686 77.1166 58.5519 77.0839 58.3839 77.0839H58.0059V75.9079H59.0699C59.4619 75.9079 59.7652 75.9919 59.9799 76.1599C60.1852 76.3279 60.2879 76.5613 60.2879 76.8599C60.2879 77.0559 60.2272 77.2473 60.1059 77.4339C59.9846 77.6113 59.8259 77.7466 59.6299 77.8399V77.9379H61.8139V79.1279H58.0059V77.9379ZM61.9329 85.8759H63.9489L65.6289 89.7819H65.6989C66.0256 89.7819 66.2822 89.6419 66.4689 89.3619C66.6556 89.0819 66.7489 88.6899 66.7489 88.1859V86.8979C66.7489 86.3939 66.6509 86.0019 66.4549 85.7219C66.2589 85.4419 65.9882 85.3019 65.6429 85.3019H65.1249V83.6639H65.6849C66.1889 83.6639 66.6369 83.7526 67.0289 83.9299C67.4302 84.1073 67.7662 84.3639 68.0369 84.6999C68.3169 85.0266 68.5316 85.4326 68.6809 85.9179C68.8302 86.3939 68.9049 86.9353 68.9049 87.5419C68.9049 88.1486 68.8302 88.6946 68.6809 89.1799C68.5409 89.6559 68.3309 90.0619 68.0509 90.3979C67.7802 90.7246 67.4442 90.9766 67.0429 91.1539C66.6509 91.3313 66.2076 91.4199 65.7129 91.4199H64.3549L61.9329 85.8759ZM70.4282 83.6639H72.5002V85.8199L74.2782 85.5819C74.5488 85.5446 74.7402 85.4559 74.8522 85.3159C74.9735 85.1666 75.0528 84.9239 75.0902 84.5879L75.1882 83.6639H77.3302L77.2322 84.6579C77.1855 85.0873 77.0175 85.4559 76.7282 85.7639C76.4388 86.0626 76.0235 86.2353 75.4822 86.2819V86.3519C75.8368 86.4079 76.1215 86.5293 76.3362 86.7159C76.5508 86.9026 76.7188 87.1219 76.8402 87.3739C76.9708 87.6166 77.0595 87.8733 77.1062 88.1439C77.1622 88.4146 77.1995 88.6573 77.2182 88.8719L77.4562 91.4199H75.3282L75.1182 88.7319C75.0808 88.2466 74.9548 87.8779 74.7402 87.6259C74.5255 87.3646 74.2268 87.2573 73.8442 87.3039L72.5002 87.4719V91.4199H70.4282V83.6639ZM83.5191 91.5879C83.1831 91.5879 82.8891 91.5459 82.6371 91.4619C82.3945 91.3779 82.1798 91.2706 81.9931 91.1399C81.8158 90.9999 81.6665 90.8413 81.5451 90.6639C81.4331 90.4866 81.3445 90.3046 81.2791 90.1179H81.2091V91.4199H79.1371V83.6639H81.2091V88.7039C81.2091 88.8999 81.2511 89.0726 81.3351 89.2219C81.4191 89.3713 81.5265 89.4973 81.6571 89.5999C81.7971 89.7026 81.9511 89.7819 82.1191 89.8379C82.2965 89.8846 82.4691 89.9079 82.6371 89.9079C82.8985 89.9079 83.1131 89.8659 83.2811 89.7819C83.4585 89.6979 83.5938 89.5859 83.6871 89.4459C83.7805 89.2966 83.8458 89.1286 83.8831 88.9419C83.9205 88.7553 83.9391 88.5593 83.9391 88.3539V83.6639H86.0111V88.5359C86.0111 89.5159 85.8011 90.2719 85.3811 90.8039C84.9611 91.3266 84.3405 91.5879 83.5191 91.5879ZM90.9258 91.5879C90.3845 91.5879 89.8991 91.4946 89.4698 91.3079C89.0405 91.1213 88.6765 90.8553 88.3778 90.5099C88.0791 90.1646 87.8505 89.7446 87.6918 89.2499C87.5331 88.7459 87.4538 88.1766 87.4538 87.5419C87.4538 86.9259 87.5425 86.3706 87.7198 85.8759C87.8971 85.3719 88.1491 84.9473 88.4758 84.6019C88.8118 84.2473 89.2131 83.9766 89.6798 83.7899C90.1465 83.5939 90.6691 83.4959 91.2478 83.4959C91.7985 83.4959 92.2978 83.5753 92.7458 83.7339C93.1938 83.8833 93.5718 84.1026 93.8798 84.3919C94.1971 84.6813 94.4398 85.0313 94.6078 85.4419C94.7851 85.8526 94.8738 86.3146 94.8738 86.8279V91.4199H92.8018V86.9259C92.8018 86.3566 92.6618 85.9179 92.3818 85.6099C92.1111 85.2926 91.7285 85.1339 91.2338 85.1339C90.7298 85.1339 90.3331 85.3019 90.0438 85.6379C89.7638 85.9646 89.6238 86.4219 89.6238 87.0099V88.0459C89.6238 89.3153 90.1371 89.9499 91.1638 89.9499C91.2571 89.9499 91.3365 89.9499 91.4018 89.9499C91.4765 89.9406 91.5511 89.9266 91.6258 89.9079L91.8638 91.5039C91.7238 91.5413 91.5605 91.5646 91.3738 91.5739C91.1871 91.5833 91.0378 91.5879 90.9258 91.5879Z"
        fill="#B2B2B2" />
    <path
        d="M28.0925 86.5618C28.0925 88.5293 26.7494 90.1243 25.0925 90.1243V82.9993C26.7494 82.9993 28.0925 84.5943 28.0925 86.5618Z"
        fill="#B2B2B2" />
    <path
        d="M104.093 86.5618C104.093 88.5293 105.436 90.1243 107.093 90.1243V82.9993C105.436 82.9993 104.093 84.5943 104.093 86.5618Z"
        fill="#B2B2B2" />
    <rect x="24.3425" y="72.6699" width="83.6629" height="28.5" stroke="#B2B2B2" stroke-width="2.5" />
</svg>