<svg width="21" height="22" viewBox="0 0 21 22" fill="none" xmlns="http://www.w3.org/2000/svg">
<path d="M10.5043 17.7806C9.95464 17.7806 9.3969 17.7806 8.84725 17.7806C8.16018 17.7806 7.64286 17.3893 7.43269 16.7291C7.35186 16.4601 7.25486 16.1911 7.19828 15.9139C7.02854 15.1151 6.66479 14.4303 6.1798 13.7782C5.58973 12.9956 5.12091 12.1316 4.935 11.1615C4.61167 9.49048 5.05624 7.97429 6.1313 6.69449C7.63477 4.90115 9.58281 4.21642 11.8461 4.77072C14.069 5.31688 15.4674 6.80046 16.0413 9.03399C16.3565 10.273 16.1463 11.455 15.5644 12.5718C15.3784 12.9304 15.2006 13.3054 14.9419 13.6152C14.2387 14.4466 13.8992 15.433 13.6567 16.4682C13.4708 17.2589 12.9454 17.8703 11.9188 17.7969C11.45 17.748 10.9731 17.7806 10.5043 17.7806ZM6.28488 8.44708C6.2768 8.76499 6.30105 9.00138 6.55971 9.0992C6.81029 9.19702 6.97195 9.02584 7.10937 8.86281C7.24678 8.69978 7.37611 8.52044 7.48928 8.34111C7.95002 7.56671 8.58859 7.02871 9.45348 6.76786C9.65556 6.70264 9.85764 6.62113 10.0436 6.52331C10.2133 6.44179 10.2941 6.28691 10.2618 6.08312C10.2295 5.89564 10.1082 5.82227 9.93847 5.77336C9.67173 5.7 9.40498 5.69185 9.13824 5.74891C8.16826 5.92824 7.40844 6.44994 6.82646 7.24065C6.54355 7.63192 6.30913 8.03135 6.28488 8.44708ZM6.08281 10.4605C6.40613 10.4687 6.68904 10.2078 6.68096 9.89806C6.68096 9.6046 6.41421 9.32745 6.12322 9.31929C5.81606 9.30299 5.53315 9.5883 5.52507 9.89806C5.52507 10.1997 5.77564 10.4524 6.08281 10.4605Z" fill="black"/>
<path d="M10.674 19.6311C10.0597 19.6311 9.43732 19.6311 8.823 19.6311C8.58051 19.6311 8.40268 19.5903 8.40268 19.2805C8.40268 18.9789 8.57243 18.9219 8.81492 18.9219C10.0516 18.9219 11.2884 18.9219 12.517 18.9219C12.7757 18.9219 12.9293 19.0034 12.9212 19.2887C12.9131 19.5658 12.7595 19.6311 12.5251 19.6229C11.9027 19.6311 11.2884 19.6311 10.674 19.6311Z" fill="black"/>
<path d="M19.0159 11.1697C18.6117 11.1697 18.2076 11.1697 17.8034 11.1697C17.4963 11.1697 17.278 11.0393 17.2699 10.6969C17.2618 10.3464 17.5043 10.2323 17.8034 10.2323C18.6117 10.2242 19.412 10.2242 20.2203 10.2323C20.5436 10.2323 20.7861 10.3546 20.778 10.7214C20.7618 11.0556 20.5274 11.1697 20.2203 11.1697C19.8242 11.1697 19.42 11.1697 19.0159 11.1697Z" fill="black"/>
<path d="M1.89574 10.2323C2.28373 10.2323 2.67173 10.2323 3.0678 10.2323C3.37496 10.2405 3.64979 10.322 3.64979 10.6969C3.64979 11.0638 3.39921 11.1697 3.07588 11.1697C2.30798 11.1697 1.54008 11.1697 0.780265 11.1697C0.473105 11.1697 0.23061 11.0556 0.222527 10.7214C0.20636 10.3627 0.456939 10.2323 0.780265 10.2323C1.14401 10.2323 1.52392 10.2323 1.89574 10.2323Z" fill="black"/>
<path d="M10.9731 1.86882C10.9731 2.24379 10.9812 2.62691 10.9731 3.00189C10.965 3.31165 10.8357 3.52359 10.4881 3.52359C10.1567 3.52359 10.0435 3.29534 10.0435 3.01004C10.0274 2.22749 10.0354 1.44494 10.0435 0.662388C10.0435 0.352628 10.1971 0.124384 10.5285 0.132536C10.8518 0.148839 10.9812 0.385234 10.9812 0.694994C10.9731 1.08627 10.9731 1.47754 10.9731 1.86882Z" fill="black"/>
<path d="M17.7872 17.4301C17.7872 17.6094 17.7144 17.748 17.5528 17.8214C17.383 17.8947 17.2052 17.9029 17.0678 17.7643C16.4696 17.1774 15.8796 16.5905 15.2976 15.9873C15.1198 15.7998 15.1278 15.5552 15.3138 15.3677C15.4997 15.1803 15.7502 15.1639 15.9362 15.3433C16.5343 15.922 17.1163 16.5253 17.7064 17.1203C17.7791 17.21 17.7872 17.316 17.7872 17.4301Z" fill="black"/>
<path d="M5.8161 15.6857C5.84035 15.8487 5.73527 15.971 5.6221 16.0933C5.11286 16.6068 4.59554 17.1285 4.0863 17.6421C3.86806 17.8622 3.62556 17.9437 3.38307 17.7073C3.13249 17.4709 3.20524 17.2182 3.42348 16.9981C3.95697 16.4601 4.49046 15.9221 5.01587 15.3841C5.17753 15.221 5.37152 15.1966 5.5736 15.2781C5.73527 15.3433 5.82418 15.4819 5.8161 15.6857Z" fill="black"/>
<path d="M5.8969 5.24351C5.90498 5.42285 5.80798 5.54512 5.66248 5.63479C5.48465 5.74076 5.30683 5.7163 5.17749 5.58588C4.55509 4.97451 3.93269 4.35499 3.32645 3.71917C3.14862 3.53983 3.18904 3.30344 3.36687 3.13226C3.55278 2.95292 3.79527 2.92032 3.98119 3.09965C4.60359 3.70287 5.20174 4.31423 5.80798 4.93375C5.88881 5.03157 5.90498 5.13754 5.8969 5.24351Z" fill="black"/>
<path d="M17.7872 3.46653C17.8034 3.6051 17.7307 3.71923 17.6337 3.81705C17.1325 4.32244 16.6313 4.83599 16.1221 5.34139C15.9119 5.54518 15.6775 5.61854 15.4431 5.39845C15.2006 5.1702 15.241 4.91751 15.4674 4.68926C15.9685 4.17571 16.4697 3.67032 16.9708 3.16492C17.1325 3.00189 17.3184 2.96113 17.5205 3.0345C17.7145 3.10786 17.7872 3.26274 17.7872 3.46653Z" fill="black"/>
<path d="M10.6822 18.0659C11.2884 18.0659 11.8946 18.0659 12.5009 18.0659C12.7434 18.0659 12.9293 18.0985 12.9212 18.4083C12.9131 18.7099 12.7434 18.7588 12.4928 18.7506C11.2642 18.7425 10.0436 18.7425 8.81496 18.7506C8.56438 18.7506 8.40272 18.7017 8.39463 18.4001C8.39463 18.0822 8.58055 18.0578 8.82304 18.0659C9.44545 18.0741 10.0598 18.0659 10.6822 18.0659Z" fill="black"/>
<path d="M10.6902 20.7642C11.1752 20.7642 11.6602 20.7642 12.1452 20.7642C12.218 20.7642 12.3311 20.7234 12.3554 20.8131C12.3715 20.8701 12.323 20.9679 12.2745 21.025C12.1533 21.188 11.9755 21.294 11.7815 21.3592C11.0378 21.6282 10.2861 21.6201 9.54244 21.3511C9.40502 21.3022 9.28378 21.2125 9.16253 21.131C9.06553 21.0576 8.95237 20.9598 8.97662 20.8375C9.01703 20.6663 9.1787 20.7642 9.28378 20.7642C9.74452 20.7642 10.2133 20.7642 10.6902 20.7642Z" fill="black"/>
<path d="M10.6337 20.487C10.0841 20.487 9.52633 20.4788 8.97667 20.487C8.75034 20.487 8.62101 20.4299 8.6291 20.1691C8.63718 19.9327 8.75034 19.8756 8.96051 19.8756C10.0921 19.8838 11.2238 19.8838 12.3474 19.8756C12.5737 19.8756 12.6788 19.9734 12.6788 20.1772C12.6707 20.381 12.5737 20.5033 12.3231 20.4951C11.7654 20.4788 11.1995 20.487 10.6337 20.487Z" fill="black"/>
</svg>
