<svg width="30" height="31" viewBox="0 0 30 31" fill="none" xmlns="http://www.w3.org/2000/svg">
<path fill-rule="evenodd" clip-rule="evenodd" d="M9.7677 15.5313C9.97653 14.7515 10.357 14.0282 10.8814 13.4143C11.4057 12.8005 12.0607 12.3116 12.7983 11.9835C13.5359 11.6553 14.3375 11.4962 15.1445 11.5177C15.9516 11.5393 16.7436 11.741 17.4626 12.108C17.5261 12.1403 17.5953 12.1598 17.6662 12.1653C17.7372 12.1709 17.8086 12.1624 17.8763 12.1404C17.944 12.1183 18.0067 12.0832 18.0608 12.0369C18.1149 11.9907 18.1594 11.9342 18.1917 11.8707C18.224 11.8073 18.2435 11.7381 18.249 11.6671C18.2546 11.5961 18.2461 11.5248 18.2241 11.4571C18.202 11.3894 18.1669 11.3267 18.1206 11.2725C18.0744 11.2184 18.0179 11.1739 17.9544 11.1416C16.5861 10.4434 15.0147 10.2524 13.519 10.6025C12.0232 10.9525 10.6998 11.821 9.78338 13.0539C8.86698 14.2868 8.41685 15.8044 8.51283 17.3376C8.6088 18.8707 9.24468 20.3204 10.3077 21.4293C11.3707 22.5383 12.7921 23.235 14.3198 23.3958C15.8476 23.5565 17.3829 23.171 18.6534 22.3076C19.924 21.4442 20.8477 20.1587 21.2608 18.6791C21.6738 17.1995 21.5494 15.6215 20.9098 14.2248C20.8499 14.0941 20.7405 13.9925 20.6057 13.9424C20.4709 13.8923 20.3217 13.8979 20.191 13.9578C20.0603 14.0177 19.9587 14.1271 19.9086 14.2619C19.8585 14.3967 19.864 14.5458 19.9239 14.6766C20.2861 15.4668 20.4528 16.3326 20.4098 17.2008C20.3669 18.069 20.1156 18.9142 19.6773 19.6648C19.2389 20.4155 18.6263 21.0496 17.8913 21.5136C17.1562 21.9777 16.3203 22.258 15.454 22.3309C14.5878 22.4038 13.7168 22.2671 12.9145 21.9325C12.1122 21.5978 11.4023 21.075 10.8446 20.4082C10.287 19.7414 9.89798 18.9501 9.71054 18.1013C9.5231 17.2524 9.54271 16.371 9.7677 15.5313Z" fill="black"/>
<path fill-rule="evenodd" clip-rule="evenodd" d="M15.1594 8.42483C15.261 8.32328 15.3988 8.26624 15.5424 8.26624C15.686 8.26624 15.8238 8.32328 15.9254 8.42483L18.6337 11.1332C18.6841 11.1835 18.7242 11.2432 18.7515 11.3091C18.7788 11.3749 18.7928 11.4454 18.7928 11.5167C18.7928 11.5879 18.7788 11.6585 18.7515 11.7243C18.7242 11.7901 18.6841 11.8498 18.6337 11.9002L15.9254 14.6085C15.875 14.6588 15.8152 14.6987 15.7494 14.7258C15.6837 14.753 15.6132 14.767 15.542 14.767C15.4708 14.7669 15.4004 14.7528 15.3346 14.7256C15.2689 14.6983 15.2092 14.6583 15.1589 14.6079C15.0573 14.5062 15.0003 14.3683 15.0004 14.2246C15.0005 14.1534 15.0145 14.083 15.0418 14.0172C15.0691 13.9515 15.1091 13.8918 15.1594 13.8415L17.4843 11.5167L15.1594 9.19183C15.109 9.14151 15.069 9.08174 15.0417 9.01593C15.0144 8.95012 15.0003 8.87958 15.0003 8.80833C15.0003 8.73708 15.0144 8.66653 15.0417 8.60072C15.069 8.53492 15.109 8.47514 15.1594 8.42483Z" fill="black"/>
<rect x="0.500122" y="1.34888" width="29" height="29" rx="14.5" stroke="#DDDDDD"/>
</svg>
