<svg width="982" height="205" viewBox="0 0 982 205" fill="none" xmlns="http://www.w3.org/2000/svg">
  <line x1="410" y1="90" x2="410" y2="116" stroke="white" stroke-width="4" />
  <rect width="150" height="89" transform="translate(333 116)" fill="white" />
  <path
    d="M398.925 141H392.009V139.082L395.019 136.506C395.29 136.273 395.518 136.063 395.705 135.876C395.892 135.68 396.041 135.493 396.153 135.316C396.274 135.129 396.358 134.947 396.405 134.77C396.461 134.593 396.489 134.401 396.489 134.196V134C396.489 133.813 396.452 133.65 396.377 133.51C396.302 133.37 396.204 133.253 396.083 133.16C395.962 133.067 395.822 132.997 395.663 132.95C395.514 132.903 395.36 132.88 395.201 132.88C394.968 132.88 394.762 132.917 394.585 132.992C394.417 133.067 394.268 133.169 394.137 133.3C394.016 133.421 393.913 133.566 393.829 133.734C393.745 133.893 393.68 134.065 393.633 134.252L391.799 133.552C391.911 133.216 392.065 132.899 392.261 132.6C392.457 132.292 392.7 132.026 392.989 131.802C393.288 131.569 393.638 131.387 394.039 131.256C394.44 131.125 394.893 131.06 395.397 131.06C395.929 131.06 396.4 131.135 396.811 131.284C397.222 131.433 397.567 131.639 397.847 131.9C398.136 132.161 398.356 132.474 398.505 132.838C398.654 133.193 398.729 133.58 398.729 134C398.729 134.42 398.659 134.803 398.519 135.148C398.379 135.493 398.188 135.82 397.945 136.128C397.712 136.427 397.436 136.711 397.119 136.982C396.802 137.253 396.47 137.528 396.125 137.808L394.305 139.236H398.925V141ZM406.913 133.062H402.475L402.265 136.156H402.377C402.471 135.923 402.573 135.713 402.685 135.526C402.807 135.33 402.947 135.167 403.105 135.036C403.264 134.896 403.455 134.789 403.679 134.714C403.903 134.639 404.169 134.602 404.477 134.602C404.897 134.602 405.289 134.672 405.653 134.812C406.017 134.952 406.335 135.157 406.605 135.428C406.876 135.689 407.091 136.016 407.249 136.408C407.408 136.791 407.487 137.225 407.487 137.71C407.487 138.205 407.403 138.667 407.235 139.096C407.077 139.516 406.834 139.88 406.507 140.188C406.19 140.496 405.798 140.739 405.331 140.916C404.865 141.084 404.333 141.168 403.735 141.168C403.259 141.168 402.839 141.117 402.475 141.014C402.111 140.911 401.789 140.776 401.509 140.608C401.229 140.431 400.987 140.23 400.781 140.006C400.576 139.782 400.399 139.544 400.249 139.292L401.775 138.088C401.99 138.471 402.247 138.797 402.545 139.068C402.844 139.329 403.245 139.46 403.749 139.46C404.253 139.46 404.631 139.315 404.883 139.026C405.145 138.737 405.275 138.354 405.275 137.878V137.766C405.275 137.318 405.145 136.963 404.883 136.702C404.622 136.441 404.263 136.31 403.805 136.31C403.423 136.31 403.105 136.389 402.853 136.548C402.611 136.697 402.424 136.847 402.293 136.996L400.571 136.758L400.935 131.228H406.913V133.062ZM412.256 141.168C411.677 141.168 411.159 141.079 410.702 140.902C410.245 140.715 409.857 140.454 409.54 140.118C409.232 139.773 408.994 139.362 408.826 138.886C408.667 138.41 408.588 137.878 408.588 137.29C408.588 136.609 408.691 135.965 408.896 135.358C409.111 134.742 409.381 134.177 409.708 133.664C410.044 133.141 410.417 132.675 410.828 132.264C411.248 131.853 411.668 131.508 412.088 131.228H414.986C414.389 131.657 413.852 132.068 413.376 132.46C412.9 132.843 412.485 133.23 412.13 133.622C411.785 134.014 411.495 134.415 411.262 134.826C411.038 135.227 410.879 135.661 410.786 136.128L410.912 136.17C410.996 135.983 411.094 135.801 411.206 135.624C411.327 135.447 411.472 135.293 411.64 135.162C411.817 135.022 412.023 134.91 412.256 134.826C412.489 134.742 412.76 134.7 413.068 134.7C413.469 134.7 413.843 134.775 414.188 134.924C414.543 135.064 414.846 135.265 415.098 135.526C415.359 135.787 415.56 136.109 415.7 136.492C415.849 136.865 415.924 137.281 415.924 137.738C415.924 138.242 415.835 138.704 415.658 139.124C415.49 139.544 415.243 139.908 414.916 140.216C414.599 140.515 414.216 140.748 413.768 140.916C413.32 141.084 412.816 141.168 412.256 141.168ZM412.256 139.53C412.723 139.53 413.087 139.404 413.348 139.152C413.609 138.891 413.74 138.522 413.74 138.046V137.794C413.74 137.318 413.609 136.954 413.348 136.702C413.087 136.441 412.723 136.31 412.256 136.31C411.789 136.31 411.425 136.441 411.164 136.702C410.903 136.954 410.772 137.318 410.772 137.794V138.046C410.772 138.522 410.903 138.891 411.164 139.152C411.425 139.404 411.789 139.53 412.256 139.53ZM423.703 133.062H419.265L419.055 136.156H419.167C419.26 135.923 419.363 135.713 419.475 135.526C419.596 135.33 419.736 135.167 419.895 135.036C420.053 134.896 420.245 134.789 420.469 134.714C420.693 134.639 420.959 134.602 421.267 134.602C421.687 134.602 422.079 134.672 422.443 134.812C422.807 134.952 423.124 135.157 423.395 135.428C423.665 135.689 423.88 136.016 424.039 136.408C424.197 136.791 424.277 137.225 424.277 137.71C424.277 138.205 424.193 138.667 424.025 139.096C423.866 139.516 423.623 139.88 423.297 140.188C422.979 140.496 422.587 140.739 422.121 140.916C421.654 141.084 421.122 141.168 420.525 141.168C420.049 141.168 419.629 141.117 419.265 141.014C418.901 140.911 418.579 140.776 418.299 140.608C418.019 140.431 417.776 140.23 417.571 140.006C417.365 139.782 417.188 139.544 417.039 139.292L418.565 138.088C418.779 138.471 419.036 138.797 419.335 139.068C419.633 139.329 420.035 139.46 420.539 139.46C421.043 139.46 421.421 139.315 421.673 139.026C421.934 138.737 422.065 138.354 422.065 137.878V137.766C422.065 137.318 421.934 136.963 421.673 136.702C421.411 136.441 421.052 136.31 420.595 136.31C420.212 136.31 419.895 136.389 419.643 136.548C419.4 136.697 419.213 136.847 419.083 136.996L417.361 136.758L417.725 131.228H423.703V133.062Z"
    fill="black" />
  <path
    d="M348.451 164.192C347.321 164.192 346.43 163.888 345.779 163.28C345.129 162.661 344.803 161.819 344.803 160.752V155.264H346.083V160.624C346.083 161.424 346.291 162.037 346.707 162.464C347.134 162.88 347.715 163.088 348.451 163.088C349.187 163.088 349.763 162.88 350.179 162.464C350.606 162.037 350.819 161.424 350.819 160.624V152.448H352.099V160.752C352.099 161.819 351.774 162.661 351.123 163.28C350.473 163.888 349.582 164.192 348.451 164.192ZM357.735 164.192C356.935 164.192 356.252 164.048 355.687 163.76C355.121 163.472 354.647 163.067 354.263 162.544L355.175 161.808C355.505 162.256 355.884 162.587 356.311 162.8C356.748 163.003 357.255 163.104 357.831 163.104C358.471 163.104 358.956 162.981 359.287 162.736C359.628 162.491 359.799 162.128 359.799 161.648C359.799 161.243 359.665 160.928 359.399 160.704C359.143 160.469 358.727 160.309 358.151 160.224L357.399 160.112C357.057 160.059 356.721 159.984 356.391 159.888C356.06 159.792 355.756 159.653 355.479 159.472C355.212 159.291 354.993 159.051 354.823 158.752C354.663 158.453 354.583 158.08 354.583 157.632C354.583 157.216 354.657 156.848 354.807 156.528C354.967 156.208 355.185 155.941 355.463 155.728C355.751 155.515 356.087 155.355 356.471 155.248C356.855 155.131 357.271 155.072 357.719 155.072C358.476 155.072 359.105 155.2 359.607 155.456C360.119 155.701 360.545 156.027 360.887 156.432L360.071 157.2C359.836 156.923 359.521 156.683 359.127 156.48C358.732 156.267 358.252 156.16 357.687 156.16C357.089 156.16 356.631 156.283 356.311 156.528C355.991 156.773 355.831 157.115 355.831 157.552C355.831 158.021 355.985 158.352 356.295 158.544C356.604 158.736 357.031 158.875 357.575 158.96L358.327 159.072C358.721 159.136 359.084 159.221 359.415 159.328C359.745 159.435 360.028 159.584 360.263 159.776C360.508 159.968 360.7 160.208 360.839 160.496C360.977 160.773 361.047 161.115 361.047 161.52C361.047 162.352 360.748 163.008 360.151 163.488C359.564 163.957 358.759 164.192 357.735 164.192ZM359.695 153.552C359.215 153.552 358.863 153.435 358.639 153.2C358.415 152.965 358.303 152.656 358.303 152.272V151.28H359.583V152.448H363.663V153.552H359.695ZM366.826 164.192C365.696 164.192 364.805 163.888 364.154 163.28C363.504 162.661 363.178 161.819 363.178 160.752V155.264H364.458V160.624C364.458 161.424 364.666 162.037 365.082 162.464C365.509 162.88 366.09 163.088 366.826 163.088C367.562 163.088 368.138 162.88 368.554 162.464C368.981 162.037 369.194 161.424 369.194 160.624V155.264H370.474V160.752C370.474 161.819 370.149 162.661 369.498 163.28C368.848 163.888 367.957 164.192 366.826 164.192ZM376.686 164.192C375.555 164.192 374.664 163.888 374.014 163.28C373.363 162.661 373.038 161.819 373.038 160.752V155.264H374.318V160.624C374.318 161.424 374.526 162.037 374.942 162.464C375.368 162.88 375.95 163.088 376.686 163.088C377.422 163.088 377.998 162.88 378.414 162.464C378.84 162.037 379.054 161.424 379.054 160.624V152.448H380.334V160.752C380.334 161.819 380.008 162.661 379.358 163.28C378.707 163.888 377.816 164.192 376.686 164.192ZM385.969 164.192C385.169 164.192 384.487 164.048 383.921 163.76C383.356 163.472 382.881 163.067 382.497 162.544L383.409 161.808C383.74 162.256 384.119 162.587 384.545 162.8C384.983 163.003 385.489 163.104 386.065 163.104C386.705 163.104 387.191 162.981 387.521 162.736C387.863 162.491 388.033 162.128 388.033 161.648C388.033 161.243 387.9 160.928 387.633 160.704C387.377 160.469 386.961 160.309 386.385 160.224L385.633 160.112C385.292 160.059 384.956 159.984 384.625 159.888C384.295 159.792 383.991 159.653 383.713 159.472C383.447 159.291 383.228 159.051 383.057 158.752C382.897 158.453 382.817 158.08 382.817 157.632C382.817 157.216 382.892 156.848 383.041 156.528C383.201 156.208 383.42 155.941 383.697 155.728C383.985 155.515 384.321 155.355 384.705 155.248C385.089 155.131 385.505 155.072 385.953 155.072C386.711 155.072 387.34 155.2 387.841 155.456C388.353 155.701 388.78 156.027 389.121 156.432L388.305 157.2C388.071 156.923 387.756 156.683 387.361 156.48C386.967 156.267 386.487 156.16 385.921 156.16C385.324 156.16 384.865 156.283 384.545 156.528C384.225 156.773 384.065 157.115 384.065 157.552C384.065 158.021 384.22 158.352 384.529 158.544C384.839 158.736 385.265 158.875 385.809 158.96L386.561 159.072C386.956 159.136 387.319 159.221 387.649 159.328C387.98 159.435 388.263 159.584 388.497 159.776C388.743 159.968 388.935 160.208 389.073 160.496C389.212 160.773 389.281 161.115 389.281 161.52C389.281 162.352 388.983 163.008 388.385 163.488C387.799 163.957 386.993 164.192 385.969 164.192ZM388.057 166.832H387.001V165.808H388.361C388.681 165.808 388.916 165.893 389.065 166.064C389.204 166.235 389.273 166.464 389.273 166.752V169.504H388.057V166.832ZM390.504 157.68H391.88L394.2 162.928H394.248C394.92 162.928 395.438 162.699 395.8 162.24C396.174 161.771 396.36 161.12 396.36 160.288V158.976C396.36 158.155 396.174 157.515 395.8 157.056C395.438 156.597 394.92 156.368 394.248 156.368H393.736V155.264H394.264C395.363 155.264 396.216 155.648 396.824 156.416C397.432 157.184 397.736 158.256 397.736 159.632C397.736 161.008 397.432 162.08 396.824 162.848C396.227 163.616 395.379 164 394.28 164H393.288L390.504 157.68ZM401.911 164C401.463 164 401.122 163.877 400.887 163.632C400.663 163.387 400.551 163.061 400.551 162.656V155.264H401.831V162.88H403.175V164H401.911ZM406.071 164C405.623 164 405.282 163.877 405.047 163.632C404.823 163.387 404.711 163.061 404.711 162.656V155.264H405.991V162.88H407.335V164H406.071ZM411.434 164.192C410.517 164.192 409.871 163.803 409.498 163.024C409.125 162.235 408.938 161.115 408.938 159.664C408.938 158.213 409.215 157.12 409.77 156.384C410.325 155.637 411.098 155.264 412.09 155.264H412.506V156.368H412.154C411.557 156.368 411.098 156.571 410.778 156.976C410.458 157.381 410.298 158.043 410.298 158.96V160.464C410.298 160.859 410.314 161.221 410.346 161.552C410.378 161.872 410.442 162.149 410.538 162.384C410.634 162.608 410.767 162.784 410.938 162.912C411.109 163.029 411.333 163.088 411.61 163.088C411.962 163.088 412.25 162.955 412.474 162.688C412.698 162.421 412.81 162 412.81 161.424V159.92H414.074V161.424C414.074 162 414.175 162.421 414.378 162.688C414.591 162.955 414.879 163.088 415.242 163.088C415.583 163.088 415.85 162.976 416.042 162.752C416.245 162.517 416.346 162.176 416.346 161.728V155.264H417.626V161.856C417.626 162.571 417.439 163.141 417.066 163.568C416.693 163.984 416.181 164.192 415.53 164.192C414.922 164.192 414.442 164.021 414.09 163.68C413.738 163.328 413.535 162.896 413.482 162.384H413.402C413.349 162.896 413.151 163.328 412.81 163.68C412.469 164.021 412.01 164.192 411.434 164.192ZM423.138 164.192C422.21 164.192 421.485 163.899 420.962 163.312C420.44 162.725 420.178 161.899 420.178 160.832V155.264H421.458V160.672C421.458 162.293 422.152 163.104 423.538 163.104C423.805 163.104 424.072 163.067 424.338 162.992C424.605 162.917 424.84 162.805 425.042 162.656C425.245 162.507 425.41 162.32 425.538 162.096C425.666 161.872 425.73 161.611 425.73 161.312V155.264H427.01V162.88H428.034V164H427.09C426.664 164 426.349 163.872 426.146 163.616C425.954 163.36 425.842 163.035 425.81 162.64H425.746C425.576 163.131 425.256 163.515 424.786 163.792C424.328 164.059 423.778 164.192 423.138 164.192ZM429.469 155.264H430.733L431.309 159.392L431.597 162.608H431.661L432.477 159.392L433.661 155.264H434.813L436.013 159.392L436.813 162.608H436.893L437.181 159.392L437.741 155.264H439.021L437.741 164H436.285L434.877 159.152L434.253 156.704H434.205L433.581 159.152L432.173 164H430.749L429.469 155.264ZM437.679 153.552C437.199 153.552 436.847 153.435 436.623 153.2C436.399 152.965 436.287 152.656 436.287 152.272V151.28H437.567V152.448H441.647V153.552H437.679ZM444.456 164.192C443.325 164.192 442.461 163.792 441.864 162.992C441.266 162.181 440.968 161.051 440.968 159.6C440.968 158.171 441.176 157.061 441.592 156.272C442.008 155.472 442.642 155.072 443.496 155.072C443.88 155.072 444.221 155.179 444.52 155.392C444.818 155.605 445.021 155.92 445.128 156.336H445.208C445.314 155.92 445.522 155.605 445.832 155.392C446.152 155.179 446.514 155.072 446.92 155.072C447.528 155.072 447.997 155.275 448.328 155.68C448.658 156.085 448.824 156.651 448.824 157.376V161.312C448.824 161.611 448.882 161.872 449 162.096C449.117 162.32 449.272 162.507 449.464 162.656C449.656 162.795 449.874 162.901 450.12 162.976C450.365 163.04 450.616 163.072 450.872 163.072C452.141 163.072 452.776 162.272 452.776 160.672V155.264H454.056V160.832C454.056 161.909 453.81 162.741 453.32 163.328C452.829 163.904 452.146 164.192 451.272 164.192C450.93 164.192 450.626 164.144 450.36 164.048C450.104 163.963 449.88 163.845 449.688 163.696C449.496 163.547 449.336 163.376 449.208 163.184C449.08 162.992 448.978 162.789 448.904 162.576H448.824V164H447.56V157.392C447.56 156.976 447.474 156.672 447.304 156.48C447.144 156.277 446.914 156.176 446.616 156.176C446.253 156.176 445.992 156.309 445.832 156.576C445.682 156.832 445.581 157.125 445.528 157.456H444.696C444.674 157.296 444.642 157.141 444.6 156.992C444.568 156.832 444.509 156.693 444.424 156.576C444.349 156.448 444.248 156.352 444.12 156.288C444.002 156.213 443.853 156.176 443.672 156.176C443.426 156.176 443.218 156.245 443.048 156.384C442.877 156.523 442.738 156.715 442.632 156.96C442.536 157.205 442.461 157.499 442.408 157.84C442.365 158.171 442.344 158.533 442.344 158.928V160.208C442.344 161.115 442.53 161.824 442.904 162.336C443.277 162.837 443.874 163.088 444.696 163.088C444.813 163.088 444.936 163.083 445.064 163.072C445.202 163.061 445.336 163.045 445.464 163.024L445.624 164.096C445.421 164.139 445.218 164.165 445.016 164.176C444.824 164.187 444.637 164.192 444.456 164.192ZM459.576 164.192C458.648 164.192 457.923 163.899 457.4 163.312C456.877 162.725 456.616 161.899 456.616 160.832V155.264H457.896V160.672C457.896 162.293 458.589 163.104 459.976 163.104C460.243 163.104 460.509 163.067 460.776 162.992C461.043 162.917 461.277 162.805 461.48 162.656C461.683 162.507 461.848 162.32 461.976 162.096C462.104 161.872 462.168 161.611 462.168 161.312V155.264H463.448V162.88H464.472V164H463.528C463.101 164 462.787 163.872 462.584 163.616C462.392 163.36 462.28 163.035 462.248 162.64H462.184C462.013 163.131 461.693 163.515 461.224 163.792C460.765 164.059 460.216 164.192 459.576 164.192ZM469.91 158C469.91 156.773 469.276 156.16 468.006 156.16C467.494 156.16 467.073 156.272 466.742 156.496C466.422 156.72 466.15 157.019 465.926 157.392L465.142 156.704C465.388 156.235 465.745 155.845 466.214 155.536C466.694 155.227 467.318 155.072 468.086 155.072C469.089 155.072 469.857 155.317 470.39 155.808C470.924 156.299 471.19 156.992 471.19 157.888V164H469.91V158ZM361.488 183.008L360.128 182.432C360.16 181.941 360.277 181.493 360.48 181.088C360.693 180.672 360.97 180.315 361.312 180.016C361.653 179.717 362.048 179.488 362.496 179.328C362.954 179.157 363.45 179.072 363.984 179.072C365.232 179.072 366.186 179.387 366.848 180.016C367.509 180.635 367.84 181.477 367.84 182.544V188H366.56V182.704C366.56 181.872 366.325 181.243 365.856 180.816C365.397 180.389 364.789 180.176 364.032 180.176C363.701 180.176 363.386 180.219 363.088 180.304C362.8 180.379 362.538 180.491 362.304 180.64C362.069 180.779 361.866 180.955 361.696 181.168C361.525 181.371 361.402 181.6 361.328 181.856L362.128 182.176C362.352 182.261 362.512 182.373 362.608 182.512C362.714 182.64 362.768 182.821 362.768 183.056V188H361.488V183.008ZM370.485 179.264H371.765V180.688H371.845C371.93 180.485 372.037 180.288 372.165 180.096C372.304 179.893 372.474 179.717 372.677 179.568C372.89 179.419 373.136 179.301 373.413 179.216C373.701 179.12 374.032 179.072 374.405 179.072C375.333 179.072 376.058 179.365 376.581 179.952C377.114 180.528 377.381 181.355 377.381 182.432V188H376.101V182.592C376.101 180.971 375.397 180.16 373.989 180.16C373.712 180.16 373.44 180.197 373.173 180.272C372.906 180.347 372.666 180.459 372.453 180.608C372.25 180.757 372.085 180.944 371.957 181.168C371.829 181.392 371.765 181.653 371.765 181.952V188H370.485V179.264ZM383.904 188.192C383.531 188.192 383.206 188.144 382.928 188.048C382.651 187.963 382.411 187.845 382.208 187.696C382.006 187.547 381.835 187.376 381.696 187.184C381.568 186.992 381.462 186.789 381.376 186.576H381.296V188H380.016V179.264H381.296V185.312C381.296 185.611 381.36 185.872 381.488 186.096C381.616 186.32 381.782 186.507 381.984 186.656C382.198 186.805 382.432 186.917 382.688 186.992C382.955 187.067 383.227 187.104 383.504 187.104C384.208 187.104 384.736 186.901 385.088 186.496C385.451 186.08 385.632 185.472 385.632 184.672V179.264H386.912V184.832C386.912 185.909 386.646 186.741 386.112 187.328C385.579 187.904 384.843 188.192 383.904 188.192ZM390.051 188.192C389.71 188.192 389.459 188.107 389.299 187.936C389.15 187.765 389.075 187.541 389.075 187.264V187.056C389.075 186.779 389.15 186.555 389.299 186.384C389.459 186.213 389.71 186.128 390.051 186.128C390.392 186.128 390.638 186.213 390.787 186.384C390.947 186.555 391.027 186.779 391.027 187.056V187.264C391.027 187.541 390.947 187.765 390.787 187.936C390.638 188.107 390.392 188.192 390.051 188.192ZM404.544 188H397.216V186.624L400.864 183.264C401.386 182.784 401.824 182.277 402.176 181.744C402.528 181.2 402.704 180.656 402.704 180.112V179.92C402.704 179.301 402.533 178.8 402.192 178.416C401.85 178.032 401.333 177.84 400.64 177.84C400.298 177.84 400 177.888 399.744 177.984C399.488 178.08 399.264 178.213 399.072 178.384C398.89 178.555 398.736 178.757 398.608 178.992C398.49 179.216 398.394 179.461 398.32 179.728L397.12 179.264C397.226 178.933 397.37 178.613 397.552 178.304C397.744 177.984 397.978 177.701 398.256 177.456C398.544 177.211 398.885 177.013 399.28 176.864C399.685 176.715 400.16 176.64 400.704 176.64C401.248 176.64 401.733 176.72 402.16 176.88C402.586 177.04 402.944 177.264 403.232 177.552C403.52 177.84 403.738 178.181 403.888 178.576C404.048 178.971 404.128 179.408 404.128 179.888C404.128 180.325 404.064 180.731 403.936 181.104C403.818 181.477 403.653 181.835 403.44 182.176C403.226 182.507 402.965 182.832 402.656 183.152C402.357 183.472 402.032 183.792 401.68 184.112L398.672 186.816H404.544V188ZM410.409 188.192C409.076 188.192 408.1 187.685 407.481 186.672C406.873 185.659 406.569 184.24 406.569 182.416C406.569 180.592 406.873 179.173 407.481 178.16C408.1 177.147 409.076 176.64 410.409 176.64C411.743 176.64 412.713 177.147 413.321 178.16C413.94 179.173 414.249 180.592 414.249 182.416C414.249 184.24 413.94 185.659 413.321 186.672C412.713 187.685 411.743 188.192 410.409 188.192ZM410.409 187.024C410.847 187.024 411.22 186.933 411.529 186.752C411.839 186.571 412.089 186.315 412.281 185.984C412.473 185.653 412.612 185.264 412.697 184.816C412.793 184.368 412.841 183.872 412.841 183.328V181.504C412.841 180.96 412.793 180.464 412.697 180.016C412.612 179.568 412.473 179.179 412.281 178.848C412.089 178.517 411.839 178.261 411.529 178.08C411.22 177.899 410.847 177.808 410.409 177.808C409.972 177.808 409.599 177.899 409.289 178.08C408.98 178.261 408.729 178.517 408.537 178.848C408.345 179.179 408.201 179.568 408.105 180.016C408.02 180.464 407.977 180.96 407.977 181.504V183.328C407.977 183.872 408.02 184.368 408.105 184.816C408.201 185.264 408.345 185.653 408.537 185.984C408.729 186.315 408.98 186.571 409.289 186.752C409.599 186.933 409.972 187.024 410.409 187.024ZM423.912 188.192C422.782 188.192 421.891 187.888 421.24 187.28C420.59 186.661 420.264 185.819 420.264 184.752V179.264H421.544V184.624C421.544 185.424 421.752 186.037 422.168 186.464C422.595 186.88 423.176 187.088 423.912 187.088C424.648 187.088 425.224 186.88 425.64 186.464C426.067 186.037 426.28 185.424 426.28 184.624V176.448H427.56V184.752C427.56 185.819 427.235 186.661 426.584 187.28C425.934 187.888 425.043 188.192 423.912 188.192ZM419.353 176.448H423.993V175.28H425.241V177.552H419.353V176.448ZM435.857 188C435.398 188 435.052 187.877 434.817 187.632C434.593 187.387 434.481 187.061 434.481 186.656V179.696C434.481 179.44 434.518 179.211 434.593 179.008C434.668 178.805 434.758 178.624 434.865 178.464C434.982 178.304 435.11 178.155 435.249 178.016C435.388 177.877 435.521 177.744 435.649 177.616C435.83 177.435 435.99 177.243 436.129 177.04C436.268 176.827 436.337 176.576 436.337 176.288C436.337 175.893 436.22 175.6 435.985 175.408C435.75 175.205 435.446 175.104 435.073 175.104C434.241 175.104 433.702 175.547 433.457 176.432L432.465 175.856C432.678 175.28 433.004 174.832 433.441 174.512C433.889 174.192 434.47 174.032 435.185 174.032C435.58 174.032 435.926 174.085 436.225 174.192C436.524 174.299 436.774 174.448 436.977 174.64C437.18 174.832 437.334 175.061 437.441 175.328C437.548 175.584 437.601 175.861 437.601 176.16C437.601 176.395 437.569 176.608 437.505 176.8C437.452 176.981 437.377 177.152 437.281 177.312C437.185 177.472 437.078 177.616 436.961 177.744C436.844 177.872 436.726 178 436.609 178.128C436.396 178.341 436.198 178.565 436.017 178.8C435.846 179.035 435.761 179.317 435.761 179.648V186.88H437.105V188H435.857ZM439.048 179.264H440.328V182.064L442.712 181.712C443.181 181.637 443.565 181.509 443.864 181.328C444.162 181.136 444.338 180.805 444.392 180.336L444.52 179.264H445.864L445.736 180.368C445.682 180.869 445.496 181.269 445.176 181.568C444.856 181.867 444.445 182.053 443.944 182.128V182.208C445 182.496 445.592 183.312 445.72 184.656L446.04 188H444.696L444.392 184.576C444.36 184.309 444.301 184.059 444.216 183.824C444.13 183.589 444.002 183.392 443.832 183.232C443.661 183.061 443.442 182.944 443.176 182.88C442.92 182.805 442.605 182.795 442.232 182.848L440.328 183.12V188H439.048V179.264ZM452.373 188.192C452 188.192 451.674 188.144 451.397 188.048C451.12 187.963 450.88 187.845 450.677 187.696C450.474 187.547 450.304 187.376 450.165 187.184C450.037 186.992 449.93 186.789 449.845 186.576H449.765V188H448.485V179.264H449.765V185.312C449.765 185.611 449.829 185.872 449.957 186.096C450.085 186.32 450.25 186.507 450.453 186.656C450.666 186.805 450.901 186.917 451.157 186.992C451.424 187.067 451.696 187.104 451.973 187.104C452.677 187.104 453.205 186.901 453.557 186.496C453.92 186.08 454.101 185.472 454.101 184.672V179.264H455.381V184.832C455.381 185.909 455.114 186.741 454.581 187.328C454.048 187.904 453.312 188.192 452.373 188.192ZM454.127 174.592H455.375V177.552H454.127V174.592Z"
    fill="black" />
  <rect x="83" y="93.5" width="6" height="13" transform="rotate(90 83 93.5)" fill="black" />
  <path
    d="M83 93.5L83 99.5L89.8072 97.4578C90.7574 97.1728 90.7574 95.8272 89.8072 95.5422L83 93.5Z"
    fill="#E8E4D8" />
  <path fill-rule="evenodd" clip-rule="evenodd"
    d="M83 93.5L89.8072 95.5422C90.7574 95.8272 90.7574 97.1728 89.8072 97.4578L83 99.5L83 93.5ZM84 94.844L89.5199 96.5L84 98.156L84 94.844Z"
    fill="black" />
  <path d="M87 95.5L87 97.5L90 96.5L87 95.5Z" fill="black" />
  <rect width="6" height="2" transform="matrix(-4.37114e-08 1 1 4.37114e-08 68 93.5)"
    fill="#E8E4D8" />
  <rect width="1" height="2" transform="matrix(-4.37114e-08 1 1 4.37114e-08 68 93.5)" fill="black" />
  <rect width="1" height="2" transform="matrix(-4.37114e-08 1 1 4.37114e-08 68 98.5)" fill="black" />
  <path
    d="M68 93.5L68 99.5L67 99.5C65.8954 99.5 65 98.6046 65 97.5L65 95.5C65 94.3954 65.8954 93.5 67 93.5L68 93.5Z"
    fill="black" />
  <rect x="58.5" y="78.5" width="34.04" height="11" rx="5.5" stroke="black" />
  <rect x="120.04" y="93.5" width="6" height="13" transform="rotate(90 120.04 93.5)" fill="black" />
  <path
    d="M120.04 93.5L120.04 99.5L126.847 97.4578C127.797 97.1728 127.797 95.8272 126.847 95.5422L120.04 93.5Z"
    fill="#E8E4D8" />
  <path fill-rule="evenodd" clip-rule="evenodd"
    d="M120.04 93.5L126.847 95.5422C127.797 95.8272 127.797 97.1728 126.847 97.4578L120.04 99.5L120.04 93.5ZM121.04 94.844L126.56 96.5L121.04 98.156L121.04 94.844Z"
    fill="black" />
  <path d="M124.04 95.5L124.04 97.5L127.04 96.5L124.04 95.5Z" fill="black" />
  <rect width="6" height="2" transform="matrix(-4.37114e-08 1 1 4.37114e-08 105.04 93.5)"
    fill="#E8E4D8" />
  <rect width="1" height="2" transform="matrix(-4.37114e-08 1 1 4.37114e-08 105.04 93.5)"
    fill="black" />
  <rect width="1" height="2" transform="matrix(-4.37114e-08 1 1 4.37114e-08 105.04 98.5)"
    fill="black" />
  <path
    d="M105.04 93.5L105.04 99.5L104.04 99.5C102.935 99.5 102.04 98.6046 102.04 97.5L102.04 95.5C102.04 94.3954 102.935 93.5 104.04 93.5L105.04 93.5Z"
    fill="black" />
  <rect x="95.54" y="78.5" width="34.04" height="11" rx="5.5" stroke="black" />
  <rect x="157.08" y="93.5" width="6" height="13" transform="rotate(90 157.08 93.5)" fill="black" />
  <path
    d="M157.08 93.5L157.08 99.5L163.887 97.4578C164.837 97.1728 164.837 95.8272 163.887 95.5422L157.08 93.5Z"
    fill="#E8E4D8" />
  <path fill-rule="evenodd" clip-rule="evenodd"
    d="M157.08 93.5L163.887 95.5422C164.837 95.8272 164.837 97.1728 163.887 97.4578L157.08 99.5L157.08 93.5ZM158.08 94.844L163.6 96.5L158.08 98.156L158.08 94.844Z"
    fill="black" />
  <path d="M161.08 95.5L161.08 97.5L164.08 96.5L161.08 95.5Z" fill="black" />
  <rect width="6" height="2" transform="matrix(-4.37114e-08 1 1 4.37114e-08 142.08 93.5)"
    fill="#E8E4D8" />
  <rect width="1" height="2" transform="matrix(-4.37114e-08 1 1 4.37114e-08 142.08 93.5)"
    fill="black" />
  <rect width="1" height="2" transform="matrix(-4.37114e-08 1 1 4.37114e-08 142.08 98.5)"
    fill="black" />
  <path
    d="M142.08 93.5L142.08 99.5L141.08 99.5C139.975 99.5 139.08 98.6046 139.08 97.5L139.08 95.5C139.08 94.3954 139.975 93.5 141.08 93.5L142.08 93.5Z"
    fill="black" />
  <rect x="132.58" y="78.5" width="34.04" height="11" rx="5.5" stroke="black" />
  <rect x="194.12" y="93.5" width="6" height="13" transform="rotate(90 194.12 93.5)" fill="black" />
  <path
    d="M194.12 93.5L194.12 99.5L200.927 97.4578C201.877 97.1728 201.877 95.8272 200.927 95.5422L194.12 93.5Z"
    fill="#E8E4D8" />
  <path fill-rule="evenodd" clip-rule="evenodd"
    d="M194.12 93.5L200.927 95.5422C201.877 95.8272 201.877 97.1728 200.927 97.4578L194.12 99.5L194.12 93.5ZM195.12 94.844L200.64 96.5L195.12 98.156L195.12 94.844Z"
    fill="black" />
  <path d="M198.12 95.5L198.12 97.5L201.12 96.5L198.12 95.5Z" fill="black" />
  <rect width="6" height="2" transform="matrix(-4.37114e-08 1 1 4.37114e-08 179.12 93.5)"
    fill="#E8E4D8" />
  <rect width="1" height="2" transform="matrix(-4.37114e-08 1 1 4.37114e-08 179.12 93.5)"
    fill="black" />
  <rect width="1" height="2" transform="matrix(-4.37114e-08 1 1 4.37114e-08 179.12 98.5)"
    fill="black" />
  <path
    d="M179.12 93.5L179.12 99.5L178.12 99.5C177.015 99.5 176.12 98.6046 176.12 97.5L176.12 95.5C176.12 94.3954 177.015 93.5 178.12 93.5L179.12 93.5Z"
    fill="black" />
  <rect x="169.62" y="78.5" width="34.04" height="11" rx="5.5" stroke="black" />
  <rect x="231.16" y="93.5" width="6" height="13" transform="rotate(90 231.16 93.5)" fill="black" />
  <path
    d="M231.16 93.5L231.16 99.5L237.967 97.4578C238.917 97.1728 238.917 95.8272 237.967 95.5422L231.16 93.5Z"
    fill="#E8E4D8" />
  <path fill-rule="evenodd" clip-rule="evenodd"
    d="M231.16 93.5L237.967 95.5422C238.917 95.8272 238.917 97.1728 237.967 97.4578L231.16 99.5L231.16 93.5ZM232.16 94.844L237.68 96.5L232.16 98.156L232.16 94.844Z"
    fill="black" />
  <path d="M235.16 95.5L235.16 97.5L238.16 96.5L235.16 95.5Z" fill="black" />
  <rect width="6" height="2" transform="matrix(-4.37114e-08 1 1 4.37114e-08 216.16 93.5)"
    fill="#E8E4D8" />
  <rect width="1" height="2" transform="matrix(-4.37114e-08 1 1 4.37114e-08 216.16 93.5)"
    fill="black" />
  <rect width="1" height="2" transform="matrix(-4.37114e-08 1 1 4.37114e-08 216.16 98.5)"
    fill="black" />
  <path
    d="M216.16 93.5L216.16 99.5L215.16 99.5C214.055 99.5 213.16 98.6046 213.16 97.5L213.16 95.5C213.16 94.3954 214.055 93.5 215.16 93.5L216.16 93.5Z"
    fill="black" />
  <rect x="206.66" y="78.5" width="34.04" height="11" rx="5.5" stroke="black" />
  <rect x="243.7" y="78.5" width="34.04" height="11" rx="5.5" fill="#4CC45D" />
  <path
    d="M252.125 73H245.209V71.082L248.219 68.506C248.49 68.2727 248.718 68.0627 248.905 67.876C249.092 67.68 249.241 67.4933 249.353 67.316C249.474 67.1293 249.558 66.9473 249.605 66.77C249.661 66.5927 249.689 66.4013 249.689 66.196V66C249.689 65.8133 249.652 65.65 249.577 65.51C249.502 65.37 249.404 65.2533 249.283 65.16C249.162 65.0667 249.022 64.9967 248.863 64.95C248.714 64.9033 248.56 64.88 248.401 64.88C248.168 64.88 247.962 64.9173 247.785 64.992C247.617 65.0667 247.468 65.1693 247.337 65.3C247.216 65.4213 247.113 65.566 247.029 65.734C246.945 65.8927 246.88 66.0653 246.833 66.252L244.999 65.552C245.111 65.216 245.265 64.8987 245.461 64.6C245.657 64.292 245.9 64.026 246.189 63.802C246.488 63.5687 246.838 63.3867 247.239 63.256C247.64 63.1253 248.093 63.06 248.597 63.06C249.129 63.06 249.6 63.1347 250.011 63.284C250.422 63.4333 250.767 63.6387 251.047 63.9C251.336 64.1613 251.556 64.474 251.705 64.838C251.854 65.1927 251.929 65.58 251.929 66C251.929 66.42 251.859 66.8027 251.719 67.148C251.579 67.4933 251.388 67.82 251.145 68.128C250.912 68.4267 250.636 68.7113 250.319 68.982C250.002 69.2527 249.67 69.528 249.325 69.808L247.505 71.236H252.125V73ZM260.113 65.062H255.675L255.465 68.156H255.577C255.671 67.9227 255.773 67.7127 255.885 67.526C256.007 67.33 256.147 67.1667 256.305 67.036C256.464 66.896 256.655 66.7887 256.879 66.714C257.103 66.6393 257.369 66.602 257.677 66.602C258.097 66.602 258.489 66.672 258.853 66.812C259.217 66.952 259.535 67.1573 259.805 67.428C260.076 67.6893 260.291 68.016 260.449 68.408C260.608 68.7907 260.687 69.2247 260.687 69.71C260.687 70.2047 260.603 70.6667 260.435 71.096C260.277 71.516 260.034 71.88 259.707 72.188C259.39 72.496 258.998 72.7387 258.531 72.916C258.065 73.084 257.533 73.168 256.935 73.168C256.459 73.168 256.039 73.1167 255.675 73.014C255.311 72.9113 254.989 72.776 254.709 72.608C254.429 72.4307 254.187 72.23 253.981 72.006C253.776 71.782 253.599 71.544 253.449 71.292L254.975 70.088C255.19 70.4707 255.447 70.7973 255.745 71.068C256.044 71.3293 256.445 71.46 256.949 71.46C257.453 71.46 257.831 71.3153 258.083 71.026C258.345 70.7367 258.475 70.354 258.475 69.878V69.766C258.475 69.318 258.345 68.9633 258.083 68.702C257.822 68.4407 257.463 68.31 257.005 68.31C256.623 68.31 256.305 68.3893 256.053 68.548C255.811 68.6973 255.624 68.8467 255.493 68.996L253.771 68.758L254.135 63.228H260.113V65.062ZM268.508 65.062H264.07L263.86 68.156H263.972C264.065 67.9227 264.168 67.7127 264.28 67.526C264.401 67.33 264.541 67.1667 264.7 67.036C264.859 66.896 265.05 66.7887 265.274 66.714C265.498 66.6393 265.764 66.602 266.072 66.602C266.492 66.602 266.884 66.672 267.248 66.812C267.612 66.952 267.929 67.1573 268.2 67.428C268.471 67.6893 268.685 68.016 268.844 68.408C269.003 68.7907 269.082 69.2247 269.082 69.71C269.082 70.2047 268.998 70.6667 268.83 71.096C268.671 71.516 268.429 71.88 268.102 72.188C267.785 72.496 267.393 72.7387 266.926 72.916C266.459 73.084 265.927 73.168 265.33 73.168C264.854 73.168 264.434 73.1167 264.07 73.014C263.706 72.9113 263.384 72.776 263.104 72.608C262.824 72.4307 262.581 72.23 262.376 72.006C262.171 71.782 261.993 71.544 261.844 71.292L263.37 70.088C263.585 70.4707 263.841 70.7973 264.14 71.068C264.439 71.3293 264.84 71.46 265.344 71.46C265.848 71.46 266.226 71.3153 266.478 71.026C266.739 70.7367 266.87 70.354 266.87 69.878V69.766C266.87 69.318 266.739 68.9633 266.478 68.702C266.217 68.4407 265.857 68.31 265.4 68.31C265.017 68.31 264.7 68.3893 264.448 68.548C264.205 68.6973 264.019 68.8467 263.888 68.996L262.166 68.758L262.53 63.228H268.508V65.062ZM273.851 73.168C273.272 73.168 272.754 73.0793 272.297 72.902C271.839 72.7153 271.452 72.454 271.135 72.118C270.827 71.7727 270.589 71.362 270.421 70.886C270.262 70.41 270.183 69.878 270.183 69.29C270.183 68.6087 270.285 67.9647 270.491 67.358C270.705 66.742 270.976 66.1773 271.303 65.664C271.639 65.1413 272.012 64.6747 272.423 64.264C272.843 63.8533 273.263 63.508 273.683 63.228H276.581C275.983 63.6573 275.447 64.068 274.971 64.46C274.495 64.8427 274.079 65.23 273.725 65.622C273.379 66.014 273.09 66.4153 272.857 66.826C272.633 67.2273 272.474 67.6613 272.381 68.128L272.507 68.17C272.591 67.9833 272.689 67.8013 272.801 67.624C272.922 67.4467 273.067 67.2927 273.235 67.162C273.412 67.022 273.617 66.91 273.851 66.826C274.084 66.742 274.355 66.7 274.663 66.7C275.064 66.7 275.437 66.7747 275.783 66.924C276.137 67.064 276.441 67.2647 276.693 67.526C276.954 67.7873 277.155 68.1093 277.295 68.492C277.444 68.8653 277.519 69.2807 277.519 69.738C277.519 70.242 277.43 70.704 277.253 71.124C277.085 71.544 276.837 71.908 276.511 72.216C276.193 72.5147 275.811 72.748 275.363 72.916C274.915 73.084 274.411 73.168 273.851 73.168ZM273.851 71.53C274.317 71.53 274.681 71.404 274.943 71.152C275.204 70.8907 275.335 70.522 275.335 70.046V69.794C275.335 69.318 275.204 68.954 274.943 68.702C274.681 68.4407 274.317 68.31 273.851 68.31C273.384 68.31 273.02 68.4407 272.759 68.702C272.497 68.954 272.367 69.318 272.367 69.794V70.046C272.367 70.522 272.497 70.8907 272.759 71.152C273.02 71.404 273.384 71.53 273.851 71.53Z"
    fill="black" />
  <rect x="268.2" y="93.5" width="6" height="13" transform="rotate(90 268.2 93.5)" fill="black" />
  <path
    d="M268.2 93.5L268.2 99.5L275.007 97.4578C275.957 97.1728 275.957 95.8272 275.007 95.5422L268.2 93.5Z"
    fill="#E8E4D8" />
  <path fill-rule="evenodd" clip-rule="evenodd"
    d="M268.2 93.5L275.007 95.5422C275.957 95.8272 275.957 97.1728 275.007 97.4578L268.2 99.5L268.2 93.5ZM269.2 94.844L274.72 96.5L269.2 98.156L269.2 94.844Z"
    fill="black" />
  <path d="M272.2 95.5L272.2 97.5L275.2 96.5L272.2 95.5Z" fill="black" />
  <rect width="6" height="2" transform="matrix(-4.37114e-08 1 1 4.37114e-08 253.2 93.5)"
    fill="#E8E4D8" />
  <rect width="1" height="2" transform="matrix(-4.37114e-08 1 1 4.37114e-08 253.2 93.5)"
    fill="black" />
  <rect width="1" height="2" transform="matrix(-4.37114e-08 1 1 4.37114e-08 253.2 98.5)"
    fill="black" />
  <path
    d="M253.2 93.5L253.2 99.5L252.2 99.5C251.095 99.5 250.2 98.6046 250.2 97.5L250.2 95.5C250.2 94.3954 251.095 93.5 252.2 93.5L253.2 93.5Z"
    fill="black" />
  <rect x="243.7" y="78.5" width="34.04" height="11" rx="5.5" stroke="black" />
  <rect x="280.74" y="78.5" width="34.04" height="11" rx="5.5" fill="#4CC45D" />
  <rect x="280.74" y="78.5" width="34.04" height="11" rx="5.5" stroke="black" />
  <rect x="317.78" y="78.5" width="34.04" height="11" rx="5.5" fill="#4CC45D" />
  <rect x="317.78" y="78.5" width="34.04" height="11" rx="5.5" stroke="black" />
  <rect x="354.82" y="78.5" width="34.04" height="11" rx="5.5" fill="#4CC45D" />
  <rect x="354.82" y="78.5" width="34.04" height="11" rx="5.5" stroke="black" />
  <rect x="391.86" y="78.5" width="34.04" height="11" rx="5.5" fill="#4CC45D" />
  <rect x="391.86" y="78.5" width="34.04" height="11" rx="5.5" stroke="black" />
  <g opacity="0.3">
    <rect x="428.9" y="78.5" width="34.04" height="11" rx="5.5" fill="#4CC45D" />
    <rect x="428.9" y="78.5" width="34.04" height="11" rx="5.5" stroke="black" />
  </g>
  <g opacity="0.3">
    <rect x="465.94" y="78.5" width="34.04" height="11" rx="5.5" fill="#4CC45D" />
    <rect x="465.94" y="78.5" width="34.04" height="11" rx="5.5" stroke="black" />
  </g>
  <g opacity="0.3">
    <rect x="502.98" y="78.5" width="34.04" height="11" rx="5.5" fill="#4CC45D" />
    <rect x="502.98" y="78.5" width="34.04" height="11" rx="5.5" stroke="black" />
  </g>
  <g opacity="0.3">
    <rect x="540.02" y="78.5" width="34.04" height="11" rx="5.5" fill="#4CC45D" />
    <rect x="540.02" y="78.5" width="34.04" height="11" rx="5.5" stroke="black" />
  </g>
  <g opacity="0.3">
    <rect x="577.06" y="78.5" width="34.04" height="11" rx="5.5" fill="#4CC45D" />
    <rect x="577.06" y="78.5" width="34.04" height="11" rx="5.5" stroke="black" />
  </g>
  <g opacity="0.3">
    <rect x="614.1" y="78.5" width="34.04" height="11" rx="5.5" fill="#4CC45D" />
    <rect x="614.1" y="78.5" width="34.04" height="11" rx="5.5" stroke="black" />
  </g>
  <g opacity="0.3">
    <rect x="651.14" y="78.5" width="34.04" height="11" rx="5.5" fill="#4CC45D" />
    <rect x="651.14" y="78.5" width="34.04" height="11" rx="5.5" stroke="black" />
  </g>
  <g opacity="0.3">
    <rect x="688.18" y="78.5" width="34.04" height="11" rx="5.5" fill="#4CC45D" />
    <rect x="688.18" y="78.5" width="34.04" height="11" rx="5.5" stroke="black" />
  </g>
  <g opacity="0.3">
    <rect x="725.22" y="78.5" width="34.04" height="11" rx="5.5" fill="#4CC45D" />
    <rect x="725.22" y="78.5" width="34.04" height="11" rx="5.5" stroke="black" />
  </g>
  <g opacity="0.3">
    <rect x="762.26" y="78.5" width="34.04" height="11" rx="5.5" fill="#4CC45D" />
    <rect x="762.26" y="78.5" width="34.04" height="11" rx="5.5" stroke="black" />
  </g>
  <g opacity="0.3">
    <rect x="799.3" y="78.5" width="34.04" height="11" rx="5.5" fill="#4CC45D" />
    <rect x="799.3" y="78.5" width="34.04" height="11" rx="5.5" stroke="black" />
  </g>
  <g opacity="0.3">
    <rect x="836.34" y="78.5" width="34.04" height="11" rx="5.5" fill="#4CC45D" />
    <rect x="836.34" y="78.5" width="34.04" height="11" rx="5.5" stroke="black" />
  </g>
  <g opacity="0.3">
    <rect x="873.38" y="78.5" width="34.04" height="11" rx="5.5" fill="#4CC45D" />
    <rect x="873.38" y="78.5" width="34.04" height="11" rx="5.5" stroke="black" />
  </g>
  <g opacity="0.3">
    <rect x="910.42" y="78.5" width="34.04" height="11" rx="5.5" fill="#4CC45D" />
    <rect x="910.42" y="78.5" width="34.04" height="11" rx="5.5" stroke="black" />
  </g>
  <g opacity="0.3">
    <rect x="947.46" y="78.5" width="34.04" height="11" rx="5.5" fill="#4CC45D" />
    <path
      d="M955.885 73H948.969V71.082L951.979 68.506C952.249 68.2727 952.478 68.0627 952.665 67.876C952.851 67.68 953.001 67.4933 953.113 67.316C953.234 67.1293 953.318 66.9473 953.365 66.77C953.421 66.5927 953.449 66.4013 953.449 66.196V66C953.449 65.8133 953.411 65.65 953.337 65.51C953.262 65.37 953.164 65.2533 953.043 65.16C952.921 65.0667 952.781 64.9967 952.623 64.95C952.473 64.9033 952.319 64.88 952.161 64.88C951.927 64.88 951.722 64.9173 951.545 64.992C951.377 65.0667 951.227 65.1693 951.097 65.3C950.975 65.4213 950.873 65.566 950.789 65.734C950.705 65.8927 950.639 66.0653 950.593 66.252L948.759 65.552C948.871 65.216 949.025 64.8987 949.221 64.6C949.417 64.292 949.659 64.026 949.949 63.802C950.247 63.5687 950.597 63.3867 950.999 63.256C951.4 63.1253 951.853 63.06 952.357 63.06C952.889 63.06 953.36 63.1347 953.771 63.284C954.181 63.4333 954.527 63.6387 954.807 63.9C955.096 64.1613 955.315 64.474 955.465 64.838C955.614 65.1927 955.689 65.58 955.689 66C955.689 66.42 955.619 66.8027 955.479 67.148C955.339 67.4933 955.147 67.82 954.905 68.128C954.671 68.4267 954.396 68.7113 954.079 68.982C953.761 69.2527 953.43 69.528 953.085 69.808L951.265 71.236H955.885V73ZM963.873 65.062H959.435L959.225 68.156H959.337C959.431 67.9227 959.533 67.7127 959.645 67.526C959.767 67.33 959.907 67.1667 960.065 67.036C960.224 66.896 960.415 66.7887 960.639 66.714C960.863 66.6393 961.129 66.602 961.437 66.602C961.857 66.602 962.249 66.672 962.613 66.812C962.977 66.952 963.295 67.1573 963.565 67.428C963.836 67.6893 964.051 68.016 964.209 68.408C964.368 68.7907 964.447 69.2247 964.447 69.71C964.447 70.2047 964.363 70.6667 964.195 71.096C964.037 71.516 963.794 71.88 963.467 72.188C963.15 72.496 962.758 72.7387 962.291 72.916C961.825 73.084 961.293 73.168 960.695 73.168C960.219 73.168 959.799 73.1167 959.435 73.014C959.071 72.9113 958.749 72.776 958.469 72.608C958.189 72.4307 957.947 72.23 957.741 72.006C957.536 71.782 957.359 71.544 957.209 71.292L958.735 70.088C958.95 70.4707 959.207 70.7973 959.505 71.068C959.804 71.3293 960.205 71.46 960.709 71.46C961.213 71.46 961.591 71.3153 961.843 71.026C962.105 70.7367 962.235 70.354 962.235 69.878V69.766C962.235 69.318 962.105 68.9633 961.843 68.702C961.582 68.4407 961.223 68.31 960.765 68.31C960.383 68.31 960.065 68.3893 959.813 68.548C959.571 68.6973 959.384 68.8467 959.253 68.996L957.531 68.758L957.895 63.228H963.873V65.062ZM969.16 73.168C968.581 73.168 968.063 73.098 967.606 72.958C967.158 72.8087 966.78 72.608 966.472 72.356C966.164 72.104 965.926 71.8053 965.758 71.46C965.599 71.1147 965.52 70.7367 965.52 70.326C965.52 69.7007 965.693 69.192 966.038 68.8C966.383 68.3987 966.85 68.1187 967.438 67.96V67.848C966.962 67.6707 966.57 67.4 966.262 67.036C965.963 66.672 965.814 66.2053 965.814 65.636C965.814 65.2627 965.884 64.9173 966.024 64.6C966.173 64.2827 966.388 64.012 966.668 63.788C966.957 63.5547 967.307 63.3773 967.718 63.256C968.138 63.1253 968.619 63.06 969.16 63.06C969.701 63.06 970.177 63.1253 970.588 63.256C971.008 63.3773 971.358 63.5547 971.638 63.788C971.927 64.012 972.142 64.2827 972.282 64.6C972.431 64.9173 972.506 65.2627 972.506 65.636C972.506 66.2053 972.352 66.672 972.044 67.036C971.745 67.4 971.358 67.6707 970.882 67.848V67.96C971.47 68.1187 971.937 68.3987 972.282 68.8C972.627 69.192 972.8 69.7007 972.8 70.326C972.8 70.7367 972.716 71.1147 972.548 71.46C972.389 71.8053 972.156 72.104 971.848 72.356C971.54 72.608 971.157 72.8087 970.7 72.958C970.252 73.098 969.739 73.168 969.16 73.168ZM969.16 71.558C969.627 71.558 969.981 71.4507 970.224 71.236C970.476 71.012 970.602 70.704 970.602 70.312V70.032C970.602 69.64 970.476 69.3367 970.224 69.122C969.981 68.898 969.627 68.786 969.16 68.786C968.693 68.786 968.334 68.898 968.082 69.122C967.839 69.3367 967.718 69.64 967.718 70.032V70.312C967.718 70.704 967.839 71.012 968.082 71.236C968.334 71.4507 968.693 71.558 969.16 71.558ZM969.16 67.246C969.608 67.246 969.949 67.1433 970.182 66.938C970.415 66.7233 970.532 66.434 970.532 66.07V65.846C970.532 65.482 970.415 65.1973 970.182 64.992C969.949 64.7773 969.608 64.67 969.16 64.67C968.712 64.67 968.371 64.7773 968.138 64.992C967.905 65.1973 967.788 65.482 967.788 65.846V66.07C967.788 66.434 967.905 66.7233 968.138 66.938C968.371 67.1433 968.712 67.246 969.16 67.246ZM977.554 73.168C976.276 73.168 975.328 72.7247 974.712 71.838C974.096 70.9513 973.788 69.71 973.788 68.114C973.788 66.518 974.096 65.2767 974.712 64.39C975.328 63.5033 976.276 63.06 977.554 63.06C978.833 63.06 979.78 63.5033 980.396 64.39C981.012 65.2767 981.32 66.518 981.32 68.114C981.32 69.71 981.012 70.9513 980.396 71.838C979.78 72.7247 978.833 73.168 977.554 73.168ZM977.554 71.39C978.114 71.39 978.502 71.1847 978.716 70.774C978.931 70.3633 979.038 69.7847 979.038 69.038V67.19C979.038 66.4433 978.931 65.8647 978.716 65.454C978.502 65.0433 978.114 64.838 977.554 64.838C976.994 64.838 976.607 65.0433 976.392 65.454C976.178 65.8647 976.07 66.4433 976.07 67.19V69.038C976.07 69.7847 976.178 70.3633 976.392 70.774C976.607 71.1847 976.994 71.39 977.554 71.39Z"
      fill="black" />
    <rect x="971.96" y="93.5" width="6" height="13" transform="rotate(90 971.96 93.5)"
      fill="black" />
    <path
      d="M971.96 93.5L971.96 99.5L978.767 97.4578C979.717 97.1728 979.717 95.8272 978.767 95.5422L971.96 93.5Z"
      fill="#E8E4D8" />
    <path fill-rule="evenodd" clip-rule="evenodd"
      d="M971.96 93.5L978.767 95.5422C979.717 95.8272 979.717 97.1728 978.767 97.4578L971.96 99.5L971.96 93.5ZM972.96 94.844L978.48 96.5L972.96 98.156L972.96 94.844Z"
      fill="black" />
    <path d="M975.96 95.5L975.96 97.5L978.96 96.5L975.96 95.5Z" fill="black" />
    <rect width="6" height="2" transform="matrix(-4.37114e-08 1 1 4.37114e-08 956.96 93.5)"
      fill="#E8E4D8" />
    <rect width="1" height="2" transform="matrix(-4.37114e-08 1 1 4.37114e-08 956.96 93.5)"
      fill="black" />
    <rect width="1" height="2" transform="matrix(-4.37114e-08 1 1 4.37114e-08 956.96 98.5)"
      fill="black" />
    <path
      d="M956.96 93.5L956.96 99.5L955.96 99.5C954.855 99.5 953.96 98.6046 953.96 97.5L953.96 95.5C953.96 94.3954 954.855 93.5 955.96 93.5L956.96 93.5Z"
      fill="black" />
    <rect x="947.46" y="78.5" width="34.04" height="11" rx="5.5" stroke="black" />
  </g>
  <rect width="68" height="44" transform="translate(376 19)" fill="black" />
  <path
    d="M391.03 46.192C389.899 46.192 389.008 45.888 388.358 45.28C387.707 44.6613 387.382 43.8187 387.382 42.752V37.264H388.662V42.624C388.662 43.424 388.87 44.0373 389.286 44.464C389.712 44.88 390.294 45.088 391.03 45.088C391.766 45.088 392.342 44.88 392.758 44.464C393.184 44.0373 393.398 43.424 393.398 42.624V34.448H394.678V42.752C394.678 43.8187 394.352 44.6613 393.702 45.28C393.051 45.888 392.16 46.192 391.03 46.192ZM388.854 35.552C388.374 35.552 388.022 35.4347 387.798 35.2C387.574 34.9653 387.462 34.656 387.462 34.272V33.28H388.742V34.448H392.358V35.552H388.854ZM398.233 42.288H397.257V41.184H398.569C398.729 41.184 398.878 41.2213 399.017 41.296C399.166 41.36 399.268 41.4773 399.321 41.648L400.473 44.928H401.081C401.604 44.928 402.025 44.688 402.345 44.208C402.665 43.728 402.825 43.0613 402.825 42.208V40.896C402.825 40.032 402.59 39.3653 402.121 38.896C401.662 38.416 401.033 38.176 400.233 38.176C399.476 38.176 398.852 38.3307 398.361 38.64C397.87 38.9387 397.486 39.328 397.209 39.808L396.377 39.072C396.516 38.8053 396.697 38.5493 396.921 38.304C397.156 38.0587 397.433 37.8453 397.753 37.664C398.084 37.4827 398.457 37.3387 398.873 37.232C399.3 37.1253 399.769 37.072 400.281 37.072C401.529 37.072 402.489 37.4667 403.161 38.256C403.844 39.0453 404.185 40.144 404.185 41.552C404.185 42.2453 404.105 42.8693 403.945 43.424C403.796 43.968 403.582 44.432 403.305 44.816C403.028 45.2 402.686 45.4933 402.281 45.696C401.876 45.8987 401.428 46 400.937 46H399.529L398.233 42.288ZM407.42 42.288H406.444V41.184H407.756C407.916 41.184 408.066 41.2213 408.204 41.296C408.354 41.36 408.455 41.4773 408.508 41.648L409.66 44.928H410.268C410.791 44.928 411.212 44.688 411.532 44.208C411.852 43.728 412.012 43.0613 412.012 42.208V40.896C412.012 40.032 411.778 39.3653 411.308 38.896C410.85 38.416 410.22 38.176 409.42 38.176C408.663 38.176 408.039 38.3307 407.548 38.64C407.058 38.9387 406.674 39.328 406.396 39.808L405.564 39.072C405.703 38.8053 405.884 38.5493 406.108 38.304C406.343 38.0587 406.62 37.8453 406.94 37.664C407.271 37.4827 407.644 37.3387 408.06 37.232C408.487 37.1253 408.956 37.072 409.468 37.072C410.716 37.072 411.676 37.4667 412.348 38.256C413.031 39.0453 413.372 40.144 413.372 41.552C413.372 42.2453 413.292 42.8693 413.132 43.424C412.983 43.968 412.77 44.432 412.492 44.816C412.215 45.2 411.874 45.4933 411.468 45.696C411.063 45.8987 410.615 46 410.124 46H408.716L407.42 42.288ZM411.667 48.832H410.611V47.808H411.971C412.291 47.808 412.525 47.8933 412.675 48.064C412.813 48.2347 412.883 48.464 412.883 48.752V51.504H411.667V48.832ZM419.264 46.192C418.133 46.192 417.243 45.888 416.592 45.28C415.941 44.6613 415.616 43.8187 415.616 42.752V37.264H416.896V42.624C416.896 43.424 417.104 44.0373 417.52 44.464C417.947 44.88 418.528 45.088 419.264 45.088C420 45.088 420.576 44.88 420.992 44.464C421.419 44.0373 421.632 43.424 421.632 42.624V37.264H422.912V42.752C422.912 43.8187 422.587 44.6613 421.936 45.28C421.285 45.888 420.395 46.192 419.264 46.192ZM421.57 35.552C421.09 35.552 420.738 35.4347 420.514 35.2C420.29 34.9653 420.178 34.656 420.178 34.272V33.28H421.458V34.448H425.538V35.552H421.57ZM428.435 46.192C427.507 46.192 426.782 45.8987 426.259 45.312C425.737 44.7253 425.475 43.8987 425.475 42.832V37.264H426.755V42.672C426.755 44.2933 427.449 45.104 428.835 45.104C429.102 45.104 429.369 45.0667 429.635 44.992C429.902 44.9173 430.137 44.8053 430.339 44.656C430.542 44.5067 430.707 44.32 430.835 44.096C430.963 43.872 431.027 43.6107 431.027 43.312V37.264H432.307V44.88H433.331V46H432.387C431.961 46 431.646 45.872 431.443 45.616C431.251 45.36 431.139 45.0347 431.107 44.64H431.043C430.873 45.1307 430.553 45.5147 430.083 45.792C429.625 46.0587 429.075 46.192 428.435 46.192Z"
    fill="white" />
  <path d="M410 77L417 63L403 63L410 77Z" fill="black" />
  <line x1="77" y1="90" x2="77" y2="116" stroke="white" stroke-width="4" />
  <rect width="150" height="89" transform="translate(0 116)" fill="white" />
  <path
    d="M65.9249 141H59.0089V139.082L62.0189 136.506C62.2896 136.273 62.5183 136.063 62.7049 135.876C62.8916 135.68 63.0409 135.493 63.1529 135.316C63.2743 135.129 63.3583 134.947 63.4049 134.77C63.4609 134.593 63.4889 134.401 63.4889 134.196V134C63.4889 133.813 63.4516 133.65 63.3769 133.51C63.3023 133.37 63.2043 133.253 63.0829 133.16C62.9616 133.067 62.8216 132.997 62.6629 132.95C62.5136 132.903 62.3596 132.88 62.2009 132.88C61.9676 132.88 61.7623 132.917 61.5849 132.992C61.4169 133.067 61.2676 133.169 61.1369 133.3C61.0156 133.421 60.9129 133.566 60.8289 133.734C60.7449 133.893 60.6796 134.065 60.6329 134.252L58.7989 133.552C58.9109 133.216 59.0649 132.899 59.2609 132.6C59.4569 132.292 59.6996 132.026 59.9889 131.802C60.2876 131.569 60.6376 131.387 61.0389 131.256C61.4403 131.125 61.8929 131.06 62.3969 131.06C62.9289 131.06 63.4003 131.135 63.8109 131.284C64.2216 131.433 64.5669 131.639 64.8469 131.9C65.1363 132.161 65.3556 132.474 65.5049 132.838C65.6543 133.193 65.7289 133.58 65.7289 134C65.7289 134.42 65.6589 134.803 65.5189 135.148C65.3789 135.493 65.1876 135.82 64.9449 136.128C64.7116 136.427 64.4363 136.711 64.1189 136.982C63.8016 137.253 63.4703 137.528 63.1249 137.808L61.3049 139.236H65.9249V141ZM73.9135 133.062H69.4755L69.2655 136.156H69.3775C69.4708 135.923 69.5735 135.713 69.6855 135.526C69.8068 135.33 69.9468 135.167 70.1055 135.036C70.2641 134.896 70.4555 134.789 70.6795 134.714C70.9035 134.639 71.1695 134.602 71.4775 134.602C71.8975 134.602 72.2895 134.672 72.6535 134.812C73.0175 134.952 73.3348 135.157 73.6055 135.428C73.8761 135.689 74.0908 136.016 74.2495 136.408C74.4081 136.791 74.4875 137.225 74.4875 137.71C74.4875 138.205 74.4035 138.667 74.2355 139.096C74.0768 139.516 73.8341 139.88 73.5075 140.188C73.1901 140.496 72.7981 140.739 72.3315 140.916C71.8648 141.084 71.3328 141.168 70.7355 141.168C70.2595 141.168 69.8395 141.117 69.4755 141.014C69.1115 140.911 68.7895 140.776 68.5095 140.608C68.2295 140.431 67.9868 140.23 67.7815 140.006C67.5761 139.782 67.3988 139.544 67.2495 139.292L68.7755 138.088C68.9901 138.471 69.2468 138.797 69.5455 139.068C69.8441 139.329 70.2455 139.46 70.7495 139.46C71.2535 139.46 71.6315 139.315 71.8835 139.026C72.1448 138.737 72.2755 138.354 72.2755 137.878V137.766C72.2755 137.318 72.1448 136.963 71.8835 136.702C71.6221 136.441 71.2628 136.31 70.8055 136.31C70.4228 136.31 70.1055 136.389 69.8535 136.548C69.6108 136.697 69.4241 136.847 69.2935 136.996L67.5715 136.758L67.9355 131.228H73.9135V133.062ZM82.308 133.062H77.87L77.66 136.156H77.772C77.8653 135.923 77.968 135.713 78.08 135.526C78.2013 135.33 78.3413 135.167 78.5 135.036C78.6587 134.896 78.85 134.789 79.074 134.714C79.298 134.639 79.564 134.602 79.872 134.602C80.292 134.602 80.684 134.672 81.048 134.812C81.412 134.952 81.7293 135.157 82 135.428C82.2707 135.689 82.4853 136.016 82.644 136.408C82.8027 136.791 82.882 137.225 82.882 137.71C82.882 138.205 82.798 138.667 82.63 139.096C82.4713 139.516 82.2287 139.88 81.902 140.188C81.5847 140.496 81.1927 140.739 80.726 140.916C80.2593 141.084 79.7273 141.168 79.13 141.168C78.654 141.168 78.234 141.117 77.87 141.014C77.506 140.911 77.184 140.776 76.904 140.608C76.624 140.431 76.3813 140.23 76.176 140.006C75.9707 139.782 75.7933 139.544 75.644 139.292L77.17 138.088C77.3847 138.471 77.6413 138.797 77.94 139.068C78.2387 139.329 78.64 139.46 79.144 139.46C79.648 139.46 80.026 139.315 80.278 139.026C80.5393 138.737 80.67 138.354 80.67 137.878V137.766C80.67 137.318 80.5393 136.963 80.278 136.702C80.0167 136.441 79.6573 136.31 79.2 136.31C78.8173 136.31 78.5 136.389 78.248 136.548C78.0053 136.697 77.8187 136.847 77.688 136.996L75.966 136.758L76.33 131.228H82.308V133.062ZM87.6505 141.168C87.0719 141.168 86.5539 141.079 86.0965 140.902C85.6392 140.715 85.2519 140.454 84.9345 140.118C84.6265 139.773 84.3885 139.362 84.2205 138.886C84.0619 138.41 83.9825 137.878 83.9825 137.29C83.9825 136.609 84.0852 135.965 84.2905 135.358C84.5052 134.742 84.7759 134.177 85.1025 133.664C85.4385 133.141 85.8119 132.675 86.2225 132.264C86.6425 131.853 87.0625 131.508 87.4825 131.228H90.3805C89.7832 131.657 89.2465 132.068 88.7705 132.46C88.2945 132.843 87.8792 133.23 87.5245 133.622C87.1792 134.014 86.8899 134.415 86.6565 134.826C86.4325 135.227 86.2739 135.661 86.1805 136.128L86.3065 136.17C86.3905 135.983 86.4885 135.801 86.6005 135.624C86.7219 135.447 86.8665 135.293 87.0345 135.162C87.2119 135.022 87.4172 134.91 87.6505 134.826C87.8839 134.742 88.1545 134.7 88.4625 134.7C88.8639 134.7 89.2372 134.775 89.5825 134.924C89.9372 135.064 90.2405 135.265 90.4925 135.526C90.7539 135.787 90.9545 136.109 91.0945 136.492C91.2439 136.865 91.3185 137.281 91.3185 137.738C91.3185 138.242 91.2299 138.704 91.0525 139.124C90.8845 139.544 90.6372 139.908 90.3105 140.216C89.9932 140.515 89.6105 140.748 89.1625 140.916C88.7145 141.084 88.2105 141.168 87.6505 141.168ZM87.6505 139.53C88.1172 139.53 88.4812 139.404 88.7425 139.152C89.0039 138.891 89.1345 138.522 89.1345 138.046V137.794C89.1345 137.318 89.0039 136.954 88.7425 136.702C88.4812 136.441 88.1172 136.31 87.6505 136.31C87.1839 136.31 86.8199 136.441 86.5585 136.702C86.2972 136.954 86.1665 137.318 86.1665 137.794V138.046C86.1665 138.522 86.2972 138.891 86.5585 139.152C86.8199 139.404 87.1839 139.53 87.6505 139.53Z"
    fill="black" />
  <path
    d="M28.2825 164.192C27.7705 164.192 27.2905 164.117 26.8425 163.968C26.3945 163.819 26.0052 163.605 25.6745 163.328C25.3438 163.04 25.0825 162.704 24.8905 162.32C24.6985 161.925 24.6025 161.488 24.6025 161.008V160.192C24.6025 159.872 24.6665 159.627 24.7945 159.456C24.9225 159.275 25.1945 159.184 25.6105 159.184H27.3065V160.288H25.8985V160.944C25.8985 161.317 25.9572 161.643 26.0745 161.92C26.2025 162.197 26.3732 162.427 26.5865 162.608C26.7998 162.779 27.0558 162.907 27.3545 162.992C27.6638 163.077 27.9945 163.12 28.3465 163.12C29.1465 163.12 29.7705 162.875 30.2185 162.384C30.6665 161.893 30.8905 161.205 30.8905 160.32V159.008C30.8905 158.112 30.6452 157.419 30.1545 156.928C29.6745 156.427 29.0025 156.176 28.1385 156.176C27.4772 156.176 26.9065 156.309 26.4265 156.576C25.9465 156.843 25.5678 157.2 25.2905 157.648L24.4585 156.912C24.7572 156.389 25.2105 155.952 25.8185 155.6C26.4372 155.248 27.2318 155.072 28.2025 155.072C29.4932 155.072 30.4905 155.477 31.1945 156.288C31.9092 157.088 32.2665 158.203 32.2665 159.632C32.2665 160.325 32.1812 160.955 32.0105 161.52C31.8398 162.085 31.5838 162.565 31.2425 162.96C30.9118 163.355 30.4958 163.659 29.9945 163.872C29.5038 164.085 28.9332 164.192 28.2825 164.192ZM37.9388 164.192C37.4268 164.192 36.9468 164.117 36.4988 163.968C36.0508 163.819 35.6614 163.605 35.3307 163.328C35.0001 163.04 34.7388 162.704 34.5468 162.32C34.3548 161.925 34.2588 161.488 34.2588 161.008V160.192C34.2588 159.872 34.3228 159.627 34.4508 159.456C34.5788 159.275 34.8508 159.184 35.2668 159.184H36.9628V160.288H35.5548V160.944C35.5548 161.317 35.6134 161.643 35.7308 161.92C35.8588 162.197 36.0294 162.427 36.2428 162.608C36.4561 162.779 36.7121 162.907 37.0108 162.992C37.3201 163.077 37.6508 163.12 38.0028 163.12C38.8028 163.12 39.4268 162.875 39.8748 162.384C40.3228 161.893 40.5468 161.205 40.5468 160.32V159.008C40.5468 158.112 40.3014 157.419 39.8108 156.928C39.3308 156.427 38.6588 156.176 37.7948 156.176C37.1334 156.176 36.5628 156.309 36.0828 156.576C35.6028 156.843 35.2241 157.2 34.9468 157.648L34.1148 156.912C34.4134 156.389 34.8668 155.952 35.4748 155.6C36.0934 155.248 36.8881 155.072 37.8588 155.072C39.1494 155.072 40.1468 155.477 40.8508 156.288C41.5654 157.088 41.9228 158.203 41.9228 159.632C41.9228 160.325 41.8374 160.955 41.6667 161.52C41.4961 162.085 41.2401 162.565 40.8988 162.96C40.5681 163.355 40.1521 163.659 39.6508 163.872C39.1601 164.085 38.5894 164.192 37.9388 164.192ZM45.019 159.008L43.659 158.432C43.691 157.941 43.8083 157.493 44.011 157.088C44.2243 156.672 44.5017 156.315 44.843 156.016C45.1843 155.717 45.579 155.488 46.027 155.328C46.4857 155.157 46.9817 155.072 47.515 155.072C48.763 155.072 49.7177 155.387 50.379 156.016C51.0403 156.635 51.371 157.477 51.371 158.544V164H50.091V158.704C50.091 157.872 49.8563 157.243 49.387 156.816C48.9283 156.389 48.3203 156.176 47.563 156.176C47.2323 156.176 46.9177 156.219 46.619 156.304C46.331 156.379 46.0697 156.491 45.835 156.64C45.6003 156.779 45.3977 156.955 45.227 157.168C45.0563 157.371 44.9337 157.6 44.859 157.856L45.659 158.176C45.883 158.261 46.043 158.373 46.139 158.512C46.2457 158.64 46.299 158.821 46.299 159.056V164H45.019V159.008ZM55.8723 164C55.4243 164 55.0829 163.877 54.8483 163.632C54.6243 163.387 54.5123 163.061 54.5123 162.656V155.264H55.7923V162.88H57.1363V164H55.8723ZM60.0323 164C59.5843 164 59.2429 163.877 59.0083 163.632C58.7843 163.387 58.6723 163.061 58.6723 162.656V155.264H59.9523V162.88H61.2963V164H60.0323ZM65.395 164.192C64.4777 164.192 63.8323 163.803 63.459 163.024C63.0857 162.235 62.899 161.115 62.899 159.664C62.899 158.213 63.1763 157.12 63.731 156.384C64.2857 155.637 65.059 155.264 66.051 155.264H66.467V156.368H66.115C65.5177 156.368 65.059 156.571 64.739 156.976C64.419 157.381 64.259 158.043 64.259 158.96V160.464C64.259 160.859 64.275 161.221 64.307 161.552C64.339 161.872 64.403 162.149 64.499 162.384C64.595 162.608 64.7283 162.784 64.899 162.912C65.0697 163.029 65.2937 163.088 65.571 163.088C65.923 163.088 66.211 162.955 66.435 162.688C66.659 162.421 66.771 162 66.771 161.424V159.92H68.035V161.424C68.035 162 68.1363 162.421 68.339 162.688C68.5523 162.955 68.8403 163.088 69.203 163.088C69.5443 163.088 69.811 162.976 70.003 162.752C70.2057 162.517 70.307 162.176 70.307 161.728V155.264H71.587V161.856C71.587 162.571 71.4003 163.141 71.027 163.568C70.6537 163.984 70.1417 164.192 69.491 164.192C68.883 164.192 68.403 164.021 68.051 163.68C67.699 163.328 67.4963 162.896 67.443 162.384H67.363C67.3097 162.896 67.1123 163.328 66.771 163.68C66.4297 164.021 65.971 164.192 65.395 164.192ZM77.0994 164.192C76.1714 164.192 75.446 163.899 74.9234 163.312C74.4007 162.725 74.1394 161.899 74.1394 160.832V155.264H75.4194V160.672C75.4194 162.293 76.1127 163.104 77.4994 163.104C77.766 163.104 78.0327 163.067 78.2994 162.992C78.566 162.917 78.8007 162.805 79.0034 162.656C79.206 162.507 79.3714 162.32 79.4994 162.096C79.6274 161.872 79.6914 161.611 79.6914 161.312V155.264H80.9714V162.88H81.9954V164H81.0514C80.6247 164 80.31 163.872 80.1074 163.616C79.9154 163.36 79.8034 163.035 79.7714 162.64H79.7074C79.5367 163.131 79.2167 163.515 78.7474 163.792C78.2887 164.059 77.7394 164.192 77.0994 164.192ZM83.4295 155.264H84.6935L85.2695 159.392L85.5575 162.608H85.6215L86.4375 159.392L87.6215 155.264H88.7735L89.9735 159.392L90.7735 162.608H90.8535L91.1415 159.392L91.7015 155.264H92.9815L91.7015 164H90.2455L88.8375 159.152L88.2135 156.704H88.1655L87.5415 159.152L86.1335 164H84.7095L83.4295 155.264ZM91.6404 153.552C91.1604 153.552 90.8084 153.435 90.5844 153.2C90.3604 152.965 90.2484 152.656 90.2484 152.272V151.28H91.5284V152.448H95.6084V153.552H91.6404ZM98.4168 164.192C97.2861 164.192 96.4221 163.792 95.8248 162.992C95.2274 162.181 94.9288 161.051 94.9288 159.6C94.9288 158.171 95.1368 157.061 95.5528 156.272C95.9688 155.472 96.6034 155.072 97.4568 155.072C97.8408 155.072 98.1821 155.179 98.4808 155.392C98.7794 155.605 98.9821 155.92 99.0888 156.336H99.1688C99.2754 155.92 99.4834 155.605 99.7928 155.392C100.113 155.179 100.475 155.072 100.881 155.072C101.489 155.072 101.958 155.275 102.289 155.68C102.619 156.085 102.785 156.651 102.785 157.376V161.312C102.785 161.611 102.843 161.872 102.961 162.096C103.078 162.32 103.233 162.507 103.425 162.656C103.617 162.795 103.835 162.901 104.081 162.976C104.326 163.04 104.577 163.072 104.833 163.072C106.102 163.072 106.737 162.272 106.737 160.672V155.264H108.017V160.832C108.017 161.909 107.771 162.741 107.281 163.328C106.79 163.904 106.107 164.192 105.233 164.192C104.891 164.192 104.587 164.144 104.321 164.048C104.065 163.963 103.841 163.845 103.649 163.696C103.457 163.547 103.297 163.376 103.169 163.184C103.041 162.992 102.939 162.789 102.865 162.576H102.785V164H101.521V157.392C101.521 156.976 101.435 156.672 101.265 156.48C101.105 156.277 100.875 156.176 100.577 156.176C100.214 156.176 99.9528 156.309 99.7928 156.576C99.6434 156.832 99.5421 157.125 99.4888 157.456H98.6568C98.6354 157.296 98.6034 157.141 98.5608 156.992C98.5288 156.832 98.4701 156.693 98.3848 156.576C98.3101 156.448 98.2088 156.352 98.0807 156.288C97.9634 156.213 97.8141 156.176 97.6328 156.176C97.3874 156.176 97.1794 156.245 97.0088 156.384C96.8381 156.523 96.6994 156.715 96.5928 156.96C96.4968 157.205 96.4221 157.499 96.3688 157.84C96.3261 158.171 96.3048 158.533 96.3048 158.928V160.208C96.3048 161.115 96.4914 161.824 96.8648 162.336C97.2381 162.837 97.8354 163.088 98.6568 163.088C98.7741 163.088 98.8968 163.083 99.0248 163.072C99.1634 163.061 99.2968 163.045 99.4248 163.024L99.5848 164.096C99.3821 164.139 99.1794 164.165 98.9768 164.176C98.7848 164.187 98.5981 164.192 98.4168 164.192ZM113.537 164.192C112.609 164.192 111.884 163.899 111.361 163.312C110.838 162.725 110.577 161.899 110.577 160.832V155.264H111.857V160.672C111.857 162.293 112.55 163.104 113.937 163.104C114.204 163.104 114.47 163.067 114.737 162.992C115.004 162.917 115.238 162.805 115.441 162.656C115.644 162.507 115.809 162.32 115.937 162.096C116.065 161.872 116.129 161.611 116.129 161.312V155.264H117.409V162.88H118.433V164H117.489C117.062 164 116.748 163.872 116.545 163.616C116.353 163.36 116.241 163.035 116.209 162.64H116.145C115.974 163.131 115.654 163.515 115.185 163.792C114.726 164.059 114.177 164.192 113.537 164.192ZM123.871 158C123.871 156.773 123.236 156.16 121.967 156.16C121.455 156.16 121.034 156.272 120.703 156.496C120.383 156.72 120.111 157.019 119.887 157.392L119.103 156.704C119.348 156.235 119.706 155.845 120.175 155.536C120.655 155.227 121.279 155.072 122.047 155.072C123.05 155.072 123.818 155.317 124.351 155.808C124.884 156.299 125.151 156.992 125.151 157.888V164H123.871V158ZM13.1206 183.008L11.7606 182.432C11.7926 181.941 11.9099 181.493 12.1126 181.088C12.3259 180.672 12.6032 180.315 12.9446 180.016C13.2859 179.717 13.6806 179.488 14.1286 179.328C14.5872 179.157 15.0832 179.072 15.6166 179.072C16.8646 179.072 17.8192 179.387 18.4806 180.016C19.1419 180.635 19.4726 181.477 19.4726 182.544V188H18.1926V182.704C18.1926 181.872 17.9579 181.243 17.4886 180.816C17.0299 180.389 16.4219 180.176 15.6646 180.176C15.3339 180.176 15.0192 180.219 14.7206 180.304C14.4326 180.379 14.1712 180.491 13.9366 180.64C13.7019 180.779 13.4992 180.955 13.3286 181.168C13.1579 181.371 13.0352 181.6 12.9606 181.856L13.7606 182.176C13.9846 182.261 14.1446 182.373 14.2406 182.512C14.3472 182.64 14.4006 182.821 14.4006 183.056V188H13.1206V183.008ZM22.1178 179.264H23.3978V180.688H23.4778C23.5631 180.485 23.6698 180.288 23.7978 180.096C23.9365 179.893 24.1071 179.717 24.3098 179.568C24.5231 179.419 24.7685 179.301 25.0458 179.216C25.3338 179.12 25.6645 179.072 26.0378 179.072C26.9658 179.072 27.6911 179.365 28.2138 179.952C28.7471 180.528 29.0138 181.355 29.0138 182.432V188H27.7338V182.592C27.7338 180.971 27.0298 180.16 25.6218 180.16C25.3445 180.16 25.0725 180.197 24.8058 180.272C24.5391 180.347 24.2991 180.459 24.0858 180.608C23.8831 180.757 23.7178 180.944 23.5898 181.168C23.4618 181.392 23.3978 181.653 23.3978 181.952V188H22.1178V179.264ZM35.5371 188.192C35.1637 188.192 34.8384 188.144 34.5611 188.048C34.2837 187.963 34.0437 187.845 33.8411 187.696C33.6384 187.547 33.4677 187.376 33.3291 187.184C33.2011 186.992 33.0944 186.789 33.0091 186.576H32.9291V188H31.6491V179.264H32.9291V185.312C32.9291 185.611 32.9931 185.872 33.1211 186.096C33.2491 186.32 33.4144 186.507 33.6171 186.656C33.8304 186.805 34.0651 186.917 34.3211 186.992C34.5877 187.067 34.8597 187.104 35.1371 187.104C35.8411 187.104 36.3691 186.901 36.7211 186.496C37.0837 186.08 37.2651 185.472 37.2651 184.672V179.264H38.5451V184.832C38.5451 185.909 38.2784 186.741 37.7451 187.328C37.2117 187.904 36.4757 188.192 35.5371 188.192ZM41.6838 188.192C41.3425 188.192 41.0918 188.107 40.9318 187.936C40.7825 187.765 40.7078 187.541 40.7078 187.264V187.056C40.7078 186.779 40.7825 186.555 40.9318 186.384C41.0918 186.213 41.3425 186.128 41.6838 186.128C42.0251 186.128 42.2705 186.213 42.4198 186.384C42.5798 186.555 42.6598 186.779 42.6598 187.056V187.264C42.6598 187.541 42.5798 187.765 42.4198 187.936C42.2705 188.107 42.0251 188.192 41.6838 188.192ZM56.1764 188H48.8484V186.624L52.4964 183.264C53.0191 182.784 53.4564 182.277 53.8084 181.744C54.1604 181.2 54.3364 180.656 54.3364 180.112V179.92C54.3364 179.301 54.1658 178.8 53.8244 178.416C53.4831 178.032 52.9658 177.84 52.2724 177.84C51.9311 177.84 51.6324 177.888 51.3764 177.984C51.1204 178.08 50.8964 178.213 50.7044 178.384C50.5231 178.555 50.3684 178.757 50.2404 178.992C50.1231 179.216 50.0271 179.461 49.9524 179.728L48.7524 179.264C48.8591 178.933 49.0031 178.613 49.1844 178.304C49.3764 177.984 49.6111 177.701 49.8884 177.456C50.1764 177.211 50.5178 177.013 50.9124 176.864C51.3178 176.715 51.7924 176.64 52.3364 176.64C52.8804 176.64 53.3658 176.72 53.7924 176.88C54.2191 177.04 54.5764 177.264 54.8644 177.552C55.1524 177.84 55.3711 178.181 55.5204 178.576C55.6804 178.971 55.7604 179.408 55.7604 179.888C55.7604 180.325 55.6964 180.731 55.5684 181.104C55.4511 181.477 55.2858 181.835 55.0724 182.176C54.8591 182.507 54.5978 182.832 54.2884 183.152C53.9898 183.472 53.6644 183.792 53.3124 184.112L50.3044 186.816H56.1764V188ZM62.0422 188.192C60.7089 188.192 59.7329 187.685 59.1142 186.672C58.5062 185.659 58.2022 184.24 58.2022 182.416C58.2022 180.592 58.5062 179.173 59.1142 178.16C59.7329 177.147 60.7089 176.64 62.0422 176.64C63.3755 176.64 64.3462 177.147 64.9542 178.16C65.5729 179.173 65.8822 180.592 65.8822 182.416C65.8822 184.24 65.5729 185.659 64.9542 186.672C64.3462 187.685 63.3755 188.192 62.0422 188.192ZM62.0422 187.024C62.4795 187.024 62.8529 186.933 63.1622 186.752C63.4715 186.571 63.7222 186.315 63.9142 185.984C64.1062 185.653 64.2449 185.264 64.3302 184.816C64.4262 184.368 64.4742 183.872 64.4742 183.328V181.504C64.4742 180.96 64.4262 180.464 64.3302 180.016C64.2449 179.568 64.1062 179.179 63.9142 178.848C63.7222 178.517 63.4715 178.261 63.1622 178.08C62.8529 177.899 62.4795 177.808 62.0422 177.808C61.6049 177.808 61.2315 177.899 60.9222 178.08C60.6129 178.261 60.3622 178.517 60.1702 178.848C59.9782 179.179 59.8342 179.568 59.7382 180.016C59.6529 180.464 59.6102 180.96 59.6102 181.504V183.328C59.6102 183.872 59.6529 184.368 59.7382 184.816C59.8342 185.264 59.9782 185.653 60.1702 185.984C60.3622 186.315 60.6129 186.571 60.9222 186.752C61.2315 186.933 61.6049 187.024 62.0422 187.024ZM75.5452 188.192C74.4145 188.192 73.5239 187.888 72.8732 187.28C72.2225 186.661 71.8972 185.819 71.8972 184.752V179.264H73.1772V184.624C73.1772 185.424 73.3852 186.037 73.8012 186.464C74.2279 186.88 74.8092 187.088 75.5452 187.088C76.2812 187.088 76.8572 186.88 77.2732 186.464C77.6999 186.037 77.9132 185.424 77.9132 184.624V176.448H79.1932V184.752C79.1932 185.819 78.8679 186.661 78.2172 187.28C77.5665 187.888 76.6759 188.192 75.5452 188.192ZM70.9861 176.448H75.6261V175.28H76.8741V177.552H70.9861V176.448ZM85.5378 182.528C85.5378 182.005 85.6231 181.531 85.7938 181.104C85.9751 180.677 86.2311 180.315 86.5618 180.016C86.8925 179.707 87.2925 179.472 87.7618 179.312C88.2311 179.152 88.7591 179.072 89.3458 179.072C89.9218 179.072 90.4445 179.152 90.9138 179.312C91.3831 179.472 91.7831 179.707 92.1138 180.016C92.4445 180.315 92.7005 180.677 92.8818 181.104C93.0631 181.531 93.1538 182.005 93.1538 182.528V188H91.8738V182.656C91.8738 181.856 91.6498 181.243 91.2018 180.816C90.7645 180.389 90.1458 180.176 89.3458 180.176C88.5458 180.176 87.9218 180.389 87.4738 180.816C87.0365 181.243 86.8178 181.856 86.8178 182.656V184.736H86.8978C86.9725 184.533 87.0738 184.341 87.2018 184.16C87.3298 183.968 87.4898 183.803 87.6818 183.664C87.8738 183.515 88.0978 183.397 88.3538 183.312C88.6205 183.227 88.9245 183.184 89.2658 183.184H89.7938V184.464H89.0578C88.3751 184.464 87.8311 184.597 87.4258 184.864C87.0205 185.131 86.8178 185.499 86.8178 185.968V188H85.5378V182.528ZM98.7817 188.192C97.9817 188.192 97.299 188.048 96.7337 187.76C96.1684 187.472 95.6937 187.067 95.3097 186.544L96.2217 185.808C96.5524 186.256 96.931 186.587 97.3577 186.8C97.795 187.003 98.3017 187.104 98.8777 187.104C99.5177 187.104 100.003 186.981 100.334 186.736C100.675 186.491 100.846 186.128 100.846 185.648C100.846 185.243 100.712 184.928 100.446 184.704C100.19 184.469 99.7737 184.309 99.1977 184.224L98.4457 184.112C98.1044 184.059 97.7684 183.984 97.4377 183.888C97.107 183.792 96.803 183.653 96.5257 183.472C96.259 183.291 96.0404 183.051 95.8697 182.752C95.7097 182.453 95.6297 182.08 95.6297 181.632C95.6297 181.216 95.7044 180.848 95.8537 180.528C96.0137 180.208 96.2324 179.941 96.5097 179.728C96.7977 179.515 97.1337 179.355 97.5177 179.248C97.9017 179.131 98.3177 179.072 98.7657 179.072C99.523 179.072 100.152 179.2 100.654 179.456C101.166 179.701 101.592 180.027 101.934 180.432L101.118 181.2C100.883 180.923 100.568 180.683 100.174 180.48C99.779 180.267 99.299 180.16 98.7337 180.16C98.1364 180.16 97.6777 180.283 97.3577 180.528C97.0377 180.773 96.8777 181.115 96.8777 181.552C96.8777 182.021 97.0324 182.352 97.3417 182.544C97.651 182.736 98.0777 182.875 98.6217 182.96L99.3737 183.072C99.7684 183.136 100.131 183.221 100.462 183.328C100.792 183.435 101.075 183.584 101.31 183.776C101.555 183.968 101.747 184.208 101.886 184.496C102.024 184.773 102.094 185.115 102.094 185.52C102.094 186.352 101.795 187.008 101.198 187.488C100.611 187.957 99.8057 188.192 98.7817 188.192ZM100.742 177.552C100.262 177.552 99.9099 177.435 99.6859 177.2C99.4619 176.965 99.3499 176.656 99.3499 176.272V175.28H100.63V176.448H104.71V177.552H100.742ZM99.5899 173.44H100.79V172.864C100.79 172.373 100.507 172.128 99.9419 172.128H99.5899V171.312H100.374C100.875 171.312 101.243 171.413 101.478 171.616C101.702 171.819 101.814 172.08 101.814 172.4C101.814 172.581 101.771 172.768 101.686 172.96C101.601 173.152 101.467 173.291 101.286 173.376V173.44H103.766V174.272H99.5899V173.44ZM103.317 181.68H104.693L107.013 186.928H107.061C107.733 186.928 108.25 186.699 108.613 186.24C108.986 185.771 109.173 185.12 109.173 184.288V182.976C109.173 182.155 108.986 181.515 108.613 181.056C108.25 180.597 107.733 180.368 107.061 180.368H106.549V179.264H107.077C108.175 179.264 109.029 179.648 109.637 180.416C110.245 181.184 110.549 182.256 110.549 183.632C110.549 185.008 110.245 186.08 109.637 186.848C109.039 187.616 108.191 188 107.093 188H106.101L103.317 181.68ZM114.724 188C114.276 188 113.934 187.877 113.7 187.632C113.476 187.387 113.364 187.061 113.364 186.656V179.264H114.644V186.88H115.988V188H114.724ZM118.884 188C118.436 188 118.094 187.877 117.86 187.632C117.636 187.387 117.524 187.061 117.524 186.656V179.264H118.804V186.88H120.148V188H118.884ZM125.079 188.192C124.279 188.192 123.596 188.048 123.031 187.76C122.465 187.472 121.991 187.067 121.607 186.544L122.519 185.808C122.849 186.256 123.228 186.587 123.655 186.8C124.092 187.003 124.599 187.104 125.175 187.104C125.815 187.104 126.3 186.981 126.631 186.736C126.972 186.491 127.143 186.128 127.143 185.648C127.143 185.243 127.009 184.928 126.743 184.704C126.487 184.469 126.071 184.309 125.495 184.224L124.743 184.112C124.401 184.059 124.065 183.984 123.735 183.888C123.404 183.792 123.1 183.653 122.823 183.472C122.556 183.291 122.337 183.051 122.167 182.752C122.007 182.453 121.927 182.08 121.927 181.632C121.927 181.216 122.001 180.848 122.151 180.528C122.311 180.208 122.529 179.941 122.807 179.728C123.095 179.515 123.431 179.355 123.815 179.248C124.199 179.131 124.615 179.072 125.063 179.072C125.82 179.072 126.449 179.2 126.951 179.456C127.463 179.701 127.889 180.027 128.231 180.432L127.415 181.2C127.18 180.923 126.865 180.683 126.471 180.48C126.076 180.267 125.596 180.16 125.031 180.16C124.433 180.16 123.975 180.283 123.655 180.528C123.335 180.773 123.175 181.115 123.175 181.552C123.175 182.021 123.329 182.352 123.639 182.544C123.948 182.736 124.375 182.875 124.919 182.96L125.671 183.072C126.065 183.136 126.428 183.221 126.759 183.328C127.089 183.435 127.372 183.584 127.607 183.776C127.852 183.968 128.044 184.208 128.183 184.496C128.321 184.773 128.391 185.115 128.391 185.52C128.391 186.352 128.092 187.008 127.495 187.488C126.908 187.957 126.103 188.192 125.079 188.192ZM131.386 183.008L130.026 182.432C130.058 181.941 130.176 181.493 130.378 181.088C130.592 180.672 130.869 180.315 131.21 180.016C131.552 179.717 131.946 179.488 132.394 179.328C132.853 179.157 133.349 179.072 133.882 179.072C135.13 179.072 136.085 179.387 136.746 180.016C137.408 180.635 137.738 181.477 137.738 182.544V188H136.458V182.704C136.458 181.872 136.224 181.243 135.754 180.816C135.296 180.389 134.688 180.176 133.93 180.176C133.6 180.176 133.285 180.219 132.986 180.304C132.698 180.379 132.437 180.491 132.202 180.64C131.968 180.779 131.765 180.955 131.594 181.168C131.424 181.371 131.301 181.6 131.226 181.856L132.026 182.176C132.25 182.261 132.41 182.373 132.506 182.512C132.613 182.64 132.666 182.821 132.666 183.056V188H131.386V183.008Z"
    fill="black" />
  <g opacity="0.3">
    <path d="M982 39L960 46L960 32L982 39Z" fill="black" />
    <rect x="958" y="30" width="2" height="28" fill="black" />
  </g>
</svg>
    