<svg width="91" height="710" viewBox="0 0 91 710" fill="none" xmlns="http://www.w3.org/2000/svg">
  <path
    d="M56.9769 690.522C75.6445 680.086 86.6026 664.158 81.4525 654.946L77.449 647.784L9.84762 685.576L13.8511 692.737C19.0013 701.95 38.3093 700.958 56.9769 690.522Z"
    fill="#E8E4D8" stroke="#4CC45D" stroke-width="2.5" stroke-miterlimit="10"
    stroke-linejoin="round" />
  <path
    d="M77.8142 648.438C72.664 639.225 53.3559 640.217 34.6883 650.653C16.0207 661.089 5.06266 677.017 10.2128 686.229C15.3629 695.442 34.671 694.45 53.3386 684.014C72.0062 673.579 82.9643 657.65 77.8142 648.438Z"
    fill="#E8E4D8" stroke="#4CC45D" stroke-width="2.5" stroke-miterlimit="10"
    stroke-linejoin="round" />
  <path d="M18.7799 691.652L22.891 699.006" stroke="#4CC45D" stroke-width="2.5"
    stroke-linejoin="round" />
  <path d="M24.8837 692.669L28.5232 699.179" stroke="#4CC45D" stroke-width="2.5"
    stroke-linejoin="round" />
  <path d="M30.2802 692.42L31.6284 694.832L33.684 698.509" stroke="#4CC45D" stroke-width="2.5"
    stroke-linejoin="round" />
  <path d="M34.7336 690.484L38.8448 697.838" stroke="#4CC45D" stroke-width="2.5"
    stroke-linejoin="round" />
  <path d="M39.8947 689.813L44.0058 697.167" stroke="#4CC45D" stroke-width="2.5"
    stroke-linejoin="round" />
  <path d="M44.112 687.456L48.2231 694.81" stroke="#4CC45D" stroke-width="2.5"
    stroke-linejoin="round" />
  <path d="M48.8009 685.941L52.912 693.295" stroke="#4CC45D" stroke-width="2.5"
    stroke-linejoin="round" />
  <path d="M53.0189 683.584L57.13 690.938" stroke="#4CC45D" stroke-width="2.5"
    stroke-linejoin="round" />
  <path d="M57.2362 681.226L61.3474 688.58" stroke="#4CC45D" stroke-width="2.5"
    stroke-linejoin="round" />
  <path d="M60.982 678.024L65.0932 685.378" stroke="#4CC45D" stroke-width="2.5"
    stroke-linejoin="round" />
  <path d="M65.1994 675.667L68.839 682.177" stroke="#4CC45D" stroke-width="2.5"
    stroke-linejoin="round" />
  <path d="M68.9458 672.466L72.1139 678.133" stroke="#4CC45D" stroke-width="2.5"
    stroke-linejoin="round" />
  <path d="M72.6917 669.264L75.8597 674.931" stroke="#4CC45D" stroke-width="2.5"
    stroke-linejoin="round" />
  <path d="M77.8256 658.644L81.598 665.392" stroke="#4CC45D" stroke-width="2.5"
    stroke-linejoin="round" />
  <path d="M75.4944 664.376L79.1339 670.886" stroke="#4CC45D" stroke-width="2.5"
    stroke-linejoin="round" />
  <path
    d="M42.1175 603.17C63.0239 607.676 81.7748 602.965 83.9987 592.648L85.7275 584.628L10.0187 568.309L8.28991 576.329C6.06597 586.646 21.2111 598.663 42.1175 603.17Z"
    fill="#E8E4D8" stroke="#4CC45D" stroke-width="2.5" stroke-miterlimit="10"
    stroke-linejoin="round" />
  <path
    d="M85.5696 585.359C87.7935 575.042 72.6484 563.025 51.742 558.518C30.8355 554.012 12.0847 558.723 9.86077 569.04C7.63683 579.358 22.782 591.375 43.6884 595.881C64.5948 600.388 83.3456 595.677 85.5696 585.359Z"
    fill="#E8E4D8" stroke="#4CC45D" stroke-width="2.5" stroke-miterlimit="10"
    stroke-linejoin="round" />
  <path d="M12.7058 578.772L10.9305 587.008" stroke="#4CC45D" stroke-width="2.5"
    stroke-linejoin="round" />
  <path d="M16.6146 583.569L15.0429 590.86" stroke="#4CC45D" stroke-width="2.5"
    stroke-linejoin="round" />
  <path d="M20.8289 586.949L20.2467 589.65L19.3591 593.768" stroke="#4CC45D" stroke-width="2.5"
    stroke-linejoin="round" />
  <path d="M25.4505 588.439L23.6753 596.675" stroke="#4CC45D" stroke-width="2.5"
    stroke-linejoin="round" />
  <path d="M29.7666 591.348L27.9913 599.584" stroke="#4CC45D" stroke-width="2.5"
    stroke-linejoin="round" />
  <path d="M34.49 592.365L32.7147 600.601" stroke="#4CC45D" stroke-width="2.5"
    stroke-linejoin="round" />
  <path d="M39.0097 594.328L37.2344 602.564" stroke="#4CC45D" stroke-width="2.5"
    stroke-linejoin="round" />
  <path d="M43.733 595.347L41.9578 603.583" stroke="#4CC45D" stroke-width="2.5"
    stroke-linejoin="round" />
  <path d="M48.4564 596.364L46.6812 604.6" stroke="#4CC45D" stroke-width="2.5"
    stroke-linejoin="round" />
  <path d="M53.3834 596.438L51.6082 604.673" stroke="#4CC45D" stroke-width="2.5"
    stroke-linejoin="round" />
  <path d="M58.1068 597.456L56.5351 604.747" stroke="#4CC45D" stroke-width="2.5"
    stroke-linejoin="round" />
  <path d="M63.0338 597.529L61.6657 603.876" stroke="#4CC45D" stroke-width="2.5"
    stroke-linejoin="round" />
  <path d="M67.9608 597.603L66.5927 603.949" stroke="#4CC45D" stroke-width="2.5"
    stroke-linejoin="round" />
  <path d="M78.8328 593.026L77.2038 600.583" stroke="#4CC45D" stroke-width="2.5"
    stroke-linejoin="round" />
  <path d="M73.2949 595.787L71.7233 603.078" stroke="#4CC45D" stroke-width="2.5"
    stroke-linejoin="round" />
  <path
    d="M57.0588 510.949C75.6853 500.44 86.5808 484.469 81.3946 475.277L77.363 468.131L9.9104 506.188L13.942 513.333C19.1282 522.526 38.4323 521.458 57.0588 510.949Z"
    fill="#E8E4D8" stroke="#4CC45D" stroke-width="2.5" stroke-miterlimit="10"
    stroke-linejoin="round" />
  <path
    d="M77.7307 468.783C72.5445 459.591 53.2404 460.658 34.6139 471.167C15.9874 481.676 5.09192 497.647 10.2782 506.84C15.4644 516.032 34.7684 514.965 53.395 504.456C72.0215 493.947 82.917 477.976 77.7307 468.783Z"
    fill="#E8E4D8" stroke="#4CC45D" stroke-width="2.5" stroke-miterlimit="10"
    stroke-linejoin="round" />
  <path d="M18.8665 512.229L23.0064 519.567" stroke="#4CC45D" stroke-width="2.5"
    stroke-linejoin="round" />
  <path d="M24.9742 513.222L28.6393 519.718" stroke="#4CC45D" stroke-width="2.5"
    stroke-linejoin="round" />
  <path d="M30.3697 512.952L31.7274 515.358L33.7974 519.027" stroke="#4CC45D" stroke-width="2.5"
    stroke-linejoin="round" />
  <path d="M34.8155 510.999L38.9555 518.336" stroke="#4CC45D" stroke-width="2.5"
    stroke-linejoin="round" />
  <path d="M39.9739 510.308L44.1138 517.646" stroke="#4CC45D" stroke-width="2.5"
    stroke-linejoin="round" />
  <path d="M44.1819 507.934L48.3219 515.271" stroke="#4CC45D" stroke-width="2.5"
    stroke-linejoin="round" />
  <path d="M48.8648 506.4L53.0048 513.738" stroke="#4CC45D" stroke-width="2.5"
    stroke-linejoin="round" />
  <path d="M53.0735 504.027L57.2135 511.365" stroke="#4CC45D" stroke-width="2.5"
    stroke-linejoin="round" />
  <path d="M57.2816 501.652L61.4216 508.99" stroke="#4CC45D" stroke-width="2.5"
    stroke-linejoin="round" />
  <path d="M61.0148 498.436L65.1548 505.774" stroke="#4CC45D" stroke-width="2.5"
    stroke-linejoin="round" />
  <path d="M65.2229 496.062L68.888 502.558" stroke="#4CC45D" stroke-width="2.5"
    stroke-linejoin="round" />
  <path d="M68.9568 492.846L72.147 498.501" stroke="#4CC45D" stroke-width="2.5"
    stroke-linejoin="round" />
  <path d="M72.69 489.63L75.8802 495.285" stroke="#4CC45D" stroke-width="2.5"
    stroke-linejoin="round" />
  <path d="M77.7822 478.99L81.5811 485.723" stroke="#4CC45D" stroke-width="2.5"
    stroke-linejoin="round" />
  <path d="M75.4735 484.731L79.1386 491.227" stroke="#4CC45D" stroke-width="2.5"
    stroke-linejoin="round" />
  <path
    d="M44.1571 428.072C65.4495 430.078 83.5127 423.185 84.5025 412.678L85.272 404.509L8.16572 397.246L7.39626 405.414C6.40642 415.922 22.8648 426.066 44.1571 428.072Z"
    fill="#E8E4D8" stroke="#4CC45D" stroke-width="2.5" stroke-miterlimit="10"
    stroke-linejoin="round" />
  <path
    d="M85.2016 405.255C86.1914 394.747 69.733 384.603 48.4407 382.597C27.1484 380.591 9.08516 387.483 8.09533 397.991C7.10549 408.499 23.5639 418.644 44.8562 420.649C66.1485 422.655 84.2118 415.763 85.2016 405.255Z"
    fill="#E8E4D8" stroke="#4CC45D" stroke-width="2.5" stroke-miterlimit="10"
    stroke-linejoin="round" />
  <path d="M12.0698 407.319L11.2796 415.707" stroke="#4CC45D" stroke-width="2.5"
    stroke-linejoin="round" />
  <path d="M16.5178 411.621L15.8182 419.047" stroke="#4CC45D" stroke-width="2.5"
    stroke-linejoin="round" />
  <path d="M21.1018 414.479L20.8426 417.23L20.4476 421.424" stroke="#4CC45D" stroke-width="2.5"
    stroke-linejoin="round" />
  <path d="M25.8671 415.414L25.0769 423.802" stroke="#4CC45D" stroke-width="2.5"
    stroke-linejoin="round" />
  <path d="M30.4964 417.792L29.7063 426.179" stroke="#4CC45D" stroke-width="2.5"
    stroke-linejoin="round" />
  <path d="M35.3069 418.244L34.5168 426.632" stroke="#4CC45D" stroke-width="2.5"
    stroke-linejoin="round" />
  <path d="M40.0268 419.659L39.2366 428.047" stroke="#4CC45D" stroke-width="2.5"
    stroke-linejoin="round" />
  <path d="M44.8374 420.113L44.0473 428.501" stroke="#4CC45D" stroke-width="2.5"
    stroke-linejoin="round" />
  <path d="M49.6479 420.566L48.8578 428.954" stroke="#4CC45D" stroke-width="2.5"
    stroke-linejoin="round" />
  <path d="M54.5491 420.057L53.7589 428.445" stroke="#4CC45D" stroke-width="2.5"
    stroke-linejoin="round" />
  <path d="M59.3596 420.51L58.6601 427.936" stroke="#4CC45D" stroke-width="2.5"
    stroke-linejoin="round" />
  <path d="M64.2609 420.001L63.652 426.465" stroke="#4CC45D" stroke-width="2.5"
    stroke-linejoin="round" />
  <path d="M69.162 419.492L68.5531 425.956" stroke="#4CC45D" stroke-width="2.5"
    stroke-linejoin="round" />
  <path d="M79.4174 413.663L78.6924 421.36" stroke="#4CC45D" stroke-width="2.5"
    stroke-linejoin="round" />
  <path d="M74.2444 417.059L73.5448 424.485" stroke="#4CC45D" stroke-width="2.5"
    stroke-linejoin="round" />
  <path
    d="M30.2911 330.967C45.2403 346.261 63.4777 352.679 71.0254 345.301L76.8926 339.566L22.7568 284.182L16.8895 289.917C9.34184 297.294 15.342 315.673 30.2911 330.967Z"
    fill="#E8E4D8" stroke="#4CC45D" stroke-width="2.5" stroke-miterlimit="10"
    stroke-linejoin="round" />
  <path
    d="M76.3571 340.089C83.9048 332.712 77.9047 314.333 62.9555 299.039C48.0063 283.745 29.7689 277.327 22.2213 284.705C14.6736 292.082 20.6737 310.461 35.6229 325.755C50.5721 341.049 68.8094 347.467 76.3571 340.089Z"
    fill="#E8E4D8" stroke="#4CC45D" stroke-width="2.5" stroke-miterlimit="10"
    stroke-linejoin="round" />
  <path d="M19.2241 294.391L13.1991 300.28" stroke="#4CC45D" stroke-width="2.5"
    stroke-linejoin="round" />
  <path d="M19.8372 300.548L14.5032 305.762" stroke="#4CC45D" stroke-width="2.5"
    stroke-linejoin="round" />
  <path d="M21.4869 305.692L19.511 307.624L16.4985 310.568" stroke="#4CC45D" stroke-width="2.5"
    stroke-linejoin="round" />
  <path d="M24.5188 309.486L18.4938 315.375" stroke="#4CC45D" stroke-width="2.5"
    stroke-linejoin="round" />
  <path d="M26.5137 314.292L20.4887 320.182" stroke="#4CC45D" stroke-width="2.5"
    stroke-linejoin="round" />
  <path d="M29.8914 317.748L23.8664 323.637" stroke="#4CC45D" stroke-width="2.5"
    stroke-linejoin="round" />
  <path d="M32.5779 321.878L26.5529 327.767" stroke="#4CC45D" stroke-width="2.5"
    stroke-linejoin="round" />
  <path d="M35.955 325.334L29.93 331.223" stroke="#4CC45D" stroke-width="2.5"
    stroke-linejoin="round" />
  <path d="M39.3327 328.789L33.3077 334.678" stroke="#4CC45D" stroke-width="2.5"
    stroke-linejoin="round" />
  <path d="M43.4013 331.569L37.3763 337.458" stroke="#4CC45D" stroke-width="2.5"
    stroke-linejoin="round" />
  <path d="M46.779 335.024L41.445 340.238" stroke="#4CC45D" stroke-width="2.5"
    stroke-linejoin="round" />
  <path d="M50.8471 337.804L46.2043 342.343" stroke="#4CC45D" stroke-width="2.5"
    stroke-linejoin="round" />
  <path d="M54.9158 340.584L50.2729 345.122" stroke="#4CC45D" stroke-width="2.5"
    stroke-linejoin="round" />
  <path d="M66.5084 342.766L60.9798 348.17" stroke="#4CC45D" stroke-width="2.5"
    stroke-linejoin="round" />
  <path d="M60.3665 342.013L55.0326 347.226" stroke="#4CC45D" stroke-width="2.5"
    stroke-linejoin="round" />
  <path
    d="M55.1135 234.826C74.5581 225.921 86.7587 210.924 82.3643 201.328L78.9482 193.868L8.5329 226.114L11.949 233.574C16.3434 243.17 35.6688 243.73 55.1135 234.826Z"
    fill="#E8E4D8" stroke="#4CC45D" stroke-width="2.5" stroke-miterlimit="10"
    stroke-linejoin="round" />
  <path
    d="M79.2598 194.549C74.8654 184.953 55.54 184.392 36.0953 193.297C16.6507 202.201 4.45006 217.199 8.8445 226.795C13.2389 236.391 32.5643 236.952 52.009 228.047C71.4537 219.143 83.6543 204.145 79.2598 194.549Z"
    fill="#E8E4D8" stroke="#4CC45D" stroke-width="2.5" stroke-miterlimit="10"
    stroke-linejoin="round" />
  <path d="M16.9489 232.888L20.4568 240.548" stroke="#4CC45D" stroke-width="2.5"
    stroke-linejoin="round" />
  <path d="M22.9514 234.391L26.057 241.172" stroke="#4CC45D" stroke-width="2.5"
    stroke-linejoin="round" />
  <path d="M28.3505 234.575L29.5009 237.088L31.2549 240.918" stroke="#4CC45D" stroke-width="2.5"
    stroke-linejoin="round" />
  <path d="M32.9449 233.003L36.4528 240.663" stroke="#4CC45D" stroke-width="2.5"
    stroke-linejoin="round" />
  <path d="M38.1431 232.749L41.651 240.409" stroke="#4CC45D" stroke-width="2.5"
    stroke-linejoin="round" />
  <path d="M42.536 230.737L46.0439 238.397" stroke="#4CC45D" stroke-width="2.5"
    stroke-linejoin="round" />
  <path d="M47.3313 229.604L50.8392 237.264" stroke="#4CC45D" stroke-width="2.5"
    stroke-linejoin="round" />
  <path d="M51.7248 227.592L55.2327 235.252" stroke="#4CC45D" stroke-width="2.5"
    stroke-linejoin="round" />
  <path d="M56.1178 225.58L59.6257 233.24" stroke="#4CC45D" stroke-width="2.5"
    stroke-linejoin="round" />
  <path d="M60.1083 222.689L63.6162 230.35" stroke="#4CC45D" stroke-width="2.5"
    stroke-linejoin="round" />
  <path d="M64.5013 220.677L67.6068 227.459" stroke="#4CC45D" stroke-width="2.5"
    stroke-linejoin="round" />
  <path d="M68.4924 217.788L71.1956 223.69" stroke="#4CC45D" stroke-width="2.5"
    stroke-linejoin="round" />
  <path d="M72.483 214.897L75.1862 220.8" stroke="#4CC45D" stroke-width="2.5"
    stroke-linejoin="round" />
  <path d="M78.4525 204.723L81.6713 211.752" stroke="#4CC45D" stroke-width="2.5"
    stroke-linejoin="round" />
  <path d="M75.6689 210.249L78.7744 217.031" stroke="#4CC45D" stroke-width="2.5"
    stroke-linejoin="round" />
  <path
    d="M32.7838 134.802C50.3793 146.959 69.5068 149.774 75.5061 141.091L80.1697 134.34L16.4505 90.3177L11.7869 97.0679C5.78757 105.751 15.1882 122.646 32.7838 134.802Z"
    fill="#E8E4D8" stroke="#4CC45D" stroke-width="2.5" stroke-miterlimit="10"
    stroke-linejoin="round" />
  <path
    d="M79.744 134.956C85.7433 126.273 76.3427 109.379 58.7472 97.222C41.1516 85.0655 22.0241 82.2501 16.0248 90.9336C10.0255 99.6171 19.4261 116.511 37.0217 128.668C54.6172 140.824 73.7447 143.64 79.744 134.956Z"
    fill="#E8E4D8" stroke="#4CC45D" stroke-width="2.5" stroke-miterlimit="10"
    stroke-linejoin="round" />
  <path d="M14.9332 101.014L10.1442 107.946" stroke="#4CC45D" stroke-width="2.5"
    stroke-linejoin="round" />
  <path d="M16.7113 106.941L12.4716 113.077" stroke="#4CC45D" stroke-width="2.5"
    stroke-linejoin="round" />
  <path d="M19.3134 111.675L17.7428 113.948L15.3483 117.414" stroke="#4CC45D" stroke-width="2.5"
    stroke-linejoin="round" />
  <path d="M23.014 114.819L18.225 121.751" stroke="#4CC45D" stroke-width="2.5"
    stroke-linejoin="round" />
  <path d="M25.8905 119.156L21.1015 126.088" stroke="#4CC45D" stroke-width="2.5"
    stroke-linejoin="round" />
  <path d="M29.866 121.903L25.077 128.834" stroke="#4CC45D" stroke-width="2.5"
    stroke-linejoin="round" />
  <path d="M33.2921 125.444L28.5031 132.376" stroke="#4CC45D" stroke-width="2.5"
    stroke-linejoin="round" />
  <path d="M37.2672 128.191L32.4782 135.123" stroke="#4CC45D" stroke-width="2.5"
    stroke-linejoin="round" />
  <path d="M41.2427 130.937L36.4537 137.869" stroke="#4CC45D" stroke-width="2.5"
    stroke-linejoin="round" />
  <path d="M45.7675 132.888L40.9785 139.82" stroke="#4CC45D" stroke-width="2.5"
    stroke-linejoin="round" />
  <path d="M49.7429 135.635L45.5032 141.771" stroke="#4CC45D" stroke-width="2.5"
    stroke-linejoin="round" />
  <path d="M54.2673 137.587L50.5769 142.928" stroke="#4CC45D" stroke-width="2.5"
    stroke-linejoin="round" />
  <path d="M58.7921 139.538L55.1017 144.88" stroke="#4CC45D" stroke-width="2.5"
    stroke-linejoin="round" />
  <path d="M70.588 139.465L66.1936 145.826" stroke="#4CC45D" stroke-width="2.5"
    stroke-linejoin="round" />
  <path d="M64.4154 139.899L60.1757 146.036" stroke="#4CC45D" stroke-width="2.5"
    stroke-linejoin="round" />
  <path
    d="M48.6252 50.3063C69.8688 47.8376 86.1026 37.3376 84.8843 26.8537L83.9372 18.704L7.00729 27.6437L7.95434 35.7934C9.17263 46.2773 27.3816 52.7749 48.6252 50.3063Z"
    fill="#E8E4D8" stroke="#4CC45D" stroke-width="2.5" stroke-miterlimit="10"
    stroke-linejoin="round" />
  <path
    d="M84.0235 19.4477C82.8052 8.96384 64.5962 2.46618 43.3526 4.93482C22.109 7.40347 5.87527 17.9036 7.09356 28.3874C8.31185 38.8713 26.5208 45.3689 47.7644 42.9002C69.0081 40.4316 85.2418 29.9315 84.0235 19.4477Z"
    fill="#E8E4D8" stroke="#4CC45D" stroke-width="2.5" stroke-miterlimit="10"
    stroke-linejoin="round" />
  <path d="M12.9219 36.6841L13.8944 45.0529" stroke="#4CC45D" stroke-width="2.5"
    stroke-linejoin="round" />
  <path d="M18.1676 39.9661L19.0286 47.375" stroke="#4CC45D" stroke-width="2.5"
    stroke-linejoin="round" />
  <path d="M23.2461 41.8081L23.565 44.5526L24.0513 48.7371" stroke="#4CC45D" stroke-width="2.5"
    stroke-linejoin="round" />
  <path d="M28.1015 41.7305L29.074 50.0993" stroke="#4CC45D" stroke-width="2.5"
    stroke-linejoin="round" />
  <path d="M33.1243 43.0933L34.0968 51.4621" stroke="#4CC45D" stroke-width="2.5"
    stroke-linejoin="round" />
  <path d="M37.9238 42.5352L38.8963 50.904" stroke="#4CC45D" stroke-width="2.5"
    stroke-linejoin="round" />
  <path d="M42.8347 42.937L43.8073 51.3058" stroke="#4CC45D" stroke-width="2.5"
    stroke-linejoin="round" />
  <path d="M47.6345 42.3799L48.607 50.7487" stroke="#4CC45D" stroke-width="2.5"
    stroke-linejoin="round" />
  <path d="M52.434 41.8218L53.4065 50.1906" stroke="#4CC45D" stroke-width="2.5"
    stroke-linejoin="round" />
  <path d="M57.1219 40.304L58.0944 48.6728" stroke="#4CC45D" stroke-width="2.5"
    stroke-linejoin="round" />
  <path d="M61.9213 39.7458L62.7823 47.1548" stroke="#4CC45D" stroke-width="2.5"
    stroke-linejoin="round" />
  <path d="M66.6096 38.229L67.359 44.678" stroke="#4CC45D" stroke-width="2.5"
    stroke-linejoin="round" />
  <path d="M71.2975 36.7109L72.0469 43.1599" stroke="#4CC45D" stroke-width="2.5"
    stroke-linejoin="round" />
  <path d="M80.1156 28.8757L81.0079 36.555" stroke="#4CC45D" stroke-width="2.5"
    stroke-linejoin="round" />
  <path d="M75.7622 33.2734L76.6232 40.6823" stroke="#4CC45D" stroke-width="2.5"
    stroke-linejoin="round" />
</svg>
    