<svg width="91" height="710" viewBox="0 0 91 710" fill="none" xmlns="http://www.w3.org/2000/svg">
  <path
    d="M56.3015 690.522C74.9691 680.086 85.9272 664.158 80.7771 654.946L76.7736 647.784L9.1722 685.576L13.1757 692.737C18.3259 701.95 37.6339 700.958 56.3015 690.522Z"
    fill="#E8E4D8" stroke="#4CC45D" stroke-width="2.5" stroke-miterlimit="10"
    stroke-linejoin="round" />
  <path
    d="M77.1387 648.438C71.9886 639.225 52.6805 640.217 34.0129 650.653C15.3453 661.089 4.38724 677.017 9.53738 686.229C14.6875 695.442 33.9956 694.45 52.6632 684.014C71.3308 673.579 82.2889 657.65 77.1387 648.438Z"
    fill="#E8E4D8" stroke="#4CC45D" stroke-width="2.5" stroke-miterlimit="10"
    stroke-linejoin="round" />
  <path d="M18.1045 691.652L22.2156 699.006" stroke="#4CC45D" stroke-width="2.5"
    stroke-linejoin="round" />
  <path d="M24.2083 692.669L27.8478 699.179" stroke="#4CC45D" stroke-width="2.5"
    stroke-linejoin="round" />
  <path d="M29.6048 692.42L30.953 694.832L33.0086 698.509" stroke="#4CC45D" stroke-width="2.5"
    stroke-linejoin="round" />
  <path d="M34.0582 690.484L38.1694 697.838" stroke="#4CC45D" stroke-width="2.5"
    stroke-linejoin="round" />
  <path d="M39.2192 689.813L43.3304 697.167" stroke="#4CC45D" stroke-width="2.5"
    stroke-linejoin="round" />
  <path d="M43.4366 687.456L47.5477 694.81" stroke="#4CC45D" stroke-width="2.5"
    stroke-linejoin="round" />
  <path d="M48.1255 685.941L52.2366 693.295" stroke="#4CC45D" stroke-width="2.5"
    stroke-linejoin="round" />
  <path d="M52.3434 683.584L56.4546 690.938" stroke="#4CC45D" stroke-width="2.5"
    stroke-linejoin="round" />
  <path d="M56.5608 681.226L60.672 688.58" stroke="#4CC45D" stroke-width="2.5"
    stroke-linejoin="round" />
  <path d="M60.3066 678.024L64.4177 685.378" stroke="#4CC45D" stroke-width="2.5"
    stroke-linejoin="round" />
  <path d="M64.524 675.667L68.1635 682.177" stroke="#4CC45D" stroke-width="2.5"
    stroke-linejoin="round" />
  <path d="M68.2704 672.466L71.4384 678.133" stroke="#4CC45D" stroke-width="2.5"
    stroke-linejoin="round" />
  <path d="M72.0162 669.264L75.1843 674.931" stroke="#4CC45D" stroke-width="2.5"
    stroke-linejoin="round" />
  <path d="M77.1502 658.644L80.9226 665.392" stroke="#4CC45D" stroke-width="2.5"
    stroke-linejoin="round" />
  <path d="M74.8189 664.376L78.4585 670.886" stroke="#4CC45D" stroke-width="2.5"
    stroke-linejoin="round" />
  <path
    d="M41.4421 603.17C62.3485 607.676 81.0994 602.965 83.3233 592.648L85.0521 584.628L9.34329 568.309L7.61449 576.329C5.39056 586.646 20.5357 598.663 41.4421 603.17Z"
    fill="#E8E4D8" stroke="#4CC45D" stroke-width="2.5" stroke-miterlimit="10"
    stroke-linejoin="round" />
  <path
    d="M84.8941 585.359C87.1181 575.042 71.9729 563.025 51.0665 558.518C30.1601 554.012 11.4093 558.723 9.18535 569.04C6.96142 579.358 22.1066 591.375 43.013 595.881C63.9194 600.388 82.6702 595.677 84.8941 585.359Z"
    fill="#E8E4D8" stroke="#4CC45D" stroke-width="2.5" stroke-miterlimit="10"
    stroke-linejoin="round" />
  <path d="M12.0304 578.772L10.2551 587.008" stroke="#4CC45D" stroke-width="2.5"
    stroke-linejoin="round" />
  <path d="M15.9392 583.569L14.3675 590.86" stroke="#4CC45D" stroke-width="2.5"
    stroke-linejoin="round" />
  <path d="M20.1535 586.949L19.5713 589.65L18.6837 593.768" stroke="#4CC45D" stroke-width="2.5"
    stroke-linejoin="round" />
  <path d="M24.7751 588.439L22.9998 596.675" stroke="#4CC45D" stroke-width="2.5"
    stroke-linejoin="round" />
  <path d="M29.0912 591.348L27.3159 599.584" stroke="#4CC45D" stroke-width="2.5"
    stroke-linejoin="round" />
  <path d="M33.8145 592.365L32.0393 600.601" stroke="#4CC45D" stroke-width="2.5"
    stroke-linejoin="round" />
  <path d="M38.3343 594.328L36.559 602.564" stroke="#4CC45D" stroke-width="2.5"
    stroke-linejoin="round" />
  <path d="M43.0576 595.347L41.2823 603.583" stroke="#4CC45D" stroke-width="2.5"
    stroke-linejoin="round" />
  <path d="M47.781 596.364L46.0057 604.6" stroke="#4CC45D" stroke-width="2.5"
    stroke-linejoin="round" />
  <path d="M52.708 596.438L50.9327 604.673" stroke="#4CC45D" stroke-width="2.5"
    stroke-linejoin="round" />
  <path d="M57.4313 597.456L55.8597 604.747" stroke="#4CC45D" stroke-width="2.5"
    stroke-linejoin="round" />
  <path d="M62.3583 597.529L60.9903 603.876" stroke="#4CC45D" stroke-width="2.5"
    stroke-linejoin="round" />
  <path d="M67.2853 597.603L65.9173 603.949" stroke="#4CC45D" stroke-width="2.5"
    stroke-linejoin="round" />
  <path d="M78.1574 593.026L76.5284 600.583" stroke="#4CC45D" stroke-width="2.5"
    stroke-linejoin="round" />
  <path d="M72.6195 595.787L71.0479 603.078" stroke="#4CC45D" stroke-width="2.5"
    stroke-linejoin="round" />
  <path
    d="M56.3834 510.949C75.0099 500.44 85.9054 484.469 80.7191 475.277L76.6876 468.131L9.23499 506.188L13.2666 513.333C18.4528 522.526 37.7568 521.458 56.3834 510.949Z"
    fill="#E8E4D8" stroke="#4CC45D" stroke-width="2.5" stroke-miterlimit="10"
    stroke-linejoin="round" />
  <path
    d="M77.0553 468.783C71.8691 459.591 52.565 460.658 33.9385 471.167C15.312 481.676 4.41651 497.647 9.60275 506.84C14.789 516.032 34.093 514.965 52.7195 504.456C71.3461 493.947 82.2416 477.976 77.0553 468.783Z"
    fill="#E8E4D8" stroke="#4CC45D" stroke-width="2.5" stroke-miterlimit="10"
    stroke-linejoin="round" />
  <path d="M18.191 512.229L22.331 519.567" stroke="#4CC45D" stroke-width="2.5"
    stroke-linejoin="round" />
  <path d="M24.2988 513.222L27.9639 519.718" stroke="#4CC45D" stroke-width="2.5"
    stroke-linejoin="round" />
  <path d="M29.6943 512.952L31.052 515.358L33.1219 519.027" stroke="#4CC45D" stroke-width="2.5"
    stroke-linejoin="round" />
  <path d="M34.1401 510.999L38.2801 518.336" stroke="#4CC45D" stroke-width="2.5"
    stroke-linejoin="round" />
  <path d="M39.2985 510.308L43.4384 517.646" stroke="#4CC45D" stroke-width="2.5"
    stroke-linejoin="round" />
  <path d="M43.5065 507.934L47.6465 515.271" stroke="#4CC45D" stroke-width="2.5"
    stroke-linejoin="round" />
  <path d="M48.1894 506.4L52.3293 513.738" stroke="#4CC45D" stroke-width="2.5"
    stroke-linejoin="round" />
  <path d="M52.3981 504.027L56.5381 511.365" stroke="#4CC45D" stroke-width="2.5"
    stroke-linejoin="round" />
  <path d="M56.6062 501.652L60.7462 508.99" stroke="#4CC45D" stroke-width="2.5"
    stroke-linejoin="round" />
  <path d="M60.3394 498.436L64.4794 505.774" stroke="#4CC45D" stroke-width="2.5"
    stroke-linejoin="round" />
  <path d="M64.5475 496.062L68.2126 502.558" stroke="#4CC45D" stroke-width="2.5"
    stroke-linejoin="round" />
  <path d="M68.2813 492.846L71.4716 498.501" stroke="#4CC45D" stroke-width="2.5"
    stroke-linejoin="round" />
  <path d="M72.0146 489.63L75.2048 495.285" stroke="#4CC45D" stroke-width="2.5"
    stroke-linejoin="round" />
  <path d="M77.1068 478.99L80.9057 485.723" stroke="#4CC45D" stroke-width="2.5"
    stroke-linejoin="round" />
  <path d="M74.7981 484.731L78.4632 491.227" stroke="#4CC45D" stroke-width="2.5"
    stroke-linejoin="round" />
  <path
    d="M43.4817 428.072C64.774 430.078 82.8373 423.185 83.8271 412.678L84.5966 404.509L7.49031 397.246L6.72085 405.414C5.73101 415.922 22.1894 426.066 43.4817 428.072Z"
    fill="#E8E4D8" stroke="#4CC45D" stroke-width="2.5" stroke-miterlimit="10"
    stroke-linejoin="round" />
  <path
    d="M84.5262 405.255C85.516 394.747 69.0576 384.603 47.7653 382.597C26.473 380.591 8.40975 387.483 7.41991 397.991C6.43007 408.499 22.8885 418.644 44.1808 420.649C65.4731 422.655 83.5364 415.763 84.5262 405.255Z"
    fill="#E8E4D8" stroke="#4CC45D" stroke-width="2.5" stroke-miterlimit="10"
    stroke-linejoin="round" />
  <path d="M11.3943 407.319L10.6042 415.707" stroke="#4CC45D" stroke-width="2.5"
    stroke-linejoin="round" />
  <path d="M15.8423 411.621L15.1428 419.047" stroke="#4CC45D" stroke-width="2.5"
    stroke-linejoin="round" />
  <path d="M20.4264 414.479L20.1672 417.23L19.7722 421.424" stroke="#4CC45D" stroke-width="2.5"
    stroke-linejoin="round" />
  <path d="M25.1917 415.414L24.4015 423.802" stroke="#4CC45D" stroke-width="2.5"
    stroke-linejoin="round" />
  <path d="M29.821 417.792L29.0308 426.179" stroke="#4CC45D" stroke-width="2.5"
    stroke-linejoin="round" />
  <path d="M34.6315 418.244L33.8414 426.632" stroke="#4CC45D" stroke-width="2.5"
    stroke-linejoin="round" />
  <path d="M39.3513 419.659L38.5612 428.047" stroke="#4CC45D" stroke-width="2.5"
    stroke-linejoin="round" />
  <path d="M44.162 420.113L43.3718 428.501" stroke="#4CC45D" stroke-width="2.5"
    stroke-linejoin="round" />
  <path d="M48.9725 420.566L48.1824 428.954" stroke="#4CC45D" stroke-width="2.5"
    stroke-linejoin="round" />
  <path d="M53.8737 420.057L53.0835 428.445" stroke="#4CC45D" stroke-width="2.5"
    stroke-linejoin="round" />
  <path d="M58.6842 420.51L57.9847 427.936" stroke="#4CC45D" stroke-width="2.5"
    stroke-linejoin="round" />
  <path d="M63.5854 420.001L62.9766 426.465" stroke="#4CC45D" stroke-width="2.5"
    stroke-linejoin="round" />
  <path d="M68.4866 419.492L67.8777 425.956" stroke="#4CC45D" stroke-width="2.5"
    stroke-linejoin="round" />
  <path d="M78.742 413.663L78.017 421.36" stroke="#4CC45D" stroke-width="2.5"
    stroke-linejoin="round" />
  <path d="M73.5689 417.059L72.8694 424.485" stroke="#4CC45D" stroke-width="2.5"
    stroke-linejoin="round" />
  <path
    d="M29.6157 330.967C44.5649 346.261 62.8023 352.679 70.3499 345.301L76.2172 339.566L22.0814 284.182L16.2141 289.917C8.66642 297.294 14.6665 315.673 29.6157 330.967Z"
    fill="#E8E4D8" stroke="#4CC45D" stroke-width="2.5" stroke-miterlimit="10"
    stroke-linejoin="round" />
  <path
    d="M75.6817 340.089C83.2294 332.712 77.2293 314.333 62.2801 299.039C47.3309 283.745 29.0935 277.327 21.5458 284.705C13.9981 292.082 19.9983 310.461 34.9475 325.755C49.8967 341.049 68.134 347.467 75.6817 340.089Z"
    fill="#E8E4D8" stroke="#4CC45D" stroke-width="2.5" stroke-miterlimit="10"
    stroke-linejoin="round" />
  <path d="M18.5487 294.391L12.5237 300.28" stroke="#4CC45D" stroke-width="2.5"
    stroke-linejoin="round" />
  <path d="M19.1617 300.548L13.8278 305.762" stroke="#4CC45D" stroke-width="2.5"
    stroke-linejoin="round" />
  <path d="M20.8115 305.692L18.8356 307.624L15.8231 310.568" stroke="#4CC45D" stroke-width="2.5"
    stroke-linejoin="round" />
  <path d="M23.8434 309.486L17.8184 315.375" stroke="#4CC45D" stroke-width="2.5"
    stroke-linejoin="round" />
  <path d="M25.8383 314.292L19.8133 320.182" stroke="#4CC45D" stroke-width="2.5"
    stroke-linejoin="round" />
  <path d="M29.2159 317.748L23.1909 323.637" stroke="#4CC45D" stroke-width="2.5"
    stroke-linejoin="round" />
  <path d="M31.9025 321.878L25.8775 327.767" stroke="#4CC45D" stroke-width="2.5"
    stroke-linejoin="round" />
  <path d="M35.2796 325.334L29.2546 331.223" stroke="#4CC45D" stroke-width="2.5"
    stroke-linejoin="round" />
  <path d="M38.6573 328.789L32.6323 334.678" stroke="#4CC45D" stroke-width="2.5"
    stroke-linejoin="round" />
  <path d="M42.7259 331.569L36.7009 337.458" stroke="#4CC45D" stroke-width="2.5"
    stroke-linejoin="round" />
  <path d="M46.1035 335.024L40.7696 340.238" stroke="#4CC45D" stroke-width="2.5"
    stroke-linejoin="round" />
  <path d="M50.1717 337.804L45.5289 342.343" stroke="#4CC45D" stroke-width="2.5"
    stroke-linejoin="round" />
  <path d="M54.2404 340.584L49.5975 345.122" stroke="#4CC45D" stroke-width="2.5"
    stroke-linejoin="round" />
  <path d="M65.833 342.766L60.3044 348.17" stroke="#4CC45D" stroke-width="2.5"
    stroke-linejoin="round" />
  <path d="M59.6911 342.013L54.3572 347.226" stroke="#4CC45D" stroke-width="2.5"
    stroke-linejoin="round" />
  <path
    d="M54.438 234.826C73.8827 225.921 86.0833 210.924 81.6889 201.328L78.2728 193.868L7.85748 226.114L11.2735 233.574C15.668 243.17 34.9934 243.73 54.438 234.826Z"
    fill="#E8E4D8" stroke="#4CC45D" stroke-width="2.5" stroke-miterlimit="10"
    stroke-linejoin="round" />
  <path
    d="M78.5844 194.549C74.19 184.953 54.8646 184.392 35.4199 193.297C15.9752 202.201 3.77465 217.199 8.16909 226.795C12.5635 236.391 31.8889 236.952 51.3336 228.047C70.7782 219.143 82.9789 204.145 78.5844 194.549Z"
    fill="#E8E4D8" stroke="#4CC45D" stroke-width="2.5" stroke-miterlimit="10"
    stroke-linejoin="round" />
  <path d="M16.2735 232.888L19.7814 240.548" stroke="#4CC45D" stroke-width="2.5"
    stroke-linejoin="round" />
  <path d="M22.276 234.391L25.3816 241.172" stroke="#4CC45D" stroke-width="2.5"
    stroke-linejoin="round" />
  <path d="M27.6751 234.575L28.8255 237.088L30.5795 240.918" stroke="#4CC45D" stroke-width="2.5"
    stroke-linejoin="round" />
  <path d="M32.2695 233.003L35.7774 240.663" stroke="#4CC45D" stroke-width="2.5"
    stroke-linejoin="round" />
  <path d="M37.4677 232.749L40.9756 240.409" stroke="#4CC45D" stroke-width="2.5"
    stroke-linejoin="round" />
  <path d="M41.8606 230.737L45.3685 238.397" stroke="#4CC45D" stroke-width="2.5"
    stroke-linejoin="round" />
  <path d="M46.6559 229.604L50.1638 237.264" stroke="#4CC45D" stroke-width="2.5"
    stroke-linejoin="round" />
  <path d="M51.0494 227.592L54.5573 235.252" stroke="#4CC45D" stroke-width="2.5"
    stroke-linejoin="round" />
  <path d="M55.4424 225.58L58.9502 233.24" stroke="#4CC45D" stroke-width="2.5"
    stroke-linejoin="round" />
  <path d="M59.4329 222.689L62.9408 230.35" stroke="#4CC45D" stroke-width="2.5"
    stroke-linejoin="round" />
  <path d="M63.8258 220.677L66.9314 227.459" stroke="#4CC45D" stroke-width="2.5"
    stroke-linejoin="round" />
  <path d="M67.817 217.788L70.5202 223.69" stroke="#4CC45D" stroke-width="2.5"
    stroke-linejoin="round" />
  <path d="M71.8076 214.897L74.5108 220.8" stroke="#4CC45D" stroke-width="2.5"
    stroke-linejoin="round" />
  <path d="M77.777 204.723L80.9959 211.752" stroke="#4CC45D" stroke-width="2.5"
    stroke-linejoin="round" />
  <path d="M74.9934 210.249L78.099 217.031" stroke="#4CC45D" stroke-width="2.5"
    stroke-linejoin="round" />
  <path
    d="M32.1083 134.802C49.7039 146.959 68.8313 149.774 74.8307 141.091L79.4943 134.34L15.7751 90.3177L11.1115 97.0679C5.11215 105.751 14.5128 122.646 32.1083 134.802Z"
    fill="#E8E4D8" stroke="#4CC45D" stroke-width="2.5" stroke-miterlimit="10"
    stroke-linejoin="round" />
  <path
    d="M79.0686 134.956C85.0679 126.273 75.6673 109.379 58.0718 97.222C40.4762 85.0655 21.3487 82.2501 15.3494 90.9336C9.35007 99.6171 18.7507 116.511 36.3462 128.668C53.9418 140.824 73.0693 143.64 79.0686 134.956Z"
    fill="#E8E4D8" stroke="#4CC45D" stroke-width="2.5" stroke-miterlimit="10"
    stroke-linejoin="round" />
  <path d="M14.2578 101.014L9.46881 107.946" stroke="#4CC45D" stroke-width="2.5"
    stroke-linejoin="round" />
  <path d="M16.0359 106.941L11.7962 113.077" stroke="#4CC45D" stroke-width="2.5"
    stroke-linejoin="round" />
  <path d="M18.6379 111.675L17.0674 113.948L14.6729 117.414" stroke="#4CC45D" stroke-width="2.5"
    stroke-linejoin="round" />
  <path d="M22.3386 114.819L17.5496 121.751" stroke="#4CC45D" stroke-width="2.5"
    stroke-linejoin="round" />
  <path d="M25.2151 119.156L20.4261 126.088" stroke="#4CC45D" stroke-width="2.5"
    stroke-linejoin="round" />
  <path d="M29.1906 121.903L24.4016 128.834" stroke="#4CC45D" stroke-width="2.5"
    stroke-linejoin="round" />
  <path d="M32.6167 125.444L27.8277 132.376" stroke="#4CC45D" stroke-width="2.5"
    stroke-linejoin="round" />
  <path d="M36.5918 128.191L31.8028 135.123" stroke="#4CC45D" stroke-width="2.5"
    stroke-linejoin="round" />
  <path d="M40.5673 130.937L35.7783 137.869" stroke="#4CC45D" stroke-width="2.5"
    stroke-linejoin="round" />
  <path d="M45.0921 132.888L40.3031 139.82" stroke="#4CC45D" stroke-width="2.5"
    stroke-linejoin="round" />
  <path d="M49.0675 135.635L44.8278 141.771" stroke="#4CC45D" stroke-width="2.5"
    stroke-linejoin="round" />
  <path d="M53.5919 137.587L49.9015 142.928" stroke="#4CC45D" stroke-width="2.5"
    stroke-linejoin="round" />
  <path d="M58.1167 139.538L54.4263 144.88" stroke="#4CC45D" stroke-width="2.5"
    stroke-linejoin="round" />
  <path d="M69.9126 139.465L65.5182 145.826" stroke="#4CC45D" stroke-width="2.5"
    stroke-linejoin="round" />
  <path d="M63.74 139.899L59.5003 146.036" stroke="#4CC45D" stroke-width="2.5"
    stroke-linejoin="round" />
  <path
    d="M47.9498 50.3063C69.1934 47.8376 85.4272 37.3376 84.2089 26.8537L83.2618 18.704L6.33187 27.6437L7.27893 35.7934C8.49722 46.2773 26.7062 52.7749 47.9498 50.3063Z"
    fill="#E8E4D8" stroke="#4CC45D" stroke-width="2.5" stroke-miterlimit="10"
    stroke-linejoin="round" />
  <path
    d="M83.3481 19.4477C82.1298 8.96384 63.9208 2.46618 42.6772 4.93482C21.4336 7.40347 5.19986 17.9036 6.41815 28.3874C7.63644 38.8713 25.8454 45.3689 47.089 42.9002C68.3326 40.4316 84.5664 29.9315 83.3481 19.4477Z"
    fill="#E8E4D8" stroke="#4CC45D" stroke-width="2.5" stroke-miterlimit="10"
    stroke-linejoin="round" />
  <path d="M12.2465 36.6841L13.219 45.0529" stroke="#4CC45D" stroke-width="2.5"
    stroke-linejoin="round" />
  <path d="M17.4922 39.9661L18.3532 47.375" stroke="#4CC45D" stroke-width="2.5"
    stroke-linejoin="round" />
  <path d="M22.5707 41.8081L22.8896 44.5526L23.3759 48.7371" stroke="#4CC45D" stroke-width="2.5"
    stroke-linejoin="round" />
  <path d="M27.4261 41.7305L28.3986 50.0993" stroke="#4CC45D" stroke-width="2.5"
    stroke-linejoin="round" />
  <path d="M32.4489 43.0933L33.4214 51.4621" stroke="#4CC45D" stroke-width="2.5"
    stroke-linejoin="round" />
  <path d="M37.2484 42.5352L38.2209 50.904" stroke="#4CC45D" stroke-width="2.5"
    stroke-linejoin="round" />
  <path d="M42.1593 42.937L43.1318 51.3058" stroke="#4CC45D" stroke-width="2.5"
    stroke-linejoin="round" />
  <path d="M46.9591 42.3799L47.9316 50.7487" stroke="#4CC45D" stroke-width="2.5"
    stroke-linejoin="round" />
  <path d="M51.7586 41.8218L52.7311 50.1906" stroke="#4CC45D" stroke-width="2.5"
    stroke-linejoin="round" />
  <path d="M56.4465 40.304L57.419 48.6728" stroke="#4CC45D" stroke-width="2.5"
    stroke-linejoin="round" />
  <path d="M61.2459 39.7458L62.1069 47.1548" stroke="#4CC45D" stroke-width="2.5"
    stroke-linejoin="round" />
  <path d="M65.9341 38.229L66.6836 44.678" stroke="#4CC45D" stroke-width="2.5"
    stroke-linejoin="round" />
  <path d="M70.622 36.7109L71.3715 43.1599" stroke="#4CC45D" stroke-width="2.5"
    stroke-linejoin="round" />
  <path d="M79.4402 28.8757L80.3325 36.555" stroke="#4CC45D" stroke-width="2.5"
    stroke-linejoin="round" />
  <path d="M75.0868 33.2734L75.9478 40.6823" stroke="#4CC45D" stroke-width="2.5"
    stroke-linejoin="round" />
</svg>
    