<svg width="366" height="47" viewBox="0 0 366 47" fill="none" xmlns="http://www.w3.org/2000/svg">
  <path
    d="M355.405 17.5225C350.03 7.90804 341.827 2.26422 337.082 4.91673L333.394 6.97869L352.858 41.7959L356.546 39.7339C361.291 37.0814 360.78 27.1371 355.405 17.5225Z"
    fill="#E8E4D8" stroke="#4CC45D" stroke-miterlimit="10" stroke-linejoin="round" />
  <path
    d="M333.73 6.79124C328.986 9.44375 329.496 19.3882 334.871 29.0027C340.246 38.6172 348.45 44.261 353.194 41.6085C357.939 38.9559 357.428 29.0116 352.054 19.3971C346.679 9.78255 338.475 4.13873 333.73 6.79124Z"
    fill="#E8E4D8" stroke="#4CC45D" stroke-miterlimit="10" stroke-linejoin="round" />
  <path d="M355.987 37.1958L359.775 35.0784" stroke="#4CC45D" stroke-linejoin="round" />
  <path d="M356.511 34.0522L359.864 32.1777" stroke="#4CC45D" stroke-linejoin="round" />
  <path d="M356.383 31.2729L357.625 30.5786L359.518 29.5199" stroke="#4CC45D"
    stroke-linejoin="round" />
  <path d="M355.385 28.979L359.173 26.8616" stroke="#4CC45D" stroke-linejoin="round" />
  <path d="M355.04 26.3208L358.828 24.2034" stroke="#4CC45D" stroke-linejoin="round" />
  <path d="M353.826 24.1489L357.613 22.0315" stroke="#4CC45D" stroke-linejoin="round" />
  <path d="M353.046 21.7344L356.834 19.617" stroke="#4CC45D" stroke-linejoin="round" />
  <path d="M351.832 19.5615L355.619 17.4441" stroke="#4CC45D" stroke-linejoin="round" />
  <path d="M350.617 17.3896L354.405 15.2723" stroke="#4CC45D" stroke-linejoin="round" />
  <path d="M348.968 15.4604L352.756 13.3431" stroke="#4CC45D" stroke-linejoin="round" />
  <path d="M347.754 13.2881L351.107 11.4136" stroke="#4CC45D" stroke-linejoin="round" />
  <path d="M346.106 11.3584L349.024 9.72674" stroke="#4CC45D" stroke-linejoin="round" />
  <path d="M344.456 9.4292L347.375 7.79754" stroke="#4CC45D" stroke-linejoin="round" />
  <path d="M338.987 6.78467L342.462 4.84174" stroke="#4CC45D" stroke-linejoin="round" />
  <path d="M341.939 7.98535L345.292 6.11083" stroke="#4CC45D" stroke-linejoin="round" />
  <path
    d="M310.415 25.1759C312.736 14.4084 310.31 4.75098 304.996 3.60558L300.865 2.71518L292.46 41.708L296.591 42.5984C301.905 43.7438 308.094 35.9435 310.415 25.1759Z"
    fill="#E8E4D8" stroke="#4CC45D" stroke-miterlimit="10" stroke-linejoin="round" />
  <path
    d="M301.242 2.79698C295.928 1.65157 289.739 9.45188 287.418 20.2195C285.097 30.987 287.523 40.6444 292.837 41.7898C298.151 42.9352 304.34 35.1349 306.661 24.3673C308.982 13.5998 306.556 3.94239 301.242 2.79698Z"
    fill="#E8E4D8" stroke="#4CC45D" stroke-miterlimit="10" stroke-linejoin="round" />
  <path d="M297.849 40.3242L302.091 41.2385" stroke="#4CC45D" stroke-linejoin="round" />
  <path d="M300.32 38.311L304.075 39.1205" stroke="#4CC45D" stroke-linejoin="round" />
  <path d="M302.061 36.1406L303.452 36.4405L305.573 36.8976" stroke="#4CC45D"
    stroke-linejoin="round" />
  <path d="M302.829 33.7603L307.071 34.6746" stroke="#4CC45D" stroke-linejoin="round" />
  <path d="M304.327 31.5376L308.568 32.4519" stroke="#4CC45D" stroke-linejoin="round" />
  <path d="M304.851 29.105L309.093 30.0193" stroke="#4CC45D" stroke-linejoin="round" />
  <path d="M305.861 26.7769L310.103 27.6912" stroke="#4CC45D" stroke-linejoin="round" />
  <path d="M306.386 24.3442L310.628 25.2586" stroke="#4CC45D" stroke-linejoin="round" />
  <path d="M306.91 21.9111L311.152 22.8255" stroke="#4CC45D" stroke-linejoin="round" />
  <path d="M306.948 19.3735L311.19 20.2879" stroke="#4CC45D" stroke-linejoin="round" />
  <path d="M307.472 16.9409L311.228 17.7504" stroke="#4CC45D" stroke-linejoin="round" />
  <path d="M307.511 14.4033L310.779 15.1079" stroke="#4CC45D" stroke-linejoin="round" />
  <path d="M307.548 11.8662L310.817 12.5708" stroke="#4CC45D" stroke-linejoin="round" />
  <path d="M305.191 6.26611L309.083 7.10511" stroke="#4CC45D" stroke-linejoin="round" />
  <path d="M306.613 9.11865L310.368 9.92811" stroke="#4CC45D" stroke-linejoin="round" />
  <path
    d="M262.918 17.4808C257.506 7.88743 249.28 2.27584 244.546 4.94695L240.866 7.02336L260.466 41.7639L264.146 39.6875C268.881 37.0164 268.331 27.0741 262.918 17.4808Z"
    fill="#E8E4D8" stroke="#4CC45D" stroke-miterlimit="10" stroke-linejoin="round" />
  <path
    d="M241.201 6.83415C236.467 9.50526 237.017 19.4476 242.429 29.0409C247.842 38.6343 256.067 44.2458 260.802 41.5747C265.536 38.9036 264.986 28.9613 259.574 19.368C254.161 9.77464 245.936 4.16305 241.201 6.83415Z"
    fill="#E8E4D8" stroke="#4CC45D" stroke-miterlimit="10" stroke-linejoin="round" />
  <path d="M263.578 37.1514L267.358 35.0191" stroke="#4CC45D" stroke-linejoin="round" />
  <path d="M264.089 34.0063L267.435 32.1187" stroke="#4CC45D" stroke-linejoin="round" />
  <path d="M263.949 31.2275L265.189 30.5283L267.078 29.4622" stroke="#4CC45D"
    stroke-linejoin="round" />
  <path d="M262.943 28.9375L266.723 26.8053" stroke="#4CC45D" stroke-linejoin="round" />
  <path d="M262.588 26.2808L266.367 24.1485" stroke="#4CC45D" stroke-linejoin="round" />
  <path d="M261.365 24.1133L265.144 21.9811" stroke="#4CC45D" stroke-linejoin="round" />
  <path d="M260.575 21.7017L264.355 19.5694" stroke="#4CC45D" stroke-linejoin="round" />
  <path d="M259.353 19.5342L263.132 17.402" stroke="#4CC45D" stroke-linejoin="round" />
  <path d="M258.13 17.3667L261.909 15.2345" stroke="#4CC45D" stroke-linejoin="round" />
  <path d="M256.473 15.4438L260.253 13.3116" stroke="#4CC45D" stroke-linejoin="round" />
  <path d="M255.25 13.2769L258.596 11.3892" stroke="#4CC45D" stroke-linejoin="round" />
  <path d="M253.594 11.354L256.507 9.71091" stroke="#4CC45D" stroke-linejoin="round" />
  <path d="M251.938 9.43066L254.85 7.78757" stroke="#4CC45D" stroke-linejoin="round" />
  <path d="M246.458 6.80811L249.926 4.85156" stroke="#4CC45D" stroke-linejoin="round" />
  <path d="M249.415 7.99707L252.76 6.10941" stroke="#4CC45D" stroke-linejoin="round" />
  <path
    d="M220.233 24.1256C221.266 13.1593 217.717 3.85606 212.305 3.34626L208.098 2.94996L204.357 42.6626L208.564 43.0589C213.976 43.5687 219.2 35.092 220.233 24.1256Z"
    fill="#E8E4D8" stroke="#4CC45D" stroke-miterlimit="10" stroke-linejoin="round" />
  <path
    d="M208.481 2.98639C203.07 2.47659 197.845 10.9533 196.812 21.9196C195.779 32.8859 199.329 42.1892 204.741 42.699C210.153 43.2088 215.377 34.7321 216.41 23.7658C217.443 12.7994 213.893 3.49619 208.481 2.98639Z"
    fill="#E8E4D8" stroke="#4CC45D" stroke-miterlimit="10" stroke-linejoin="round" />
  <path d="M209.546 40.6519L213.866 41.0588" stroke="#4CC45D" stroke-linejoin="round" />
  <path d="M211.76 38.3608L215.585 38.7211" stroke="#4CC45D" stroke-linejoin="round" />
  <path d="M213.233 36L214.649 36.1335L216.809 36.3369" stroke="#4CC45D" stroke-linejoin="round" />
  <path d="M213.714 33.5459L218.034 33.9529" stroke="#4CC45D" stroke-linejoin="round" />
  <path d="M214.939 31.1611L219.259 31.5681" stroke="#4CC45D" stroke-linejoin="round" />
  <path d="M215.172 28.6836L219.492 29.0905" stroke="#4CC45D" stroke-linejoin="round" />
  <path d="M215.9 26.2529L220.221 26.6599" stroke="#4CC45D" stroke-linejoin="round" />
  <path d="M216.134 23.7749L220.454 24.1819" stroke="#4CC45D" stroke-linejoin="round" />
  <path d="M216.368 21.2979L220.688 21.7048" stroke="#4CC45D" stroke-linejoin="round" />
  <path d="M216.105 18.7734L220.425 19.1804" stroke="#4CC45D" stroke-linejoin="round" />
  <path d="M216.339 16.2954L220.163 16.6557" stroke="#4CC45D" stroke-linejoin="round" />
  <path d="M216.077 13.7715L219.406 14.0851" stroke="#4CC45D" stroke-linejoin="round" />
  <path d="M215.815 11.2476L219.144 11.5612" stroke="#4CC45D" stroke-linejoin="round" />
  <path d="M212.812 5.96484L216.776 6.33827" stroke="#4CC45D" stroke-linejoin="round" />
  <path d="M214.561 8.62939L218.386 8.98967" stroke="#4CC45D" stroke-linejoin="round" />
  <path
    d="M170.221 31.2665C178.098 23.5671 181.403 14.1743 177.604 10.2869L174.65 7.26504L146.125 35.147L149.078 38.1689C152.878 42.0562 162.344 38.9659 170.221 31.2665Z"
    fill="#E8E4D8" stroke="#4CC45D" stroke-miterlimit="10" stroke-linejoin="round" />
  <path
    d="M174.919 7.54082C171.119 3.65348 161.653 6.74374 153.776 14.4431C145.9 22.1425 142.594 31.5354 146.394 35.4228C150.194 39.3101 159.659 36.2198 167.536 28.5204C175.413 20.8211 178.719 11.4282 174.919 7.54082Z"
    fill="#E8E4D8" stroke="#4CC45D" stroke-miterlimit="10" stroke-linejoin="round" />
  <path d="M151.383 36.9663L154.416 40.0694" stroke="#4CC45D" stroke-linejoin="round" />
  <path d="M154.554 36.6509L157.239 39.398" stroke="#4CC45D" stroke-linejoin="round" />
  <path d="M157.204 35.8008L158.198 36.8184L159.715 38.37" stroke="#4CC45D" stroke-linejoin="round" />
  <path d="M159.157 34.2397L162.191 37.3428" stroke="#4CC45D" stroke-linejoin="round" />
  <path d="M161.633 33.2119L164.666 36.315" stroke="#4CC45D" stroke-linejoin="round" />
  <path d="M163.412 31.4727L166.446 34.5758" stroke="#4CC45D" stroke-linejoin="round" />
  <path d="M165.54 30.0889L168.573 33.192" stroke="#4CC45D" stroke-linejoin="round" />
  <path d="M167.32 28.3496L170.353 31.4527" stroke="#4CC45D" stroke-linejoin="round" />
  <path d="M169.1 26.6099L172.133 29.713" stroke="#4CC45D" stroke-linejoin="round" />
  <path d="M170.531 24.5142L173.564 27.6173" stroke="#4CC45D" stroke-linejoin="round" />
  <path d="M172.311 22.7749L174.996 25.5221" stroke="#4CC45D" stroke-linejoin="round" />
  <path d="M173.743 20.6792L176.08 23.0704" stroke="#4CC45D" stroke-linejoin="round" />
  <path d="M175.174 18.584L177.512 20.9752" stroke="#4CC45D" stroke-linejoin="round" />
  <path d="M176.298 12.6133L179.081 15.4607" stroke="#4CC45D" stroke-linejoin="round" />
  <path d="M175.91 15.7769L178.595 18.524" stroke="#4CC45D" stroke-linejoin="round" />
  <path
    d="M120.705 18.4825C116.119 8.46774 108.394 2.18397 103.452 4.44727L99.6099 6.20667L116.218 42.4732L120.06 40.7138C125.002 38.4505 125.291 28.4972 120.705 18.4825Z"
    fill="#E8E4D8" stroke="#4CC45D" stroke-miterlimit="10" stroke-linejoin="round" />
  <path
    d="M99.9602 6.04638C95.0179 8.30968 94.7291 18.263 99.3153 28.2777C103.901 38.2924 111.626 44.5762 116.568 42.3129C121.511 40.0496 121.799 30.0963 117.213 20.0816C112.627 10.0669 104.903 3.78308 99.9602 6.04638Z"
    fill="#E8E4D8" stroke="#4CC45D" stroke-miterlimit="10" stroke-linejoin="round" />
  <path d="M119.706 38.1387L123.652 36.332" stroke="#4CC45D" stroke-linejoin="round" />
  <path d="M120.48 35.0469L123.973 33.4474" stroke="#4CC45D" stroke-linejoin="round" />
  <path d="M120.575 32.2666L121.869 31.6741L123.842 30.7708" stroke="#4CC45D"
    stroke-linejoin="round" />
  <path d="M119.766 29.8999L123.711 28.0932" stroke="#4CC45D" stroke-linejoin="round" />
  <path d="M119.635 27.2227L123.58 25.416" stroke="#4CC45D" stroke-linejoin="round" />
  <path d="M118.598 24.9604L122.544 23.1538" stroke="#4CC45D" stroke-linejoin="round" />
  <path d="M118.015 22.4902L121.96 20.6835" stroke="#4CC45D" stroke-linejoin="round" />
  <path d="M116.979 20.2275L120.924 18.4208" stroke="#4CC45D" stroke-linejoin="round" />
  <path d="M115.943 17.9648L119.888 16.1581" stroke="#4CC45D" stroke-linejoin="round" />
  <path d="M114.454 15.9097L118.399 14.103" stroke="#4CC45D" stroke-linejoin="round" />
  <path d="M113.417 13.647L116.91 12.0475" stroke="#4CC45D" stroke-linejoin="round" />
  <path d="M111.929 11.5913L114.969 10.1991" stroke="#4CC45D" stroke-linejoin="round" />
  <path d="M110.44 9.53613L113.48 8.1439" stroke="#4CC45D" stroke-linejoin="round" />
  <path d="M105.2 6.46143L108.821 4.80359" stroke="#4CC45D" stroke-linejoin="round" />
  <path d="M108.046 7.89551L111.539 6.29604" stroke="#4CC45D" stroke-linejoin="round" />
  <path
    d="M69.1887 29.9832C75.4497 20.9208 76.8998 11.0695 72.4275 7.97963L68.9508 5.57769L46.2775 38.3954L49.7541 40.7974C54.2265 43.8873 62.9276 39.0456 69.1887 29.9832Z"
    fill="#E8E4D8" stroke="#4CC45D" stroke-miterlimit="10" stroke-linejoin="round" />
  <path
    d="M69.2682 5.79702C64.7959 2.70714 56.0947 7.54879 49.8336 16.6112C43.5726 25.6735 42.1225 35.5249 46.5949 38.6148C51.0672 41.7046 59.7683 36.863 66.0294 27.8006C72.2905 18.7382 73.7405 8.88689 69.2682 5.79702Z"
    fill="#E8E4D8" stroke="#4CC45D" stroke-miterlimit="10" stroke-linejoin="round" />
  <path d="M51.7863 39.1763L55.3564 41.6428" stroke="#4CC45D" stroke-linejoin="round" />
  <path d="M54.8392 38.2603L57.9998 40.4439" stroke="#4CC45D" stroke-linejoin="round" />
  <path d="M57.2776 36.9204L58.4484 37.7293L60.2334 38.9626" stroke="#4CC45D"
    stroke-linejoin="round" />
  <path d="M58.8966 35.0142L62.4667 37.4807" stroke="#4CC45D" stroke-linejoin="round" />
  <path d="M61.1307 33.5332L64.7007 35.9997" stroke="#4CC45D" stroke-linejoin="round" />
  <path d="M62.5449 31.4854L66.115 33.9519" stroke="#4CC45D" stroke-linejoin="round" />
  <path d="M64.369 29.7207L67.9391 32.1872" stroke="#4CC45D" stroke-linejoin="round" />
  <path d="M65.7837 27.6733L69.3537 30.1399" stroke="#4CC45D" stroke-linejoin="round" />
  <path d="M67.1983 25.626L70.7684 28.0925" stroke="#4CC45D" stroke-linejoin="round" />
  <path d="M68.203 23.2954L71.7731 25.7619" stroke="#4CC45D" stroke-linejoin="round" />
  <path d="M69.6176 21.248L72.7782 23.4317" stroke="#4CC45D" stroke-linejoin="round" />
  <path d="M70.6228 18.9175L73.3739 20.8182" stroke="#4CC45D" stroke-linejoin="round" />
  <path d="M71.6279 16.5874L74.379 18.4881" stroke="#4CC45D" stroke-linejoin="round" />
  <path d="M71.5905 10.5117L74.8664 12.775" stroke="#4CC45D" stroke-linejoin="round" />
  <path d="M71.8139 13.6909L74.9745 15.8745" stroke="#4CC45D" stroke-linejoin="round" />
  <path
    d="M25.6703 21.8253C24.3988 10.8841 18.9909 2.52311 13.5913 3.15058L9.3939 3.63834L13.9982 43.2601L18.1956 42.7724C23.5952 42.1449 26.9417 32.7666 25.6703 21.8253Z"
    fill="#E8E4D8" stroke="#4CC45D" stroke-miterlimit="10" stroke-linejoin="round" />
  <path
    d="M9.77681 3.59344C4.37723 4.22091 1.0307 13.5992 2.30215 24.5405C3.57359 35.4817 8.98154 43.8427 14.3811 43.2152C19.7807 42.5878 23.1272 33.2095 21.8557 22.2682C20.5843 11.327 15.1764 2.96598 9.77681 3.59344Z"
    fill="#E8E4D8" stroke="#4CC45D" stroke-miterlimit="10" stroke-linejoin="round" />
  <path d="M18.6541 40.2139L22.9643 39.713" stroke="#4CC45D" stroke-linejoin="round" />
  <path d="M20.3445 37.5117L24.1604 37.0683" stroke="#4CC45D" stroke-linejoin="round" />
  <path d="M21.2932 34.8965L22.7067 34.7322L24.8618 34.4818" stroke="#4CC45D"
    stroke-linejoin="round" />
  <path d="M21.253 32.3955L25.5632 31.8946" stroke="#4CC45D" stroke-linejoin="round" />
  <path d="M21.9551 29.8086L26.2654 29.3077" stroke="#4CC45D" stroke-linejoin="round" />
  <path d="M21.6677 27.3369L25.9779 26.836" stroke="#4CC45D" stroke-linejoin="round" />
  <path d="M21.8745 24.8076L26.1847 24.3067" stroke="#4CC45D" stroke-linejoin="round" />
  <path d="M21.5874 22.335L25.8976 21.8341" stroke="#4CC45D" stroke-linejoin="round" />
  <path d="M21.2999 19.8638L25.6102 19.3629" stroke="#4CC45D" stroke-linejoin="round" />
  <path d="M20.5186 17.4487L24.8289 16.9479" stroke="#4CC45D" stroke-linejoin="round" />
  <path d="M20.2312 14.9775L24.0471 14.5341" stroke="#4CC45D" stroke-linejoin="round" />
  <path d="M19.4495 12.563L22.771 12.177" stroke="#4CC45D" stroke-linejoin="round" />
  <path d="M18.6678 10.1479L21.9893 9.76197" stroke="#4CC45D" stroke-linejoin="round" />
  <path d="M14.6327 5.60645L18.5878 5.14684" stroke="#4CC45D" stroke-linejoin="round" />
  <path d="M16.8974 7.84814L20.7133 7.40472" stroke="#4CC45D" stroke-linejoin="round" />
</svg>
    