<svg width="81" height="49" viewBox="0 0 81 49" fill="none" xmlns="http://www.w3.org/2000/svg">
  <path
    d="M40.1266 46.9927C61.5132 46.9927 78.8505 38.4367 78.8505 27.8823L78.8505 19.6777L1.40283 19.6777L1.40283 27.8823C1.40283 38.4367 18.7401 46.9927 40.1266 46.9927Z"
    fill="#E8E4D8" stroke="#4CC45D" stroke-width="2.5" stroke-miterlimit="10"
    stroke-linejoin="round" />
  <path
    d="M78.8502 20.4262C78.8502 9.8718 61.513 1.31572 40.1264 1.31572C18.7398 1.31572 1.40259 9.8718 1.40259 20.4262C1.40259 30.9806 18.7398 39.5366 40.1264 39.5366C61.513 39.5366 78.8502 30.9806 78.8502 20.4262Z"
    fill="#E8E4D8" stroke="#4CC45D" stroke-width="2.5" stroke-miterlimit="10"
    stroke-linejoin="round" />
  <path d="M6.23438 29.3403L6.23438 37.7655" stroke="#4CC45D" stroke-width="2.5"
    stroke-linejoin="round" />
  <path d="M11.0662 33.2061V40.6648" stroke="#4CC45D" stroke-width="2.5" stroke-linejoin="round" />
  <path d="M15.8982 35.6221V38.3851V42.5976" stroke="#4CC45D" stroke-width="2.5"
    stroke-linejoin="round" />
  <path d="M20.73 36.1055V44.5306" stroke="#4CC45D" stroke-width="2.5" stroke-linejoin="round" />
  <path d="M25.562 38.0386V46.4637" stroke="#4CC45D" stroke-width="2.5" stroke-linejoin="round" />
  <path d="M30.3938 38.0381V46.4632" stroke="#4CC45D" stroke-width="2.5" stroke-linejoin="round" />
  <path d="M35.2256 39.0044V47.4295" stroke="#4CC45D" stroke-width="2.5" stroke-linejoin="round" />
  <path d="M40.0574 39.0049V47.43" stroke="#4CC45D" stroke-width="2.5" stroke-linejoin="round" />
  <path d="M44.8892 39.0049V47.43" stroke="#4CC45D" stroke-width="2.5" stroke-linejoin="round" />
  <path d="M49.7209 38.0381V46.4632" stroke="#4CC45D" stroke-width="2.5" stroke-linejoin="round" />
  <path d="M54.5527 38.0376V45.4964" stroke="#4CC45D" stroke-width="2.5" stroke-linejoin="round" />
  <path d="M59.3848 37.0718V43.5642" stroke="#4CC45D" stroke-width="2.5" stroke-linejoin="round" />
  <path d="M64.2166 36.1055V42.5979" stroke="#4CC45D" stroke-width="2.5" stroke-linejoin="round" />
  <path d="M73.8801 29.3403V37.0713" stroke="#4CC45D" stroke-width="2.5" stroke-linejoin="round" />
  <path d="M69.0483 33.2061V40.6648" stroke="#4CC45D" stroke-width="2.5" stroke-linejoin="round" />
</svg>
  