<svg width="inherit" height="auto" viewBox="0 0 465 47" fill="none"
  xmlns="http://www.w3.org/2000/svg">
  <path
    d="M355.738 17.5307C350.363 7.91617 342.16 2.27235 337.415 4.92486L333.727 6.98682L353.191 41.804L356.879 39.7421C361.624 37.0896 361.113 27.1452 355.738 17.5307Z"
    fill="#E8E4D8" stroke="#4CC45D" stroke-miterlimit="10" stroke-linejoin="round" />
  <path
    d="M334.063 6.7991C329.319 9.45161 329.829 19.396 335.204 29.0105C340.579 38.625 348.783 44.2688 353.527 41.6163C358.272 38.9638 357.761 29.0194 352.387 19.4049C347.012 9.79041 338.808 4.14659 334.063 6.7991Z"
    fill="#E8E4D8" stroke="#4CC45D" stroke-miterlimit="10" stroke-linejoin="round" />
  <path d="M356.32 37.2036L360.108 35.0862" stroke="#4CC45D" stroke-linejoin="round" />
  <path d="M356.844 34.0602L360.197 32.1857" stroke="#4CC45D" stroke-linejoin="round" />
  <path d="M356.716 31.2807L357.958 30.5863L359.852 29.5276" stroke="#4CC45D"
    stroke-linejoin="round" />
  <path d="M355.718 28.9866L359.506 26.8692" stroke="#4CC45D" stroke-linejoin="round" />
  <path d="M355.373 26.3287L359.161 24.2113" stroke="#4CC45D" stroke-linejoin="round" />
  <path d="M354.158 24.1566L357.946 22.0393" stroke="#4CC45D" stroke-linejoin="round" />
  <path d="M353.379 21.7421L357.166 19.6247" stroke="#4CC45D" stroke-linejoin="round" />
  <path d="M352.165 19.5692L355.952 17.4518" stroke="#4CC45D" stroke-linejoin="round" />
  <path d="M350.95 17.3972L354.738 15.2798" stroke="#4CC45D" stroke-linejoin="round" />
  <path d="M349.301 15.4681L353.089 13.3507" stroke="#4CC45D" stroke-linejoin="round" />
  <path d="M348.087 13.2956L351.44 11.4211" stroke="#4CC45D" stroke-linejoin="round" />
  <path d="M346.438 11.3661L349.357 9.73448" stroke="#4CC45D" stroke-linejoin="round" />
  <path d="M344.789 9.43701L347.708 7.80536" stroke="#4CC45D" stroke-linejoin="round" />
  <path d="M339.32 6.79263L342.795 4.84971" stroke="#4CC45D" stroke-linejoin="round" />
  <path d="M342.272 7.99336L345.625 6.11884" stroke="#4CC45D" stroke-linejoin="round" />
  <path
    d="M310.748 25.1837C313.069 14.4161 310.643 4.75877 305.329 3.61336L301.198 2.72296L292.794 41.7158L296.924 42.6062C302.238 43.7516 308.427 35.9513 310.748 25.1837Z"
    fill="#E8E4D8" stroke="#4CC45D" stroke-miterlimit="10" stroke-linejoin="round" />
  <path
    d="M301.575 2.80465C296.261 1.65925 290.072 9.45956 287.751 20.2271C285.43 30.9947 287.856 40.6521 293.17 41.7975C298.484 42.9429 304.673 35.1426 306.994 24.375C309.315 13.6074 306.889 3.95006 301.575 2.80465Z"
    fill="#E8E4D8" stroke="#4CC45D" stroke-miterlimit="10" stroke-linejoin="round" />
  <path d="M298.183 40.3321L302.424 41.2464" stroke="#4CC45D" stroke-linejoin="round" />
  <path d="M300.653 38.3189L304.409 39.1283" stroke="#4CC45D" stroke-linejoin="round" />
  <path d="M302.394 36.1484L303.785 36.4483L305.906 36.9054" stroke="#4CC45D"
    stroke-linejoin="round" />
  <path d="M303.162 33.768L307.404 34.6824" stroke="#4CC45D" stroke-linejoin="round" />
  <path d="M304.66 31.5455L308.901 32.4598" stroke="#4CC45D" stroke-linejoin="round" />
  <path d="M305.184 29.1126L309.426 30.027" stroke="#4CC45D" stroke-linejoin="round" />
  <path d="M306.195 26.7847L310.436 27.6991" stroke="#4CC45D" stroke-linejoin="round" />
  <path d="M306.719 24.3519L310.961 25.2662" stroke="#4CC45D" stroke-linejoin="round" />
  <path d="M307.243 21.919L311.485 22.8333" stroke="#4CC45D" stroke-linejoin="round" />
  <path d="M307.281 19.3816L311.523 20.2959" stroke="#4CC45D" stroke-linejoin="round" />
  <path d="M307.805 16.9487L311.561 17.7582" stroke="#4CC45D" stroke-linejoin="round" />
  <path d="M307.844 14.4113L311.112 15.1159" stroke="#4CC45D" stroke-linejoin="round" />
  <path d="M307.881 11.8739L311.15 12.5785" stroke="#4CC45D" stroke-linejoin="round" />
  <path d="M305.524 6.27419L309.416 7.11318" stroke="#4CC45D" stroke-linejoin="round" />
  <path d="M306.946 9.12651L310.701 9.93597" stroke="#4CC45D" stroke-linejoin="round" />
  <path
    d="M263.252 17.4887C257.839 7.89534 249.613 2.28375 244.879 4.95485L241.199 7.03127L260.799 41.7719L264.479 39.6954C269.214 37.0243 268.664 27.082 263.252 17.4887Z"
    fill="#E8E4D8" stroke="#4CC45D" stroke-miterlimit="10" stroke-linejoin="round" />
  <path
    d="M241.534 6.84181C236.8 9.51292 237.35 19.4552 242.762 29.0486C248.175 38.6419 256.4 44.2535 261.135 41.5824C265.869 38.9113 265.319 28.969 259.907 19.3756C254.494 9.7823 246.269 4.17071 241.534 6.84181Z"
    fill="#E8E4D8" stroke="#4CC45D" stroke-miterlimit="10" stroke-linejoin="round" />
  <path d="M263.911 37.159L267.691 35.0268" stroke="#4CC45D" stroke-linejoin="round" />
  <path d="M264.422 34.0139L267.768 32.1263" stroke="#4CC45D" stroke-linejoin="round" />
  <path d="M264.282 31.2352L265.522 30.5359L267.411 29.4698" stroke="#4CC45D"
    stroke-linejoin="round" />
  <path d="M263.276 28.9451L267.056 26.8128" stroke="#4CC45D" stroke-linejoin="round" />
  <path d="M262.921 26.2883L266.7 24.1561" stroke="#4CC45D" stroke-linejoin="round" />
  <path d="M261.698 24.1211L265.477 21.9888" stroke="#4CC45D" stroke-linejoin="round" />
  <path d="M260.908 21.7093L264.688 19.5771" stroke="#4CC45D" stroke-linejoin="round" />
  <path d="M259.686 19.5416L263.465 17.4094" stroke="#4CC45D" stroke-linejoin="round" />
  <path d="M258.463 17.3743L262.242 15.2421" stroke="#4CC45D" stroke-linejoin="round" />
  <path d="M256.806 15.4516L260.586 13.3194" stroke="#4CC45D" stroke-linejoin="round" />
  <path d="M255.583 13.2843L258.929 11.3967" stroke="#4CC45D" stroke-linejoin="round" />
  <path d="M253.927 11.3616L256.84 9.71848" stroke="#4CC45D" stroke-linejoin="round" />
  <path d="M252.271 9.43842L255.184 7.79532" stroke="#4CC45D" stroke-linejoin="round" />
  <path d="M246.791 6.81551L250.259 4.85896" stroke="#4CC45D" stroke-linejoin="round" />
  <path d="M249.748 8.00471L253.093 6.11705" stroke="#4CC45D" stroke-linejoin="round" />
  <path
    d="M220.566 24.1335C221.599 13.1672 218.049 3.86392 212.638 3.35411L208.43 2.95781L204.69 42.6704L208.897 43.0667C214.309 43.5765 219.533 35.0998 220.566 24.1335Z"
    fill="#E8E4D8" stroke="#4CC45D" stroke-miterlimit="10" stroke-linejoin="round" />
  <path
    d="M208.814 2.99429C203.402 2.48449 198.178 10.9612 197.145 21.9275C196.112 32.8938 199.661 42.1971 205.073 42.7069C210.485 43.2167 215.71 34.74 216.743 23.7737C217.776 12.8073 214.226 3.5041 208.814 2.99429Z"
    fill="#E8E4D8" stroke="#4CC45D" stroke-miterlimit="10" stroke-linejoin="round" />
  <path d="M209.878 40.6596L214.199 41.0666" stroke="#4CC45D" stroke-linejoin="round" />
  <path d="M212.093 38.3685L215.918 38.7288" stroke="#4CC45D" stroke-linejoin="round" />
  <path d="M213.565 36.0076L214.982 36.1411L217.142 36.3445" stroke="#4CC45D"
    stroke-linejoin="round" />
  <path d="M214.047 33.5537L218.367 33.9606" stroke="#4CC45D" stroke-linejoin="round" />
  <path d="M215.271 31.1689L219.592 31.5759" stroke="#4CC45D" stroke-linejoin="round" />
  <path d="M215.504 28.6915L219.825 29.0985" stroke="#4CC45D" stroke-linejoin="round" />
  <path d="M216.233 26.2607L220.553 26.6676" stroke="#4CC45D" stroke-linejoin="round" />
  <path d="M216.467 23.7829L220.787 24.1898" stroke="#4CC45D" stroke-linejoin="round" />
  <path d="M216.7 21.3055L221.021 21.7124" stroke="#4CC45D" stroke-linejoin="round" />
  <path d="M216.438 18.7812L220.758 19.1881" stroke="#4CC45D" stroke-linejoin="round" />
  <path d="M216.671 16.3034L220.496 16.6637" stroke="#4CC45D" stroke-linejoin="round" />
  <path d="M216.409 13.7791L219.739 14.0927" stroke="#4CC45D" stroke-linejoin="round" />
  <path d="M216.147 11.2552L219.477 11.5688" stroke="#4CC45D" stroke-linejoin="round" />
  <path d="M213.145 5.97275L217.109 6.34617" stroke="#4CC45D" stroke-linejoin="round" />
  <path d="M214.894 8.63701L218.719 8.99728" stroke="#4CC45D" stroke-linejoin="round" />
  <path
    d="M170.554 31.2744C178.431 23.575 181.736 14.1821 177.937 10.2948L174.983 7.27292L146.458 35.1549L149.412 38.1767C153.211 42.0641 162.677 38.9738 170.554 31.2744Z"
    fill="#E8E4D8" stroke="#4CC45D" stroke-miterlimit="10" stroke-linejoin="round" />
  <path
    d="M175.252 7.54903C171.452 3.66169 161.987 6.75195 154.11 14.4513C146.233 22.1507 142.927 31.5436 146.727 35.431C150.527 39.3183 159.992 36.228 167.869 28.5287C175.746 20.8293 179.052 11.4364 175.252 7.54903Z"
    fill="#E8E4D8" stroke="#4CC45D" stroke-miterlimit="10" stroke-linejoin="round" />
  <path d="M151.716 36.9746L154.749 40.0777" stroke="#4CC45D" stroke-linejoin="round" />
  <path d="M154.887 36.6589L157.572 39.406" stroke="#4CC45D" stroke-linejoin="round" />
  <path d="M157.537 35.8092L158.531 36.8269L160.048 38.3784" stroke="#4CC45D"
    stroke-linejoin="round" />
  <path d="M159.49 34.2479L162.523 37.351" stroke="#4CC45D" stroke-linejoin="round" />
  <path d="M161.966 33.2201L164.999 36.3232" stroke="#4CC45D" stroke-linejoin="round" />
  <path d="M163.745 31.481L166.778 34.5841" stroke="#4CC45D" stroke-linejoin="round" />
  <path d="M165.873 30.097L168.906 33.2001" stroke="#4CC45D" stroke-linejoin="round" />
  <path d="M167.653 28.3579L170.686 31.461" stroke="#4CC45D" stroke-linejoin="round" />
  <path d="M169.433 26.6181L172.466 29.7212" stroke="#4CC45D" stroke-linejoin="round" />
  <path d="M170.864 24.5224L173.897 27.6255" stroke="#4CC45D" stroke-linejoin="round" />
  <path d="M172.644 22.7829L175.329 25.5301" stroke="#4CC45D" stroke-linejoin="round" />
  <path d="M174.076 20.6876L176.413 23.0788" stroke="#4CC45D" stroke-linejoin="round" />
  <path d="M175.507 18.5923L177.845 20.9835" stroke="#4CC45D" stroke-linejoin="round" />
  <path d="M176.631 12.6217L179.414 15.4691" stroke="#4CC45D" stroke-linejoin="round" />
  <path d="M176.243 15.7849L178.928 18.5321" stroke="#4CC45D" stroke-linejoin="round" />
  <path
    d="M121.038 18.4906C116.452 8.47589 108.727 2.19211 103.785 4.45541L99.943 6.21482L116.551 42.4813L120.393 40.7219C125.335 38.4586 125.624 28.5053 121.038 18.4906Z"
    fill="#E8E4D8" stroke="#4CC45D" stroke-miterlimit="10" stroke-linejoin="round" />
  <path
    d="M100.293 6.05453C95.3509 8.31783 95.0622 18.2711 99.6484 28.2859C104.235 38.3006 111.959 44.5844 116.901 42.3211C121.844 40.0578 122.132 30.1045 117.546 20.0897C112.96 10.075 105.236 3.79123 100.293 6.05453Z"
    fill="#E8E4D8" stroke="#4CC45D" stroke-miterlimit="10" stroke-linejoin="round" />
  <path d="M120.039 38.1467L123.985 36.34" stroke="#4CC45D" stroke-linejoin="round" />
  <path d="M120.813 35.0547L124.306 33.4553" stroke="#4CC45D" stroke-linejoin="round" />
  <path d="M120.908 32.2744L122.202 31.6819L124.175 30.7785" stroke="#4CC45D"
    stroke-linejoin="round" />
  <path d="M120.099 29.9079L124.044 28.1012" stroke="#4CC45D" stroke-linejoin="round" />
  <path d="M119.968 27.2305L123.913 25.4238" stroke="#4CC45D" stroke-linejoin="round" />
  <path d="M118.931 24.9682L122.877 23.1616" stroke="#4CC45D" stroke-linejoin="round" />
  <path d="M118.348 22.498L122.293 20.6913" stroke="#4CC45D" stroke-linejoin="round" />
  <path d="M117.312 20.2353L121.257 18.4286" stroke="#4CC45D" stroke-linejoin="round" />
  <path d="M116.276 17.973L120.221 16.1663" stroke="#4CC45D" stroke-linejoin="round" />
  <path d="M114.787 15.9179L118.732 14.1112" stroke="#4CC45D" stroke-linejoin="round" />
  <path d="M113.75 13.6552L117.243 12.0557" stroke="#4CC45D" stroke-linejoin="round" />
  <path d="M112.262 11.5992L115.302 10.207" stroke="#4CC45D" stroke-linejoin="round" />
  <path d="M110.773 9.54408L113.813 8.15185" stroke="#4CC45D" stroke-linejoin="round" />
  <path d="M105.533 6.46951L109.154 4.81168" stroke="#4CC45D" stroke-linejoin="round" />
  <path d="M108.379 7.90363L111.872 6.30416" stroke="#4CC45D" stroke-linejoin="round" />
  <path
    d="M69.5215 29.9911C75.7826 20.9288 77.2326 11.0774 72.7603 7.98755L69.2837 5.58561L46.6103 38.4033L50.0869 40.8053C54.5593 43.8952 63.2604 39.0535 69.5215 29.9911Z"
    fill="#E8E4D8" stroke="#4CC45D" stroke-miterlimit="10" stroke-linejoin="round" />
  <path
    d="M69.6011 5.80477C65.1288 2.71489 56.4276 7.55654 50.1665 16.6189C43.9055 25.6813 42.4554 35.5326 46.9278 38.6225C51.4001 41.7124 60.1012 36.8707 66.3623 27.8084C72.6234 18.746 74.0734 8.89465 69.6011 5.80477Z"
    fill="#E8E4D8" stroke="#4CC45D" stroke-miterlimit="10" stroke-linejoin="round" />
  <path d="M52.1191 39.1841L55.6892 41.6506" stroke="#4CC45D" stroke-linejoin="round" />
  <path d="M55.1719 38.2683L58.3325 40.4519" stroke="#4CC45D" stroke-linejoin="round" />
  <path d="M57.6104 36.9285L58.7812 37.7373L60.5662 38.9706" stroke="#4CC45D"
    stroke-linejoin="round" />
  <path d="M59.2295 35.022L62.7996 37.4885" stroke="#4CC45D" stroke-linejoin="round" />
  <path d="M61.4634 33.541L65.0335 36.0075" stroke="#4CC45D" stroke-linejoin="round" />
  <path d="M62.8777 31.4934L66.4478 33.9599" stroke="#4CC45D" stroke-linejoin="round" />
  <path d="M64.7019 29.7285L68.272 32.195" stroke="#4CC45D" stroke-linejoin="round" />
  <path d="M66.1165 27.6813L69.6865 30.1478" stroke="#4CC45D" stroke-linejoin="round" />
  <path d="M67.531 25.6337L71.1011 28.1002" stroke="#4CC45D" stroke-linejoin="round" />
  <path d="M68.5359 23.3034L72.106 25.7699" stroke="#4CC45D" stroke-linejoin="round" />
  <path d="M69.9504 21.2558L73.111 23.4394" stroke="#4CC45D" stroke-linejoin="round" />
  <path d="M70.9556 18.9255L73.7067 20.8262" stroke="#4CC45D" stroke-linejoin="round" />
  <path d="M71.9607 16.5952L74.7118 18.4959" stroke="#4CC45D" stroke-linejoin="round" />
  <path d="M71.9233 10.5196L75.1993 12.7829" stroke="#4CC45D" stroke-linejoin="round" />
  <path d="M72.1467 13.6988L75.3073 15.8824" stroke="#4CC45D" stroke-linejoin="round" />
  <path
    d="M26.0033 21.8327C24.7318 10.8915 19.3239 2.5305 13.9243 3.15796L9.72691 3.64573L14.3312 43.2675L18.5286 42.7797C23.9282 42.1523 27.2747 32.774 26.0033 21.8327Z"
    fill="#E8E4D8" stroke="#4CC45D" stroke-miterlimit="10" stroke-linejoin="round" />
  <path
    d="M10.1099 3.60127C4.7103 4.22873 1.36377 13.607 2.63521 24.5483C3.90666 35.4895 9.31461 43.8505 14.7142 43.2231C20.1138 42.5956 23.4603 33.2173 22.1888 22.276C20.9174 11.3348 15.5095 2.97381 10.1099 3.60127Z"
    fill="#E8E4D8" stroke="#4CC45D" stroke-miterlimit="10" stroke-linejoin="round" />
  <path d="M18.9871 40.2214L23.2973 39.7205" stroke="#4CC45D" stroke-linejoin="round" />
  <path d="M20.6775 37.5192L24.4934 37.0757" stroke="#4CC45D" stroke-linejoin="round" />
  <path d="M21.6262 34.9038L23.0398 34.7395L25.1949 34.4891" stroke="#4CC45D"
    stroke-linejoin="round" />
  <path d="M21.5859 32.403L25.8962 31.9021" stroke="#4CC45D" stroke-linejoin="round" />
  <path d="M22.2881 29.8162L26.5983 29.3154" stroke="#4CC45D" stroke-linejoin="round" />
  <path d="M22.0007 27.3444L26.311 26.8435" stroke="#4CC45D" stroke-linejoin="round" />
  <path d="M22.2075 24.8149L26.5178 24.314" stroke="#4CC45D" stroke-linejoin="round" />
  <path d="M21.9204 22.3427L26.2307 21.8418" stroke="#4CC45D" stroke-linejoin="round" />
  <path d="M21.6328 19.8713L25.9431 19.3704" stroke="#4CC45D" stroke-linejoin="round" />
  <path d="M20.8516 17.4563L25.1618 16.9554" stroke="#4CC45D" stroke-linejoin="round" />
  <path d="M20.5642 14.9849L24.3801 14.5415" stroke="#4CC45D" stroke-linejoin="round" />
  <path d="M19.7825 12.5703L23.1039 12.1843" stroke="#4CC45D" stroke-linejoin="round" />
  <path d="M19.001 10.1553L22.3224 9.76936" stroke="#4CC45D" stroke-linejoin="round" />
  <path d="M14.9658 5.61404L18.9209 5.15444" stroke="#4CC45D" stroke-linejoin="round" />
  <path d="M17.2305 7.85567L21.0463 7.41224" stroke="#4CC45D" stroke-linejoin="round" />
  <path
    d="M453.188 29.9911C459.45 20.9288 460.9 11.0774 456.427 7.98755L452.951 5.58561L430.277 38.4033L433.754 40.8053C438.226 43.8952 446.927 39.0535 453.188 29.9911Z"
    fill="#E8E4D8" stroke="#4CC45D" stroke-miterlimit="10" stroke-linejoin="round" />
  <path
    d="M453.268 5.80477C448.796 2.71489 440.095 7.55654 433.834 16.6189C427.572 25.6813 426.122 35.5326 430.595 38.6225C435.067 41.7124 443.768 36.8707 450.029 27.8084C456.29 18.746 457.74 8.89465 453.268 5.80477Z"
    fill="#E8E4D8" stroke="#4CC45D" stroke-miterlimit="10" stroke-linejoin="round" />
  <path d="M435.786 39.1841L439.356 41.6506" stroke="#4CC45D" stroke-linejoin="round" />
  <path d="M438.839 38.2683L441.999 40.4519" stroke="#4CC45D" stroke-linejoin="round" />
  <path d="M441.277 36.9285L442.448 37.7373L444.233 38.9706" stroke="#4CC45D"
    stroke-linejoin="round" />
  <path d="M442.896 35.022L446.467 37.4885" stroke="#4CC45D" stroke-linejoin="round" />
  <path d="M445.13 33.541L448.7 36.0075" stroke="#4CC45D" stroke-linejoin="round" />
  <path d="M446.545 31.4934L450.115 33.9599" stroke="#4CC45D" stroke-linejoin="round" />
  <path d="M448.369 29.7285L451.939 32.195" stroke="#4CC45D" stroke-linejoin="round" />
  <path d="M449.783 27.6813L453.354 30.1478" stroke="#4CC45D" stroke-linejoin="round" />
  <path d="M451.198 25.6337L454.768 28.1002" stroke="#4CC45D" stroke-linejoin="round" />
  <path d="M452.203 23.3034L455.773 25.7699" stroke="#4CC45D" stroke-linejoin="round" />
  <path d="M453.617 21.2558L456.778 23.4394" stroke="#4CC45D" stroke-linejoin="round" />
  <path d="M454.623 18.9255L457.374 20.8262" stroke="#4CC45D" stroke-linejoin="round" />
  <path d="M455.628 16.5952L458.379 18.4959" stroke="#4CC45D" stroke-linejoin="round" />
  <path d="M455.59 10.5196L458.866 12.7829" stroke="#4CC45D" stroke-linejoin="round" />
  <path d="M455.814 13.6988L458.974 15.8824" stroke="#4CC45D" stroke-linejoin="round" />
  <path
    d="M409.67 21.8327C408.399 10.8915 402.991 2.5305 397.591 3.15796L393.394 3.64573L397.998 43.2675L402.196 42.7797C407.595 42.1523 410.942 32.774 409.67 21.8327Z"
    fill="#E8E4D8" stroke="#4CC45D" stroke-miterlimit="10" stroke-linejoin="round" />
  <path
    d="M393.777 3.60127C388.377 4.22873 385.031 13.607 386.302 24.5483C387.574 35.4895 392.982 43.8505 398.381 43.2231C403.781 42.5956 407.127 33.2173 405.856 22.276C404.584 11.3348 399.176 2.97381 393.777 3.60127Z"
    fill="#E8E4D8" stroke="#4CC45D" stroke-miterlimit="10" stroke-linejoin="round" />
  <path d="M402.654 40.2214L406.964 39.7205" stroke="#4CC45D" stroke-linejoin="round" />
  <path d="M404.344 37.5192L408.16 37.0757" stroke="#4CC45D" stroke-linejoin="round" />
  <path d="M405.293 34.9038L406.707 34.7395L408.862 34.4891" stroke="#4CC45D"
    stroke-linejoin="round" />
  <path d="M405.253 32.403L409.563 31.9021" stroke="#4CC45D" stroke-linejoin="round" />
  <path d="M405.955 29.8162L410.265 29.3154" stroke="#4CC45D" stroke-linejoin="round" />
  <path d="M405.668 27.3444L409.978 26.8435" stroke="#4CC45D" stroke-linejoin="round" />
  <path d="M405.875 24.8149L410.185 24.314" stroke="#4CC45D" stroke-linejoin="round" />
  <path d="M405.587 22.3427L409.898 21.8418" stroke="#4CC45D" stroke-linejoin="round" />
  <path d="M405.3 19.8713L409.61 19.3704" stroke="#4CC45D" stroke-linejoin="round" />
  <path d="M404.519 17.4563L408.829 16.9554" stroke="#4CC45D" stroke-linejoin="round" />
  <path d="M404.231 14.9849L408.047 14.5415" stroke="#4CC45D" stroke-linejoin="round" />
  <path d="M403.449 12.5703L406.771 12.1843" stroke="#4CC45D" stroke-linejoin="round" />
  <path d="M402.668 10.1553L405.989 9.76936" stroke="#4CC45D" stroke-linejoin="round" />
  <path d="M398.633 5.61404L402.588 5.15444" stroke="#4CC45D" stroke-linejoin="round" />
  <path d="M400.897 7.85567L404.713 7.41224" stroke="#4CC45D" stroke-linejoin="round" />
</svg>
    