<svg width="128" height="37" viewBox="0 0 128 37" fill="none" xmlns="http://www.w3.org/2000/svg">
  <g clip-path="url(#clip0_3021_24746)">
    <path
      d="M56.5479 16.2489C56.5479 8.41816 59.032 3.98077 65.4385 3.98077C67.5959 3.98077 69.4917 4.56808 70.6684 5.22063L70.0146 9.59277C68.6418 9.07072 67.2036 8.67919 65.7 8.67919C63.5427 8.67919 62.3007 9.46226 62.3007 14.2259V18.0108C62.3007 23.166 63.6081 24.1448 65.7 24.1448C67.269 24.1448 68.5111 23.6227 69.9493 22.9049L70.9952 27.0813C69.7532 27.7991 67.8573 28.6474 65.3078 28.6474C58.9666 28.6474 56.5479 23.949 56.5479 16.2489Z"
      fill="white" />
    <path
      d="M102.243 0L103.289 4.17637V19.4462C102.635 19.7072 101.982 19.9683 100.805 19.9683C99.2359 19.9683 98.5822 19.1199 98.5822 16.9012V0H92.0449L93.0909 4.17637V15.6614C93.0909 22.2522 96.0327 24.2751 99.3667 24.2751C100.936 24.2751 101.916 23.9489 102.308 23.7531L103.747 21.4039L104.858 23.8836H108.65V0H102.243Z"
      fill="white" />
    <path
      d="M27.8485 4.37213L28.8945 8.5485V23.8183C28.2408 24.0794 27.5871 24.3404 26.4103 24.3404C24.8414 24.3404 24.1877 23.4921 24.1877 21.2734V4.37213H17.6504L18.6964 8.5485V20.0335C18.6964 26.6243 21.6381 28.6473 24.9721 28.6473C26.5411 28.6473 27.5217 28.321 27.9139 28.1252L29.3521 25.776L30.4635 28.2557H34.2551V4.37213H27.8485Z"
      fill="white" />
    <path
      d="M44.846 28.1903L43.8 24.0139V8.74408C44.4538 8.48306 45.1075 8.22204 46.2842 8.22204C47.8531 8.22204 48.5069 9.07036 48.5069 11.2891V28.1903H55.0441L53.9982 24.0139V12.5289C53.9982 5.93809 51.0564 3.91516 47.7224 3.91516C46.1534 3.91516 45.1729 4.24144 44.7806 4.43721L43.3424 6.78641L42.2311 4.3067H38.4395V28.125H44.846V28.1903Z"
      fill="white" />
    <path
      d="M119.894 0H111.657L112.703 4.17637V19.642L111.657 23.8183H118.195V16.836H119.96C125.059 16.836 128 14.291 128 8.41799C128 2.54497 125.059 0 119.894 0ZM122.313 9.52734C122.313 12.1376 121.659 12.8554 119.763 12.8554H118.129V4.37213H119.698C121.594 4.37213 122.313 5.02469 122.313 7.56966V9.52734Z"
      fill="white" />
    <path
      d="M8.23698 4.37213H0L1.04597 8.5485V24.0141L0 28.1905H6.53728V21.2734H8.30235C13.4014 21.2734 16.3432 18.7284 16.3432 12.8554C16.3432 6.9171 13.4014 4.37213 8.23698 4.37213ZM10.6558 13.9647C10.6558 16.575 10.002 17.2928 8.10623 17.2928H6.47191V8.74426H8.04086C9.93667 8.74426 10.6558 9.39682 10.6558 11.9418V13.9647Z"
      fill="white" />
    <path
      d="M89.169 8.5485L90.2149 4.37213H82.6971L83.743 8.5485V13.8995H78.9054V8.5485L79.9514 4.37213H72.3682L73.4141 8.5485V24.0141L72.3682 28.1905H79.9514L78.9054 24.0141V18.2716H83.743V24.0141L82.6971 28.1905H90.2149L89.169 24.0141V8.5485Z"
      fill="white" />
    <path d="M90.2145 32.5628H0V36.9349H90.2145V32.5628Z" fill="white" />
    <path d="M127.281 28.1907H90.2148V32.5628H127.281V28.1907Z" fill="white" />
  </g>
  <defs>
    <clipPath id="clip0_3021_24746">
      <rect width="128" height="37" fill="white" />
    </clipPath>
  </defs>
</svg>