<svg width="300" height="76" viewBox="0 0 300 76" fill="none" xmlns="http://www.w3.org/2000/svg">
<g clip-path="url(#clip0_2659_17631)">
<rect width="299" height="75" transform="translate(0.5 0.644287)" fill="#E8E4D8"/>
<path d="M0.793375 52.6443V51.0003L3.37338 48.7923C4.30938 47.9883 4.63338 47.5203 4.63338 46.8123V46.6443C4.63338 46.0083 4.06938 45.6843 3.52938 45.6843C2.73738 45.6843 2.35338 46.2243 2.18538 46.8603L0.613375 46.2603C0.985375 45.0963 1.95738 44.1243 3.69738 44.1243C5.50938 44.1243 6.55338 45.1923 6.55338 46.6443C6.55338 48.0843 5.52138 48.9603 4.32138 49.9083L2.76138 51.1323H6.72137V52.6443H0.793375ZM10.8447 52.7883C9.22469 52.7883 8.36069 52.0323 7.85669 51.1803L9.16469 50.1483C9.52469 50.7963 9.99269 51.3243 10.8567 51.3243C11.7207 51.3243 12.1647 50.7843 12.1647 49.9683V49.8723C12.1647 49.1043 11.6847 48.6243 10.9047 48.6243C10.2567 48.6243 9.82469 48.9603 9.60869 49.2123L8.13269 49.0083L8.44469 44.2683H13.5687V45.8403H9.76469L9.58469 48.4923H9.68069C10.0167 47.7003 10.4127 47.1603 11.4807 47.1603C12.9087 47.1603 14.0607 48.1443 14.0607 49.8243C14.0607 51.5283 12.9087 52.7883 10.8447 52.7883ZM18.04 52.7883C16.42 52.7883 15.556 52.0323 15.052 51.1803L16.36 50.1483C16.72 50.7963 17.188 51.3243 18.052 51.3243C18.916 51.3243 19.36 50.7843 19.36 49.9683V49.8723C19.36 49.1043 18.88 48.6243 18.1 48.6243C17.452 48.6243 17.02 48.9603 16.804 49.2123L15.328 49.0083L15.64 44.2683H20.764V45.8403H16.96L16.78 48.4923H16.876C17.212 47.7003 17.608 47.1603 18.676 47.1603C20.104 47.1603 21.256 48.1443 21.256 49.8243C21.256 51.5283 20.104 52.7883 18.04 52.7883ZM25.3433 52.7883C23.3513 52.7883 22.1993 51.4803 22.1993 49.4643C22.1993 47.1123 23.7713 45.2403 25.1993 44.2683H27.6833C25.6433 45.7323 24.4193 46.8723 24.0833 48.4683L24.1913 48.5043C24.4793 47.8683 24.9713 47.2443 26.0393 47.2443C27.4193 47.2443 28.4873 48.2643 28.4873 49.8483C28.4873 51.5643 27.2513 52.7883 25.3433 52.7883ZM25.3433 51.3843C26.1353 51.3843 26.6153 50.9283 26.6153 50.1123V49.8963C26.6153 49.0803 26.1353 48.6243 25.3433 48.6243C24.5513 48.6243 24.0713 49.0803 24.0713 49.8963V50.1123C24.0713 50.9283 24.5513 51.3843 25.3433 51.3843Z" fill="black"/>
<rect x="18" y="69.1443" width="6" height="13" transform="rotate(90 18 69.1443)" fill="black"/>
<path d="M18 69.1443L18 75.1443L24.8072 73.1021C25.7574 72.8171 25.7574 71.4715 24.8072 71.1865L18 69.1443Z" fill="#E8E4D8"/>
<path fill-rule="evenodd" clip-rule="evenodd" d="M18 69.1443L24.8072 71.1865C25.7574 71.4715 25.7574 72.8171 24.8072 73.1021L18 75.1443L18 69.1443ZM19 70.4883L24.5199 72.1443L19 73.8003L19 70.4883Z" fill="black"/>
<path d="M22 71.1443L22 73.1443L25 72.1443L22 71.1443Z" fill="black"/>
<rect width="6" height="2" transform="matrix(-4.37114e-08 1 1 4.37114e-08 3 69.1443)" fill="#E8E4D8"/>
<rect width="1" height="2" transform="matrix(-4.37114e-08 1 1 4.37114e-08 3 69.1443)" fill="black"/>
<rect width="1" height="2" transform="matrix(-4.37114e-08 1 1 4.37114e-08 3 74.1443)" fill="black"/>
<path d="M3 69.1443L3 75.1443L2 75.1443C0.89543 75.1443 -2.23128e-07 74.2489 -1.74846e-07 73.1443L-8.74228e-08 71.1443C-3.91405e-08 70.0397 0.895431 69.1443 2 69.1443L3 69.1443Z" fill="black"/>
<rect x="6" y="56.1443" width="10.2" height="9" rx="4.5" stroke="black"/>
<rect x="17.2" y="56.1443" width="10.2" height="9" rx="4.5" stroke="black"/>
<rect x="28.4" y="56.1443" width="10.2" height="9" rx="4.5" stroke="black"/>
<rect x="39.6" y="56.1443" width="10.2" height="9" rx="4.5" stroke="black"/>
<rect x="50.8" y="56.1443" width="10.2" height="9" rx="4.5" stroke="black"/>
<rect x="62" y="56.1443" width="10.2" height="9" rx="4.5" fill="#4CC45D"/>
<path d="M54.2934 52.6443H60.2214V51.1323H56.2614L57.8214 49.9083C59.0214 48.9603 60.0534 48.0843 60.0534 46.6443C60.0534 45.1923 59.0094 44.1243 57.1974 44.1243C55.4574 44.1243 54.4854 45.0963 54.1134 46.2603L55.6854 46.8603C55.8534 46.2243 56.2374 45.6843 57.0294 45.6843C57.5694 45.6843 58.1334 46.0083 58.1334 46.6443V46.8123C58.1334 47.5203 57.8094 47.9883 56.8734 48.7923L54.2934 51.0003V52.6443ZM64.3447 52.7883C66.4087 52.7883 67.5607 51.5283 67.5607 49.8243C67.5607 48.1443 66.4087 47.1603 64.9807 47.1603C63.9127 47.1603 63.5167 47.7003 63.1807 48.4923H63.0847L63.2647 45.8403H67.0687V44.2683H61.9447L61.6327 49.0083L63.1087 49.2123C63.3247 48.9603 63.7567 48.6243 64.4047 48.6243C65.1847 48.6243 65.6647 49.1043 65.6647 49.8723V49.9683C65.6647 50.7843 65.2207 51.3243 64.3567 51.3243C63.4927 51.3243 63.0247 50.7963 62.6647 50.1483L61.3567 51.1803C61.8607 52.0323 62.7247 52.7883 64.3447 52.7883ZM71.648 52.7883C73.556 52.7883 74.792 51.5643 74.792 49.8483C74.792 48.2643 73.724 47.2443 72.344 47.2443C71.276 47.2443 70.784 47.8683 70.496 48.5043L70.388 48.4683C70.724 46.8723 71.948 45.7323 73.988 44.2683H71.504C70.076 45.2403 68.504 47.1123 68.504 49.4643C68.504 51.4803 69.656 52.7883 71.648 52.7883ZM71.648 51.3843C70.856 51.3843 70.376 50.9283 70.376 50.1123V49.8963C70.376 49.0803 70.856 48.6243 71.648 48.6243C72.44 48.6243 72.92 49.0803 72.92 49.8963V50.1123C72.92 50.9283 72.44 51.3843 71.648 51.3843ZM76.3233 52.6443H82.1553V51.1923H80.3793V44.2683H77.6193L75.6153 46.9083L76.7673 47.8083L78.4713 45.5763H78.5793V51.1923H76.3233V52.6443Z" fill="black"/>
<rect x="74.5" y="69.1443" width="6" height="13" transform="rotate(90 74.5 69.1443)" fill="black"/>
<path d="M74.5 69.1443L74.5 75.1443L81.3072 73.1021C82.2574 72.8171 82.2574 71.4715 81.3072 71.1865L74.5 69.1443Z" fill="#E8E4D8"/>
<path fill-rule="evenodd" clip-rule="evenodd" d="M74.5 69.1443L81.3072 71.1865C82.2574 71.4715 82.2574 72.8171 81.3072 73.1021L74.5 75.1443L74.5 69.1443ZM75.5 70.4883L81.0199 72.1443L75.5 73.8003L75.5 70.4883Z" fill="black"/>
<path d="M78.5 71.1443L78.5 73.1443L81.5 72.1443L78.5 71.1443Z" fill="black"/>
<rect width="6" height="2" transform="matrix(-4.37114e-08 1 1 4.37114e-08 59.5 69.1443)" fill="#E8E4D8"/>
<rect width="1" height="2" transform="matrix(-4.37114e-08 1 1 4.37114e-08 59.5 69.1443)" fill="black"/>
<rect width="1" height="2" transform="matrix(-4.37114e-08 1 1 4.37114e-08 59.5 74.1443)" fill="black"/>
<path d="M59.5 69.1443L59.5 75.1443L58.5 75.1443C57.3954 75.1443 56.5 74.2489 56.5 73.1443L56.5 71.1443C56.5 70.0397 57.3954 69.1443 58.5 69.1443L59.5 69.1443Z" fill="black"/>
<rect x="62" y="56.1443" width="10.2" height="9" rx="4.5" stroke="black"/>
<rect x="73.2" y="56.1443" width="10.2" height="9" rx="4.5" fill="#4CC45D"/>
<rect x="73.2" y="56.1443" width="10.2" height="9" rx="4.5" stroke="black"/>
<rect x="84.4" y="56.1443" width="10.2" height="9" rx="4.5" fill="#4CC45D"/>
<rect x="84.4" y="56.1443" width="10.2" height="9" rx="4.5" stroke="black"/>
<rect x="95.6" y="56.1443" width="10.2" height="9" rx="4.5" fill="#4CC45D"/>
<rect x="95.6" y="56.1443" width="10.2" height="9" rx="4.5" stroke="black"/>
<rect x="106.8" y="56.1443" width="10.2" height="9" rx="4.5" fill="#4CC45D"/>
<rect x="106.8" y="56.1443" width="10.2" height="9" rx="4.5" stroke="black"/>
<rect x="118" y="56.1443" width="10.2" height="9" rx="4.5" fill="#4CC45D"/>
<rect x="118" y="56.1443" width="10.2" height="9" rx="4.5" stroke="black"/>
<g opacity="0.3">
<rect x="129.2" y="56.1443" width="10.2" height="9" rx="4.5" fill="#4CC45D"/>
<rect x="129.2" y="56.1443" width="10.2" height="9" rx="4.5" stroke="black"/>
</g>
<g opacity="0.3">
<rect x="140.4" y="56.1443" width="10.2" height="9" rx="4.5" fill="#4CC45D"/>
<rect x="140.4" y="56.1443" width="10.2" height="9" rx="4.5" stroke="black"/>
</g>
<g opacity="0.3">
<rect x="151.6" y="56.1443" width="10.2" height="9" rx="4.5" fill="#4CC45D"/>
<rect x="151.6" y="56.1443" width="10.2" height="9" rx="4.5" stroke="black"/>
</g>
<g opacity="0.3">
<rect x="162.8" y="56.1443" width="10.2" height="9" rx="4.5" fill="#4CC45D"/>
<rect x="162.8" y="56.1443" width="10.2" height="9" rx="4.5" stroke="black"/>
</g>
<g opacity="0.3">
<rect x="174" y="56.1443" width="10.2" height="9" rx="4.5" fill="#4CC45D"/>
<rect x="174" y="56.1443" width="10.2" height="9" rx="4.5" stroke="black"/>
</g>
<g opacity="0.3">
<rect x="185.2" y="56.1443" width="10.2" height="9" rx="4.5" fill="#4CC45D"/>
<rect x="185.2" y="56.1443" width="10.2" height="9" rx="4.5" stroke="black"/>
</g>
<g opacity="0.3">
<rect x="196.4" y="56.1443" width="10.2" height="9" rx="4.5" fill="#4CC45D"/>
<rect x="196.4" y="56.1443" width="10.2" height="9" rx="4.5" stroke="black"/>
</g>
<g opacity="0.3">
<rect x="207.6" y="56.1443" width="10.2" height="9" rx="4.5" fill="#4CC45D"/>
<rect x="207.6" y="56.1443" width="10.2" height="9" rx="4.5" stroke="black"/>
</g>
<g opacity="0.3">
<rect x="218.8" y="56.1443" width="10.2" height="9" rx="4.5" fill="#4CC45D"/>
<rect x="218.8" y="56.1443" width="10.2" height="9" rx="4.5" stroke="black"/>
</g>
<g opacity="0.3">
<rect x="230" y="56.1443" width="10.2" height="9" rx="4.5" fill="#4CC45D"/>
<rect x="230" y="56.1443" width="10.2" height="9" rx="4.5" stroke="black"/>
</g>
<g opacity="0.3">
<rect x="241.2" y="56.1443" width="10.2" height="9" rx="4.5" fill="#4CC45D"/>
<rect x="241.2" y="56.1443" width="10.2" height="9" rx="4.5" stroke="black"/>
</g>
<g opacity="0.3">
<rect x="252.4" y="56.1443" width="10.2" height="9" rx="4.5" fill="#4CC45D"/>
<rect x="252.4" y="56.1443" width="10.2" height="9" rx="4.5" stroke="black"/>
</g>
<g opacity="0.3">
<rect x="263.6" y="56.1443" width="10.2" height="9" rx="4.5" fill="#4CC45D"/>
<rect x="263.6" y="56.1443" width="10.2" height="9" rx="4.5" stroke="black"/>
</g>
<g opacity="0.3">
<rect x="274.8" y="56.1443" width="10.2" height="9" rx="4.5" fill="#4CC45D"/>
<path d="M267.093 52.6443H273.021V51.1323H269.061L270.621 49.9083C271.821 48.9603 272.853 48.0843 272.853 46.6443C272.853 45.1923 271.809 44.1243 269.997 44.1243C268.257 44.1243 267.285 45.0963 266.913 46.2603L268.485 46.8603C268.653 46.2243 269.037 45.6843 269.829 45.6843C270.369 45.6843 270.933 46.0083 270.933 46.6443V46.8123C270.933 47.5203 270.609 47.9883 269.673 48.7923L267.093 51.0003V52.6443ZM277.145 52.7883C279.209 52.7883 280.361 51.5283 280.361 49.8243C280.361 48.1443 279.209 47.1603 277.781 47.1603C276.713 47.1603 276.317 47.7003 275.981 48.4923H275.885L276.065 45.8403H279.869V44.2683H274.745L274.433 49.0083L275.909 49.2123C276.125 48.9603 276.557 48.6243 277.205 48.6243C277.985 48.6243 278.465 49.1043 278.465 49.8723V49.9683C278.465 50.7843 278.021 51.3243 277.157 51.3243C276.293 51.3243 275.825 50.7963 275.465 50.1483L274.157 51.1803C274.661 52.0323 275.525 52.7883 277.145 52.7883ZM284.4 52.7883C286.38 52.7883 287.52 51.7563 287.52 50.3523C287.52 49.2843 286.872 48.6003 285.876 48.3243V48.2283C286.692 47.9283 287.268 47.3043 287.268 46.3323C287.268 45.0483 286.248 44.1243 284.4 44.1243C282.552 44.1243 281.532 45.0483 281.532 46.3323C281.532 47.3043 282.108 47.9283 282.924 48.2283V48.3243C281.928 48.6003 281.28 49.2843 281.28 50.3523C281.28 51.7563 282.42 52.7883 284.4 52.7883ZM284.4 47.7123C283.644 47.7123 283.224 47.3283 283.224 46.7043V46.5123C283.224 45.8883 283.644 45.5043 284.4 45.5043C285.156 45.5043 285.576 45.8883 285.576 46.5123V46.7043C285.576 47.3283 285.156 47.7123 284.4 47.7123ZM284.4 51.4083C283.608 51.4083 283.164 51.0003 283.164 50.3403V50.1003C283.164 49.4403 283.608 49.0323 284.4 49.0323C285.192 49.0323 285.636 49.4403 285.636 50.1003V50.3403C285.636 51.0003 285.192 51.4083 284.4 51.4083ZM291.595 52.7883C293.791 52.7883 294.823 51.1923 294.823 48.4563C294.823 45.7203 293.791 44.1243 291.595 44.1243C289.399 44.1243 288.367 45.7203 288.367 48.4563C288.367 51.1923 289.399 52.7883 291.595 52.7883ZM291.595 51.2643C290.635 51.2643 290.323 50.5203 290.323 49.2483V47.6643C290.323 46.3923 290.635 45.6483 291.595 45.6483C292.555 45.6483 292.867 46.3923 292.867 47.6643V49.2483C292.867 50.5203 292.555 51.2643 291.595 51.2643Z" fill="black"/>
<rect x="274.8" y="56.1443" width="10.2" height="9" rx="4.5" stroke="black"/>
</g>
<rect width="62" height="41" transform="translate(92 1.18286)" fill="black"/>
<path d="M106.401 26.3509C105.412 26.3509 104.632 26.0849 104.063 25.5529C103.494 25.0115 103.209 24.2742 103.209 23.3409V18.5389H104.329V23.2289C104.329 23.9289 104.511 24.4655 104.875 24.8389C105.248 25.2029 105.757 25.3849 106.401 25.3849C107.045 25.3849 107.549 25.2029 107.913 24.8389C108.286 24.4655 108.473 23.9289 108.473 23.2289V16.0749H109.593V23.3409C109.593 24.2742 109.308 25.0115 108.739 25.5529C108.17 26.0849 107.39 26.3509 106.401 26.3509ZM104.498 17.0409C104.078 17.0409 103.77 16.9382 103.574 16.7329C103.378 16.5275 103.28 16.2569 103.28 15.9209V15.0529H104.4V16.0749H107.564V17.0409H104.498ZM112.704 22.9349H111.85V21.9689H112.998C113.138 21.9689 113.268 22.0015 113.39 22.0669C113.52 22.1229 113.609 22.2255 113.656 22.3749L114.664 25.2449H115.196C115.653 25.2449 116.022 25.0349 116.302 24.6149C116.582 24.1949 116.722 23.6115 116.722 22.8649V21.7169C116.722 20.9609 116.516 20.3775 116.106 19.9669C115.704 19.5469 115.154 19.3369 114.454 19.3369C113.791 19.3369 113.245 19.4722 112.816 19.7429C112.386 20.0042 112.05 20.3449 111.808 20.7649L111.08 20.1209C111.201 19.8875 111.36 19.6635 111.556 19.4489C111.761 19.2342 112.004 19.0475 112.284 18.8889C112.573 18.7302 112.9 18.6042 113.264 18.5109C113.637 18.4175 114.048 18.3709 114.496 18.3709C115.588 18.3709 116.428 18.7162 117.016 19.4069C117.613 20.0975 117.912 21.0589 117.912 22.2909C117.912 22.8975 117.842 23.4435 117.702 23.9289C117.571 24.4049 117.384 24.8109 117.142 25.1469C116.899 25.4829 116.6 25.7395 116.246 25.9169C115.891 26.0942 115.499 26.1829 115.07 26.1829H113.838L112.704 22.9349ZM120.743 22.9349H119.889V21.9689H121.037C121.177 21.9689 121.308 22.0015 121.429 22.0669C121.56 22.1229 121.648 22.2255 121.695 22.3749L122.703 25.2449H123.235C123.692 25.2449 124.061 25.0349 124.341 24.6149C124.621 24.1949 124.761 23.6115 124.761 22.8649V21.7169C124.761 20.9609 124.556 20.3775 124.145 19.9669C123.744 19.5469 123.193 19.3369 122.493 19.3369C121.83 19.3369 121.284 19.4722 120.855 19.7429C120.426 20.0042 120.09 20.3449 119.847 20.7649L119.119 20.1209C119.24 19.8875 119.399 19.6635 119.595 19.4489C119.8 19.2342 120.043 19.0475 120.323 18.8889C120.612 18.7302 120.939 18.6042 121.303 18.5109C121.676 18.4175 122.087 18.3709 122.535 18.3709C123.627 18.3709 124.467 18.7162 125.055 19.4069C125.652 20.0975 125.951 21.0589 125.951 22.2909C125.951 22.8975 125.881 23.4435 125.741 23.9289C125.61 24.4049 125.424 24.8109 125.181 25.1469C124.938 25.4829 124.64 25.7395 124.285 25.9169C123.93 26.0942 123.538 26.1829 123.109 26.1829H121.877L120.743 22.9349ZM124.458 28.6609H123.534V27.7649H124.724C125.004 27.7649 125.21 27.8395 125.34 27.9889C125.462 28.1382 125.522 28.3389 125.522 28.5909V30.9989H124.458V28.6609ZM131.106 26.3509C130.117 26.3509 129.337 26.0849 128.768 25.5529C128.199 25.0115 127.914 24.2742 127.914 23.3409V18.5389H129.034V23.2289C129.034 23.9289 129.216 24.4655 129.58 24.8389C129.953 25.2029 130.462 25.3849 131.106 25.3849C131.75 25.3849 132.254 25.2029 132.618 24.8389C132.991 24.4655 133.178 23.9289 133.178 23.2289V18.5389H134.298V23.3409C134.298 24.2742 134.013 25.0115 133.444 25.5529C132.875 26.0849 132.095 26.3509 131.106 26.3509ZM133.124 17.0409C132.704 17.0409 132.396 16.9382 132.2 16.7329C132.004 16.5275 131.906 16.2569 131.906 15.9209V15.0529H133.026V16.0749H136.596V17.0409H133.124ZM139.131 26.3509C138.319 26.3509 137.684 26.0942 137.227 25.5809C136.77 25.0675 136.541 24.3442 136.541 23.4109V18.5389H137.661V23.2709C137.661 24.6895 138.268 25.3989 139.481 25.3989C139.714 25.3989 139.948 25.3662 140.181 25.3009C140.414 25.2355 140.62 25.1375 140.797 25.0069C140.974 24.8762 141.119 24.7129 141.231 24.5169C141.343 24.3209 141.399 24.0922 141.399 23.8309V18.5389H142.519V25.2029H143.415V26.1829H142.589C142.216 26.1829 141.94 26.0709 141.763 25.8469C141.595 25.6229 141.497 25.3382 141.469 24.9929H141.413C141.264 25.4222 140.984 25.7582 140.573 26.0009C140.172 26.2342 139.691 26.3509 139.131 26.3509Z" fill="white"/>
<path d="M123 56.1829L130 42.1829L116 42.1829L123 56.1829Z" fill="black"/>
<g opacity="0.3">
<path d="M299 32.6829L288 36.1829L288 29.1829L299 32.6829Z" fill="black"/>
<rect x="287" y="28.1829" width="1" height="14" fill="black"/>
</g>
</g>
<defs>
<clipPath id="clip0_2659_17631">
<rect width="299" height="75" fill="white" transform="translate(0.5 0.644287)"/>
</clipPath>
</defs>
</svg>
