<svg xmlns="http://www.w3.org/2000/svg" width="924" height="100%" fill="none" viewBox="0 0 924 186">
  <path fill="#000" d="M25 77.5v6H12v-6z" />
  <path fill="#E8E4D8" d="M25 77.5v6l6.8072-2.0422c.9502-.285.9502-1.6306 0-1.9156L25 77.5Z" />
  <path fill="#000" fill-rule="evenodd"
    d="m25 77.5 6.8072 2.0422c.9502.285.9502 1.6306 0 1.9156L25 83.5v-6Zm1 1.344 5.5199 1.656L26 82.156v-3.312Z"
    clip-rule="evenodd" />
  <path fill="#000" d="M29 79.5v2l3-1-3-1Z" />
  <path fill="#E8E4D8" d="M10 77.5v6h2v-6z" />
  <path fill="#000"
    d="M10 77.5v1h2v-1zM10 82.5v1h2v-1zM10 77.5v6H9c-1.1046 0-2-.8954-2-2v-2c0-1.1046.8954-2 2-2h1Z" />
  <rect width="35.96" height="14" x=".5" y="59.5" stroke="#000" rx="7" />
  <rect width="35.96" height="14" x="37.46" y="59.5" stroke="#000" rx="7" />
  <rect width="35.96" height="14" x="74.42" y="59.5" stroke="#000" rx="7" />
  <rect width="35.96" height="14" x="111.38" y="59.5" stroke="#000" rx="7" />
  <rect width="35.96" height="14" x="148.34" y="59.5" stroke="#000" rx="7" />
  <rect width="35.96" height="14" x="185.3" y="59.5" fill="#4CC45D" rx="7" />
  <path fill="#000"
    d="M193.725 54h-6.916v-1.918l3.01-2.576c.271-.2333.499-.4433.686-.63.187-.196.336-.3827.448-.56.121-.1867.205-.3687.252-.546.056-.1773.084-.3687.084-.574V47c0-.1867-.037-.35-.112-.49a1.0793 1.0793 0 0 0-.294-.35c-.121-.0933-.261-.1633-.42-.21a1.5356 1.5356 0 0 0-.462-.07c-.233 0-.439.0373-.616.112a1.4807 1.4807 0 0 0-.448.308c-.121.1213-.224.266-.308.434-.084.1587-.149.3313-.196.518l-1.834-.7c.112-.336.266-.6533.462-.952.196-.308.439-.574.728-.798.299-.2333.649-.4153 1.05-.546.401-.1307.854-.196 1.358-.196.532 0 1.003.0747 1.414.224.411.1493.756.3547 1.036.616.289.2613.509.574.658.938.149.3547.224.742.224 1.162 0 .42-.07.8027-.21 1.148-.14.3453-.331.672-.574.98-.233.2987-.509.5833-.826.854-.317.2707-.649.546-.994.826l-1.82 1.428h4.62V54Zm7.988-7.938h-4.438l-.21 3.094h.112c.094-.2333.196-.4433.308-.63.122-.196.262-.3593.42-.49.159-.14.35-.2473.574-.322.224-.0747.49-.112.798-.112.42 0 .812.07 1.176.21.364.14.682.3453.952.616.271.2613.486.588.644.98.159.3827.238.8167.238 1.302 0 .4947-.084.9567-.252 1.386a2.87 2.87 0 0 1-.728 1.092c-.317.308-.709.5507-1.176.728-.466.168-.998.252-1.596.252-.476 0-.896-.0513-1.26-.154s-.686-.238-.966-.406c-.28-.1773-.522-.378-.728-.602a4.3553 4.3553 0 0 1-.532-.714l1.526-1.204c.215.3827.472.7093.77.98.299.2613.7.392 1.204.392s.882-.1447 1.134-.434c.262-.2893.392-.672.392-1.148v-.112c0-.448-.13-.8027-.392-1.064-.261-.2613-.62-.392-1.078-.392-.382 0-.7.0793-.952.238-.242.1493-.429.2987-.56.448l-1.722-.238.364-5.53h5.978v1.834Zm8.395 0h-4.438l-.21 3.094h.112c.093-.2333.196-.4433.308-.63.121-.196.261-.3593.42-.49.159-.14.35-.2473.574-.322.224-.0747.49-.112.798-.112.42 0 .812.07 1.176.21.364.14.681.3453.952.616.271.2613.485.588.644.98.159.3827.238.8167.238 1.302 0 .4947-.084.9567-.252 1.386-.159.42-.401.784-.728 1.092-.317.308-.709.5507-1.176.728-.467.168-.999.252-1.596.252-.476 0-.896-.0513-1.26-.154s-.686-.238-.966-.406c-.28-.1773-.523-.378-.728-.602a4.299 4.299 0 0 1-.532-.714l1.526-1.204c.215.3827.471.7093.77.98.299.2613.7.392 1.204.392s.882-.1447 1.134-.434c.261-.2893.392-.672.392-1.148v-.112c0-.448-.131-.8027-.392-1.064-.261-.2613-.621-.392-1.078-.392-.383 0-.7.0793-.952.238-.243.1493-.429.2987-.56.448l-1.722-.238.364-5.53h5.978v1.834Zm5.343 8.106c-.579 0-1.097-.0887-1.554-.266-.458-.1867-.845-.448-1.162-.784-.308-.3453-.546-.756-.714-1.232-.159-.476-.238-1.008-.238-1.596 0-.6813.102-1.3253.308-1.932.214-.616.485-1.1807.812-1.694.336-.5227.709-.9893 1.12-1.4.42-.4107.84-.756 1.26-1.036h2.898c-.598.4293-1.134.84-1.61 1.232-.476.3827-.892.77-1.246 1.162-.346.392-.635.7933-.868 1.204-.224.4013-.383.8353-.476 1.302l.126.042c.084-.1867.182-.3687.294-.546.121-.1773.266-.3313.434-.462.177-.14.382-.252.616-.336.233-.084.504-.126.812-.126.401 0 .774.0747 1.12.224.354.14.658.3407.91.602.261.2613.462.5833.602.966.149.3733.224.7887.224 1.246 0 .504-.089.966-.266 1.386-.168.42-.416.784-.742 1.092-.318.2987-.7.532-1.148.7-.448.168-.952.252-1.512.252Zm0-1.638c.466 0 .83-.126 1.092-.378.261-.2613.392-.63.392-1.106v-.252c0-.476-.131-.84-.392-1.092-.262-.2613-.626-.392-1.092-.392-.467 0-.831.1307-1.092.392-.262.252-.392.616-.392 1.092v.252c0 .476.13.8447.392 1.106.261.252.625.378 1.092.378ZM209.8 77.5v6h-13v-6z" />
  <path fill="#E8E4D8" d="M209.8 77.5v6l6.807-2.0422c.95-.285.95-1.6306 0-1.9156L209.8 77.5Z" />
  <path fill="#000" fill-rule="evenodd"
    d="m209.8 77.5 6.807 2.0422c.95.285.95 1.6306 0 1.9156L209.8 83.5v-6Zm1 1.344 5.52 1.656-5.52 1.656v-3.312Z"
    clip-rule="evenodd" />
  <path fill="#000" d="M213.8 79.5v2l3-1-3-1Z" />
  <path fill="#E8E4D8" d="M194.8 77.5v6h2v-6z" />
  <path fill="#000"
    d="M194.8 77.5v1h2v-1zM194.8 82.5v1h2v-1zM194.8 77.5v6h-1c-1.105 0-2-.8954-2-2v-2c0-1.1046.895-2 2-2h1Z" />
  <rect width="35.96" height="14" x="185.3" y="59.5" stroke="#000" rx="7" />
  <rect width="35.96" height="14" x="222.26" y="59.5" fill="#4CC45D" rx="7" />
  <rect width="35.96" height="14" x="222.26" y="59.5" stroke="#000" rx="7" />
  <rect width="35.96" height="14" x="259.22" y="59.5" fill="#4CC45D" rx="7" />
  <rect width="35.96" height="14" x="259.22" y="59.5" stroke="#000" rx="7" />
  <rect width="35.96" height="14" x="296.18" y="59.5" fill="#4CC45D" rx="7" />
  <rect width="35.96" height="14" x="296.18" y="59.5" stroke="#000" rx="7" />
  <rect width="35.96" height="14" x="333.14" y="59.5" fill="#4CC45D" rx="7" />
  <rect width="35.96" height="14" x="333.14" y="59.5" stroke="#000" rx="7" />
  <g opacity=".3">
    <rect width="35.96" height="14" x="370.1" y="59.5" fill="#4CC45D" rx="7" />
    <rect width="35.96" height="14" x="370.1" y="59.5" stroke="#000" rx="7" />
  </g>
  <g opacity=".3">
    <rect width="35.96" height="14" x="407.06" y="59.5" fill="#4CC45D" rx="7" />
    <rect width="35.96" height="14" x="407.06" y="59.5" stroke="#000" rx="7" />
  </g>
  <g opacity=".3">
    <rect width="35.96" height="14" x="444.02" y="59.5" fill="#4CC45D" rx="7" />
    <rect width="35.96" height="14" x="444.02" y="59.5" stroke="#000" rx="7" />
  </g>
  <g opacity=".3">
    <rect width="35.96" height="14" x="480.98" y="59.5" fill="#4CC45D" rx="7" />
    <rect width="35.96" height="14" x="480.98" y="59.5" stroke="#000" rx="7" />
  </g>
  <g opacity=".3">
    <rect width="35.96" height="14" x="517.94" y="59.5" fill="#4CC45D" rx="7" />
    <rect width="35.96" height="14" x="517.94" y="59.5" stroke="#000" rx="7" />
  </g>
  <g opacity=".3">
    <rect width="35.96" height="14" x="554.9" y="59.5" fill="#4CC45D" rx="7" />
    <rect width="35.96" height="14" x="554.9" y="59.5" stroke="#000" rx="7" />
  </g>
  <g opacity=".3">
    <rect width="35.96" height="14" x="591.86" y="59.5" fill="#4CC45D" rx="7" />
    <rect width="35.96" height="14" x="591.86" y="59.5" stroke="#000" rx="7" />
  </g>
  <g opacity=".3">
    <rect width="35.96" height="14" x="628.82" y="59.5" fill="#4CC45D" rx="7" />
    <rect width="35.96" height="14" x="628.82" y="59.5" stroke="#000" rx="7" />
  </g>
  <g opacity=".3">
    <rect width="35.96" height="14" x="665.78" y="59.5" fill="#4CC45D" rx="7" />
    <rect width="35.96" height="14" x="665.78" y="59.5" stroke="#000" rx="7" />
  </g>
  <g opacity=".3">
    <rect width="35.96" height="14" x="702.74" y="59.5" fill="#4CC45D" rx="7" />
    <rect width="35.96" height="14" x="702.74" y="59.5" stroke="#000" rx="7" />
  </g>
  <g opacity=".3">
    <rect width="35.96" height="14" x="739.7" y="59.5" fill="#4CC45D" rx="7" />
    <rect width="35.96" height="14" x="739.7" y="59.5" stroke="#000" rx="7" />
  </g>
  <g opacity=".3">
    <rect width="35.96" height="14" x="776.66" y="59.5" fill="#4CC45D" rx="7" />
    <rect width="35.96" height="14" x="776.66" y="59.5" stroke="#000" rx="7" />
  </g>
  <g opacity=".3">
    <rect width="35.96" height="14" x="813.62" y="59.5" fill="#4CC45D" rx="7" />
    <rect width="35.96" height="14" x="813.62" y="59.5" stroke="#000" rx="7" />
  </g>
  <g opacity=".3">
    <rect width="35.96" height="14" x="850.58" y="59.5" fill="#4CC45D" rx="7" />
    <rect width="35.96" height="14" x="850.58" y="59.5" stroke="#000" rx="7" />
  </g>
  <g opacity=".3">
    <rect width="35.96" height="14" x="887.54" y="59.5" fill="#4CC45D" rx="7" />
    <path fill="#000"
      d="M895.965 54h-6.916v-1.918l3.01-2.576c.271-.2333.499-.4433.686-.63.187-.196.336-.3827.448-.56.121-.1867.205-.3687.252-.546.056-.1773.084-.3687.084-.574V47c0-.1867-.037-.35-.112-.49a1.0793 1.0793 0 0 0-.294-.35c-.121-.0933-.261-.1633-.42-.21a1.5356 1.5356 0 0 0-.462-.07c-.233 0-.439.0373-.616.112a1.4807 1.4807 0 0 0-.448.308c-.121.1213-.224.266-.308.434-.084.1587-.149.3313-.196.518l-1.834-.7c.112-.336.266-.6533.462-.952.196-.308.439-.574.728-.798.299-.2333.649-.4153 1.05-.546.401-.1307.854-.196 1.358-.196.532 0 1.003.0747 1.414.224.411.1493.756.3547 1.036.616.289.2613.509.574.658.938.149.3547.224.742.224 1.162 0 .42-.07.8027-.21 1.148-.14.3453-.331.672-.574.98-.233.2987-.509.5833-.826.854-.317.2707-.649.546-.994.826l-1.82 1.428h4.62V54Zm7.989-7.938h-4.438l-.21 3.094h.112c.093-.2333.196-.4433.308-.63.121-.196.261-.3593.42-.49.158-.14.35-.2473.574-.322.224-.0747.49-.112.798-.112.42 0 .812.07 1.176.21.364.14.681.3453.952.616.27.2613.485.588.644.98.158.3827.238.8167.238 1.302 0 .4947-.084.9567-.252 1.386-.159.42-.402.784-.728 1.092-.318.308-.71.5507-1.176.728-.467.168-.999.252-1.596.252-.476 0-.896-.0513-1.26-.154s-.686-.238-.966-.406c-.28-.1773-.523-.378-.728-.602a4.244 4.244 0 0 1-.532-.714l1.526-1.204c.214.3827.471.7093.77.98.298.2613.7.392 1.204.392s.882-.1447 1.134-.434c.261-.2893.392-.672.392-1.148v-.112c0-.448-.131-.8027-.392-1.064-.262-.2613-.621-.392-1.078-.392-.383 0-.7.0793-.952.238-.243.1493-.43.2987-.56.448l-1.722-.238.364-5.53h5.978v1.834Zm8.394 0h-4.438l-.21 3.094h.112c.093-.2333.196-.4433.308-.63.121-.196.261-.3593.42-.49.159-.14.35-.2473.574-.322.224-.0747.49-.112.798-.112.42 0 .812.07 1.176.21.364.14.681.3453.952.616.271.2613.485.588.644.98.159.3827.238.8167.238 1.302 0 .4947-.084.9567-.252 1.386-.159.42-.401.784-.728 1.092-.317.308-.709.5507-1.176.728-.467.168-.999.252-1.596.252-.476 0-.896-.0513-1.26-.154s-.686-.238-.966-.406c-.28-.1773-.523-.378-.728-.602a4.299 4.299 0 0 1-.532-.714l1.526-1.204c.215.3827.471.7093.77.98.299.2613.7.392 1.204.392s.882-.1447 1.134-.434c.261-.2893.392-.672.392-1.148v-.112c0-.448-.131-.8027-.392-1.064-.261-.2613-.621-.392-1.078-.392-.383 0-.7.0793-.952.238-.243.1493-.429.2987-.56.448l-1.722-.238.364-5.53h5.978v1.834Zm5.343 8.106c-.579 0-1.097-.0887-1.554-.266-.458-.1867-.845-.448-1.162-.784-.308-.3453-.546-.756-.714-1.232-.159-.476-.238-1.008-.238-1.596 0-.6813.102-1.3253.308-1.932.214-.616.485-1.1807.812-1.694.336-.5227.709-.9893 1.12-1.4.42-.4107.84-.756 1.26-1.036h2.898c-.598.4293-1.134.84-1.61 1.232-.476.3827-.892.77-1.246 1.162-.346.392-.635.7933-.868 1.204-.224.4013-.383.8353-.476 1.302l.126.042c.084-.1867.182-.3687.294-.546.121-.1773.266-.3313.434-.462.177-.14.382-.252.616-.336.233-.084.504-.126.812-.126.401 0 .774.0747 1.12.224.354.14.658.3407.91.602.261.2613.462.5833.602.966.149.3733.224.7887.224 1.246 0 .504-.089.966-.266 1.386-.168.42-.416.784-.742 1.092-.318.2987-.7.532-1.148.7-.448.168-.952.252-1.512.252Zm0-1.638c.466 0 .83-.126 1.092-.378.261-.2613.392-.63.392-1.106v-.252c0-.476-.131-.84-.392-1.092-.262-.2613-.626-.392-1.092-.392-.467 0-.831.1307-1.092.392-.262.252-.392.616-.392 1.092v.252c0 .476.13.8447.392 1.106.261.252.625.378 1.092.378Z" />
    <rect width="35.96" height="14" x="887.54" y="59.5" stroke="#000" rx="7" />
  </g>
  <g class="box-timeline-present">
    <path fill="currentColor" d="M318 0h68v44h-68z" />
    <path fill="#fff"
      d="M333.03 27.192c-1.131 0-2.022-.304-2.672-.912-.651-.6187-.976-1.4613-.976-2.528v-5.488h1.28v5.36c0 .8.208 1.4133.624 1.84.426.416 1.008.624 1.744.624s1.312-.208 1.728-.624c.426-.4267.64-1.04.64-1.84v-8.176h1.28v8.304c0 1.0667-.326 1.9093-.976 2.528-.651.608-1.542.912-2.672.912Zm-2.176-10.64c-.48 0-.832-.1173-1.056-.352-.224-.2347-.336-.544-.336-.928v-.992h1.28v1.168h3.616v1.104h-3.504Zm9.379 6.736h-.976v-1.104h1.312c.16 0 .309.0373.448.112.149.064.251.1813.304.352l1.152 3.28h.608c.523 0 .944-.24 1.264-.72.32-.48.48-1.1467.48-2v-1.312c0-.864-.235-1.5307-.704-2-.459-.48-1.088-.72-1.888-.72-.757 0-1.381.1547-1.872.464-.491.2987-.875.688-1.152 1.168l-.832-.736c.139-.2667.32-.5227.544-.768.235-.2453.512-.4587.832-.64.331-.1813.704-.3253 1.12-.432.427-.1067.896-.16 1.408-.16 1.248 0 2.208.3947 2.88 1.184.683.7893 1.024 1.888 1.024 3.296 0 .6933-.08 1.3173-.24 1.872-.149.544-.363 1.008-.64 1.392-.277.384-.619.6773-1.024.88s-.853.304-1.344.304h-1.408l-1.296-3.712Zm9.187 0h-.976v-1.104h1.312c.16 0 .31.0373.448.112.15.064.251.1813.304.352l1.152 3.28h.608c.523 0 .944-.24 1.264-.72.32-.48.48-1.1467.48-2v-1.312c0-.864-.234-1.5307-.704-2-.458-.48-1.088-.72-1.888-.72-.757 0-1.381.1547-1.872.464-.49.2987-.874.688-1.152 1.168l-.832-.736c.139-.2667.32-.5227.544-.768.235-.2453.512-.4587.832-.64.331-.1813.704-.3253 1.12-.432.427-.1067.896-.16 1.408-.16 1.248 0 2.208.3947 2.88 1.184.683.7893 1.024 1.888 1.024 3.296 0 .6933-.08 1.3173-.24 1.872-.149.544-.362 1.008-.64 1.392-.277.384-.618.6773-1.024.88-.405.2027-.853.304-1.344.304h-1.408l-1.296-3.712Zm4.247 6.544h-1.056v-1.024h1.36c.32 0 .554.0853.704.256.138.1707.208.4.208.688v2.752h-1.216v-2.672Zm7.597-2.64c-1.131 0-2.021-.304-2.672-.912-.651-.6187-.976-1.4613-.976-2.528v-5.488h1.28v5.36c0 .8.208 1.4133.624 1.84.427.416 1.008.624 1.744.624s1.312-.208 1.728-.624c.427-.4267.64-1.04.64-1.84v-5.36h1.28v5.488c0 1.0667-.325 1.9093-.976 2.528-.651.608-1.541.912-2.672.912Zm2.306-10.64c-.48 0-.832-.1173-1.056-.352-.224-.2347-.336-.544-.336-.928v-.992h1.28v1.168h4.08v1.104h-3.968Zm6.865 10.64c-.928 0-1.653-.2933-2.176-.88-.522-.5867-.784-1.4133-.784-2.48v-5.568h1.28v5.408c0 1.6213.694 2.432 2.08 2.432.267 0 .534-.0373.8-.112.267-.0747.502-.1867.704-.336.203-.1493.368-.336.496-.56.128-.224.192-.4853.192-.784v-6.048h1.28v7.616h1.024V27h-.944c-.426 0-.741-.128-.944-.384-.192-.256-.304-.5813-.336-.976h-.064c-.17.4907-.49.8747-.96 1.152-.458.2667-1.008.4-1.648.4Z" />
    <path fill="currentColor" d="m352 58 7-14h-14l7 14Z" />
  </g>
  <g fill="#000" opacity=".3">
    <path d="m924 20-22 7V13l22 7ZM900 11h2v28h-2z" />
  </g>
  <path fill="#fff" d="M0 104h150v89H0z" />
  <path fill="#000" d="M58.2143 122.5v4h-8.8214v-4z" />
  <path fill="#E8E4D8" d="M58.2143 122.5v4l4.6192-1.361c.6448-.19.6448-1.088 0-1.278l-4.6192-1.361Z" />
  <path fill="#000" fill-rule="evenodd"
    d="m58.2143 122.5 4.6192 1.361c.6448.19.6448 1.088 0 1.278l-4.6192 1.361v-4Zm.6786.896 3.7456 1.104-3.7456 1.104v-2.208Z"
    clip-rule="evenodd" />
  <path fill="#000" d="M60.9286 123.833v1.334l2.0357-.667-2.0357-.667Z" />
  <path fill="#E8E4D8" d="M48.0357 122.5v4h1.3571v-4z" />
  <path fill="#000"
    d="M48.0357 122.5v.6667h1.3571V122.5zM48.0357 125.833v.6667h1.3571v-.6667zM48.0357 122.5v4H48c-1.1046 0-2-.895-2-2s.8954-2 2-2h.0357ZM77.9249 129h-6.916v-1.918l3.01-2.576c.2707-.233.4994-.443.686-.63.1867-.196.336-.383.448-.56.1214-.187.2054-.369.252-.546.056-.177.084-.369.084-.574V122c0-.187-.0373-.35-.112-.49-.0746-.14-.1726-.257-.294-.35-.1213-.093-.2613-.163-.42-.21a1.5291 1.5291 0 0 0-.462-.07c-.2333 0-.4386.037-.616.112a1.477 1.477 0 0 0-.448.308c-.1213.121-.224.266-.308.434-.084.159-.1493.331-.196.518l-1.834-.7c.112-.336.266-.653.462-.952.196-.308.4387-.574.728-.798.2987-.233.6487-.415 1.05-.546.4014-.131.854-.196 1.358-.196.532 0 1.0034.075 1.414.224.4107.149.756.355 1.036.616.2894.261.5087.574.658.938.1494.355.224.742.224 1.162 0 .42-.07.803-.21 1.148-.14.345-.3313.672-.574.98-.2333.299-.5086.583-.826.854a50.434 50.434 0 0 1-.994.826l-1.82 1.428h4.62V129Zm7.9886-7.938h-4.438l-.21 3.094h.112c.0933-.233.196-.443.308-.63.1213-.196.2613-.359.42-.49.1586-.14.35-.247.574-.322.224-.075.49-.112.798-.112.42 0 .812.07 1.176.21.364.14.6813.345.952.616.2706.261.4853.588.644.98.1586.383.238.817.238 1.302 0 .495-.084.957-.252 1.386-.1587.42-.4014.784-.728 1.092-.3174.308-.7094.551-1.176.728-.4667.168-.9987.252-1.596.252-.476 0-.896-.051-1.26-.154-.364-.103-.686-.238-.966-.406-.28-.177-.5227-.378-.728-.602a4.2934 4.2934 0 0 1-.532-.714l1.526-1.204c.2146.383.4713.709.77.98.2986.261.7.392 1.204.392s.882-.145 1.134-.434c.2613-.289.392-.672.392-1.148v-.112c0-.448-.1307-.803-.392-1.064-.2614-.261-.6207-.392-1.078-.392-.3827 0-.7.079-.952.238-.2427.149-.4294.299-.56.448l-1.722-.238.364-5.53h5.978v1.834Zm8.3945 0H89.87l-.21 3.094h.112c.0933-.233.196-.443.308-.63.1213-.196.2613-.359.42-.49.1587-.14.35-.247.574-.322.224-.075.49-.112.798-.112.42 0 .812.07 1.176.21.364.14.6813.345.952.616.2707.261.4853.588.644.98.1587.383.238.817.238 1.302 0 .495-.084.957-.252 1.386-.1587.42-.4013.784-.728 1.092-.3173.308-.7093.551-1.176.728-.4667.168-.9987.252-1.596.252-.476 0-.896-.051-1.26-.154-.364-.103-.686-.238-.966-.406-.28-.177-.5227-.378-.728-.602a4.299 4.299 0 0 1-.532-.714l1.526-1.204c.2147.383.4713.709.77.98.2987.261.7.392 1.204.392s.882-.145 1.134-.434c.2613-.289.392-.672.392-1.148v-.112c0-.448-.1307-.803-.392-1.064s-.6207-.392-1.078-.392c-.3827 0-.7.079-.952.238-.2427.149-.4293.299-.56.448l-1.722-.238.364-5.53h5.978v1.834Zm5.3425 8.106c-.5786 0-1.0966-.089-1.554-.266-.4573-.187-.8446-.448-1.162-.784-.308-.345-.546-.756-.714-1.232-.1586-.476-.238-1.008-.238-1.596 0-.681.1027-1.325.308-1.932.2147-.616.4854-1.181.812-1.694.336-.523.7094-.989 1.12-1.4.42-.411.84-.756 1.26-1.036h2.8985c-.598.429-1.134.84-1.61 1.232-.476.383-.8918.77-1.2465 1.162-.3453.392-.6346.793-.868 1.204-.224.401-.3826.835-.476 1.302l.126.042c.084-.187.182-.369.294-.546.1214-.177.266-.331.434-.462.1774-.14.3827-.252.616-.336.2334-.084.5045-.126.8125-.126.401 0 .774.075 1.12.224.354.14.658.341.91.602.261.261.462.583.602.966.149.373.224.789.224 1.246 0 .504-.089.966-.266 1.386-.168.42-.416.784-.742 1.092-.318.299-.7.532-1.148.7-.448.168-.952.252-1.5125.252Zm0-1.638c.4665 0 .8305-.126 1.0925-.378.261-.261.392-.63.392-1.106v-.252c0-.476-.131-.84-.392-1.092-.262-.261-.626-.392-1.0925-.392-.4666 0-.8306.131-1.092.392-.2613.252-.392.616-.392 1.092v.252c0 .476.1307.845.392 1.106.2614.252.6254.378 1.092.378ZM28.2825 152.192c-.512 0-.992-.075-1.44-.224-.448-.149-.8373-.363-1.168-.64-.3307-.288-.592-.624-.784-1.008-.192-.395-.288-.832-.288-1.312v-.816c0-.32.064-.565.192-.736.128-.181.4-.272.816-.272h1.696v1.104h-1.408v.656c0 .373.0587.699.176.976.128.277.2987.507.512.688.2133.171.4693.299.768.384.3093.085.64.128.992.128.8 0 1.424-.245 1.872-.736.448-.491.672-1.179.672-2.064v-1.312c0-.896-.2453-1.589-.736-2.08-.48-.501-1.152-.752-2.016-.752-.6613 0-1.232.133-1.712.4s-.8587.624-1.136 1.072l-.832-.736c.2987-.523.752-.96 1.36-1.312.6187-.352 1.4133-.528 2.384-.528 1.2907 0 2.288.405 2.992 1.216.7147.8 1.072 1.915 1.072 3.344 0 .693-.0853 1.323-.256 1.888-.1707.565-.4267 1.045-.768 1.44-.3307.395-.7467.699-1.248.912-.4907.213-1.0613.32-1.712.32Zm9.6563 0c-.512 0-.992-.075-1.44-.224-.448-.149-.8374-.363-1.1681-.64-.3306-.288-.5919-.624-.7839-1.008-.192-.395-.288-.832-.288-1.312v-.816c0-.32.064-.565.192-.736.128-.181.4-.272.816-.272h1.696v1.104h-1.408v.656c0 .373.0586.699.176.976.128.277.2986.507.512.688.2133.171.4693.299.768.384.3093.085.64.128.992.128.8 0 1.424-.245 1.872-.736.448-.491.672-1.179.672-2.064v-1.312c0-.896-.2454-1.589-.736-2.08-.48-.501-1.152-.752-2.016-.752-.6614 0-1.232.133-1.712.4s-.8587.624-1.136 1.072l-.832-.736c.2986-.523.752-.96 1.36-1.312.6186-.352 1.4133-.528 2.384-.528 1.2906 0 2.288.405 2.992 1.216.7146.8 1.072 1.915 1.072 3.344 0 .693-.0854 1.323-.2561 1.888-.1706.565-.4266 1.045-.7679 1.44-.3307.395-.7467.699-1.248.912-.4907.213-1.0614.32-1.712.32Zm7.0802-5.184-1.36-.576c.032-.491.1493-.939.352-1.344.2133-.416.4907-.773.832-1.072.3413-.299.736-.528 1.184-.688.4587-.171.9547-.256 1.488-.256 1.248 0 2.2027.315 2.864.944.6613.619.992 1.461.992 2.528V152h-1.28v-5.296c0-.832-.2347-1.461-.704-1.888-.4587-.427-1.0667-.64-1.824-.64-.3307 0-.6453.043-.944.128-.288.075-.5493.187-.784.336a2.2276 2.2276 0 0 0-.608.528 1.8712 1.8712 0 0 0-.368.688l.8.32c.224.085.384.197.48.336.1067.128.16.309.16.544V152h-1.28v-4.992ZM55.8723 152c-.448 0-.7894-.123-1.024-.368-.224-.245-.336-.571-.336-.976v-7.392h1.28v7.616h1.344V152h-1.264Zm4.16 0c-.448 0-.7894-.123-1.024-.368-.224-.245-.336-.571-.336-.976v-7.392h1.28v7.616h1.344V152h-1.264Zm5.3627.192c-.9173 0-1.5627-.389-1.936-1.168-.3733-.789-.56-1.909-.56-3.36 0-1.451.2773-2.544.832-3.28.5547-.747 1.328-1.12 2.32-1.12h.416v1.104h-.352c-.5973 0-1.056.203-1.376.608-.32.405-.48 1.067-.48 1.984v1.504c0 .395.016.757.048 1.088.032.32.096.597.192.832.096.224.2293.4.4.528.1707.117.3947.176.672.176.352 0 .64-.133.864-.4.224-.267.336-.688.336-1.264v-1.504h1.264v1.504c0 .576.1013.997.304 1.264.2133.267.5013.4.864.4.3413 0 .608-.112.8-.336.2027-.235.304-.576.304-1.024v-6.464h1.28v6.592c0 .715-.1867 1.285-.56 1.712-.3733.416-.8853.624-1.536.624-.608 0-1.088-.171-1.44-.512-.352-.352-.5547-.784-.608-1.296h-.08c-.0533.512-.2507.944-.592 1.296-.3413.341-.8.512-1.376.512Zm11.7044 0c-.928 0-1.6534-.293-2.176-.88-.5227-.587-.784-1.413-.784-2.48v-5.568h1.28v5.408c0 1.621.6933 2.432 2.08 2.432.2666 0 .5333-.037.8-.112.2666-.075.5013-.187.704-.336.2026-.149.368-.336.496-.56.128-.224.192-.485.192-.784v-6.048h1.28v7.616h1.024V152h-.944c-.4267 0-.7414-.128-.944-.384-.192-.256-.304-.581-.336-.976h-.064c-.1707.491-.4907.875-.96 1.152-.4587.267-1.008.4-1.648.4Zm6.3301-8.928h1.264l.576 4.128.288 3.216h.064l.816-3.216 1.184-4.128h1.152l1.2 4.128.8 3.216h.08l.288-3.216.56-4.128h1.28l-1.28 8.736h-1.456l-1.408-4.848-.624-2.448h-.048l-.624 2.448-1.408 4.848h-1.424l-1.28-8.736Zm8.2109-1.712c-.48 0-.832-.117-1.056-.352-.224-.235-.336-.544-.336-.928v-.992h1.28v1.168h4.08v1.104h-3.968Zm6.7764 10.64c-1.1307 0-1.9947-.4-2.592-1.2-.5974-.811-.896-1.941-.896-3.392 0-1.429.208-2.539.624-3.328.416-.8 1.0506-1.2 1.904-1.2.384 0 .7253.107 1.024.32.2986.213.5013.528.608.944h.08c.1066-.416.3146-.731.624-.944.3202-.213.6822-.32 1.0882-.32.608 0 1.077.203 1.408.608.33.405.496.971.496 1.696v3.936c0 .299.058.56.176.784.117.224.272.411.464.56.192.139.41.245.656.32.245.064.496.096.752.096 1.269 0 1.904-.8 1.904-2.4v-5.408h1.28v5.568c0 1.077-.246 1.909-.736 2.496-.491.576-1.174.864-2.048.864-.342 0-.646-.048-.912-.144-.256-.085-.48-.203-.672-.352-.192-.149-.352-.32-.48-.512s-.23-.395-.304-.608h-.08V152h-1.264v-6.608c0-.416-.086-.72-.256-.912-.16-.203-.39-.304-.688-.304-.363 0-.6242.133-.7842.4-.1494.256-.2507.549-.304.88h-.832a3.2593 3.2593 0 0 0-.096-.464c-.032-.16-.0907-.299-.176-.416-.0747-.128-.176-.224-.3041-.288-.1173-.075-.2666-.112-.4479-.112-.2454 0-.4534.069-.624.208-.1707.139-.3094.331-.416.576-.096.245-.1707.539-.224.88-.0427.331-.064.693-.064 1.088v1.28c0 .907.1866 1.616.56 2.128.3733.501.9706.752 1.792.752.1173 0 .24-.005.368-.016.1386-.011.272-.027.4-.048l.16 1.072a3.9586 3.9586 0 0 1-.608.08c-.192.011-.3787.016-.56.016Zm15.1202 0c-.928 0-1.653-.293-2.176-.88-.523-.587-.784-1.413-.784-2.48v-5.568h1.28v5.408c0 1.621.693 2.432 2.08 2.432.267 0 .533-.037.8-.112.267-.075.501-.187.704-.336.203-.149.368-.336.496-.56.128-.224.192-.485.192-.784v-6.048h1.28v7.616h1.024V152h-.944c-.427 0-.741-.128-.944-.384-.192-.256-.304-.581-.336-.976h-.064c-.171.491-.491.875-.96 1.152-.459.267-1.008.4-1.648.4ZM123.871 146c0-1.227-.635-1.84-1.904-1.84-.512 0-.933.112-1.264.336-.32.224-.592.523-.816.896l-.784-.688c.245-.469.603-.859 1.072-1.168.48-.309 1.104-.464 1.872-.464 1.003 0 1.771.245 2.304.736.533.491.8 1.184.8 2.08V152h-1.28v-6ZM13.1206 171.008l-1.36-.576c.032-.491.1493-.939.352-1.344.2133-.416.4906-.773.832-1.072.3413-.299.736-.528 1.184-.688.4586-.171.9546-.256 1.488-.256 1.248 0 2.2026.315 2.864.944.6613.619.992 1.461.992 2.528V176h-1.28v-5.296c0-.832-.2347-1.461-.704-1.888-.4587-.427-1.0667-.64-1.824-.64-.3307 0-.6454.043-.944.128-.288.075-.5494.187-.784.336a2.2262 2.2262 0 0 0-.608.528 1.8697 1.8697 0 0 0-.368.688l.8.32c.224.085.384.197.48.336.1066.128.16.309.16.544V176h-1.28v-4.992Zm8.9972-3.744h1.28v1.424h.08c.0853-.203.192-.4.32-.592a2.174 2.174 0 0 1 .512-.528c.2133-.149.4587-.267.736-.352.288-.096.6187-.144.992-.144.928 0 1.6533.293 2.176.88.5333.576.8 1.403.8 2.48V176h-1.28v-5.408c0-1.621-.704-2.432-2.112-2.432-.2773 0-.5493.037-.816.112-.2667.075-.5067.187-.72.336-.2027.149-.368.336-.496.56-.128.224-.192.485-.192.784V176h-1.28v-8.736Zm13.4193 8.928c-.3734 0-.6987-.048-.976-.144-.2774-.085-.5174-.203-.72-.352-.2027-.149-.3734-.32-.512-.512a3.317 3.317 0 0 1-.32-.608h-.08V176h-1.28v-8.736h1.28v6.048c0 .299.064.56.192.784.128.224.2933.411.496.56.2133.149.448.261.704.336.2666.075.5386.112.816.112.704 0 1.232-.203 1.584-.608.3626-.416.544-1.024.544-1.824v-5.408h1.28v5.568c0 1.077-.2667 1.909-.8 2.496-.5334.576-1.2694.864-2.208.864Zm6.1467 0c-.3413 0-.592-.085-.752-.256-.1493-.171-.224-.395-.224-.672v-.208c0-.277.0747-.501.224-.672.16-.171.4107-.256.752-.256s.5867.085.736.256c.16.171.24.395.24.672v.208c0 .277-.08.501-.24.672-.1493.171-.3947.256-.736.256ZM56.1764 176h-7.328v-1.376l3.648-3.36c.5227-.48.96-.987 1.312-1.52.352-.544.528-1.088.528-1.632v-.192c0-.619-.1706-1.12-.512-1.504-.3413-.384-.8586-.576-1.552-.576-.3413 0-.64.048-.896.144-.256.096-.48.229-.672.4-.1813.171-.336.373-.464.608-.1173.224-.2133.469-.288.736l-1.2-.464c.1067-.331.2507-.651.432-.96.192-.32.4267-.603.704-.848.288-.245.6294-.443 1.024-.592.4054-.149.88-.224 1.424-.224.544 0 1.0294.08 1.456.24.4267.16.784.384 1.072.672.288.288.5067.629.656 1.024.16.395.24.832.24 1.312 0 .437-.064.843-.192 1.216a4.639 4.639 0 0 1-.496 1.072c-.2133.331-.4746.656-.784.976-.2986.32-.624.64-.976.96l-3.008 2.704h5.872V176Zm5.8658.192c-1.3333 0-2.3093-.507-2.928-1.52-.608-1.013-.912-2.432-.912-4.256 0-1.824.304-3.243.912-4.256.6187-1.013 1.5947-1.52 2.928-1.52s2.304.507 2.912 1.52c.6187 1.013.928 2.432.928 4.256 0 1.824-.3093 3.243-.928 4.256-.608 1.013-1.5787 1.52-2.912 1.52Zm0-1.168c.4373 0 .8107-.091 1.12-.272.3093-.181.56-.437.752-.768.192-.331.3307-.72.416-1.168.096-.448.144-.944.144-1.488v-1.824c0-.544-.048-1.04-.144-1.488-.0853-.448-.224-.837-.416-1.168-.192-.331-.4427-.587-.752-.768-.3093-.181-.6827-.272-1.12-.272-.4373 0-.8107.091-1.12.272-.3093.181-.56.437-.752.768-.192.331-.336.72-.432 1.168-.0853.448-.128.944-.128 1.488v1.824c0 .544.0427 1.04.128 1.488.096.448.24.837.432 1.168.192.331.4427.587.752.768.3093.181.6827.272 1.12.272Zm13.503 1.168c-1.1307 0-2.0213-.304-2.672-.912-.6507-.619-.976-1.461-.976-2.528v-5.488h1.28v5.36c0 .8.208 1.413.624 1.84.4267.416 1.008.624 1.744.624s1.312-.208 1.728-.624c.4267-.427.64-1.04.64-1.84v-8.176h1.28v8.304c0 1.067-.3253 1.909-.976 2.528-.6507.608-1.5413.912-2.672.912Zm-4.5591-11.744h4.64v-1.168h1.248v2.272h-5.888v-1.104Zm14.5517 6.08c0-.523.0853-.997.256-1.424.1813-.427.4373-.789.768-1.088.3307-.309.7307-.544 1.2-.704.4693-.16.9973-.24 1.584-.24.576 0 1.0987.08 1.568.24.4693.16.8693.395 1.2.704.3307.299.5867.661.768 1.088.1813.427.272.901.272 1.424V176h-1.28v-5.344c0-.8-.224-1.413-.672-1.84-.4373-.427-1.056-.64-1.856-.64s-1.424.213-1.872.64c-.4373.427-.656 1.04-.656 1.84v2.08h.08c.0747-.203.176-.395.304-.576.128-.192.288-.357.48-.496.192-.149.416-.267.672-.352.2667-.085.5707-.128.912-.128h.528v1.28h-.736c-.6827 0-1.2267.133-1.632.4s-.608.635-.608 1.104V176h-1.28v-5.472Zm13.2439 5.664c-.8 0-1.4827-.144-2.048-.432-.5653-.288-1.04-.693-1.424-1.216l.912-.736c.3307.448.7093.779 1.136.992.4373.203.944.304 1.52.304.64 0 1.1253-.123 1.4563-.368.341-.245.512-.608.512-1.088 0-.405-.134-.72-.4-.944-.256-.235-.6723-.395-1.2483-.48l-.752-.112a8.0356 8.0356 0 0 1-1.008-.224c-.3307-.096-.6347-.235-.912-.416-.2667-.181-.4853-.421-.656-.72-.16-.299-.24-.672-.24-1.12 0-.416.0747-.784.224-1.104.16-.32.3787-.587.656-.8.288-.213.624-.373 1.008-.48.384-.117.8-.176 1.248-.176.7573 0 1.3863.128 1.8883.384.512.245.938.571 1.28.976l-.816.768c-.235-.277-.55-.517-.944-.72-.395-.213-.875-.32-1.4403-.32-.5973 0-1.056.123-1.376.368-.32.245-.48.587-.48 1.024 0 .469.1547.8.464.992.3093.192.736.331 1.28.416l.752.112c.3947.064.7573.149 1.0883.256.33.107.613.256.848.448.245.192.437.432.576.72.138.277.208.619.208 1.024 0 .832-.299 1.488-.896 1.968-.587.469-1.3923.704-2.4163.704Zm1.9603-10.64c-.48 0-.8321-.117-1.0561-.352-.224-.235-.336-.544-.336-.928v-.992h1.2801v1.168h4.08v1.104h-3.968Zm-1.1521-4.112h1.2001v-.576c0-.491-.283-.736-.8481-.736h-.352v-.816h.7841c.501 0 .869.101 1.104.304.224.203.336.464.336.784 0 .181-.043.368-.128.56-.085.192-.219.331-.4.416v.064h2.48v.832h-4.1761v-.832Zm3.7271 8.24h1.376l2.32 5.248h.048c.672 0 1.189-.229 1.552-.688.373-.469.56-1.12.56-1.952v-1.312c0-.821-.187-1.461-.56-1.92-.363-.459-.88-.688-1.552-.688h-.512v-1.104h.528c1.098 0 1.952.384 2.56 1.152.608.768.912 1.84.912 3.216 0 1.376-.304 2.448-.912 3.216-.598.768-1.446 1.152-2.544 1.152h-.992l-2.784-6.32Zm11.407 6.32c-.448 0-.79-.123-1.024-.368-.224-.245-.336-.571-.336-.976v-7.392h1.28v7.616h1.344V176h-1.264Zm4.16 0c-.448 0-.79-.123-1.024-.368-.224-.245-.336-.571-.336-.976v-7.392h1.28v7.616h1.344V176h-1.264Zm6.195.192c-.8 0-1.483-.144-2.048-.432-.566-.288-1.04-.693-1.424-1.216l.912-.736c.33.448.709.779 1.136.992.437.203.944.304 1.52.304.64 0 1.125-.123 1.456-.368.341-.245.512-.608.512-1.088 0-.405-.134-.72-.4-.944-.256-.235-.672-.395-1.248-.48l-.752-.112a7.981 7.981 0 0 1-1.008-.224c-.331-.096-.635-.235-.912-.416-.267-.181-.486-.421-.656-.72-.16-.299-.24-.672-.24-1.12 0-.416.074-.784.224-1.104.16-.32.378-.587.656-.8.288-.213.624-.373 1.008-.48.384-.117.8-.176 1.248-.176.757 0 1.386.128 1.888.384.512.245.938.571 1.28.976l-.816.768c-.235-.277-.55-.517-.944-.72-.395-.213-.875-.32-1.44-.32-.598 0-1.056.123-1.376.368-.32.245-.48.587-.48 1.024 0 .469.154.8.464.992.309.192.736.331 1.28.416l.752.112c.394.064.757.149 1.088.256.33.107.613.256.848.448.245.192.437.432.576.72.138.277.208.619.208 1.024 0 .832-.299 1.488-.896 1.968-.587.469-1.392.704-2.416.704Zm6.307-5.184-1.36-.576c.032-.491.15-.939.352-1.344.214-.416.491-.773.832-1.072.342-.299.736-.528 1.184-.688.459-.171.955-.256 1.488-.256 1.248 0 2.203.315 2.864.944.662.619.992 1.461.992 2.528V176h-1.28v-5.296c0-.832-.234-1.461-.704-1.888-.458-.427-1.066-.64-1.824-.64-.33 0-.645.043-.944.128-.288.075-.549.187-.784.336-.234.139-.437.315-.608.528-.17.203-.293.432-.368.688l.8.32c.224.085.384.197.48.336.107.128.16.309.16.544V176h-1.28v-4.992Z" />
  <path fill="#fff" d="M164 104h150v89H164z" />
  <path fill="#000" d="M222.214 122.5v4h-8.8214v-4z" />
  <path fill="#E8E4D8" d="M222.214 122.5v4l4.619-1.361c.645-.19.645-1.088 0-1.278l-4.619-1.361Z" />
  <path fill="#000" fill-rule="evenodd"
    d="m222.214 122.5 4.619 1.361c.645.19.645 1.088 0 1.278l-4.619 1.361v-4Zm.679.896 3.746 1.104-3.746 1.104v-2.208Z"
    clip-rule="evenodd" />
  <path fill="#000" d="M224.929 123.833v1.334l2.035-.667-2.035-.667Z" />
  <path fill="#E8E4D8" d="M212.036 122.5v4h1.3571v-4z" />
  <path fill="#000"
    d="M212.036 122.5v.6667h1.3571V122.5zM212.036 125.833v.6667h1.3571v-.6667zM212.036 122.5v4H212c-1.105 0-2-.895-2-2s.895-2 2-2h.036ZM241.925 129h-6.916v-1.918l3.01-2.576c.271-.233.499-.443.686-.63.187-.196.336-.383.448-.56.121-.187.205-.369.252-.546.056-.177.084-.369.084-.574V122c0-.187-.037-.35-.112-.49-.075-.14-.173-.257-.294-.35-.121-.093-.261-.163-.42-.21-.149-.047-.303-.07-.462-.07-.233 0-.439.037-.616.112-.168.075-.317.177-.448.308-.121.121-.224.266-.308.434-.084.159-.149.331-.196.518l-1.834-.7c.112-.336.266-.653.462-.952.196-.308.439-.574.728-.798.299-.233.649-.415 1.05-.546.401-.131.854-.196 1.358-.196.532 0 1.003.075 1.414.224.411.149.756.355 1.036.616.289.261.509.574.658.938.149.355.224.742.224 1.162 0 .42-.07.803-.21 1.148-.14.345-.331.672-.574.98-.233.299-.509.583-.826.854-.317.271-.649.546-.994.826l-1.82 1.428h4.62V129Zm7.988-7.938h-4.438l-.21 3.094h.112c.094-.233.196-.443.308-.63.122-.196.262-.359.42-.49.159-.14.35-.247.574-.322.224-.075.49-.112.798-.112.42 0 .812.07 1.176.21.364.14.682.345.952.616.271.261.486.588.644.98.159.383.238.817.238 1.302 0 .495-.084.957-.252 1.386a2.87 2.87 0 0 1-.728 1.092c-.317.308-.709.551-1.176.728-.466.168-.998.252-1.596.252-.476 0-.896-.051-1.26-.154-.364-.103-.686-.238-.966-.406-.28-.177-.522-.378-.728-.602a4.3553 4.3553 0 0 1-.532-.714l1.526-1.204c.215.383.472.709.77.98.299.261.7.392 1.204.392s.882-.145 1.134-.434c.262-.289.392-.672.392-1.148v-.112c0-.448-.13-.803-.392-1.064-.261-.261-.62-.392-1.078-.392-.382 0-.7.079-.952.238-.242.149-.429.299-.56.448l-1.722-.238.364-5.53h5.978v1.834Zm5.343 8.106c-.579 0-1.097-.089-1.554-.266-.457-.187-.845-.448-1.162-.784-.308-.345-.546-.756-.714-1.232-.159-.476-.238-1.008-.238-1.596 0-.681.103-1.325.308-1.932.215-.616.485-1.181.812-1.694.336-.523.709-.989 1.12-1.4.42-.411.84-.756 1.26-1.036h2.898c-.597.429-1.134.84-1.61 1.232-.476.383-.891.77-1.246 1.162-.345.392-.635.793-.868 1.204-.224.401-.383.835-.476 1.302l.126.042c.084-.187.182-.369.294-.546.121-.177.266-.331.434-.462.177-.14.383-.252.616-.336.233-.084.504-.126.812-.126.401 0 .775.075 1.12.224.355.14.658.341.91.602.261.261.462.583.602.966.149.373.224.789.224 1.246 0 .504-.089.966-.266 1.386-.168.42-.415.784-.742 1.092-.317.299-.7.532-1.148.7-.448.168-.952.252-1.512.252Zm0-1.638c.467 0 .831-.126 1.092-.378.261-.261.392-.63.392-1.106v-.252c0-.476-.131-.84-.392-1.092-.261-.261-.625-.392-1.092-.392-.467 0-.831.131-1.092.392-.261.252-.392.616-.392 1.092v.252c0 .476.131.845.392 1.106.261.252.625.378 1.092.378Zm11.447-6.468h-4.438l-.21 3.094h.112c.093-.233.196-.443.308-.63.121-.196.261-.359.42-.49.158-.14.35-.247.574-.322.224-.075.49-.112.798-.112.42 0 .812.07 1.176.21.364.14.681.345.952.616.27.261.485.588.644.98.158.383.238.817.238 1.302 0 .495-.084.957-.252 1.386-.159.42-.402.784-.728 1.092-.318.308-.71.551-1.176.728-.467.168-.999.252-1.596.252-.476 0-.896-.051-1.26-.154-.364-.103-.686-.238-.966-.406-.28-.177-.523-.378-.728-.602a4.244 4.244 0 0 1-.532-.714l1.526-1.204c.214.383.471.709.77.98.298.261.7.392 1.204.392s.882-.145 1.134-.434c.261-.289.392-.672.392-1.148v-.112c0-.448-.131-.803-.392-1.064-.262-.261-.621-.392-1.078-.392-.383 0-.7.079-.952.238-.243.149-.43.299-.56.448l-1.722-.238.364-5.53h5.978v1.834ZM179.451 152.192c-1.13 0-2.021-.304-2.672-.912-.65-.619-.976-1.461-.976-2.528v-5.488h1.28v5.36c0 .8.208 1.413.624 1.84.427.416 1.008.624 1.744.624s1.312-.208 1.728-.624c.427-.427.64-1.04.64-1.84v-8.176h1.28v8.304c0 1.067-.325 1.909-.976 2.528-.65.608-1.541.912-2.672.912Zm9.284 0c-.8 0-1.483-.144-2.048-.432-.566-.288-1.04-.693-1.424-1.216l.912-.736c.33.448.709.779 1.136.992.437.203.944.304 1.52.304.64 0 1.125-.123 1.456-.368.341-.245.512-.608.512-1.088 0-.405-.134-.72-.4-.944-.256-.235-.672-.395-1.248-.48l-.752-.112a7.981 7.981 0 0 1-1.008-.224c-.331-.096-.635-.235-.912-.416-.267-.181-.486-.421-.656-.72-.16-.299-.24-.672-.24-1.12 0-.416.074-.784.224-1.104.16-.32.378-.587.656-.8.288-.213.624-.373 1.008-.48.384-.117.8-.176 1.248-.176.757 0 1.386.128 1.888.384.512.245.938.571 1.28.976l-.816.768c-.235-.277-.55-.517-.944-.72-.395-.213-.875-.32-1.44-.32-.598 0-1.056.123-1.376.368-.32.245-.48.587-.48 1.024 0 .469.154.8.464.992.309.192.736.331 1.28.416l.752.112c.394.064.757.149 1.088.256.33.107.613.256.848.448.245.192.437.432.576.72.138.277.208.619.208 1.024 0 .832-.299 1.488-.896 1.968-.587.469-1.392.704-2.416.704Zm1.96-10.64c-.48 0-.832-.117-1.056-.352-.224-.235-.336-.544-.336-.928v-.992h1.28v1.168h4.08v1.104h-3.968Zm7.131 10.64c-1.13 0-2.021-.304-2.672-.912-.65-.619-.976-1.461-.976-2.528v-5.488h1.28v5.36c0 .8.208 1.413.624 1.84.427.416 1.008.624 1.744.624s1.312-.208 1.728-.624c.427-.427.64-1.04.64-1.84v-5.36h1.28v5.488c0 1.067-.325 1.909-.976 2.528-.65.608-1.541.912-2.672.912Zm9.86 0c-1.131 0-2.022-.304-2.672-.912-.651-.619-.976-1.461-.976-2.528v-5.488h1.28v5.36c0 .8.208 1.413.624 1.84.426.416 1.008.624 1.744.624s1.312-.208 1.728-.624c.426-.427.64-1.04.64-1.84v-8.176h1.28v8.304c0 1.067-.326 1.909-.976 2.528-.651.608-1.542.912-2.672.912Zm9.283 0c-.8 0-1.482-.144-2.048-.432-.565-.288-1.04-.693-1.424-1.216l.912-.736c.331.448.71.779 1.136.992.438.203.944.304 1.52.304.64 0 1.126-.123 1.456-.368.342-.245.512-.608.512-1.088 0-.405-.133-.72-.4-.944-.256-.235-.672-.395-1.248-.48l-.752-.112a8.0593 8.0593 0 0 1-1.008-.224c-.33-.096-.634-.235-.912-.416-.266-.181-.485-.421-.656-.72-.16-.299-.24-.672-.24-1.12 0-.416.075-.784.224-1.104.16-.32.379-.587.656-.8.288-.213.624-.373 1.008-.48.384-.117.8-.176 1.248-.176.758 0 1.387.128 1.888.384.512.245.939.571 1.28.976l-.816.768c-.234-.277-.549-.517-.944-.72-.394-.213-.874-.32-1.44-.32-.597 0-1.056.123-1.376.368-.32.245-.48.587-.48 1.024 0 .469.155.8.464.992.31.192.736.331 1.28.416l.752.112c.395.064.758.149 1.088.256.331.107.614.256.848.448.246.192.438.432.576.72.139.277.208.619.208 1.024 0 .832-.298 1.488-.896 1.968-.586.469-1.392.704-2.416.704Zm2.088 2.64h-1.056v-1.024h1.36c.32 0 .555.085.704.256.139.171.208.4.208.688v2.752h-1.216v-2.672Zm2.447-9.152h1.376l2.32 5.248h.048c.672 0 1.19-.229 1.552-.688.374-.469.56-1.12.56-1.952v-1.312c0-.821-.186-1.461-.56-1.92-.362-.459-.88-.688-1.552-.688h-.512v-1.104h.528c1.099 0 1.952.384 2.56 1.152.608.768.912 1.84.912 3.216 0 1.376-.304 2.448-.912 3.216-.597.768-1.445 1.152-2.544 1.152h-.992l-2.784-6.32Zm11.407 6.32c-.448 0-.789-.123-1.024-.368-.224-.245-.336-.571-.336-.976v-7.392h1.28v7.616h1.344V152h-1.264Zm4.16 0c-.448 0-.789-.123-1.024-.368-.224-.245-.336-.571-.336-.976v-7.392h1.28v7.616h1.344V152h-1.264Zm5.363.192c-.917 0-1.563-.389-1.936-1.168-.373-.789-.56-1.909-.56-3.36 0-1.451.277-2.544.832-3.28.555-.747 1.328-1.12 2.32-1.12h.416v1.104h-.352c-.597 0-1.056.203-1.376.608-.32.405-.48 1.067-.48 1.984v1.504c0 .395.016.757.048 1.088.032.32.096.597.192.832.096.224.229.4.4.528.171.117.395.176.672.176.352 0 .64-.133.864-.4.224-.267.336-.688.336-1.264v-1.504h1.264v1.504c0 .576.101.997.304 1.264.213.267.501.4.864.4.341 0 .608-.112.8-.336.203-.235.304-.576.304-1.024v-6.464h1.28v6.592c0 .715-.187 1.285-.56 1.712-.373.416-.885.624-1.536.624-.608 0-1.088-.171-1.44-.512-.352-.352-.555-.784-.608-1.296h-.08c-.053.512-.251.944-.592 1.296-.341.341-.8.512-1.376.512Zm11.704 0c-.928 0-1.653-.293-2.176-.88-.522-.587-.784-1.413-.784-2.48v-5.568h1.28v5.408c0 1.621.694 2.432 2.08 2.432.267 0 .534-.037.8-.112.267-.075.502-.187.704-.336.203-.149.368-.336.496-.56.128-.224.192-.485.192-.784v-6.048h1.28v7.616h1.024V152h-.944c-.426 0-.741-.128-.944-.384-.192-.256-.304-.581-.336-.976h-.064c-.17.491-.49.875-.96 1.152-.458.267-1.008.4-1.648.4Zm6.331-8.928h1.264l.576 4.128.288 3.216h.064l.816-3.216 1.184-4.128h1.152l1.2 4.128.8 3.216h.08l.288-3.216.56-4.128h1.28l-1.28 8.736h-1.456l-1.408-4.848-.624-2.448h-.048l-.624 2.448-1.408 4.848h-1.424l-1.28-8.736Zm8.21-1.712c-.48 0-.832-.117-1.056-.352-.224-.235-.336-.544-.336-.928v-.992h1.28v1.168h4.08v1.104h-3.968Zm6.777 10.64c-1.131 0-1.995-.4-2.592-1.2-.598-.811-.896-1.941-.896-3.392 0-1.429.208-2.539.624-3.328.416-.8 1.05-1.2 1.904-1.2.384 0 .725.107 1.024.32.298.213.501.528.608.944h.08c.106-.416.314-.731.624-.944.32-.213.682-.32 1.088-.32.608 0 1.077.203 1.408.608.33.405.496.971.496 1.696v3.936c0 .299.058.56.176.784.117.224.272.411.464.56.192.139.41.245.656.32.245.064.496.096.752.096 1.269 0 1.904-.8 1.904-2.4v-5.408h1.28v5.568c0 1.077-.246 1.909-.736 2.496-.491.576-1.174.864-2.048.864-.342 0-.646-.048-.912-.144-.256-.085-.48-.203-.672-.352-.192-.149-.352-.32-.48-.512s-.23-.395-.304-.608h-.08V152h-1.264v-6.608c0-.416-.086-.72-.256-.912-.16-.203-.39-.304-.688-.304-.363 0-.624.133-.784.4-.15.256-.251.549-.304.88h-.832c-.022-.16-.054-.315-.096-.464-.032-.16-.091-.299-.176-.416-.075-.128-.176-.224-.304-.288-.118-.075-.267-.112-.448-.112-.246 0-.454.069-.624.208-.171.139-.31.331-.416.576-.096.245-.171.539-.224.88-.043.331-.064.693-.064 1.088v1.28c0 .907.186 1.616.56 2.128.373.501.97.752 1.792.752.117 0 .24-.005.368-.016.138-.011.272-.027.4-.048l.16 1.072c-.203.043-.406.069-.608.08-.192.011-.379.016-.56.016Zm15.12 0c-.928 0-1.653-.293-2.176-.88-.523-.587-.784-1.413-.784-2.48v-5.568h1.28v5.408c0 1.621.693 2.432 2.08 2.432.267 0 .533-.037.8-.112.267-.075.501-.187.704-.336.203-.149.368-.336.496-.56.128-.224.192-.485.192-.784v-6.048h1.28v7.616h1.024V152h-.944c-.427 0-.741-.128-.944-.384-.192-.256-.304-.581-.336-.976h-.064c-.171.491-.491.875-.96 1.152-.459.267-1.008.4-1.648.4ZM300.91 146c0-1.227-.634-1.84-1.904-1.84-.512 0-.933.112-1.264.336-.32.224-.592.523-.816.896l-.784-.688c.246-.469.603-.859 1.072-1.168.48-.309 1.104-.464 1.872-.464 1.003 0 1.771.245 2.304.736.534.491.8 1.184.8 2.08V152h-1.28v-6Zm-108.422 25.008-1.36-.576c.032-.491.149-.939.352-1.344.213-.416.49-.773.832-1.072.341-.299.736-.528 1.184-.688.458-.171.954-.256 1.488-.256 1.248 0 2.202.315 2.864.944.661.619.992 1.461.992 2.528V176h-1.28v-5.296c0-.832-.235-1.461-.704-1.888-.459-.427-1.067-.64-1.824-.64-.331 0-.646.043-.944.128-.288.075-.55.187-.784.336a2.213 2.213 0 0 0-.608.528c-.171.203-.294.432-.368.688l.8.32c.224.085.384.197.48.336.106.128.16.309.16.544V176h-1.28v-4.992Zm8.997-3.744h1.28v1.424h.08c.085-.203.192-.4.32-.592.139-.203.309-.379.512-.528.213-.149.459-.267.736-.352.288-.096.619-.144.992-.144.928 0 1.653.293 2.176.88.533.576.8 1.403.8 2.48V176h-1.28v-5.408c0-1.621-.704-2.432-2.112-2.432-.277 0-.549.037-.816.112-.267.075-.507.187-.72.336-.203.149-.368.336-.496.56-.128.224-.192.485-.192.784V176h-1.28v-8.736Zm13.419 8.928c-.373 0-.698-.048-.976-.144-.277-.085-.517-.203-.72-.352-.202-.149-.373-.32-.512-.512a3.3605 3.3605 0 0 1-.32-.608h-.08V176h-1.28v-8.736h1.28v6.048c0 .299.064.56.192.784.128.224.294.411.496.56.214.149.448.261.704.336.267.075.539.112.816.112.704 0 1.232-.203 1.584-.608.363-.416.544-1.024.544-1.824v-5.408h1.28v5.568c0 1.077-.266 1.909-.8 2.496-.533.576-1.269.864-2.208.864Zm6.147 0c-.341 0-.592-.085-.752-.256-.149-.171-.224-.395-.224-.672v-.208c0-.277.075-.501.224-.672.16-.171.411-.256.752-.256s.587.085.736.256c.16.171.24.395.24.672v.208c0 .277-.08.501-.24.672-.149.171-.395.256-.736.256Zm14.493-.192h-7.328v-1.376l3.648-3.36c.522-.48.96-.987 1.312-1.52.352-.544.528-1.088.528-1.632v-.192c0-.619-.171-1.12-.512-1.504-.342-.384-.859-.576-1.552-.576-.342 0-.64.048-.896.144-.256.096-.48.229-.672.4-.182.171-.336.373-.464.608-.118.224-.214.469-.288.736l-1.2-.464c.106-.331.25-.651.432-.96.192-.32.426-.603.704-.848.288-.245.629-.443 1.024-.592.405-.149.88-.224 1.424-.224.544 0 1.029.08 1.456.24.426.16.784.384 1.072.672.288.288.506.629.656 1.024.16.395.24.832.24 1.312 0 .437-.064.843-.192 1.216-.118.373-.283.731-.496 1.072-.214.331-.475.656-.784.976-.299.32-.624.64-.976.96l-3.008 2.704h5.872V176Zm5.865.192c-1.333 0-2.309-.507-2.928-1.52-.608-1.013-.912-2.432-.912-4.256 0-1.824.304-3.243.912-4.256.619-1.013 1.595-1.52 2.928-1.52 1.334 0 2.304.507 2.912 1.52.619 1.013.928 2.432.928 4.256 0 1.824-.309 3.243-.928 4.256-.608 1.013-1.578 1.52-2.912 1.52Zm0-1.168c.438 0 .811-.091 1.12-.272.31-.181.56-.437.752-.768.192-.331.331-.72.416-1.168.096-.448.144-.944.144-1.488v-1.824c0-.544-.048-1.04-.144-1.488-.085-.448-.224-.837-.416-1.168-.192-.331-.442-.587-.752-.768-.309-.181-.682-.272-1.12-.272-.437 0-.81.091-1.12.272-.309.181-.56.437-.752.768-.192.331-.336.72-.432 1.168-.085.448-.128.944-.128 1.488v1.824c0 .544.043 1.04.128 1.488.096.448.24.837.432 1.168.192.331.443.587.752.768.31.181.683.272 1.12.272Zm13.503 1.168c-1.13 0-2.021-.304-2.672-.912-.65-.619-.976-1.461-.976-2.528v-5.488h1.28v5.36c0 .8.208 1.413.624 1.84.427.416 1.008.624 1.744.624s1.312-.208 1.728-.624c.427-.427.64-1.04.64-1.84v-8.176h1.28v8.304c0 1.067-.325 1.909-.976 2.528-.65.608-1.541.912-2.672.912Zm-4.559-11.744h4.64v-1.168h1.248v2.272h-5.888v-1.104ZM266.857 176c-.459 0-.805-.123-1.04-.368-.224-.245-.336-.571-.336-.976v-6.96c0-.256.037-.485.112-.688.075-.203.165-.384.272-.544.117-.16.245-.309.384-.448l.4-.4c.181-.181.341-.373.48-.576.139-.213.208-.464.208-.752 0-.395-.117-.688-.352-.88-.235-.203-.539-.304-.912-.304-.832 0-1.371.443-1.616 1.328l-.992-.576c.213-.576.539-1.024.976-1.344.448-.32 1.029-.48 1.744-.48.395 0 .741.053 1.04.16.299.107.549.256.752.448.203.192.357.421.464.688.107.256.16.533.16.832 0 .235-.032.448-.096.64-.053.181-.128.352-.224.512-.096.16-.203.304-.32.432-.117.128-.235.256-.352.384-.213.213-.411.437-.592.672-.171.235-.256.517-.256.848v7.232h1.344V176h-1.248Zm3.191-8.736h1.28v2.8l2.384-.352c.469-.075.853-.203 1.152-.384.298-.192.474-.523.528-.992l.128-1.072h1.344l-.128 1.104c-.054.501-.24.901-.56 1.2-.32.299-.731.485-1.232.56v.08c1.056.288 1.648 1.104 1.776 2.448l.32 3.344h-1.344l-.304-3.424c-.032-.267-.091-.517-.176-.752-.086-.235-.214-.432-.384-.592-.171-.171-.39-.288-.656-.352-.256-.075-.571-.085-.944-.032l-1.904.272V176h-1.28v-8.736Zm13.325 8.928c-.373 0-.699-.048-.976-.144-.277-.085-.517-.203-.72-.352-.203-.149-.373-.32-.512-.512a3.2987 3.2987 0 0 1-.32-.608h-.08V176h-1.28v-8.736h1.28v6.048c0 .299.064.56.192.784.128.224.293.411.496.56.213.149.448.261.704.336.267.075.539.112.816.112.704 0 1.232-.203 1.584-.608.363-.416.544-1.024.544-1.824v-5.408h1.28v5.568c0 1.077-.267 1.909-.8 2.496-.533.576-1.269.864-2.208.864Zm1.754-13.6h1.248v2.96h-1.248v-2.96Z" />
</svg>