<svg xmlns="http://www.w3.org/2000/svg" width="300" height="100%" viewBox="0 0 300 76" fill="none">
    <g clip-path="url(#a)">
        <path fill="#000" d="M18.0001 68.5v6h-13v-6z" />
        <path fill="#E8E4D8"
            d="M18.0001 68.5v6l6.8073-2.0422c.9502-.285.9502-1.6306 0-1.9156L18.0001 68.5Z" />
        <path fill="#000" fill-rule="evenodd"
            d="m18.0001 68.5 6.8073 2.0422c.9502.285.9502 1.6306 0 1.9156L18.0001 74.5v-6Zm1 1.344L24.52 71.5l-5.5199 1.656v-3.312Z"
            clip-rule="evenodd" />
        <path fill="#000" d="M22.0001 70.5v2l3-1-3-1Z" />
        <path fill="#E8E4D8" d="M3.0001 68.5v6h2v-6z" />
        <path fill="#000"
            d="M3.0001 68.5v1h2v-1zM3.0001 73.5v1h2v-1zM3.0001 68.5v6h-1c-1.1045 0-2-.8954-2-2v-2c0-1.1046.8955-2 2-2h1Z" />
        <rect width="10.2" height="9" x="5.5" y="55.5" stroke="#000" rx="4.5" />
        <rect width="10.2" height="9" x="16.7" y="55.5" stroke="#000" rx="4.5" />
        <rect width="10.2" height="9" x="27.8999" y="55.5" stroke="#000" rx="4.5" />
        <rect width="10.2" height="9" x="39.1001" y="55.5" stroke="#000" rx="4.5" />
        <rect width="10.2" height="9" x="50.3" y="55.5" stroke="#000" rx="4.5" />
        <rect width="10.2" height="9" x="61.5" y="55.5" fill="#4CC45D" rx="4.5" />
        <path fill="#000"
            d="M53.7934 52h5.928v-1.512h-3.96l1.56-1.224c1.2-.948 2.232-1.824 2.232-3.264 0-1.452-1.044-2.52-2.856-2.52-1.74 0-2.712.972-3.084 2.136l1.572.6c.168-.636.552-1.176 1.344-1.176.54 0 1.104.324 1.104.96v.168c0 .708-.324 1.176-1.26 1.98l-2.58 2.208V52Zm10.0513.144c2.064 0 3.216-1.26 3.216-2.964 0-1.68-1.152-2.664-2.58-2.664-1.068 0-1.464.54-1.8 1.332h-.096l.18-2.652h3.804v-1.572h-5.124l-.312 4.74 1.476.204c.216-.252.648-.588 1.296-.588.78 0 1.26.48 1.26 1.248v.096c0 .816-.444 1.356-1.308 1.356-.864 0-1.332-.528-1.692-1.176l-1.308 1.032c.504.852 1.368 1.608 2.988 1.608Zm7.3033 0c1.908 0 3.144-1.224 3.144-2.94 0-1.584-1.068-2.604-2.448-2.604-1.068 0-1.56.624-1.848 1.26l-.108-.036c.336-1.596 1.56-2.736 3.6-4.2h-2.484c-1.428.972-3 2.844-3 5.196 0 2.016 1.152 3.324 3.144 3.324Zm0-1.404c-.792 0-1.272-.456-1.272-1.272v-.216c0-.816.48-1.272 1.272-1.272s1.272.456 1.272 1.272v.216c0 .816-.48 1.272-1.272 1.272ZM75.8233 52h5.832v-1.452h-1.776v-6.924h-2.76l-2.004 2.64 1.152.9 1.704-2.232h.108v5.616h-2.256V52ZM74 68.5v6H61v-6z" />
        <path fill="#E8E4D8" d="M74 68.5v6l6.8072-2.0422c.9502-.285.9502-1.6306 0-1.9156L74 68.5Z" />
        <path fill="#000" fill-rule="evenodd"
            d="m74 68.5 6.8072 2.0422c.9502.285.9502 1.6306 0 1.9156L74 74.5v-6Zm1 1.344 5.5199 1.656L75 73.156v-3.312Z"
            clip-rule="evenodd" />
        <path fill="#000" d="M78 70.5v2l3-1-3-1Z" />
        <path fill="#E8E4D8" d="M59 68.5v6h2v-6z" />
        <path fill="#000"
            d="M59 68.5v1h2v-1zM59 73.5v1h2v-1zM59 68.5v6h-1c-1.1046 0-2-.8954-2-2v-2c0-1.1046.8954-2 2-2h1Z" />
        <rect width="10.2" height="9" x="61.5" y="55.5" stroke="#000" rx="4.5" />
        <rect width="10.2" height="9" x="72.7" y="55.5" fill="#4CC45D" rx="4.5" />
        <rect width="10.2" height="9" x="72.7" y="55.5" stroke="#000" rx="4.5" />
        <rect width="10.2" height="9" x="83.8999" y="55.5" fill="#4CC45D" rx="4.5" />
        <rect width="10.2" height="9" x="83.8999" y="55.5" stroke="#000" rx="4.5" />
        <rect width="10.2" height="9" x="95.1001" y="55.5" fill="#4CC45D" rx="4.5" />
        <rect width="10.2" height="9" x="95.1001" y="55.5" stroke="#000" rx="4.5" />
        <rect width="10.2" height="9" x="106.3" y="55.5" fill="#4CC45D" rx="4.5" />
        <rect width="10.2" height="9" x="106.3" y="55.5" stroke="#000" rx="4.5" />
        <g opacity=".3">
            <rect width="10.2" height="9" x="117.5" y="55.5" fill="#4CC45D" rx="4.5" />
            <rect width="10.2" height="9" x="117.5" y="55.5" stroke="#000" rx="4.5" />
        </g>
        <g opacity=".3">
            <rect width="10.2" height="9" x="128.7" y="55.5" fill="#4CC45D" rx="4.5" />
            <rect width="10.2" height="9" x="128.7" y="55.5" stroke="#000" rx="4.5" />
        </g>
        <g opacity=".3">
            <rect width="10.2" height="9" x="139.9" y="55.5" fill="#4CC45D" rx="4.5" />
            <rect width="10.2" height="9" x="139.9" y="55.5" stroke="#000" rx="4.5" />
        </g>
        <g opacity=".3">
            <rect width="10.2" height="9" x="151.1" y="55.5" fill="#4CC45D" rx="4.5" />
            <rect width="10.2" height="9" x="151.1" y="55.5" stroke="#000" rx="4.5" />
        </g>
        <g opacity=".3">
            <rect width="10.2" height="9" x="162.3" y="55.5" fill="#4CC45D" rx="4.5" />
            <rect width="10.2" height="9" x="162.3" y="55.5" stroke="#000" rx="4.5" />
        </g>
        <g opacity=".3">
            <rect width="10.2" height="9" x="173.5" y="55.5" fill="#4CC45D" rx="4.5" />
            <rect width="10.2" height="9" x="173.5" y="55.5" stroke="#000" rx="4.5" />
        </g>
        <g opacity=".3">
            <rect width="10.2" height="9" x="184.7" y="55.5" fill="#4CC45D" rx="4.5" />
            <rect width="10.2" height="9" x="184.7" y="55.5" stroke="#000" rx="4.5" />
        </g>
        <g opacity=".3">
            <rect width="10.2" height="9" x="195.9" y="55.5" fill="#4CC45D" rx="4.5" />
            <rect width="10.2" height="9" x="195.9" y="55.5" stroke="#000" rx="4.5" />
        </g>
        <g opacity=".3">
            <rect width="10.2" height="9" x="207.1" y="55.5" fill="#4CC45D" rx="4.5" />
            <rect width="10.2" height="9" x="207.1" y="55.5" stroke="#000" rx="4.5" />
        </g>
        <g opacity=".3">
            <rect width="10.2" height="9" x="218.3" y="55.5" fill="#4CC45D" rx="4.5" />
            <rect width="10.2" height="9" x="218.3" y="55.5" stroke="#000" rx="4.5" />
        </g>
        <g opacity=".3">
            <rect width="10.2" height="9" x="229.5" y="55.5" fill="#4CC45D" rx="4.5" />
            <rect width="10.2" height="9" x="229.5" y="55.5" stroke="#000" rx="4.5" />
        </g>
        <g opacity=".3">
            <rect width="10.2" height="9" x="240.7" y="55.5" fill="#4CC45D" rx="4.5" />
            <rect width="10.2" height="9" x="240.7" y="55.5" stroke="#000" rx="4.5" />
        </g>
        <g opacity=".3">
            <rect width="10.2" height="9" x="251.9" y="55.5" fill="#4CC45D" rx="4.5" />
            <rect width="10.2" height="9" x="251.9" y="55.5" stroke="#000" rx="4.5" />
        </g>
        <g opacity=".3">
            <rect width="10.2" height="9" x="263.1" y="55.5" fill="#4CC45D" rx="4.5" />
            <rect width="10.2" height="9" x="263.1" y="55.5" stroke="#000" rx="4.5" />
        </g>
        <g opacity=".3">
            <rect width="10.2" height="9" x="274.3" y="55.5" fill="#4CC45D" rx="4.5" />
            <path fill="#000"
                d="M266.593 52h5.928v-1.512h-3.96l1.56-1.224c1.2-.948 2.232-1.824 2.232-3.264 0-1.452-1.044-2.52-2.856-2.52-1.74 0-2.712.972-3.084 2.136l1.572.6c.168-.636.552-1.176 1.344-1.176.54 0 1.104.324 1.104.96v.168c0 .708-.324 1.176-1.26 1.98l-2.58 2.208V52Zm10.052.144c2.064 0 3.216-1.26 3.216-2.964 0-1.68-1.152-2.664-2.58-2.664-1.068 0-1.464.54-1.8 1.332h-.096l.18-2.652h3.804v-1.572h-5.124l-.312 4.74 1.476.204c.216-.252.648-.588 1.296-.588.78 0 1.26.48 1.26 1.248v.096c0 .816-.444 1.356-1.308 1.356-.864 0-1.332-.528-1.692-1.176l-1.308 1.032c.504.852 1.368 1.608 2.988 1.608Zm7.255 0c1.98 0 3.12-1.032 3.12-2.436 0-1.068-.648-1.752-1.644-2.028v-.096c.816-.3 1.392-.924 1.392-1.896 0-1.284-1.02-2.208-2.868-2.208-1.848 0-2.868.924-2.868 2.208 0 .972.576 1.596 1.392 1.896v.096c-.996.276-1.644.96-1.644 2.028 0 1.404 1.14 2.436 3.12 2.436Zm0-5.076c-.756 0-1.176-.384-1.176-1.008v-.192c0-.624.42-1.008 1.176-1.008s1.176.384 1.176 1.008v.192c0 .624-.42 1.008-1.176 1.008Zm0 3.696c-.792 0-1.236-.408-1.236-1.068v-.24c0-.66.444-1.068 1.236-1.068s1.236.408 1.236 1.068v.24c0 .66-.444 1.068-1.236 1.068Zm7.195 1.38c2.196 0 3.228-1.596 3.228-4.332 0-2.736-1.032-4.332-3.228-4.332s-3.228 1.596-3.228 4.332c0 2.736 1.032 4.332 3.228 4.332Zm0-1.524c-.96 0-1.272-.744-1.272-2.016V47.02c0-1.272.312-2.016 1.272-2.016s1.272.744 1.272 2.016v1.584c0 1.272-.312 2.016-1.272 2.016Z" />
            <rect width="10.2" height="9" x="274.3" y="55.5" stroke="#000" rx="4.5" />
        </g>
        <g class="box-timeline-present">
            <path fill="currentColor" d="M80.5.5386h62v41h-62z" />
            <path fill="#fff"
                d="M94.9009 25.7066c-.9894 0-1.7687-.266-2.338-.798-.5694-.5414-.854-1.2787-.854-2.212v-4.802h1.12v4.69c0 .7.182 1.2366.546 1.61.3733.364.882.546 1.526.546s1.148-.182 1.512-.546c.3733-.3734.56-.91.56-1.61v-7.154h1.12v7.266c0 .9333-.2847 1.6706-.854 2.212-.5694.532-1.3487.798-2.338.798Zm-1.9033-9.31c-.42 0-.728-.1027-.924-.308-.196-.2054-.294-.476-.294-.812v-.868h1.12v1.022h3.164v.966h-3.066Zm8.2064 5.894h-.854v-.966h1.148c.14 0 .27.0326.392.098.13.056.219.1586.266.308l1.008 2.87h.532c.457 0 .826-.21 1.106-.63.28-.42.42-1.0034.42-1.75v-1.148c0-.756-.206-1.3394-.616-1.75-.402-.42-.952-.63-1.652-.63-.663 0-1.209.1353-1.638.406-.43.2613-.766.602-1.008 1.022l-.7282-.644c.1214-.2334.28-.4574.4762-.672.205-.2147.448-.4014.728-.56.289-.1587.616-.2847.98-.378.373-.0934.784-.14 1.232-.14 1.092 0 1.932.3453 2.52 1.036.597.6906.896 1.652.896 2.884 0 .6066-.07 1.1526-.21 1.638-.131.476-.318.882-.56 1.218-.243.336-.542.5926-.896.77-.355.1773-.747.266-1.176.266h-1.232l-1.134-3.248Zm8.039 0h-.854v-.966h1.148c.14 0 .271.0326.392.098.131.056.219.1586.266.308l1.008 2.87h.532c.457 0 .826-.21 1.106-.63.28-.42.42-1.0034.42-1.75v-1.148c0-.756-.205-1.3394-.616-1.75-.401-.42-.952-.63-1.652-.63-.663 0-1.209.1353-1.638.406-.429.2613-.765.602-1.008 1.022l-.728-.644c.121-.2334.28-.4574.476-.672.205-.2147.448-.4014.728-.56.289-.1587.616-.2847.98-.378.373-.0934.784-.14 1.232-.14 1.092 0 1.932.3453 2.52 1.036.597.6906.896 1.652.896 2.884 0 .6066-.07 1.1526-.21 1.638-.131.476-.317.882-.56 1.218-.243.336-.541.5926-.896.77-.355.1773-.747.266-1.176.266h-1.232l-1.134-3.248Zm3.715 5.726h-.924v-.896h1.19c.28 0 .486.0746.616.224.122.1493.182.35.182.602v2.408h-1.064v-2.338Zm6.648-2.31c-.989 0-1.769-.266-2.338-.798-.569-.5414-.854-1.2787-.854-2.212v-4.802h1.12v4.69c0 .7.182 1.2366.546 1.61.373.364.882.546 1.526.546s1.148-.182 1.512-.546c.373-.3734.56-.91.56-1.61v-4.69h1.12v4.802c0 .9333-.285 1.6706-.854 2.212-.569.532-1.349.798-2.338.798Zm2.018-9.31c-.42 0-.728-.1027-.924-.308-.196-.2054-.294-.476-.294-.812v-.868h1.12v1.022h3.57v.966h-3.472Zm6.007 9.31c-.812 0-1.447-.2567-1.904-.77-.457-.5134-.686-1.2367-.686-2.17v-4.872h1.12v4.732c0 1.4186.607 2.128 1.82 2.128.233 0 .467-.0327.7-.098.233-.0654.439-.1634.616-.294.177-.1307.322-.294.434-.49.112-.196.168-.4247.168-.686v-5.292h1.12v6.664h.896v.98h-.826c-.373 0-.649-.112-.826-.336-.168-.224-.266-.5087-.294-.854h-.056c-.149.4293-.429.7653-.84 1.008-.401.2333-.882.35-1.442.35Z" />
            <path fill="currentColor" d="m111.5 55.5386 7-14h-14l7 14Z" />
        </g>
        <g fill="#000" opacity=".3">
            <path d="m298.5 32.0386-11 3.5v-7l11 3.5ZM286.5 27.5386h1v14h-1z" />
        </g>
    </g>
    <defs>
        <clipPath id="a">
            <path fill="#fff" d="M0 0h299v75H0z" />
        </clipPath>
    </defs>
</svg>