<svg width="inherit" height="inherit" viewBox="0 0 300 76" fill="none"
    xmlns="http://www.w3.org/2000/svg">
    <g clip-path="url(#clip0_2659_17631)">
        <rect width="299" height="75" transform="translate(0.5 0.644287)" fill="#E8E4D8" />
        <rect x="18.5" y="69.1443" width="6" height="13" transform="rotate(90 18.5 69.1443)"
            fill="black" />
        <path
            d="M18.5 69.1443L18.5 75.1443L25.3072 73.1021C26.2574 72.8171 26.2574 71.4715 25.3072 71.1865L18.5 69.1443Z"
            fill="#E8E4D8" />
        <path fill-rule="evenodd" clip-rule="evenodd"
            d="M18.5 69.1443L25.3072 71.1865C26.2574 71.4715 26.2574 72.8171 25.3072 73.1021L18.5 75.1443L18.5 69.1443ZM19.5 70.4883L25.0199 72.1443L19.5 73.8003L19.5 70.4883Z"
            fill="black" />
        <path d="M22.5 71.1443L22.5 73.1443L25.5 72.1443L22.5 71.1443Z" fill="black" />
        <rect width="6" height="2" transform="matrix(-4.37114e-08 1 1 4.37114e-08 3.5 69.1443)"
            fill="#E8E4D8" />
        <rect width="1" height="2" transform="matrix(-4.37114e-08 1 1 4.37114e-08 3.5 69.1443)"
            fill="black" />
        <rect width="1" height="2" transform="matrix(-4.37114e-08 1 1 4.37114e-08 3.5 74.1443)"
            fill="black" />
        <path
            d="M3.5 69.1443L3.5 75.1443L2.5 75.1443C1.39543 75.1443 0.5 74.2489 0.5 73.1443L0.5 71.1443C0.5 70.0397 1.39543 69.1443 2.5 69.1443L3.5 69.1443Z"
            fill="black" />
        <rect x="6" y="56.1443" width="10.2" height="9" rx="4.5" stroke="black" />
        <rect x="17.2" y="56.1443" width="10.2" height="9" rx="4.5" stroke="black" />
        <rect x="28.4" y="56.1443" width="10.2" height="9" rx="4.5" stroke="black" />
        <rect x="39.6" y="56.1443" width="10.2" height="9" rx="4.5" stroke="black" />
        <rect x="50.8" y="56.1443" width="10.2" height="9" rx="4.5" stroke="black" />
        <rect x="62" y="56.1443" width="10.2" height="9" rx="4.5" fill="#4CC45D" />
        <path
            d="M54.2934 52.6443H60.2214V51.1323H56.2614L57.8214 49.9083C59.0214 48.9603 60.0534 48.0843 60.0534 46.6443C60.0534 45.1923 59.0094 44.1243 57.1974 44.1243C55.4574 44.1243 54.4854 45.0963 54.1134 46.2603L55.6854 46.8603C55.8534 46.2243 56.2374 45.6843 57.0294 45.6843C57.5694 45.6843 58.1334 46.0083 58.1334 46.6443V46.8123C58.1334 47.5203 57.8094 47.9883 56.8734 48.7923L54.2934 51.0003V52.6443ZM64.3447 52.7883C66.4087 52.7883 67.5607 51.5283 67.5607 49.8243C67.5607 48.1443 66.4087 47.1603 64.9807 47.1603C63.9127 47.1603 63.5167 47.7003 63.1807 48.4923H63.0847L63.2647 45.8403H67.0687V44.2683H61.9447L61.6327 49.0083L63.1087 49.2123C63.3247 48.9603 63.7567 48.6243 64.4047 48.6243C65.1847 48.6243 65.6647 49.1043 65.6647 49.8723V49.9683C65.6647 50.7843 65.2207 51.3243 64.3567 51.3243C63.4927 51.3243 63.0247 50.7963 62.6647 50.1483L61.3567 51.1803C61.8607 52.0323 62.7247 52.7883 64.3447 52.7883ZM71.648 52.7883C73.556 52.7883 74.792 51.5643 74.792 49.8483C74.792 48.2643 73.724 47.2443 72.344 47.2443C71.276 47.2443 70.784 47.8683 70.496 48.5043L70.388 48.4683C70.724 46.8723 71.948 45.7323 73.988 44.2683H71.504C70.076 45.2403 68.504 47.1123 68.504 49.4643C68.504 51.4803 69.656 52.7883 71.648 52.7883ZM71.648 51.3843C70.856 51.3843 70.376 50.9283 70.376 50.1123V49.8963C70.376 49.0803 70.856 48.6243 71.648 48.6243C72.44 48.6243 72.92 49.0803 72.92 49.8963V50.1123C72.92 50.9283 72.44 51.3843 71.648 51.3843ZM76.3233 52.6443H82.1553V51.1923H80.3793V44.2683H77.6193L75.6153 46.9083L76.7673 47.8083L78.4713 45.5763H78.5793V51.1923H76.3233V52.6443Z"
            fill="black" />
        <rect x="74.5" y="69.1443" width="6" height="13" transform="rotate(90 74.5 69.1443)"
            fill="black" />
        <path
            d="M74.5 69.1443L74.5 75.1443L81.3072 73.1021C82.2574 72.8171 82.2574 71.4715 81.3072 71.1865L74.5 69.1443Z"
            fill="#E8E4D8" />
        <path fill-rule="evenodd" clip-rule="evenodd"
            d="M74.5 69.1443L81.3072 71.1865C82.2574 71.4715 82.2574 72.8171 81.3072 73.1021L74.5 75.1443L74.5 69.1443ZM75.5 70.4883L81.0199 72.1443L75.5 73.8003L75.5 70.4883Z"
            fill="black" />
        <path d="M78.5 71.1443L78.5 73.1443L81.5 72.1443L78.5 71.1443Z" fill="black" />
        <rect width="6" height="2" transform="matrix(-4.37114e-08 1 1 4.37114e-08 59.5 69.1443)"
            fill="#E8E4D8" />
        <rect width="1" height="2" transform="matrix(-4.37114e-08 1 1 4.37114e-08 59.5 69.1443)"
            fill="black" />
        <rect width="1" height="2" transform="matrix(-4.37114e-08 1 1 4.37114e-08 59.5 74.1443)"
            fill="black" />
        <path
            d="M59.5 69.1443L59.5 75.1443L58.5 75.1443C57.3954 75.1443 56.5 74.2489 56.5 73.1443L56.5 71.1443C56.5 70.0397 57.3954 69.1443 58.5 69.1443L59.5 69.1443Z"
            fill="black" />
        <rect x="62" y="56.1443" width="10.2" height="9" rx="4.5" stroke="black" />
        <rect x="73.2" y="56.1443" width="10.2" height="9" rx="4.5" fill="#4CC45D" />
        <rect x="73.2" y="56.1443" width="10.2" height="9" rx="4.5" stroke="black" />
        <rect x="84.4" y="56.1443" width="10.2" height="9" rx="4.5" fill="#4CC45D" />
        <rect x="84.4" y="56.1443" width="10.2" height="9" rx="4.5" stroke="black" />
        <rect x="95.6" y="56.1443" width="10.2" height="9" rx="4.5" fill="#4CC45D" />
        <rect x="95.6" y="56.1443" width="10.2" height="9" rx="4.5" stroke="black" />
        <rect x="106.8" y="56.1443" width="10.2" height="9" rx="4.5" fill="#4CC45D" />
        <rect x="106.8" y="56.1443" width="10.2" height="9" rx="4.5" stroke="black" />
        <g opacity="0.3">
            <rect x="118" y="56.1443" width="10.2" height="9" rx="4.5" fill="#4CC45D" />
            <rect x="118" y="56.1443" width="10.2" height="9" rx="4.5" stroke="black" />
        </g>
        <g opacity="0.3">
            <rect x="129.2" y="56.1443" width="10.2" height="9" rx="4.5" fill="#4CC45D" />
            <rect x="129.2" y="56.1443" width="10.2" height="9" rx="4.5" stroke="black" />
        </g>
        <g opacity="0.3">
            <rect x="140.4" y="56.1443" width="10.2" height="9" rx="4.5" fill="#4CC45D" />
            <rect x="140.4" y="56.1443" width="10.2" height="9" rx="4.5" stroke="black" />
        </g>
        <g opacity="0.3">
            <rect x="151.6" y="56.1443" width="10.2" height="9" rx="4.5" fill="#4CC45D" />
            <rect x="151.6" y="56.1443" width="10.2" height="9" rx="4.5" stroke="black" />
        </g>
        <g opacity="0.3">
            <rect x="162.8" y="56.1443" width="10.2" height="9" rx="4.5" fill="#4CC45D" />
            <rect x="162.8" y="56.1443" width="10.2" height="9" rx="4.5" stroke="black" />
        </g>
        <g opacity="0.3">
            <rect x="174" y="56.1443" width="10.2" height="9" rx="4.5" fill="#4CC45D" />
            <rect x="174" y="56.1443" width="10.2" height="9" rx="4.5" stroke="black" />
        </g>
        <g opacity="0.3">
            <rect x="185.2" y="56.1443" width="10.2" height="9" rx="4.5" fill="#4CC45D" />
            <rect x="185.2" y="56.1443" width="10.2" height="9" rx="4.5" stroke="black" />
        </g>
        <g opacity="0.3">
            <rect x="196.4" y="56.1443" width="10.2" height="9" rx="4.5" fill="#4CC45D" />
            <rect x="196.4" y="56.1443" width="10.2" height="9" rx="4.5" stroke="black" />
        </g>
        <g opacity="0.3">
            <rect x="207.6" y="56.1443" width="10.2" height="9" rx="4.5" fill="#4CC45D" />
            <rect x="207.6" y="56.1443" width="10.2" height="9" rx="4.5" stroke="black" />
        </g>
        <g opacity="0.3">
            <rect x="218.8" y="56.1443" width="10.2" height="9" rx="4.5" fill="#4CC45D" />
            <rect x="218.8" y="56.1443" width="10.2" height="9" rx="4.5" stroke="black" />
        </g>
        <g opacity="0.3">
            <rect x="230" y="56.1443" width="10.2" height="9" rx="4.5" fill="#4CC45D" />
            <rect x="230" y="56.1443" width="10.2" height="9" rx="4.5" stroke="black" />
        </g>
        <g opacity="0.3">
            <rect x="241.2" y="56.1443" width="10.2" height="9" rx="4.5" fill="#4CC45D" />
            <rect x="241.2" y="56.1443" width="10.2" height="9" rx="4.5" stroke="black" />
        </g>
        <g opacity="0.3">
            <rect x="252.4" y="56.1443" width="10.2" height="9" rx="4.5" fill="#4CC45D" />
            <rect x="252.4" y="56.1443" width="10.2" height="9" rx="4.5" stroke="black" />
        </g>
        <g opacity="0.3">
            <rect x="263.6" y="56.1443" width="10.2" height="9" rx="4.5" fill="#4CC45D" />
            <rect x="263.6" y="56.1443" width="10.2" height="9" rx="4.5" stroke="black" />
        </g>
        <g opacity="0.3">
            <rect x="274.8" y="56.1443" width="10.2" height="9" rx="4.5" fill="#4CC45D" />
            <path
                d="M267.093 52.6443H273.021V51.1323H269.061L270.621 49.9083C271.821 48.9603 272.853 48.0843 272.853 46.6443C272.853 45.1923 271.809 44.1243 269.997 44.1243C268.257 44.1243 267.285 45.0963 266.913 46.2603L268.485 46.8603C268.653 46.2243 269.037 45.6843 269.829 45.6843C270.369 45.6843 270.933 46.0083 270.933 46.6443V46.8123C270.933 47.5203 270.609 47.9883 269.673 48.7923L267.093 51.0003V52.6443ZM277.145 52.7883C279.209 52.7883 280.361 51.5283 280.361 49.8243C280.361 48.1443 279.209 47.1603 277.781 47.1603C276.713 47.1603 276.317 47.7003 275.981 48.4923H275.885L276.065 45.8403H279.869V44.2683H274.745L274.433 49.0083L275.909 49.2123C276.125 48.9603 276.557 48.6243 277.205 48.6243C277.985 48.6243 278.465 49.1043 278.465 49.8723V49.9683C278.465 50.7843 278.021 51.3243 277.157 51.3243C276.293 51.3243 275.825 50.7963 275.465 50.1483L274.157 51.1803C274.661 52.0323 275.525 52.7883 277.145 52.7883ZM284.4 52.7883C286.38 52.7883 287.52 51.7563 287.52 50.3523C287.52 49.2843 286.872 48.6003 285.876 48.3243V48.2283C286.692 47.9283 287.268 47.3043 287.268 46.3323C287.268 45.0483 286.248 44.1243 284.4 44.1243C282.552 44.1243 281.532 45.0483 281.532 46.3323C281.532 47.3043 282.108 47.9283 282.924 48.2283V48.3243C281.928 48.6003 281.28 49.2843 281.28 50.3523C281.28 51.7563 282.42 52.7883 284.4 52.7883ZM284.4 47.7123C283.644 47.7123 283.224 47.3283 283.224 46.7043V46.5123C283.224 45.8883 283.644 45.5043 284.4 45.5043C285.156 45.5043 285.576 45.8883 285.576 46.5123V46.7043C285.576 47.3283 285.156 47.7123 284.4 47.7123ZM284.4 51.4083C283.608 51.4083 283.164 51.0003 283.164 50.3403V50.1003C283.164 49.4403 283.608 49.0323 284.4 49.0323C285.192 49.0323 285.636 49.4403 285.636 50.1003V50.3403C285.636 51.0003 285.192 51.4083 284.4 51.4083ZM291.595 52.7883C293.791 52.7883 294.823 51.1923 294.823 48.4563C294.823 45.7203 293.791 44.1243 291.595 44.1243C289.399 44.1243 288.367 45.7203 288.367 48.4563C288.367 51.1923 289.399 52.7883 291.595 52.7883ZM291.595 51.2643C290.635 51.2643 290.323 50.5203 290.323 49.2483V47.6643C290.323 46.3923 290.635 45.6483 291.595 45.6483C292.555 45.6483 292.867 46.3923 292.867 47.6643V49.2483C292.867 50.5203 292.555 51.2643 291.595 51.2643Z"
                fill="black" />
            <rect x="274.8" y="56.1443" width="10.2" height="9" rx="4.5" stroke="black" />
        </g>
        <rect width="62" height="41" transform="translate(81 1.18286)" fill="black" />
        <path
            d="M95.4009 26.3509C94.4115 26.3509 93.6322 26.0849 93.0629 25.5529C92.4935 25.0115 92.2089 24.2742 92.2089 23.3409V18.5389H93.3289V23.2289C93.3289 23.9289 93.5109 24.4655 93.8749 24.8389C94.2482 25.2029 94.7569 25.3849 95.4009 25.3849C96.0449 25.3849 96.5489 25.2029 96.9129 24.8389C97.2862 24.4655 97.4729 23.9289 97.4729 23.2289V16.0749H98.5929V23.3409C98.5929 24.2742 98.3082 25.0115 97.7389 25.5529C97.1695 26.0849 96.3902 26.3509 95.4009 26.3509ZM93.4976 17.0409C93.0776 17.0409 92.7696 16.9382 92.5736 16.7329C92.3776 16.5275 92.2796 16.2569 92.2796 15.9209V15.0529H93.3996V16.0749H96.5636V17.0409H93.4976ZM101.704 22.9349H100.85V21.9689H101.998C102.138 21.9689 102.268 22.0015 102.39 22.0669C102.52 22.1229 102.609 22.2255 102.656 22.3749L103.664 25.2449H104.196C104.653 25.2449 105.022 25.0349 105.302 24.6149C105.582 24.1949 105.722 23.6115 105.722 22.8649V21.7169C105.722 20.9609 105.516 20.3775 105.106 19.9669C104.704 19.5469 104.154 19.3369 103.454 19.3369C102.791 19.3369 102.245 19.4722 101.816 19.7429C101.386 20.0042 101.05 20.3449 100.808 20.7649L100.08 20.1209C100.201 19.8875 100.36 19.6635 100.556 19.4489C100.761 19.2342 101.004 19.0475 101.284 18.8889C101.573 18.7302 101.9 18.6042 102.264 18.5109C102.637 18.4175 103.048 18.3709 103.496 18.3709C104.588 18.3709 105.428 18.7162 106.016 19.4069C106.613 20.0975 106.912 21.0589 106.912 22.2909C106.912 22.8975 106.842 23.4435 106.702 23.9289C106.571 24.4049 106.384 24.8109 106.142 25.1469C105.899 25.4829 105.6 25.7395 105.246 25.9169C104.891 26.0942 104.499 26.1829 104.07 26.1829H102.838L101.704 22.9349ZM109.743 22.9349H108.889V21.9689H110.037C110.177 21.9689 110.308 22.0015 110.429 22.0669C110.56 22.1229 110.648 22.2255 110.695 22.3749L111.703 25.2449H112.235C112.692 25.2449 113.061 25.0349 113.341 24.6149C113.621 24.1949 113.761 23.6115 113.761 22.8649V21.7169C113.761 20.9609 113.556 20.3775 113.145 19.9669C112.744 19.5469 112.193 19.3369 111.493 19.3369C110.83 19.3369 110.284 19.4722 109.855 19.7429C109.426 20.0042 109.09 20.3449 108.847 20.7649L108.119 20.1209C108.24 19.8875 108.399 19.6635 108.595 19.4489C108.8 19.2342 109.043 19.0475 109.323 18.8889C109.612 18.7302 109.939 18.6042 110.303 18.5109C110.676 18.4175 111.087 18.3709 111.535 18.3709C112.627 18.3709 113.467 18.7162 114.055 19.4069C114.652 20.0975 114.951 21.0589 114.951 22.2909C114.951 22.8975 114.881 23.4435 114.741 23.9289C114.61 24.4049 114.424 24.8109 114.181 25.1469C113.938 25.4829 113.64 25.7395 113.285 25.9169C112.93 26.0942 112.538 26.1829 112.109 26.1829H110.877L109.743 22.9349ZM113.458 28.6609H112.534V27.7649H113.724C114.004 27.7649 114.21 27.8395 114.34 27.9889C114.462 28.1382 114.522 28.3389 114.522 28.5909V30.9989H113.458V28.6609ZM120.106 26.3509C119.117 26.3509 118.337 26.0849 117.768 25.5529C117.199 25.0115 116.914 24.2742 116.914 23.3409V18.5389H118.034V23.2289C118.034 23.9289 118.216 24.4655 118.58 24.8389C118.953 25.2029 119.462 25.3849 120.106 25.3849C120.75 25.3849 121.254 25.2029 121.618 24.8389C121.991 24.4655 122.178 23.9289 122.178 23.2289V18.5389H123.298V23.3409C123.298 24.2742 123.013 25.0115 122.444 25.5529C121.875 26.0849 121.095 26.3509 120.106 26.3509ZM122.124 17.0409C121.704 17.0409 121.396 16.9382 121.2 16.7329C121.004 16.5275 120.906 16.2569 120.906 15.9209V15.0529H122.026V16.0749H125.596V17.0409H122.124ZM128.131 26.3509C127.319 26.3509 126.684 26.0942 126.227 25.5809C125.77 25.0675 125.541 24.3442 125.541 23.4109V18.5389H126.661V23.2709C126.661 24.6895 127.268 25.3989 128.481 25.3989C128.714 25.3989 128.948 25.3662 129.181 25.3009C129.414 25.2355 129.62 25.1375 129.797 25.0069C129.974 24.8762 130.119 24.7129 130.231 24.5169C130.343 24.3209 130.399 24.0922 130.399 23.8309V18.5389H131.519V25.2029H132.415V26.1829H131.589C131.216 26.1829 130.94 26.0709 130.763 25.8469C130.595 25.6229 130.497 25.3382 130.469 24.9929H130.413C130.264 25.4222 129.984 25.7582 129.573 26.0009C129.172 26.2342 128.691 26.3509 128.131 26.3509Z"
            fill="white" />
        <path d="M112 56.1829L119 42.1829L105 42.1829L112 56.1829Z" fill="black" />
        <g opacity="0.3">
            <path d="M299 32.6829L288 36.1829L288 29.1829L299 32.6829Z" fill="black" />
            <rect x="287" y="28.1829" width="1" height="14" fill="black" />
        </g>
    </g>
    <defs>
        <clipPath id="clip0_2659_17631">
            <rect width="299" height="75" fill="white" transform="translate(0.5 0.644287)" />
        </clipPath>
    </defs>
</svg>
    