<svg width="18" height="5" viewBox="0 0 18 5" fill="none" xmlns="http://www.w3.org/2000/svg">
  <rect x="12.2143" y="0.5" width="4" height="8.82143" transform="rotate(90 12.2143 0.5)"
    fill="black" />
  <path
    d="M12.2143 0.5L12.2143 4.5L16.8335 3.13855C17.4783 2.94851 17.4783 2.05149 16.8335 1.86145L12.2143 0.5Z"
    fill="#E8E4D8" />
  <path fill-rule="evenodd" clip-rule="evenodd"
    d="M12.2143 0.5L16.8335 1.86145C17.4783 2.05149 17.4783 2.94851 16.8335 3.13855L12.2143 4.5L12.2143 0.5ZM12.8929 1.39602L16.6385 2.5L12.8929 3.60398L12.8929 1.39602Z"
    fill="black" />
  <path d="M14.9286 1.83334L14.9286 3.16668L16.9643 2.50001L14.9286 1.83334Z" fill="black" />
  <rect width="4" height="1.35714" transform="matrix(-4.37114e-08 1 1 4.37114e-08 2.03571 0.5)"
    fill="#E8E4D8" />
  <rect width="0.666667" height="1.35714"
    transform="matrix(-4.37114e-08 1 1 4.37114e-08 2.03571 0.5)" fill="black" />
  <rect width="0.666667" height="1.35714"
    transform="matrix(-4.37114e-08 1 1 4.37114e-08 2.03571 3.83334)" fill="black" />
  <path
    d="M2.03571 0.5L2.03571 4.5L1.99999 4.5C0.895422 4.5 -9.67245e-06 3.60457 -9.62417e-06 2.5C-9.57588e-06 1.39543 0.895422 0.5 1.99999 0.5L2.03571 0.5Z"
    fill="black" />
</svg>
    