<svg width="924" height="193" viewBox="0 0 924 193" fill="none" xmlns="http://www.w3.org/2000/svg">
<path d="M8.92494 54H2.00894V52.082L5.01894 49.506C5.2896 49.2727 5.51827 49.0627 5.70494 48.876C5.8916 48.68 6.04094 48.4933 6.15294 48.316C6.27427 48.1293 6.35827 47.9473 6.40494 47.77C6.46094 47.5927 6.48894 47.4013 6.48894 47.196V47C6.48894 46.8133 6.4516 46.65 6.37694 46.51C6.30227 46.37 6.20427 46.2533 6.08294 46.16C5.9616 46.0667 5.8216 45.9967 5.66294 45.95C5.5136 45.9033 5.3596 45.88 5.20094 45.88C4.9676 45.88 4.76227 45.9173 4.58494 45.992C4.41694 46.0667 4.2676 46.1693 4.13694 46.3C4.0156 46.4213 3.91294 46.566 3.82894 46.734C3.74494 46.8927 3.6796 47.0653 3.63294 47.252L1.79894 46.552C1.91094 46.216 2.06494 45.8987 2.26094 45.6C2.45694 45.292 2.6996 45.026 2.98894 44.802C3.2876 44.5687 3.6376 44.3867 4.03894 44.256C4.44027 44.1253 4.89294 44.06 5.39694 44.06C5.92894 44.06 6.40027 44.1347 6.81094 44.284C7.2216 44.4333 7.56694 44.6387 7.84694 44.9C8.13627 45.1613 8.3556 45.474 8.50494 45.838C8.65427 46.1927 8.72894 46.58 8.72894 47C8.72894 47.42 8.65894 47.8027 8.51894 48.148C8.37894 48.4933 8.1876 48.82 7.94494 49.128C7.7116 49.4267 7.43627 49.7113 7.11894 49.982C6.8016 50.2527 6.47027 50.528 6.12494 50.808L4.30494 52.236H8.92494V54ZM16.9135 46.062H12.4755L12.2655 49.156H12.3775C12.4708 48.9227 12.5735 48.7127 12.6855 48.526C12.8068 48.33 12.9468 48.1667 13.1055 48.036C13.2641 47.896 13.4555 47.7887 13.6795 47.714C13.9035 47.6393 14.1695 47.602 14.4775 47.602C14.8975 47.602 15.2895 47.672 15.6535 47.812C16.0175 47.952 16.3348 48.1573 16.6055 48.428C16.8761 48.6893 17.0908 49.016 17.2495 49.408C17.4081 49.7907 17.4875 50.2247 17.4875 50.71C17.4875 51.2047 17.4035 51.6667 17.2355 52.096C17.0768 52.516 16.8341 52.88 16.5075 53.188C16.1901 53.496 15.7981 53.7387 15.3315 53.916C14.8648 54.084 14.3328 54.168 13.7355 54.168C13.2595 54.168 12.8395 54.1167 12.4755 54.014C12.1115 53.9113 11.7895 53.776 11.5095 53.608C11.2295 53.4307 10.9868 53.23 10.7815 53.006C10.5761 52.782 10.3988 52.544 10.2495 52.292L11.7755 51.088C11.9901 51.4707 12.2468 51.7973 12.5455 52.068C12.8441 52.3293 13.2455 52.46 13.7495 52.46C14.2535 52.46 14.6315 52.3153 14.8835 52.026C15.1448 51.7367 15.2755 51.354 15.2755 50.878V50.766C15.2755 50.318 15.1448 49.9633 14.8835 49.702C14.6221 49.4407 14.2628 49.31 13.8055 49.31C13.4228 49.31 13.1055 49.3893 12.8535 49.548C12.6108 49.6973 12.4241 49.8467 12.2935 49.996L10.5715 49.758L10.9355 44.228H16.9135V46.062ZM25.308 46.062H20.87L20.66 49.156H20.772C20.8653 48.9227 20.968 48.7127 21.08 48.526C21.2013 48.33 21.3413 48.1667 21.5 48.036C21.6587 47.896 21.85 47.7887 22.074 47.714C22.298 47.6393 22.564 47.602 22.872 47.602C23.292 47.602 23.684 47.672 24.048 47.812C24.412 47.952 24.7293 48.1573 25 48.428C25.2707 48.6893 25.4853 49.016 25.644 49.408C25.8027 49.7907 25.882 50.2247 25.882 50.71C25.882 51.2047 25.798 51.6667 25.63 52.096C25.4713 52.516 25.2287 52.88 24.902 53.188C24.5847 53.496 24.1927 53.7387 23.726 53.916C23.2593 54.084 22.7273 54.168 22.13 54.168C21.654 54.168 21.234 54.1167 20.87 54.014C20.506 53.9113 20.184 53.776 19.904 53.608C19.624 53.4307 19.3813 53.23 19.176 53.006C18.9707 52.782 18.7933 52.544 18.644 52.292L20.17 51.088C20.3847 51.4707 20.6413 51.7973 20.94 52.068C21.2387 52.3293 21.64 52.46 22.144 52.46C22.648 52.46 23.026 52.3153 23.278 52.026C23.5393 51.7367 23.67 51.354 23.67 50.878V50.766C23.67 50.318 23.5393 49.9633 23.278 49.702C23.0167 49.4407 22.6573 49.31 22.2 49.31C21.8173 49.31 21.5 49.3893 21.248 49.548C21.0053 49.6973 20.8187 49.8467 20.688 49.996L18.966 49.758L19.33 44.228H25.308V46.062ZM30.6505 54.168C30.0719 54.168 29.5539 54.0793 29.0965 53.902C28.6392 53.7153 28.2519 53.454 27.9345 53.118C27.6265 52.7727 27.3885 52.362 27.2205 51.886C27.0619 51.41 26.9825 50.878 26.9825 50.29C26.9825 49.6087 27.0852 48.9647 27.2905 48.358C27.5052 47.742 27.7759 47.1773 28.1025 46.664C28.4385 46.1413 28.8119 45.6747 29.2225 45.264C29.6425 44.8533 30.0625 44.508 30.4825 44.228H33.3805C32.7832 44.6573 32.2465 45.068 31.7705 45.46C31.2945 45.8427 30.8792 46.23 30.5245 46.622C30.1792 47.014 29.8899 47.4153 29.6565 47.826C29.4325 48.2273 29.2739 48.6613 29.1805 49.128L29.3065 49.17C29.3905 48.9833 29.4885 48.8013 29.6005 48.624C29.7219 48.4467 29.8665 48.2927 30.0345 48.162C30.2119 48.022 30.4172 47.91 30.6505 47.826C30.8839 47.742 31.1545 47.7 31.4625 47.7C31.8639 47.7 32.2372 47.7747 32.5825 47.924C32.9372 48.064 33.2405 48.2647 33.4925 48.526C33.7539 48.7873 33.9545 49.1093 34.0945 49.492C34.2439 49.8653 34.3185 50.2807 34.3185 50.738C34.3185 51.242 34.2299 51.704 34.0525 52.124C33.8845 52.544 33.6372 52.908 33.3105 53.216C32.9932 53.5147 32.6105 53.748 32.1625 53.916C31.7145 54.084 31.2105 54.168 30.6505 54.168ZM30.6505 52.53C31.1172 52.53 31.4812 52.404 31.7425 52.152C32.0039 51.8907 32.1345 51.522 32.1345 51.046V50.794C32.1345 50.318 32.0039 49.954 31.7425 49.702C31.4812 49.4407 31.1172 49.31 30.6505 49.31C30.1839 49.31 29.8199 49.4407 29.5585 49.702C29.2972 49.954 29.1665 50.318 29.1665 50.794V51.046C29.1665 51.522 29.2972 51.8907 29.5585 52.152C29.8199 52.404 30.1839 52.53 30.6505 52.53Z" fill="black"/>
<rect x="25" y="77.5" width="6" height="13" transform="rotate(90 25 77.5)" fill="black"/>
<path d="M25 77.5L25 83.5L31.8072 81.4578C32.7574 81.1728 32.7574 79.8272 31.8072 79.5422L25 77.5Z" fill="#E8E4D8"/>
<path fill-rule="evenodd" clip-rule="evenodd" d="M25 77.5L31.8072 79.5422C32.7574 79.8272 32.7574 81.1728 31.8072 81.4578L25 83.5L25 77.5ZM26 78.844L31.5199 80.5L26 82.156L26 78.844Z" fill="black"/>
<path d="M29 79.5L29 81.5L32 80.5L29 79.5Z" fill="black"/>
<rect width="6" height="2" transform="matrix(-4.37114e-08 1 1 4.37114e-08 10 77.5)" fill="#E8E4D8"/>
<rect width="1" height="2" transform="matrix(-4.37114e-08 1 1 4.37114e-08 10 77.5)" fill="black"/>
<rect width="1" height="2" transform="matrix(-4.37114e-08 1 1 4.37114e-08 10 82.5)" fill="black"/>
<path d="M10 77.5L10 83.5L9 83.5C7.89543 83.5 7 82.6046 7 81.5L7 79.5C7 78.3954 7.89543 77.5 9 77.5L10 77.5Z" fill="black"/>
<rect x="0.5" y="59.5" width="35.96" height="14" rx="7" stroke="black"/>
<rect x="37.46" y="59.5" width="35.96" height="14" rx="7" stroke="black"/>
<rect x="74.42" y="59.5" width="35.96" height="14" rx="7" stroke="black"/>
<rect x="111.38" y="59.5" width="35.96" height="14" rx="7" stroke="black"/>
<rect x="148.34" y="59.5" width="35.96" height="14" rx="7" stroke="black"/>
<rect x="185.3" y="59.5" width="35.96" height="14" rx="7" fill="#4CC45D"/>
<path d="M193.725 54H186.809V52.082L189.819 49.506C190.09 49.2727 190.318 49.0627 190.505 48.876C190.692 48.68 190.841 48.4933 190.953 48.316C191.074 48.1293 191.158 47.9473 191.205 47.77C191.261 47.5927 191.289 47.4013 191.289 47.196V47C191.289 46.8133 191.252 46.65 191.177 46.51C191.102 46.37 191.004 46.2533 190.883 46.16C190.762 46.0667 190.622 45.9967 190.463 45.95C190.314 45.9033 190.16 45.88 190.001 45.88C189.768 45.88 189.562 45.9173 189.385 45.992C189.217 46.0667 189.068 46.1693 188.937 46.3C188.816 46.4213 188.713 46.566 188.629 46.734C188.545 46.8927 188.48 47.0653 188.433 47.252L186.599 46.552C186.711 46.216 186.865 45.8987 187.061 45.6C187.257 45.292 187.5 45.026 187.789 44.802C188.088 44.5687 188.438 44.3867 188.839 44.256C189.24 44.1253 189.693 44.06 190.197 44.06C190.729 44.06 191.2 44.1347 191.611 44.284C192.022 44.4333 192.367 44.6387 192.647 44.9C192.936 45.1613 193.156 45.474 193.305 45.838C193.454 46.1927 193.529 46.58 193.529 47C193.529 47.42 193.459 47.8027 193.319 48.148C193.179 48.4933 192.988 48.82 192.745 49.128C192.512 49.4267 192.236 49.7113 191.919 49.982C191.602 50.2527 191.27 50.528 190.925 50.808L189.105 52.236H193.725V54ZM201.713 46.062H197.275L197.065 49.156H197.177C197.271 48.9227 197.373 48.7127 197.485 48.526C197.607 48.33 197.747 48.1667 197.905 48.036C198.064 47.896 198.255 47.7887 198.479 47.714C198.703 47.6393 198.969 47.602 199.277 47.602C199.697 47.602 200.089 47.672 200.453 47.812C200.817 47.952 201.135 48.1573 201.405 48.428C201.676 48.6893 201.891 49.016 202.049 49.408C202.208 49.7907 202.287 50.2247 202.287 50.71C202.287 51.2047 202.203 51.6667 202.035 52.096C201.877 52.516 201.634 52.88 201.307 53.188C200.99 53.496 200.598 53.7387 200.131 53.916C199.665 54.084 199.133 54.168 198.535 54.168C198.059 54.168 197.639 54.1167 197.275 54.014C196.911 53.9113 196.589 53.776 196.309 53.608C196.029 53.4307 195.787 53.23 195.581 53.006C195.376 52.782 195.199 52.544 195.049 52.292L196.575 51.088C196.79 51.4707 197.047 51.7973 197.345 52.068C197.644 52.3293 198.045 52.46 198.549 52.46C199.053 52.46 199.431 52.3153 199.683 52.026C199.945 51.7367 200.075 51.354 200.075 50.878V50.766C200.075 50.318 199.945 49.9633 199.683 49.702C199.422 49.4407 199.063 49.31 198.605 49.31C198.223 49.31 197.905 49.3893 197.653 49.548C197.411 49.6973 197.224 49.8467 197.093 49.996L195.371 49.758L195.735 44.228H201.713V46.062ZM207.056 54.168C206.477 54.168 205.959 54.0793 205.502 53.902C205.045 53.7153 204.657 53.454 204.34 53.118C204.032 52.7727 203.794 52.362 203.626 51.886C203.467 51.41 203.388 50.878 203.388 50.29C203.388 49.6087 203.491 48.9647 203.696 48.358C203.911 47.742 204.181 47.1773 204.508 46.664C204.844 46.1413 205.217 45.6747 205.628 45.264C206.048 44.8533 206.468 44.508 206.888 44.228H209.786C209.189 44.6573 208.652 45.068 208.176 45.46C207.7 45.8427 207.285 46.23 206.93 46.622C206.585 47.014 206.295 47.4153 206.062 47.826C205.838 48.2273 205.679 48.6613 205.586 49.128L205.712 49.17C205.796 48.9833 205.894 48.8013 206.006 48.624C206.127 48.4467 206.272 48.2927 206.44 48.162C206.617 48.022 206.823 47.91 207.056 47.826C207.289 47.742 207.56 47.7 207.868 47.7C208.269 47.7 208.643 47.7747 208.988 47.924C209.343 48.064 209.646 48.2647 209.898 48.526C210.159 48.7873 210.36 49.1093 210.5 49.492C210.649 49.8653 210.724 50.2807 210.724 50.738C210.724 51.242 210.635 51.704 210.458 52.124C210.29 52.544 210.043 52.908 209.716 53.216C209.399 53.5147 209.016 53.748 208.568 53.916C208.12 54.084 207.616 54.168 207.056 54.168ZM207.056 52.53C207.523 52.53 207.887 52.404 208.148 52.152C208.409 51.8907 208.54 51.522 208.54 51.046V50.794C208.54 50.318 208.409 49.954 208.148 49.702C207.887 49.4407 207.523 49.31 207.056 49.31C206.589 49.31 206.225 49.4407 205.964 49.702C205.703 49.954 205.572 50.318 205.572 50.794V51.046C205.572 51.522 205.703 51.8907 205.964 52.152C206.225 52.404 206.589 52.53 207.056 52.53ZM212.511 54V52.306H215.143V45.754H215.017L213.029 48.358L211.685 47.308L214.023 44.228H217.243V52.306H219.315V54H212.511Z" fill="black"/>
<rect x="209.8" y="77.5" width="6" height="13" transform="rotate(90 209.8 77.5)" fill="black"/>
<path d="M209.8 77.5L209.8 83.5L216.607 81.4578C217.557 81.1728 217.557 79.8272 216.607 79.5422L209.8 77.5Z" fill="#E8E4D8"/>
<path fill-rule="evenodd" clip-rule="evenodd" d="M209.8 77.5L216.607 79.5422C217.557 79.8272 217.557 81.1728 216.607 81.4578L209.8 83.5L209.8 77.5ZM210.8 78.844L216.32 80.5L210.8 82.156L210.8 78.844Z" fill="black"/>
<path d="M213.8 79.5L213.8 81.5L216.8 80.5L213.8 79.5Z" fill="black"/>
<rect width="6" height="2" transform="matrix(-4.37114e-08 1 1 4.37114e-08 194.8 77.5)" fill="#E8E4D8"/>
<rect width="1" height="2" transform="matrix(-4.37114e-08 1 1 4.37114e-08 194.8 77.5)" fill="black"/>
<rect width="1" height="2" transform="matrix(-4.37114e-08 1 1 4.37114e-08 194.8 82.5)" fill="black"/>
<path d="M194.8 77.5L194.8 83.5L193.8 83.5C192.695 83.5 191.8 82.6046 191.8 81.5L191.8 79.5C191.8 78.3954 192.695 77.5 193.8 77.5L194.8 77.5Z" fill="black"/>
<rect x="185.3" y="59.5" width="35.96" height="14" rx="7" stroke="black"/>
<rect x="222.26" y="59.5" width="35.96" height="14" rx="7" fill="#4CC45D"/>
<rect x="222.26" y="59.5" width="35.96" height="14" rx="7" stroke="black"/>
<rect x="259.22" y="59.5" width="35.96" height="14" rx="7" fill="#4CC45D"/>
<rect x="259.22" y="59.5" width="35.96" height="14" rx="7" stroke="black"/>
<rect x="296.18" y="59.5" width="35.96" height="14" rx="7" fill="#4CC45D"/>
<rect x="296.18" y="59.5" width="35.96" height="14" rx="7" stroke="black"/>
<rect x="333.14" y="59.5" width="35.96" height="14" rx="7" fill="#4CC45D"/>
<rect x="333.14" y="59.5" width="35.96" height="14" rx="7" stroke="black"/>
<rect x="370.1" y="59.5" width="35.96" height="14" rx="7" fill="#4CC45D"/>
<rect x="370.1" y="59.5" width="35.96" height="14" rx="7" stroke="black"/>
<g opacity="0.3">
<rect x="407.06" y="59.5" width="35.96" height="14" rx="7" fill="#4CC45D"/>
<rect x="407.06" y="59.5" width="35.96" height="14" rx="7" stroke="black"/>
</g>
<g opacity="0.3">
<rect x="444.02" y="59.5" width="35.96" height="14" rx="7" fill="#4CC45D"/>
<rect x="444.02" y="59.5" width="35.96" height="14" rx="7" stroke="black"/>
</g>
<g opacity="0.3">
<rect x="480.98" y="59.5" width="35.96" height="14" rx="7" fill="#4CC45D"/>
<rect x="480.98" y="59.5" width="35.96" height="14" rx="7" stroke="black"/>
</g>
<g opacity="0.3">
<rect x="517.94" y="59.5" width="35.96" height="14" rx="7" fill="#4CC45D"/>
<rect x="517.94" y="59.5" width="35.96" height="14" rx="7" stroke="black"/>
</g>
<g opacity="0.3">
<rect x="554.9" y="59.5" width="35.96" height="14" rx="7" fill="#4CC45D"/>
<rect x="554.9" y="59.5" width="35.96" height="14" rx="7" stroke="black"/>
</g>
<g opacity="0.3">
<rect x="591.86" y="59.5" width="35.96" height="14" rx="7" fill="#4CC45D"/>
<rect x="591.86" y="59.5" width="35.96" height="14" rx="7" stroke="black"/>
</g>
<g opacity="0.3">
<rect x="628.82" y="59.5" width="35.96" height="14" rx="7" fill="#4CC45D"/>
<rect x="628.82" y="59.5" width="35.96" height="14" rx="7" stroke="black"/>
</g>
<g opacity="0.3">
<rect x="665.78" y="59.5" width="35.96" height="14" rx="7" fill="#4CC45D"/>
<rect x="665.78" y="59.5" width="35.96" height="14" rx="7" stroke="black"/>
</g>
<g opacity="0.3">
<rect x="702.74" y="59.5" width="35.96" height="14" rx="7" fill="#4CC45D"/>
<rect x="702.74" y="59.5" width="35.96" height="14" rx="7" stroke="black"/>
</g>
<g opacity="0.3">
<rect x="739.7" y="59.5" width="35.96" height="14" rx="7" fill="#4CC45D"/>
<rect x="739.7" y="59.5" width="35.96" height="14" rx="7" stroke="black"/>
</g>
<g opacity="0.3">
<rect x="776.66" y="59.5" width="35.96" height="14" rx="7" fill="#4CC45D"/>
<rect x="776.66" y="59.5" width="35.96" height="14" rx="7" stroke="black"/>
</g>
<g opacity="0.3">
<rect x="813.62" y="59.5" width="35.96" height="14" rx="7" fill="#4CC45D"/>
<rect x="813.62" y="59.5" width="35.96" height="14" rx="7" stroke="black"/>
</g>
<g opacity="0.3">
<rect x="850.58" y="59.5" width="35.96" height="14" rx="7" fill="#4CC45D"/>
<rect x="850.58" y="59.5" width="35.96" height="14" rx="7" stroke="black"/>
</g>
<g opacity="0.3">
<rect x="887.54" y="59.5" width="35.96" height="14" rx="7" fill="#4CC45D"/>
<path d="M895.965 54H889.049V52.082L892.059 49.506C892.33 49.2727 892.558 49.0627 892.745 48.876C892.932 48.68 893.081 48.4933 893.193 48.316C893.314 48.1293 893.398 47.9473 893.445 47.77C893.501 47.5927 893.529 47.4013 893.529 47.196V47C893.529 46.8133 893.492 46.65 893.417 46.51C893.342 46.37 893.244 46.2533 893.123 46.16C893.002 46.0667 892.862 45.9967 892.703 45.95C892.554 45.9033 892.4 45.88 892.241 45.88C892.008 45.88 891.802 45.9173 891.625 45.992C891.457 46.0667 891.308 46.1693 891.177 46.3C891.056 46.4213 890.953 46.566 890.869 46.734C890.785 46.8927 890.72 47.0653 890.673 47.252L888.839 46.552C888.951 46.216 889.105 45.8987 889.301 45.6C889.497 45.292 889.74 45.026 890.029 44.802C890.328 44.5687 890.678 44.3867 891.079 44.256C891.48 44.1253 891.933 44.06 892.437 44.06C892.969 44.06 893.44 44.1347 893.851 44.284C894.262 44.4333 894.607 44.6387 894.887 44.9C895.176 45.1613 895.396 45.474 895.545 45.838C895.694 46.1927 895.769 46.58 895.769 47C895.769 47.42 895.699 47.8027 895.559 48.148C895.419 48.4933 895.228 48.82 894.985 49.128C894.752 49.4267 894.476 49.7113 894.159 49.982C893.842 50.2527 893.51 50.528 893.165 50.808L891.345 52.236H895.965V54ZM903.954 46.062H899.516L899.306 49.156H899.418C899.511 48.9227 899.614 48.7127 899.726 48.526C899.847 48.33 899.987 48.1667 900.146 48.036C900.304 47.896 900.496 47.7887 900.72 47.714C900.944 47.6393 901.21 47.602 901.518 47.602C901.938 47.602 902.33 47.672 902.694 47.812C903.058 47.952 903.375 48.1573 903.646 48.428C903.916 48.6893 904.131 49.016 904.29 49.408C904.448 49.7907 904.528 50.2247 904.528 50.71C904.528 51.2047 904.444 51.6667 904.276 52.096C904.117 52.516 903.874 52.88 903.548 53.188C903.23 53.496 902.838 53.7387 902.372 53.916C901.905 54.084 901.373 54.168 900.776 54.168C900.3 54.168 899.88 54.1167 899.516 54.014C899.152 53.9113 898.83 53.776 898.55 53.608C898.27 53.4307 898.027 53.23 897.822 53.006C897.616 52.782 897.439 52.544 897.29 52.292L898.816 51.088C899.03 51.4707 899.287 51.7973 899.586 52.068C899.884 52.3293 900.286 52.46 900.79 52.46C901.294 52.46 901.672 52.3153 901.924 52.026C902.185 51.7367 902.316 51.354 902.316 50.878V50.766C902.316 50.318 902.185 49.9633 901.924 49.702C901.662 49.4407 901.303 49.31 900.846 49.31C900.463 49.31 900.146 49.3893 899.894 49.548C899.651 49.6973 899.464 49.8467 899.334 49.996L897.612 49.758L897.976 44.228H903.954V46.062ZM909.24 54.168C908.661 54.168 908.143 54.098 907.686 53.958C907.238 53.8087 906.86 53.608 906.552 53.356C906.244 53.104 906.006 52.8053 905.838 52.46C905.679 52.1147 905.6 51.7367 905.6 51.326C905.6 50.7007 905.773 50.192 906.118 49.8C906.463 49.3987 906.93 49.1187 907.518 48.96V48.848C907.042 48.6707 906.65 48.4 906.342 48.036C906.043 47.672 905.894 47.2053 905.894 46.636C905.894 46.2627 905.964 45.9173 906.104 45.6C906.253 45.2827 906.468 45.012 906.748 44.788C907.037 44.5547 907.387 44.3773 907.798 44.256C908.218 44.1253 908.699 44.06 909.24 44.06C909.781 44.06 910.257 44.1253 910.668 44.256C911.088 44.3773 911.438 44.5547 911.718 44.788C912.007 45.012 912.222 45.2827 912.362 45.6C912.511 45.9173 912.586 46.2627 912.586 46.636C912.586 47.2053 912.432 47.672 912.124 48.036C911.825 48.4 911.438 48.6707 910.962 48.848V48.96C911.55 49.1187 912.017 49.3987 912.362 49.8C912.707 50.192 912.88 50.7007 912.88 51.326C912.88 51.7367 912.796 52.1147 912.628 52.46C912.469 52.8053 912.236 53.104 911.928 53.356C911.62 53.608 911.237 53.8087 910.78 53.958C910.332 54.098 909.819 54.168 909.24 54.168ZM909.24 52.558C909.707 52.558 910.061 52.4507 910.304 52.236C910.556 52.012 910.682 51.704 910.682 51.312V51.032C910.682 50.64 910.556 50.3367 910.304 50.122C910.061 49.898 909.707 49.786 909.24 49.786C908.773 49.786 908.414 49.898 908.162 50.122C907.919 50.3367 907.798 50.64 907.798 51.032V51.312C907.798 51.704 907.919 52.012 908.162 52.236C908.414 52.4507 908.773 52.558 909.24 52.558ZM909.24 48.246C909.688 48.246 910.029 48.1433 910.262 47.938C910.495 47.7233 910.612 47.434 910.612 47.07V46.846C910.612 46.482 910.495 46.1973 910.262 45.992C910.029 45.7773 909.688 45.67 909.24 45.67C908.792 45.67 908.451 45.7773 908.218 45.992C907.985 46.1973 907.868 46.482 907.868 46.846V47.07C907.868 47.434 907.985 47.7233 908.218 47.938C908.451 48.1433 908.792 48.246 909.24 48.246ZM917.635 54.168C916.356 54.168 915.409 53.7247 914.793 52.838C914.177 51.9513 913.869 50.71 913.869 49.114C913.869 47.518 914.177 46.2767 914.793 45.39C915.409 44.5033 916.356 44.06 917.635 44.06C918.913 44.06 919.861 44.5033 920.477 45.39C921.093 46.2767 921.401 47.518 921.401 49.114C921.401 50.71 921.093 51.9513 920.477 52.838C919.861 53.7247 918.913 54.168 917.635 54.168ZM917.635 52.39C918.195 52.39 918.582 52.1847 918.797 51.774C919.011 51.3633 919.119 50.7847 919.119 50.038V48.19C919.119 47.4433 919.011 46.8647 918.797 46.454C918.582 46.0433 918.195 45.838 917.635 45.838C917.075 45.838 916.687 46.0433 916.473 46.454C916.258 46.8647 916.151 47.4433 916.151 48.19V50.038C916.151 50.7847 916.258 51.3633 916.473 51.774C916.687 52.1847 917.075 52.39 917.635 52.39Z" fill="black"/>
<rect x="887.54" y="59.5" width="35.96" height="14" rx="7" stroke="black"/>
</g>
<rect width="68" height="44" transform="translate(355)" fill="black"/>
<path d="M370.03 27.192C368.899 27.192 368.008 26.888 367.358 26.28C366.707 25.6613 366.382 24.8187 366.382 23.752V18.264H367.662V23.624C367.662 24.424 367.87 25.0373 368.286 25.464C368.712 25.88 369.294 26.088 370.03 26.088C370.766 26.088 371.342 25.88 371.758 25.464C372.184 25.0373 372.398 24.424 372.398 23.624V15.448H373.678V23.752C373.678 24.8187 373.352 25.6613 372.702 26.28C372.051 26.888 371.16 27.192 370.03 27.192ZM367.854 16.552C367.374 16.552 367.022 16.4347 366.798 16.2C366.574 15.9653 366.462 15.656 366.462 15.272V14.28H367.742V15.448H371.358V16.552H367.854ZM377.233 23.288H376.257V22.184H377.569C377.729 22.184 377.878 22.2213 378.017 22.296C378.166 22.36 378.268 22.4773 378.321 22.648L379.473 25.928H380.081C380.604 25.928 381.025 25.688 381.345 25.208C381.665 24.728 381.825 24.0613 381.825 23.208V21.896C381.825 21.032 381.59 20.3653 381.121 19.896C380.662 19.416 380.033 19.176 379.233 19.176C378.476 19.176 377.852 19.3307 377.361 19.64C376.87 19.9387 376.486 20.328 376.209 20.808L375.377 20.072C375.516 19.8053 375.697 19.5493 375.921 19.304C376.156 19.0587 376.433 18.8453 376.753 18.664C377.084 18.4827 377.457 18.3387 377.873 18.232C378.3 18.1253 378.769 18.072 379.281 18.072C380.529 18.072 381.489 18.4667 382.161 19.256C382.844 20.0453 383.185 21.144 383.185 22.552C383.185 23.2453 383.105 23.8693 382.945 24.424C382.796 24.968 382.582 25.432 382.305 25.816C382.028 26.2 381.686 26.4933 381.281 26.696C380.876 26.8987 380.428 27 379.937 27H378.529L377.233 23.288ZM386.42 23.288H385.444V22.184H386.756C386.916 22.184 387.066 22.2213 387.204 22.296C387.354 22.36 387.455 22.4773 387.508 22.648L388.66 25.928H389.268C389.791 25.928 390.212 25.688 390.532 25.208C390.852 24.728 391.012 24.0613 391.012 23.208V21.896C391.012 21.032 390.778 20.3653 390.308 19.896C389.85 19.416 389.22 19.176 388.42 19.176C387.663 19.176 387.039 19.3307 386.548 19.64C386.058 19.9387 385.674 20.328 385.396 20.808L384.564 20.072C384.703 19.8053 384.884 19.5493 385.108 19.304C385.343 19.0587 385.62 18.8453 385.94 18.664C386.271 18.4827 386.644 18.3387 387.06 18.232C387.487 18.1253 387.956 18.072 388.468 18.072C389.716 18.072 390.676 18.4667 391.348 19.256C392.031 20.0453 392.372 21.144 392.372 22.552C392.372 23.2453 392.292 23.8693 392.132 24.424C391.983 24.968 391.77 25.432 391.492 25.816C391.215 26.2 390.874 26.4933 390.468 26.696C390.063 26.8987 389.615 27 389.124 27H387.716L386.42 23.288ZM390.667 29.832H389.611V28.808H390.971C391.291 28.808 391.525 28.8933 391.675 29.064C391.813 29.2347 391.883 29.464 391.883 29.752V32.504H390.667V29.832ZM398.264 27.192C397.133 27.192 396.243 26.888 395.592 26.28C394.941 25.6613 394.616 24.8187 394.616 23.752V18.264H395.896V23.624C395.896 24.424 396.104 25.0373 396.52 25.464C396.947 25.88 397.528 26.088 398.264 26.088C399 26.088 399.576 25.88 399.992 25.464C400.419 25.0373 400.632 24.424 400.632 23.624V18.264H401.912V23.752C401.912 24.8187 401.587 25.6613 400.936 26.28C400.285 26.888 399.395 27.192 398.264 27.192ZM400.57 16.552C400.09 16.552 399.738 16.4347 399.514 16.2C399.29 15.9653 399.178 15.656 399.178 15.272V14.28H400.458V15.448H404.538V16.552H400.57ZM407.435 27.192C406.507 27.192 405.782 26.8987 405.259 26.312C404.737 25.7253 404.475 24.8987 404.475 23.832V18.264H405.755V23.672C405.755 25.2933 406.449 26.104 407.835 26.104C408.102 26.104 408.369 26.0667 408.635 25.992C408.902 25.9173 409.137 25.8053 409.339 25.656C409.542 25.5067 409.707 25.32 409.835 25.096C409.963 24.872 410.027 24.6107 410.027 24.312V18.264H411.307V25.88H412.331V27H411.387C410.961 27 410.646 26.872 410.443 26.616C410.251 26.36 410.139 26.0347 410.107 25.64H410.043C409.873 26.1307 409.553 26.5147 409.083 26.792C408.625 27.0587 408.075 27.192 407.435 27.192Z" fill="white"/>
<path d="M389 58L396 44L382 44L389 58Z" fill="black"/>
<g opacity="0.3">
<path d="M924 20L902 27L902 13L924 20Z" fill="black"/>
<rect x="900" y="11" width="2" height="28" fill="black"/>
</g>
<rect width="150" height="89" transform="translate(0 104)" fill="white"/>
<rect x="58.2143" y="122.5" width="4" height="8.82143" transform="rotate(90 58.2143 122.5)" fill="black"/>
<path d="M58.2143 122.5L58.2143 126.5L62.8335 125.139C63.4783 124.949 63.4783 124.051 62.8335 123.861L58.2143 122.5Z" fill="#E8E4D8"/>
<path fill-rule="evenodd" clip-rule="evenodd" d="M58.2143 122.5L62.8335 123.861C63.4783 124.051 63.4783 124.949 62.8335 125.139L58.2143 126.5L58.2143 122.5ZM58.8929 123.396L62.6385 124.5L58.8929 125.604L58.8929 123.396Z" fill="black"/>
<path d="M60.9286 123.833L60.9286 125.167L62.9643 124.5L60.9286 123.833Z" fill="black"/>
<rect width="4" height="1.35714" transform="matrix(-4.37114e-08 1 1 4.37114e-08 48.0357 122.5)" fill="#E8E4D8"/>
<rect width="0.666667" height="1.35714" transform="matrix(-4.37114e-08 1 1 4.37114e-08 48.0357 122.5)" fill="black"/>
<rect width="0.666667" height="1.35714" transform="matrix(-4.37114e-08 1 1 4.37114e-08 48.0357 125.833)" fill="black"/>
<path d="M48.0357 122.5L48.0357 126.5L48 126.5C46.8954 126.5 46 125.605 46 124.5C46 123.395 46.8954 122.5 48 122.5L48.0357 122.5Z" fill="black"/>
<path d="M77.9249 129H71.0089V127.082L74.0189 124.506C74.2896 124.273 74.5183 124.063 74.7049 123.876C74.8916 123.68 75.0409 123.493 75.1529 123.316C75.2743 123.129 75.3583 122.947 75.4049 122.77C75.4609 122.593 75.4889 122.401 75.4889 122.196V122C75.4889 121.813 75.4516 121.65 75.3769 121.51C75.3023 121.37 75.2043 121.253 75.0829 121.16C74.9616 121.067 74.8216 120.997 74.6629 120.95C74.5136 120.903 74.3596 120.88 74.2009 120.88C73.9676 120.88 73.7623 120.917 73.5849 120.992C73.4169 121.067 73.2676 121.169 73.1369 121.3C73.0156 121.421 72.9129 121.566 72.8289 121.734C72.7449 121.893 72.6796 122.065 72.6329 122.252L70.7989 121.552C70.9109 121.216 71.0649 120.899 71.2609 120.6C71.4569 120.292 71.6996 120.026 71.9889 119.802C72.2876 119.569 72.6376 119.387 73.0389 119.256C73.4403 119.125 73.8929 119.06 74.3969 119.06C74.9289 119.06 75.4003 119.135 75.8109 119.284C76.2216 119.433 76.5669 119.639 76.8469 119.9C77.1363 120.161 77.3556 120.474 77.5049 120.838C77.6543 121.193 77.7289 121.58 77.7289 122C77.7289 122.42 77.6589 122.803 77.5189 123.148C77.3789 123.493 77.1876 123.82 76.9449 124.128C76.7116 124.427 76.4363 124.711 76.1189 124.982C75.8016 125.253 75.4703 125.528 75.1249 125.808L73.3049 127.236H77.9249V129ZM85.9135 121.062H81.4755L81.2655 124.156H81.3775C81.4708 123.923 81.5735 123.713 81.6855 123.526C81.8068 123.33 81.9468 123.167 82.1055 123.036C82.2641 122.896 82.4555 122.789 82.6795 122.714C82.9035 122.639 83.1695 122.602 83.4775 122.602C83.8975 122.602 84.2895 122.672 84.6535 122.812C85.0175 122.952 85.3348 123.157 85.6055 123.428C85.8761 123.689 86.0908 124.016 86.2495 124.408C86.4081 124.791 86.4875 125.225 86.4875 125.71C86.4875 126.205 86.4035 126.667 86.2355 127.096C86.0768 127.516 85.8341 127.88 85.5075 128.188C85.1901 128.496 84.7981 128.739 84.3315 128.916C83.8648 129.084 83.3328 129.168 82.7355 129.168C82.2595 129.168 81.8395 129.117 81.4755 129.014C81.1115 128.911 80.7895 128.776 80.5095 128.608C80.2295 128.431 79.9868 128.23 79.7815 128.006C79.5761 127.782 79.3988 127.544 79.2495 127.292L80.7755 126.088C80.9901 126.471 81.2468 126.797 81.5455 127.068C81.8441 127.329 82.2455 127.46 82.7495 127.46C83.2535 127.46 83.6315 127.315 83.8835 127.026C84.1448 126.737 84.2755 126.354 84.2755 125.878V125.766C84.2755 125.318 84.1448 124.963 83.8835 124.702C83.6221 124.441 83.2628 124.31 82.8055 124.31C82.4228 124.31 82.1055 124.389 81.8535 124.548C81.6108 124.697 81.4241 124.847 81.2935 124.996L79.5715 124.758L79.9355 119.228H85.9135V121.062ZM94.308 121.062H89.87L89.66 124.156H89.772C89.8653 123.923 89.968 123.713 90.08 123.526C90.2013 123.33 90.3413 123.167 90.5 123.036C90.6587 122.896 90.85 122.789 91.074 122.714C91.298 122.639 91.564 122.602 91.872 122.602C92.292 122.602 92.684 122.672 93.048 122.812C93.412 122.952 93.7293 123.157 94 123.428C94.2707 123.689 94.4853 124.016 94.644 124.408C94.8027 124.791 94.882 125.225 94.882 125.71C94.882 126.205 94.798 126.667 94.63 127.096C94.4713 127.516 94.2287 127.88 93.902 128.188C93.5847 128.496 93.1927 128.739 92.726 128.916C92.2593 129.084 91.7273 129.168 91.13 129.168C90.654 129.168 90.234 129.117 89.87 129.014C89.506 128.911 89.184 128.776 88.904 128.608C88.624 128.431 88.3813 128.23 88.176 128.006C87.9707 127.782 87.7933 127.544 87.644 127.292L89.17 126.088C89.3847 126.471 89.6413 126.797 89.94 127.068C90.2387 127.329 90.64 127.46 91.144 127.46C91.648 127.46 92.026 127.315 92.278 127.026C92.5393 126.737 92.67 126.354 92.67 125.878V125.766C92.67 125.318 92.5393 124.963 92.278 124.702C92.0167 124.441 91.6573 124.31 91.2 124.31C90.8173 124.31 90.5 124.389 90.248 124.548C90.0053 124.697 89.8187 124.847 89.688 124.996L87.966 124.758L88.33 119.228H94.308V121.062ZM99.6505 129.168C99.0719 129.168 98.5539 129.079 98.0965 128.902C97.6392 128.715 97.2519 128.454 96.9345 128.118C96.6265 127.773 96.3885 127.362 96.2205 126.886C96.0619 126.41 95.9825 125.878 95.9825 125.29C95.9825 124.609 96.0852 123.965 96.2905 123.358C96.5052 122.742 96.7759 122.177 97.1025 121.664C97.4385 121.141 97.8119 120.675 98.2225 120.264C98.6425 119.853 99.0625 119.508 99.4825 119.228H102.381C101.783 119.657 101.247 120.068 100.771 120.46C100.295 120.843 99.8792 121.23 99.5245 121.622C99.1792 122.014 98.8899 122.415 98.6565 122.826C98.4325 123.227 98.2739 123.661 98.1805 124.128L98.3065 124.17C98.3905 123.983 98.4885 123.801 98.6005 123.624C98.7219 123.447 98.8665 123.293 99.0345 123.162C99.2119 123.022 99.4172 122.91 99.6505 122.826C99.8839 122.742 100.155 122.7 100.463 122.7C100.864 122.7 101.237 122.775 101.583 122.924C101.937 123.064 102.241 123.265 102.493 123.526C102.754 123.787 102.955 124.109 103.095 124.492C103.244 124.865 103.319 125.281 103.319 125.738C103.319 126.242 103.23 126.704 103.053 127.124C102.885 127.544 102.637 127.908 102.311 128.216C101.993 128.515 101.611 128.748 101.163 128.916C100.715 129.084 100.211 129.168 99.6505 129.168ZM99.6505 127.53C100.117 127.53 100.481 127.404 100.743 127.152C101.004 126.891 101.135 126.522 101.135 126.046V125.794C101.135 125.318 101.004 124.954 100.743 124.702C100.481 124.441 100.117 124.31 99.6505 124.31C99.1839 124.31 98.8199 124.441 98.5585 124.702C98.2972 124.954 98.1665 125.318 98.1665 125.794V126.046C98.1665 126.522 98.2972 126.891 98.5585 127.152C98.8199 127.404 99.1839 127.53 99.6505 127.53Z" fill="black"/>
<path d="M28.2825 152.192C27.7705 152.192 27.2905 152.117 26.8425 151.968C26.3945 151.819 26.0052 151.605 25.6745 151.328C25.3438 151.04 25.0825 150.704 24.8905 150.32C24.6985 149.925 24.6025 149.488 24.6025 149.008V148.192C24.6025 147.872 24.6665 147.627 24.7945 147.456C24.9225 147.275 25.1945 147.184 25.6105 147.184H27.3065V148.288H25.8985V148.944C25.8985 149.317 25.9572 149.643 26.0745 149.92C26.2025 150.197 26.3732 150.427 26.5865 150.608C26.7998 150.779 27.0558 150.907 27.3545 150.992C27.6638 151.077 27.9945 151.12 28.3465 151.12C29.1465 151.12 29.7705 150.875 30.2185 150.384C30.6665 149.893 30.8905 149.205 30.8905 148.32V147.008C30.8905 146.112 30.6452 145.419 30.1545 144.928C29.6745 144.427 29.0025 144.176 28.1385 144.176C27.4772 144.176 26.9065 144.309 26.4265 144.576C25.9465 144.843 25.5678 145.2 25.2905 145.648L24.4585 144.912C24.7572 144.389 25.2105 143.952 25.8185 143.6C26.4372 143.248 27.2318 143.072 28.2025 143.072C29.4932 143.072 30.4905 143.477 31.1945 144.288C31.9092 145.088 32.2665 146.203 32.2665 147.632C32.2665 148.325 32.1812 148.955 32.0105 149.52C31.8398 150.085 31.5838 150.565 31.2425 150.96C30.9118 151.355 30.4958 151.659 29.9945 151.872C29.5038 152.085 28.9332 152.192 28.2825 152.192ZM37.9388 152.192C37.4268 152.192 36.9468 152.117 36.4988 151.968C36.0508 151.819 35.6614 151.605 35.3307 151.328C35.0001 151.04 34.7388 150.704 34.5468 150.32C34.3548 149.925 34.2588 149.488 34.2588 149.008V148.192C34.2588 147.872 34.3228 147.627 34.4508 147.456C34.5788 147.275 34.8508 147.184 35.2668 147.184H36.9628V148.288H35.5548V148.944C35.5548 149.317 35.6134 149.643 35.7308 149.92C35.8588 150.197 36.0294 150.427 36.2428 150.608C36.4561 150.779 36.7121 150.907 37.0108 150.992C37.3201 151.077 37.6508 151.12 38.0028 151.12C38.8028 151.12 39.4268 150.875 39.8748 150.384C40.3228 149.893 40.5468 149.205 40.5468 148.32V147.008C40.5468 146.112 40.3014 145.419 39.8108 144.928C39.3308 144.427 38.6588 144.176 37.7948 144.176C37.1334 144.176 36.5628 144.309 36.0828 144.576C35.6028 144.843 35.2241 145.2 34.9468 145.648L34.1148 144.912C34.4134 144.389 34.8668 143.952 35.4748 143.6C36.0934 143.248 36.8881 143.072 37.8588 143.072C39.1494 143.072 40.1468 143.477 40.8508 144.288C41.5654 145.088 41.9228 146.203 41.9228 147.632C41.9228 148.325 41.8374 148.955 41.6667 149.52C41.4961 150.085 41.2401 150.565 40.8988 150.96C40.5681 151.355 40.1521 151.659 39.6508 151.872C39.1601 152.085 38.5894 152.192 37.9388 152.192ZM45.019 147.008L43.659 146.432C43.691 145.941 43.8083 145.493 44.011 145.088C44.2243 144.672 44.5017 144.315 44.843 144.016C45.1843 143.717 45.579 143.488 46.027 143.328C46.4857 143.157 46.9817 143.072 47.515 143.072C48.763 143.072 49.7177 143.387 50.379 144.016C51.0403 144.635 51.371 145.477 51.371 146.544V152H50.091V146.704C50.091 145.872 49.8563 145.243 49.387 144.816C48.9283 144.389 48.3203 144.176 47.563 144.176C47.2323 144.176 46.9177 144.219 46.619 144.304C46.331 144.379 46.0697 144.491 45.835 144.64C45.6003 144.779 45.3977 144.955 45.227 145.168C45.0563 145.371 44.9337 145.6 44.859 145.856L45.659 146.176C45.883 146.261 46.043 146.373 46.139 146.512C46.2457 146.64 46.299 146.821 46.299 147.056V152H45.019V147.008ZM55.8723 152C55.4243 152 55.0829 151.877 54.8483 151.632C54.6243 151.387 54.5123 151.061 54.5123 150.656V143.264H55.7923V150.88H57.1363V152H55.8723ZM60.0323 152C59.5843 152 59.2429 151.877 59.0083 151.632C58.7843 151.387 58.6723 151.061 58.6723 150.656V143.264H59.9523V150.88H61.2963V152H60.0323ZM65.395 152.192C64.4777 152.192 63.8323 151.803 63.459 151.024C63.0857 150.235 62.899 149.115 62.899 147.664C62.899 146.213 63.1763 145.12 63.731 144.384C64.2857 143.637 65.059 143.264 66.051 143.264H66.467V144.368H66.115C65.5177 144.368 65.059 144.571 64.739 144.976C64.419 145.381 64.259 146.043 64.259 146.96V148.464C64.259 148.859 64.275 149.221 64.307 149.552C64.339 149.872 64.403 150.149 64.499 150.384C64.595 150.608 64.7283 150.784 64.899 150.912C65.0697 151.029 65.2937 151.088 65.571 151.088C65.923 151.088 66.211 150.955 66.435 150.688C66.659 150.421 66.771 150 66.771 149.424V147.92H68.035V149.424C68.035 150 68.1363 150.421 68.339 150.688C68.5523 150.955 68.8403 151.088 69.203 151.088C69.5443 151.088 69.811 150.976 70.003 150.752C70.2057 150.517 70.307 150.176 70.307 149.728V143.264H71.587V149.856C71.587 150.571 71.4003 151.141 71.027 151.568C70.6537 151.984 70.1417 152.192 69.491 152.192C68.883 152.192 68.403 152.021 68.051 151.68C67.699 151.328 67.4963 150.896 67.443 150.384H67.363C67.3097 150.896 67.1123 151.328 66.771 151.68C66.4297 152.021 65.971 152.192 65.395 152.192ZM77.0994 152.192C76.1714 152.192 75.446 151.899 74.9234 151.312C74.4007 150.725 74.1394 149.899 74.1394 148.832V143.264H75.4194V148.672C75.4194 150.293 76.1127 151.104 77.4994 151.104C77.766 151.104 78.0327 151.067 78.2994 150.992C78.566 150.917 78.8007 150.805 79.0034 150.656C79.206 150.507 79.3714 150.32 79.4994 150.096C79.6274 149.872 79.6914 149.611 79.6914 149.312V143.264H80.9714V150.88H81.9954V152H81.0514C80.6247 152 80.31 151.872 80.1074 151.616C79.9154 151.36 79.8034 151.035 79.7714 150.64H79.7074C79.5367 151.131 79.2167 151.515 78.7474 151.792C78.2887 152.059 77.7394 152.192 77.0994 152.192ZM83.4295 143.264H84.6935L85.2695 147.392L85.5575 150.608H85.6215L86.4375 147.392L87.6215 143.264H88.7735L89.9735 147.392L90.7735 150.608H90.8535L91.1415 147.392L91.7015 143.264H92.9815L91.7015 152H90.2455L88.8375 147.152L88.2135 144.704H88.1655L87.5415 147.152L86.1335 152H84.7095L83.4295 143.264ZM91.6404 141.552C91.1604 141.552 90.8084 141.435 90.5844 141.2C90.3604 140.965 90.2484 140.656 90.2484 140.272V139.28H91.5284V140.448H95.6084V141.552H91.6404ZM98.4168 152.192C97.2861 152.192 96.4221 151.792 95.8248 150.992C95.2274 150.181 94.9288 149.051 94.9288 147.6C94.9288 146.171 95.1368 145.061 95.5528 144.272C95.9688 143.472 96.6034 143.072 97.4568 143.072C97.8408 143.072 98.1821 143.179 98.4808 143.392C98.7794 143.605 98.9821 143.92 99.0888 144.336H99.1688C99.2754 143.92 99.4834 143.605 99.7928 143.392C100.113 143.179 100.475 143.072 100.881 143.072C101.489 143.072 101.958 143.275 102.289 143.68C102.619 144.085 102.785 144.651 102.785 145.376V149.312C102.785 149.611 102.843 149.872 102.961 150.096C103.078 150.32 103.233 150.507 103.425 150.656C103.617 150.795 103.835 150.901 104.081 150.976C104.326 151.04 104.577 151.072 104.833 151.072C106.102 151.072 106.737 150.272 106.737 148.672V143.264H108.017V148.832C108.017 149.909 107.771 150.741 107.281 151.328C106.79 151.904 106.107 152.192 105.233 152.192C104.891 152.192 104.587 152.144 104.321 152.048C104.065 151.963 103.841 151.845 103.649 151.696C103.457 151.547 103.297 151.376 103.169 151.184C103.041 150.992 102.939 150.789 102.865 150.576H102.785V152H101.521V145.392C101.521 144.976 101.435 144.672 101.265 144.48C101.105 144.277 100.875 144.176 100.577 144.176C100.214 144.176 99.9528 144.309 99.7928 144.576C99.6434 144.832 99.5421 145.125 99.4888 145.456H98.6568C98.6354 145.296 98.6034 145.141 98.5608 144.992C98.5288 144.832 98.4701 144.693 98.3848 144.576C98.3101 144.448 98.2088 144.352 98.0807 144.288C97.9634 144.213 97.8141 144.176 97.6328 144.176C97.3874 144.176 97.1794 144.245 97.0088 144.384C96.8381 144.523 96.6994 144.715 96.5928 144.96C96.4968 145.205 96.4221 145.499 96.3688 145.84C96.3261 146.171 96.3048 146.533 96.3048 146.928V148.208C96.3048 149.115 96.4914 149.824 96.8648 150.336C97.2381 150.837 97.8354 151.088 98.6568 151.088C98.7741 151.088 98.8968 151.083 99.0248 151.072C99.1634 151.061 99.2968 151.045 99.4248 151.024L99.5848 152.096C99.3821 152.139 99.1794 152.165 98.9768 152.176C98.7848 152.187 98.5981 152.192 98.4168 152.192ZM113.537 152.192C112.609 152.192 111.884 151.899 111.361 151.312C110.838 150.725 110.577 149.899 110.577 148.832V143.264H111.857V148.672C111.857 150.293 112.55 151.104 113.937 151.104C114.204 151.104 114.47 151.067 114.737 150.992C115.004 150.917 115.238 150.805 115.441 150.656C115.644 150.507 115.809 150.32 115.937 150.096C116.065 149.872 116.129 149.611 116.129 149.312V143.264H117.409V150.88H118.433V152H117.489C117.062 152 116.748 151.872 116.545 151.616C116.353 151.36 116.241 151.035 116.209 150.64H116.145C115.974 151.131 115.654 151.515 115.185 151.792C114.726 152.059 114.177 152.192 113.537 152.192ZM123.871 146C123.871 144.773 123.236 144.16 121.967 144.16C121.455 144.16 121.034 144.272 120.703 144.496C120.383 144.72 120.111 145.019 119.887 145.392L119.103 144.704C119.348 144.235 119.706 143.845 120.175 143.536C120.655 143.227 121.279 143.072 122.047 143.072C123.05 143.072 123.818 143.317 124.351 143.808C124.884 144.299 125.151 144.992 125.151 145.888V152H123.871V146ZM13.1206 171.008L11.7606 170.432C11.7926 169.941 11.9099 169.493 12.1126 169.088C12.3259 168.672 12.6032 168.315 12.9446 168.016C13.2859 167.717 13.6806 167.488 14.1286 167.328C14.5872 167.157 15.0832 167.072 15.6166 167.072C16.8646 167.072 17.8192 167.387 18.4806 168.016C19.1419 168.635 19.4726 169.477 19.4726 170.544V176H18.1926V170.704C18.1926 169.872 17.9579 169.243 17.4886 168.816C17.0299 168.389 16.4219 168.176 15.6646 168.176C15.3339 168.176 15.0192 168.219 14.7206 168.304C14.4326 168.379 14.1712 168.491 13.9366 168.64C13.7019 168.779 13.4992 168.955 13.3286 169.168C13.1579 169.371 13.0352 169.6 12.9606 169.856L13.7606 170.176C13.9846 170.261 14.1446 170.373 14.2406 170.512C14.3472 170.64 14.4006 170.821 14.4006 171.056V176H13.1206V171.008ZM22.1178 167.264H23.3978V168.688H23.4778C23.5631 168.485 23.6698 168.288 23.7978 168.096C23.9365 167.893 24.1071 167.717 24.3098 167.568C24.5231 167.419 24.7685 167.301 25.0458 167.216C25.3338 167.12 25.6645 167.072 26.0378 167.072C26.9658 167.072 27.6911 167.365 28.2138 167.952C28.7471 168.528 29.0138 169.355 29.0138 170.432V176H27.7338V170.592C27.7338 168.971 27.0298 168.16 25.6218 168.16C25.3445 168.16 25.0725 168.197 24.8058 168.272C24.5391 168.347 24.2991 168.459 24.0858 168.608C23.8831 168.757 23.7178 168.944 23.5898 169.168C23.4618 169.392 23.3978 169.653 23.3978 169.952V176H22.1178V167.264ZM35.5371 176.192C35.1637 176.192 34.8384 176.144 34.5611 176.048C34.2837 175.963 34.0437 175.845 33.8411 175.696C33.6384 175.547 33.4677 175.376 33.3291 175.184C33.2011 174.992 33.0944 174.789 33.0091 174.576H32.9291V176H31.6491V167.264H32.9291V173.312C32.9291 173.611 32.9931 173.872 33.1211 174.096C33.2491 174.32 33.4144 174.507 33.6171 174.656C33.8304 174.805 34.0651 174.917 34.3211 174.992C34.5877 175.067 34.8597 175.104 35.1371 175.104C35.8411 175.104 36.3691 174.901 36.7211 174.496C37.0837 174.08 37.2651 173.472 37.2651 172.672V167.264H38.5451V172.832C38.5451 173.909 38.2784 174.741 37.7451 175.328C37.2117 175.904 36.4757 176.192 35.5371 176.192ZM41.6838 176.192C41.3425 176.192 41.0918 176.107 40.9318 175.936C40.7825 175.765 40.7078 175.541 40.7078 175.264V175.056C40.7078 174.779 40.7825 174.555 40.9318 174.384C41.0918 174.213 41.3425 174.128 41.6838 174.128C42.0251 174.128 42.2705 174.213 42.4198 174.384C42.5798 174.555 42.6598 174.779 42.6598 175.056V175.264C42.6598 175.541 42.5798 175.765 42.4198 175.936C42.2705 176.107 42.0251 176.192 41.6838 176.192ZM56.1764 176H48.8484V174.624L52.4964 171.264C53.0191 170.784 53.4564 170.277 53.8084 169.744C54.1604 169.2 54.3364 168.656 54.3364 168.112V167.92C54.3364 167.301 54.1658 166.8 53.8244 166.416C53.4831 166.032 52.9658 165.84 52.2724 165.84C51.9311 165.84 51.6324 165.888 51.3764 165.984C51.1204 166.08 50.8964 166.213 50.7044 166.384C50.5231 166.555 50.3684 166.757 50.2404 166.992C50.1231 167.216 50.0271 167.461 49.9524 167.728L48.7524 167.264C48.8591 166.933 49.0031 166.613 49.1844 166.304C49.3764 165.984 49.6111 165.701 49.8884 165.456C50.1764 165.211 50.5178 165.013 50.9124 164.864C51.3178 164.715 51.7924 164.64 52.3364 164.64C52.8804 164.64 53.3658 164.72 53.7924 164.88C54.2191 165.04 54.5764 165.264 54.8644 165.552C55.1524 165.84 55.3711 166.181 55.5204 166.576C55.6804 166.971 55.7604 167.408 55.7604 167.888C55.7604 168.325 55.6964 168.731 55.5684 169.104C55.4511 169.477 55.2858 169.835 55.0724 170.176C54.8591 170.507 54.5978 170.832 54.2884 171.152C53.9898 171.472 53.6644 171.792 53.3124 172.112L50.3044 174.816H56.1764V176ZM62.0422 176.192C60.7089 176.192 59.7329 175.685 59.1142 174.672C58.5062 173.659 58.2022 172.24 58.2022 170.416C58.2022 168.592 58.5062 167.173 59.1142 166.16C59.7329 165.147 60.7089 164.64 62.0422 164.64C63.3755 164.64 64.3462 165.147 64.9542 166.16C65.5729 167.173 65.8822 168.592 65.8822 170.416C65.8822 172.24 65.5729 173.659 64.9542 174.672C64.3462 175.685 63.3755 176.192 62.0422 176.192ZM62.0422 175.024C62.4795 175.024 62.8529 174.933 63.1622 174.752C63.4715 174.571 63.7222 174.315 63.9142 173.984C64.1062 173.653 64.2449 173.264 64.3302 172.816C64.4262 172.368 64.4742 171.872 64.4742 171.328V169.504C64.4742 168.96 64.4262 168.464 64.3302 168.016C64.2449 167.568 64.1062 167.179 63.9142 166.848C63.7222 166.517 63.4715 166.261 63.1622 166.08C62.8529 165.899 62.4795 165.808 62.0422 165.808C61.6049 165.808 61.2315 165.899 60.9222 166.08C60.6129 166.261 60.3622 166.517 60.1702 166.848C59.9782 167.179 59.8342 167.568 59.7382 168.016C59.6529 168.464 59.6102 168.96 59.6102 169.504V171.328C59.6102 171.872 59.6529 172.368 59.7382 172.816C59.8342 173.264 59.9782 173.653 60.1702 173.984C60.3622 174.315 60.6129 174.571 60.9222 174.752C61.2315 174.933 61.6049 175.024 62.0422 175.024ZM75.5452 176.192C74.4145 176.192 73.5239 175.888 72.8732 175.28C72.2225 174.661 71.8972 173.819 71.8972 172.752V167.264H73.1772V172.624C73.1772 173.424 73.3852 174.037 73.8012 174.464C74.2279 174.88 74.8092 175.088 75.5452 175.088C76.2812 175.088 76.8572 174.88 77.2732 174.464C77.6999 174.037 77.9132 173.424 77.9132 172.624V164.448H79.1932V172.752C79.1932 173.819 78.8679 174.661 78.2172 175.28C77.5665 175.888 76.6759 176.192 75.5452 176.192ZM70.9861 164.448H75.6261V163.28H76.8741V165.552H70.9861V164.448ZM85.5378 170.528C85.5378 170.005 85.6231 169.531 85.7938 169.104C85.9751 168.677 86.2311 168.315 86.5618 168.016C86.8925 167.707 87.2925 167.472 87.7618 167.312C88.2311 167.152 88.7591 167.072 89.3458 167.072C89.9218 167.072 90.4445 167.152 90.9138 167.312C91.3831 167.472 91.7831 167.707 92.1138 168.016C92.4445 168.315 92.7005 168.677 92.8818 169.104C93.0631 169.531 93.1538 170.005 93.1538 170.528V176H91.8738V170.656C91.8738 169.856 91.6498 169.243 91.2018 168.816C90.7645 168.389 90.1458 168.176 89.3458 168.176C88.5458 168.176 87.9218 168.389 87.4738 168.816C87.0365 169.243 86.8178 169.856 86.8178 170.656V172.736H86.8978C86.9725 172.533 87.0738 172.341 87.2018 172.16C87.3298 171.968 87.4898 171.803 87.6818 171.664C87.8738 171.515 88.0978 171.397 88.3538 171.312C88.6205 171.227 88.9245 171.184 89.2658 171.184H89.7938V172.464H89.0578C88.3751 172.464 87.8311 172.597 87.4258 172.864C87.0205 173.131 86.8178 173.499 86.8178 173.968V176H85.5378V170.528ZM98.7817 176.192C97.9817 176.192 97.299 176.048 96.7337 175.76C96.1684 175.472 95.6937 175.067 95.3097 174.544L96.2217 173.808C96.5524 174.256 96.931 174.587 97.3577 174.8C97.795 175.003 98.3017 175.104 98.8777 175.104C99.5177 175.104 100.003 174.981 100.334 174.736C100.675 174.491 100.846 174.128 100.846 173.648C100.846 173.243 100.712 172.928 100.446 172.704C100.19 172.469 99.7737 172.309 99.1977 172.224L98.4457 172.112C98.1044 172.059 97.7684 171.984 97.4377 171.888C97.107 171.792 96.803 171.653 96.5257 171.472C96.259 171.291 96.0404 171.051 95.8697 170.752C95.7097 170.453 95.6297 170.08 95.6297 169.632C95.6297 169.216 95.7044 168.848 95.8537 168.528C96.0137 168.208 96.2324 167.941 96.5097 167.728C96.7977 167.515 97.1337 167.355 97.5177 167.248C97.9017 167.131 98.3177 167.072 98.7657 167.072C99.523 167.072 100.152 167.2 100.654 167.456C101.166 167.701 101.592 168.027 101.934 168.432L101.118 169.2C100.883 168.923 100.568 168.683 100.174 168.48C99.779 168.267 99.299 168.16 98.7337 168.16C98.1364 168.16 97.6777 168.283 97.3577 168.528C97.0377 168.773 96.8777 169.115 96.8777 169.552C96.8777 170.021 97.0324 170.352 97.3417 170.544C97.651 170.736 98.0777 170.875 98.6217 170.96L99.3737 171.072C99.7684 171.136 100.131 171.221 100.462 171.328C100.792 171.435 101.075 171.584 101.31 171.776C101.555 171.968 101.747 172.208 101.886 172.496C102.024 172.773 102.094 173.115 102.094 173.52C102.094 174.352 101.795 175.008 101.198 175.488C100.611 175.957 99.8057 176.192 98.7817 176.192ZM100.742 165.552C100.262 165.552 99.9099 165.435 99.6859 165.2C99.4619 164.965 99.3499 164.656 99.3499 164.272V163.28H100.63V164.448H104.71V165.552H100.742ZM99.5899 161.44H100.79V160.864C100.79 160.373 100.507 160.128 99.9419 160.128H99.5899V159.312H100.374C100.875 159.312 101.243 159.413 101.478 159.616C101.702 159.819 101.814 160.08 101.814 160.4C101.814 160.581 101.771 160.768 101.686 160.96C101.601 161.152 101.467 161.291 101.286 161.376V161.44H103.766V162.272H99.5899V161.44ZM103.317 169.68H104.693L107.013 174.928H107.061C107.733 174.928 108.25 174.699 108.613 174.24C108.986 173.771 109.173 173.12 109.173 172.288V170.976C109.173 170.155 108.986 169.515 108.613 169.056C108.25 168.597 107.733 168.368 107.061 168.368H106.549V167.264H107.077C108.175 167.264 109.029 167.648 109.637 168.416C110.245 169.184 110.549 170.256 110.549 171.632C110.549 173.008 110.245 174.08 109.637 174.848C109.039 175.616 108.191 176 107.093 176H106.101L103.317 169.68ZM114.724 176C114.276 176 113.934 175.877 113.7 175.632C113.476 175.387 113.364 175.061 113.364 174.656V167.264H114.644V174.88H115.988V176H114.724ZM118.884 176C118.436 176 118.094 175.877 117.86 175.632C117.636 175.387 117.524 175.061 117.524 174.656V167.264H118.804V174.88H120.148V176H118.884ZM125.079 176.192C124.279 176.192 123.596 176.048 123.031 175.76C122.465 175.472 121.991 175.067 121.607 174.544L122.519 173.808C122.849 174.256 123.228 174.587 123.655 174.8C124.092 175.003 124.599 175.104 125.175 175.104C125.815 175.104 126.3 174.981 126.631 174.736C126.972 174.491 127.143 174.128 127.143 173.648C127.143 173.243 127.009 172.928 126.743 172.704C126.487 172.469 126.071 172.309 125.495 172.224L124.743 172.112C124.401 172.059 124.065 171.984 123.735 171.888C123.404 171.792 123.1 171.653 122.823 171.472C122.556 171.291 122.337 171.051 122.167 170.752C122.007 170.453 121.927 170.08 121.927 169.632C121.927 169.216 122.001 168.848 122.151 168.528C122.311 168.208 122.529 167.941 122.807 167.728C123.095 167.515 123.431 167.355 123.815 167.248C124.199 167.131 124.615 167.072 125.063 167.072C125.82 167.072 126.449 167.2 126.951 167.456C127.463 167.701 127.889 168.027 128.231 168.432L127.415 169.2C127.18 168.923 126.865 168.683 126.471 168.48C126.076 168.267 125.596 168.16 125.031 168.16C124.433 168.16 123.975 168.283 123.655 168.528C123.335 168.773 123.175 169.115 123.175 169.552C123.175 170.021 123.329 170.352 123.639 170.544C123.948 170.736 124.375 170.875 124.919 170.96L125.671 171.072C126.065 171.136 126.428 171.221 126.759 171.328C127.089 171.435 127.372 171.584 127.607 171.776C127.852 171.968 128.044 172.208 128.183 172.496C128.321 172.773 128.391 173.115 128.391 173.52C128.391 174.352 128.092 175.008 127.495 175.488C126.908 175.957 126.103 176.192 125.079 176.192ZM131.386 171.008L130.026 170.432C130.058 169.941 130.176 169.493 130.378 169.088C130.592 168.672 130.869 168.315 131.21 168.016C131.552 167.717 131.946 167.488 132.394 167.328C132.853 167.157 133.349 167.072 133.882 167.072C135.13 167.072 136.085 167.387 136.746 168.016C137.408 168.635 137.738 169.477 137.738 170.544V176H136.458V170.704C136.458 169.872 136.224 169.243 135.754 168.816C135.296 168.389 134.688 168.176 133.93 168.176C133.6 168.176 133.285 168.219 132.986 168.304C132.698 168.379 132.437 168.491 132.202 168.64C131.968 168.779 131.765 168.955 131.594 169.168C131.424 169.371 131.301 169.6 131.226 169.856L132.026 170.176C132.25 170.261 132.41 170.373 132.506 170.512C132.613 170.64 132.666 170.821 132.666 171.056V176H131.386V171.008Z" fill="black"/>
<rect width="150" height="89" transform="translate(164 104)" fill="white"/>
<rect x="222.214" y="122.5" width="4" height="8.82143" transform="rotate(90 222.214 122.5)" fill="black"/>
<path d="M222.214 122.5L222.214 126.5L226.833 125.139C227.478 124.949 227.478 124.051 226.833 123.861L222.214 122.5Z" fill="#E8E4D8"/>
<path fill-rule="evenodd" clip-rule="evenodd" d="M222.214 122.5L226.833 123.861C227.478 124.051 227.478 124.949 226.833 125.139L222.214 126.5L222.214 122.5ZM222.893 123.396L226.639 124.5L222.893 125.604L222.893 123.396Z" fill="black"/>
<path d="M224.929 123.833L224.929 125.167L226.964 124.5L224.929 123.833Z" fill="black"/>
<rect width="4" height="1.35714" transform="matrix(-4.37114e-08 1 1 4.37114e-08 212.036 122.5)" fill="#E8E4D8"/>
<rect width="0.666667" height="1.35714" transform="matrix(-4.37114e-08 1 1 4.37114e-08 212.036 122.5)" fill="black"/>
<rect width="0.666667" height="1.35714" transform="matrix(-4.37114e-08 1 1 4.37114e-08 212.036 125.833)" fill="black"/>
<path d="M212.036 122.5L212.036 126.5L212 126.5C210.895 126.5 210 125.605 210 124.5C210 123.395 210.895 122.5 212 122.5L212.036 122.5Z" fill="black"/>
<path d="M241.925 129H235.009V127.082L238.019 124.506C238.29 124.273 238.518 124.063 238.705 123.876C238.892 123.68 239.041 123.493 239.153 123.316C239.274 123.129 239.358 122.947 239.405 122.77C239.461 122.593 239.489 122.401 239.489 122.196V122C239.489 121.813 239.452 121.65 239.377 121.51C239.302 121.37 239.204 121.253 239.083 121.16C238.962 121.067 238.822 120.997 238.663 120.95C238.514 120.903 238.36 120.88 238.201 120.88C237.968 120.88 237.762 120.917 237.585 120.992C237.417 121.067 237.268 121.169 237.137 121.3C237.016 121.421 236.913 121.566 236.829 121.734C236.745 121.893 236.68 122.065 236.633 122.252L234.799 121.552C234.911 121.216 235.065 120.899 235.261 120.6C235.457 120.292 235.7 120.026 235.989 119.802C236.288 119.569 236.638 119.387 237.039 119.256C237.44 119.125 237.893 119.06 238.397 119.06C238.929 119.06 239.4 119.135 239.811 119.284C240.222 119.433 240.567 119.639 240.847 119.9C241.136 120.161 241.356 120.474 241.505 120.838C241.654 121.193 241.729 121.58 241.729 122C241.729 122.42 241.659 122.803 241.519 123.148C241.379 123.493 241.188 123.82 240.945 124.128C240.712 124.427 240.436 124.711 240.119 124.982C239.802 125.253 239.47 125.528 239.125 125.808L237.305 127.236H241.925V129ZM249.913 121.062H245.475L245.265 124.156H245.377C245.471 123.923 245.573 123.713 245.685 123.526C245.807 123.33 245.947 123.167 246.105 123.036C246.264 122.896 246.455 122.789 246.679 122.714C246.903 122.639 247.169 122.602 247.477 122.602C247.897 122.602 248.289 122.672 248.653 122.812C249.017 122.952 249.335 123.157 249.605 123.428C249.876 123.689 250.091 124.016 250.249 124.408C250.408 124.791 250.487 125.225 250.487 125.71C250.487 126.205 250.403 126.667 250.235 127.096C250.077 127.516 249.834 127.88 249.507 128.188C249.19 128.496 248.798 128.739 248.331 128.916C247.865 129.084 247.333 129.168 246.735 129.168C246.259 129.168 245.839 129.117 245.475 129.014C245.111 128.911 244.789 128.776 244.509 128.608C244.229 128.431 243.987 128.23 243.781 128.006C243.576 127.782 243.399 127.544 243.249 127.292L244.775 126.088C244.99 126.471 245.247 126.797 245.545 127.068C245.844 127.329 246.245 127.46 246.749 127.46C247.253 127.46 247.631 127.315 247.883 127.026C248.145 126.737 248.275 126.354 248.275 125.878V125.766C248.275 125.318 248.145 124.963 247.883 124.702C247.622 124.441 247.263 124.31 246.805 124.31C246.423 124.31 246.105 124.389 245.853 124.548C245.611 124.697 245.424 124.847 245.293 124.996L243.571 124.758L243.935 119.228H249.913V121.062ZM255.256 129.168C254.677 129.168 254.159 129.079 253.702 128.902C253.245 128.715 252.857 128.454 252.54 128.118C252.232 127.773 251.994 127.362 251.826 126.886C251.667 126.41 251.588 125.878 251.588 125.29C251.588 124.609 251.691 123.965 251.896 123.358C252.111 122.742 252.381 122.177 252.708 121.664C253.044 121.141 253.417 120.675 253.828 120.264C254.248 119.853 254.668 119.508 255.088 119.228H257.986C257.389 119.657 256.852 120.068 256.376 120.46C255.9 120.843 255.485 121.23 255.13 121.622C254.785 122.014 254.495 122.415 254.262 122.826C254.038 123.227 253.879 123.661 253.786 124.128L253.912 124.17C253.996 123.983 254.094 123.801 254.206 123.624C254.327 123.447 254.472 123.293 254.64 123.162C254.817 123.022 255.023 122.91 255.256 122.826C255.489 122.742 255.76 122.7 256.068 122.7C256.469 122.7 256.843 122.775 257.188 122.924C257.543 123.064 257.846 123.265 258.098 123.526C258.359 123.787 258.56 124.109 258.7 124.492C258.849 124.865 258.924 125.281 258.924 125.738C258.924 126.242 258.835 126.704 258.658 127.124C258.49 127.544 258.243 127.908 257.916 128.216C257.599 128.515 257.216 128.748 256.768 128.916C256.32 129.084 255.816 129.168 255.256 129.168ZM255.256 127.53C255.723 127.53 256.087 127.404 256.348 127.152C256.609 126.891 256.74 126.522 256.74 126.046V125.794C256.74 125.318 256.609 124.954 256.348 124.702C256.087 124.441 255.723 124.31 255.256 124.31C254.789 124.31 254.425 124.441 254.164 124.702C253.903 124.954 253.772 125.318 253.772 125.794V126.046C253.772 126.522 253.903 126.891 254.164 127.152C254.425 127.404 254.789 127.53 255.256 127.53ZM260.711 129V127.306H263.343V120.754H263.217L261.229 123.358L259.885 122.308L262.223 119.228H265.443V127.306H267.515V129H260.711Z" fill="black"/>
<path d="M179.451 152.192C178.321 152.192 177.43 151.888 176.779 151.28C176.129 150.661 175.803 149.819 175.803 148.752V143.264H177.083V148.624C177.083 149.424 177.291 150.037 177.707 150.464C178.134 150.88 178.715 151.088 179.451 151.088C180.187 151.088 180.763 150.88 181.179 150.464C181.606 150.037 181.819 149.424 181.819 148.624V140.448H183.099V148.752C183.099 149.819 182.774 150.661 182.123 151.28C181.473 151.888 180.582 152.192 179.451 152.192ZM188.735 152.192C187.935 152.192 187.252 152.048 186.687 151.76C186.121 151.472 185.647 151.067 185.263 150.544L186.175 149.808C186.505 150.256 186.884 150.587 187.311 150.8C187.748 151.003 188.255 151.104 188.831 151.104C189.471 151.104 189.956 150.981 190.287 150.736C190.628 150.491 190.799 150.128 190.799 149.648C190.799 149.243 190.665 148.928 190.399 148.704C190.143 148.469 189.727 148.309 189.151 148.224L188.399 148.112C188.057 148.059 187.721 147.984 187.391 147.888C187.06 147.792 186.756 147.653 186.479 147.472C186.212 147.291 185.993 147.051 185.823 146.752C185.663 146.453 185.583 146.08 185.583 145.632C185.583 145.216 185.657 144.848 185.807 144.528C185.967 144.208 186.185 143.941 186.463 143.728C186.751 143.515 187.087 143.355 187.471 143.248C187.855 143.131 188.271 143.072 188.719 143.072C189.476 143.072 190.105 143.2 190.607 143.456C191.119 143.701 191.545 144.027 191.887 144.432L191.071 145.2C190.836 144.923 190.521 144.683 190.127 144.48C189.732 144.267 189.252 144.16 188.687 144.16C188.089 144.16 187.631 144.283 187.311 144.528C186.991 144.773 186.831 145.115 186.831 145.552C186.831 146.021 186.985 146.352 187.295 146.544C187.604 146.736 188.031 146.875 188.575 146.96L189.327 147.072C189.721 147.136 190.084 147.221 190.415 147.328C190.745 147.435 191.028 147.584 191.263 147.776C191.508 147.968 191.7 148.208 191.839 148.496C191.977 148.773 192.047 149.115 192.047 149.52C192.047 150.352 191.748 151.008 191.151 151.488C190.564 151.957 189.759 152.192 188.735 152.192ZM190.695 141.552C190.215 141.552 189.863 141.435 189.639 141.2C189.415 140.965 189.303 140.656 189.303 140.272V139.28H190.583V140.448H194.663V141.552H190.695ZM197.826 152.192C196.696 152.192 195.805 151.888 195.154 151.28C194.504 150.661 194.178 149.819 194.178 148.752V143.264H195.458V148.624C195.458 149.424 195.666 150.037 196.082 150.464C196.509 150.88 197.09 151.088 197.826 151.088C198.562 151.088 199.138 150.88 199.554 150.464C199.981 150.037 200.194 149.424 200.194 148.624V143.264H201.474V148.752C201.474 149.819 201.149 150.661 200.498 151.28C199.848 151.888 198.957 152.192 197.826 152.192ZM207.686 152.192C206.555 152.192 205.664 151.888 205.014 151.28C204.363 150.661 204.038 149.819 204.038 148.752V143.264H205.318V148.624C205.318 149.424 205.526 150.037 205.942 150.464C206.368 150.88 206.95 151.088 207.686 151.088C208.422 151.088 208.998 150.88 209.414 150.464C209.84 150.037 210.054 149.424 210.054 148.624V140.448H211.334V148.752C211.334 149.819 211.008 150.661 210.358 151.28C209.707 151.888 208.816 152.192 207.686 152.192ZM216.969 152.192C216.169 152.192 215.487 152.048 214.921 151.76C214.356 151.472 213.881 151.067 213.497 150.544L214.409 149.808C214.74 150.256 215.119 150.587 215.545 150.8C215.983 151.003 216.489 151.104 217.065 151.104C217.705 151.104 218.191 150.981 218.521 150.736C218.863 150.491 219.033 150.128 219.033 149.648C219.033 149.243 218.9 148.928 218.633 148.704C218.377 148.469 217.961 148.309 217.385 148.224L216.633 148.112C216.292 148.059 215.956 147.984 215.625 147.888C215.295 147.792 214.991 147.653 214.713 147.472C214.447 147.291 214.228 147.051 214.057 146.752C213.897 146.453 213.817 146.08 213.817 145.632C213.817 145.216 213.892 144.848 214.041 144.528C214.201 144.208 214.42 143.941 214.697 143.728C214.985 143.515 215.321 143.355 215.705 143.248C216.089 143.131 216.505 143.072 216.953 143.072C217.711 143.072 218.34 143.2 218.841 143.456C219.353 143.701 219.78 144.027 220.121 144.432L219.305 145.2C219.071 144.923 218.756 144.683 218.361 144.48C217.967 144.267 217.487 144.16 216.921 144.16C216.324 144.16 215.865 144.283 215.545 144.528C215.225 144.773 215.065 145.115 215.065 145.552C215.065 146.021 215.22 146.352 215.529 146.544C215.839 146.736 216.265 146.875 216.809 146.96L217.561 147.072C217.956 147.136 218.319 147.221 218.649 147.328C218.98 147.435 219.263 147.584 219.497 147.776C219.743 147.968 219.935 148.208 220.073 148.496C220.212 148.773 220.281 149.115 220.281 149.52C220.281 150.352 219.983 151.008 219.385 151.488C218.799 151.957 217.993 152.192 216.969 152.192ZM219.057 154.832H218.001V153.808H219.361C219.681 153.808 219.916 153.893 220.065 154.064C220.204 154.235 220.273 154.464 220.273 154.752V157.504H219.057V154.832ZM221.504 145.68H222.88L225.2 150.928H225.248C225.92 150.928 226.438 150.699 226.8 150.24C227.174 149.771 227.36 149.12 227.36 148.288V146.976C227.36 146.155 227.174 145.515 226.8 145.056C226.438 144.597 225.92 144.368 225.248 144.368H224.736V143.264H225.264C226.363 143.264 227.216 143.648 227.824 144.416C228.432 145.184 228.736 146.256 228.736 147.632C228.736 149.008 228.432 150.08 227.824 150.848C227.227 151.616 226.379 152 225.28 152H224.288L221.504 145.68ZM232.911 152C232.463 152 232.122 151.877 231.887 151.632C231.663 151.387 231.551 151.061 231.551 150.656V143.264H232.831V150.88H234.175V152H232.911ZM237.071 152C236.623 152 236.282 151.877 236.047 151.632C235.823 151.387 235.711 151.061 235.711 150.656V143.264H236.991V150.88H238.335V152H237.071ZM242.434 152.192C241.517 152.192 240.871 151.803 240.498 151.024C240.125 150.235 239.938 149.115 239.938 147.664C239.938 146.213 240.215 145.12 240.77 144.384C241.325 143.637 242.098 143.264 243.09 143.264H243.506V144.368H243.154C242.557 144.368 242.098 144.571 241.778 144.976C241.458 145.381 241.298 146.043 241.298 146.96V148.464C241.298 148.859 241.314 149.221 241.346 149.552C241.378 149.872 241.442 150.149 241.538 150.384C241.634 150.608 241.767 150.784 241.938 150.912C242.109 151.029 242.333 151.088 242.61 151.088C242.962 151.088 243.25 150.955 243.474 150.688C243.698 150.421 243.81 150 243.81 149.424V147.92H245.074V149.424C245.074 150 245.175 150.421 245.378 150.688C245.591 150.955 245.879 151.088 246.242 151.088C246.583 151.088 246.85 150.976 247.042 150.752C247.245 150.517 247.346 150.176 247.346 149.728V143.264H248.626V149.856C248.626 150.571 248.439 151.141 248.066 151.568C247.693 151.984 247.181 152.192 246.53 152.192C245.922 152.192 245.442 152.021 245.09 151.68C244.738 151.328 244.535 150.896 244.482 150.384H244.402C244.349 150.896 244.151 151.328 243.81 151.68C243.469 152.021 243.01 152.192 242.434 152.192ZM254.138 152.192C253.21 152.192 252.485 151.899 251.962 151.312C251.44 150.725 251.178 149.899 251.178 148.832V143.264H252.458V148.672C252.458 150.293 253.152 151.104 254.538 151.104C254.805 151.104 255.072 151.067 255.338 150.992C255.605 150.917 255.84 150.805 256.042 150.656C256.245 150.507 256.41 150.32 256.538 150.096C256.666 149.872 256.73 149.611 256.73 149.312V143.264H258.01V150.88H259.034V152H258.09C257.664 152 257.349 151.872 257.146 151.616C256.954 151.36 256.842 151.035 256.81 150.64H256.746C256.576 151.131 256.256 151.515 255.786 151.792C255.328 152.059 254.778 152.192 254.138 152.192ZM260.469 143.264H261.733L262.309 147.392L262.597 150.608H262.661L263.477 147.392L264.661 143.264H265.813L267.013 147.392L267.813 150.608H267.893L268.181 147.392L268.741 143.264H270.021L268.741 152H267.285L265.877 147.152L265.253 144.704H265.205L264.581 147.152L263.173 152H261.749L260.469 143.264ZM268.679 141.552C268.199 141.552 267.847 141.435 267.623 141.2C267.399 140.965 267.287 140.656 267.287 140.272V139.28H268.567V140.448H272.647V141.552H268.679ZM275.456 152.192C274.325 152.192 273.461 151.792 272.864 150.992C272.266 150.181 271.968 149.051 271.968 147.6C271.968 146.171 272.176 145.061 272.592 144.272C273.008 143.472 273.642 143.072 274.496 143.072C274.88 143.072 275.221 143.179 275.52 143.392C275.818 143.605 276.021 143.92 276.128 144.336H276.208C276.314 143.92 276.522 143.605 276.832 143.392C277.152 143.179 277.514 143.072 277.92 143.072C278.528 143.072 278.997 143.275 279.328 143.68C279.658 144.085 279.824 144.651 279.824 145.376V149.312C279.824 149.611 279.882 149.872 280 150.096C280.117 150.32 280.272 150.507 280.464 150.656C280.656 150.795 280.874 150.901 281.12 150.976C281.365 151.04 281.616 151.072 281.872 151.072C283.141 151.072 283.776 150.272 283.776 148.672V143.264H285.056V148.832C285.056 149.909 284.81 150.741 284.32 151.328C283.829 151.904 283.146 152.192 282.272 152.192C281.93 152.192 281.626 152.144 281.36 152.048C281.104 151.963 280.88 151.845 280.688 151.696C280.496 151.547 280.336 151.376 280.208 151.184C280.08 150.992 279.978 150.789 279.904 150.576H279.824V152H278.56V145.392C278.56 144.976 278.474 144.672 278.304 144.48C278.144 144.277 277.914 144.176 277.616 144.176C277.253 144.176 276.992 144.309 276.832 144.576C276.682 144.832 276.581 145.125 276.528 145.456H275.696C275.674 145.296 275.642 145.141 275.6 144.992C275.568 144.832 275.509 144.693 275.424 144.576C275.349 144.448 275.248 144.352 275.12 144.288C275.002 144.213 274.853 144.176 274.672 144.176C274.426 144.176 274.218 144.245 274.048 144.384C273.877 144.523 273.738 144.715 273.632 144.96C273.536 145.205 273.461 145.499 273.408 145.84C273.365 146.171 273.344 146.533 273.344 146.928V148.208C273.344 149.115 273.53 149.824 273.904 150.336C274.277 150.837 274.874 151.088 275.696 151.088C275.813 151.088 275.936 151.083 276.064 151.072C276.202 151.061 276.336 151.045 276.464 151.024L276.624 152.096C276.421 152.139 276.218 152.165 276.016 152.176C275.824 152.187 275.637 152.192 275.456 152.192ZM290.576 152.192C289.648 152.192 288.923 151.899 288.4 151.312C287.877 150.725 287.616 149.899 287.616 148.832V143.264H288.896V148.672C288.896 150.293 289.589 151.104 290.976 151.104C291.243 151.104 291.509 151.067 291.776 150.992C292.043 150.917 292.277 150.805 292.48 150.656C292.683 150.507 292.848 150.32 292.976 150.096C293.104 149.872 293.168 149.611 293.168 149.312V143.264H294.448V150.88H295.472V152H294.528C294.101 152 293.787 151.872 293.584 151.616C293.392 151.36 293.28 151.035 293.248 150.64H293.184C293.013 151.131 292.693 151.515 292.224 151.792C291.765 152.059 291.216 152.192 290.576 152.192ZM300.91 146C300.91 144.773 300.276 144.16 299.006 144.16C298.494 144.16 298.073 144.272 297.742 144.496C297.422 144.72 297.15 145.019 296.926 145.392L296.142 144.704C296.388 144.235 296.745 143.845 297.214 143.536C297.694 143.227 298.318 143.072 299.086 143.072C300.089 143.072 300.857 143.317 301.39 143.808C301.924 144.299 302.19 144.992 302.19 145.888V152H300.91V146ZM192.488 171.008L191.128 170.432C191.16 169.941 191.277 169.493 191.48 169.088C191.693 168.672 191.97 168.315 192.312 168.016C192.653 167.717 193.048 167.488 193.496 167.328C193.954 167.157 194.45 167.072 194.984 167.072C196.232 167.072 197.186 167.387 197.848 168.016C198.509 168.635 198.84 169.477 198.84 170.544V176H197.56V170.704C197.56 169.872 197.325 169.243 196.856 168.816C196.397 168.389 195.789 168.176 195.032 168.176C194.701 168.176 194.386 168.219 194.088 168.304C193.8 168.379 193.538 168.491 193.304 168.64C193.069 168.779 192.866 168.955 192.696 169.168C192.525 169.371 192.402 169.6 192.328 169.856L193.128 170.176C193.352 170.261 193.512 170.373 193.608 170.512C193.714 170.64 193.768 170.821 193.768 171.056V176H192.488V171.008ZM201.485 167.264H202.765V168.688H202.845C202.93 168.485 203.037 168.288 203.165 168.096C203.304 167.893 203.474 167.717 203.677 167.568C203.89 167.419 204.136 167.301 204.413 167.216C204.701 167.12 205.032 167.072 205.405 167.072C206.333 167.072 207.058 167.365 207.581 167.952C208.114 168.528 208.381 169.355 208.381 170.432V176H207.101V170.592C207.101 168.971 206.397 168.16 204.989 168.16C204.712 168.16 204.44 168.197 204.173 168.272C203.906 168.347 203.666 168.459 203.453 168.608C203.25 168.757 203.085 168.944 202.957 169.168C202.829 169.392 202.765 169.653 202.765 169.952V176H201.485V167.264ZM214.904 176.192C214.531 176.192 214.206 176.144 213.928 176.048C213.651 175.963 213.411 175.845 213.208 175.696C213.006 175.547 212.835 175.376 212.696 175.184C212.568 174.992 212.462 174.789 212.376 174.576H212.296V176H211.016V167.264H212.296V173.312C212.296 173.611 212.36 173.872 212.488 174.096C212.616 174.32 212.782 174.507 212.984 174.656C213.198 174.805 213.432 174.917 213.688 174.992C213.955 175.067 214.227 175.104 214.504 175.104C215.208 175.104 215.736 174.901 216.088 174.496C216.451 174.08 216.632 173.472 216.632 172.672V167.264H217.912V172.832C217.912 173.909 217.646 174.741 217.112 175.328C216.579 175.904 215.843 176.192 214.904 176.192ZM221.051 176.192C220.71 176.192 220.459 176.107 220.299 175.936C220.15 175.765 220.075 175.541 220.075 175.264V175.056C220.075 174.779 220.15 174.555 220.299 174.384C220.459 174.213 220.71 174.128 221.051 174.128C221.392 174.128 221.638 174.213 221.787 174.384C221.947 174.555 222.027 174.779 222.027 175.056V175.264C222.027 175.541 221.947 175.765 221.787 175.936C221.638 176.107 221.392 176.192 221.051 176.192ZM235.544 176H228.216V174.624L231.864 171.264C232.386 170.784 232.824 170.277 233.176 169.744C233.528 169.2 233.704 168.656 233.704 168.112V167.92C233.704 167.301 233.533 166.8 233.192 166.416C232.85 166.032 232.333 165.84 231.64 165.84C231.298 165.84 231 165.888 230.744 165.984C230.488 166.08 230.264 166.213 230.072 166.384C229.89 166.555 229.736 166.757 229.608 166.992C229.49 167.216 229.394 167.461 229.32 167.728L228.12 167.264C228.226 166.933 228.37 166.613 228.552 166.304C228.744 165.984 228.978 165.701 229.256 165.456C229.544 165.211 229.885 165.013 230.28 164.864C230.685 164.715 231.16 164.64 231.704 164.64C232.248 164.64 232.733 164.72 233.16 164.88C233.586 165.04 233.944 165.264 234.232 165.552C234.52 165.84 234.738 166.181 234.888 166.576C235.048 166.971 235.128 167.408 235.128 167.888C235.128 168.325 235.064 168.731 234.936 169.104C234.818 169.477 234.653 169.835 234.44 170.176C234.226 170.507 233.965 170.832 233.656 171.152C233.357 171.472 233.032 171.792 232.68 172.112L229.672 174.816H235.544V176ZM241.409 176.192C240.076 176.192 239.1 175.685 238.481 174.672C237.873 173.659 237.569 172.24 237.569 170.416C237.569 168.592 237.873 167.173 238.481 166.16C239.1 165.147 240.076 164.64 241.409 164.64C242.743 164.64 243.713 165.147 244.321 166.16C244.94 167.173 245.249 168.592 245.249 170.416C245.249 172.24 244.94 173.659 244.321 174.672C243.713 175.685 242.743 176.192 241.409 176.192ZM241.409 175.024C241.847 175.024 242.22 174.933 242.529 174.752C242.839 174.571 243.089 174.315 243.281 173.984C243.473 173.653 243.612 173.264 243.697 172.816C243.793 172.368 243.841 171.872 243.841 171.328V169.504C243.841 168.96 243.793 168.464 243.697 168.016C243.612 167.568 243.473 167.179 243.281 166.848C243.089 166.517 242.839 166.261 242.529 166.08C242.22 165.899 241.847 165.808 241.409 165.808C240.972 165.808 240.599 165.899 240.289 166.08C239.98 166.261 239.729 166.517 239.537 166.848C239.345 167.179 239.201 167.568 239.105 168.016C239.02 168.464 238.977 168.96 238.977 169.504V171.328C238.977 171.872 239.02 172.368 239.105 172.816C239.201 173.264 239.345 173.653 239.537 173.984C239.729 174.315 239.98 174.571 240.289 174.752C240.599 174.933 240.972 175.024 241.409 175.024ZM254.912 176.192C253.782 176.192 252.891 175.888 252.24 175.28C251.59 174.661 251.264 173.819 251.264 172.752V167.264H252.544V172.624C252.544 173.424 252.752 174.037 253.168 174.464C253.595 174.88 254.176 175.088 254.912 175.088C255.648 175.088 256.224 174.88 256.64 174.464C257.067 174.037 257.28 173.424 257.28 172.624V164.448H258.56V172.752C258.56 173.819 258.235 174.661 257.584 175.28C256.934 175.888 256.043 176.192 254.912 176.192ZM250.353 164.448H254.993V163.28H256.241V165.552H250.353V164.448ZM266.857 176C266.398 176 266.052 175.877 265.817 175.632C265.593 175.387 265.481 175.061 265.481 174.656V167.696C265.481 167.44 265.518 167.211 265.593 167.008C265.668 166.805 265.758 166.624 265.865 166.464C265.982 166.304 266.11 166.155 266.249 166.016C266.388 165.877 266.521 165.744 266.649 165.616C266.83 165.435 266.99 165.243 267.129 165.04C267.268 164.827 267.337 164.576 267.337 164.288C267.337 163.893 267.22 163.6 266.985 163.408C266.75 163.205 266.446 163.104 266.073 163.104C265.241 163.104 264.702 163.547 264.457 164.432L263.465 163.856C263.678 163.28 264.004 162.832 264.441 162.512C264.889 162.192 265.47 162.032 266.185 162.032C266.58 162.032 266.926 162.085 267.225 162.192C267.524 162.299 267.774 162.448 267.977 162.64C268.18 162.832 268.334 163.061 268.441 163.328C268.548 163.584 268.601 163.861 268.601 164.16C268.601 164.395 268.569 164.608 268.505 164.8C268.452 164.981 268.377 165.152 268.281 165.312C268.185 165.472 268.078 165.616 267.961 165.744C267.844 165.872 267.726 166 267.609 166.128C267.396 166.341 267.198 166.565 267.017 166.8C266.846 167.035 266.761 167.317 266.761 167.648V174.88H268.105V176H266.857ZM270.048 167.264H271.328V170.064L273.712 169.712C274.181 169.637 274.565 169.509 274.864 169.328C275.162 169.136 275.338 168.805 275.392 168.336L275.52 167.264H276.864L276.736 168.368C276.682 168.869 276.496 169.269 276.176 169.568C275.856 169.867 275.445 170.053 274.944 170.128V170.208C276 170.496 276.592 171.312 276.72 172.656L277.04 176H275.696L275.392 172.576C275.36 172.309 275.301 172.059 275.216 171.824C275.13 171.589 275.002 171.392 274.832 171.232C274.661 171.061 274.442 170.944 274.176 170.88C273.92 170.805 273.605 170.795 273.232 170.848L271.328 171.12V176H270.048V167.264ZM283.373 176.192C283 176.192 282.674 176.144 282.397 176.048C282.12 175.963 281.88 175.845 281.677 175.696C281.474 175.547 281.304 175.376 281.165 175.184C281.037 174.992 280.93 174.789 280.845 174.576H280.765V176H279.485V167.264H280.765V173.312C280.765 173.611 280.829 173.872 280.957 174.096C281.085 174.32 281.25 174.507 281.453 174.656C281.666 174.805 281.901 174.917 282.157 174.992C282.424 175.067 282.696 175.104 282.973 175.104C283.677 175.104 284.205 174.901 284.557 174.496C284.92 174.08 285.101 173.472 285.101 172.672V167.264H286.381V172.832C286.381 173.909 286.114 174.741 285.581 175.328C285.048 175.904 284.312 176.192 283.373 176.192ZM285.127 162.592H286.375V165.552H285.127V162.592Z" fill="black"/>
</svg>
